<svg xmlns="http://www.w3.org/2000/svg" width="45" height="45" viewBox="0 0 45 45">
    <defs>
        <clipPath id="clip-path">
            <path id="Path_55" fill="none" d="M0-462.486h29.384v-28.494H0z" clip-rule="evenodd" data-name="Path 55" transform="translate(0 490.98)"/>
        </clipPath>
        <style>
            .cls-4{fill:#e94444}.cls-5{fill:#d93131}.cls-6{fill:#fdd69a}.cls-7{fill:#fbcc7e}
        </style>
    </defs>
    <g id="Group_3071" data-name="Group 3071" transform="translate(-14.611)">
        <g id="Group_1862" data-name="Group 1862" transform="translate(-.389)">
            <g id="Ellipse_476" fill="#003b71" stroke="#003b71" stroke-width="3px" data-name="Ellipse 476" transform="rotate(90 30 30)">
                <circle cx="22.5" cy="22.5" r="22.5" stroke="none"/>
                <circle cx="22.5" cy="22.5" r="21" fill="none"/>
            </g>
        </g>
        <g id="Group_2030" data-name="Group 2030" transform="translate(19.125 8)">
            <g id="Group_5" clip-path="url(#clip-path)" data-name="Group 5" transform="translate(3.486)">
                <path id="Path_46" d="M105.2-421.152a.87.87 0 0 1 .074 1.13c-.906 1.193-.509 1.947-1.86 3.29-1.548 1.539-2.3.774-3.843 2.313s-.8 2.3-2.349 3.844-2.295.774-3.843 2.313-.8 2.3-2.349 3.844c-1.351 1.343-2.092.931-3.287 1.828a.85.85 0 0 1-1.118-.091l-5.217-5.344a.87.87 0 0 1 .151-1.339c1.051-.669 1.779-.406 3.031-1.651 1.548-1.539.8-2.3 2.349-3.843s2.295-.774 3.843-2.313.8-2.3 2.349-3.844 2.3-.774 3.843-2.313c1.252-1.245 1-1.984 1.681-3.035a.853.853 0 0 1 1.329-.132z" class="cls-4" data-name="Path 46" transform="translate(-76.493 430.481)"/>
                <path id="Path_47" d="M181.771-417.21c-.906 1.194-.509 1.947-1.86 3.291-1.549 1.539-2.3.774-3.843 2.313s-.8 2.3-2.349 3.843-2.295.774-3.843 2.313-.8 2.3-2.349 3.844c-1.351 1.343-2.092.931-3.287 1.828a.849.849 0 0 1-1.118-.091l-.8-.816a.848.848 0 0 0 1.023.007c1.2-.9 1.937-.484 3.287-1.828 1.548-1.539.8-2.3 2.349-3.844s2.295-.774 3.843-2.313.8-2.3 2.349-3.844 2.295-.774 3.843-2.313c1.351-1.343.954-2.1 1.86-3.291a.869.869 0 0 0-.074-1.13l-4.421-4.528a.836.836 0 0 1 .1.086l5.217 5.343a.87.87 0 0 1 .073 1.13z" class="cls-5" data-name="Path 47" transform="translate(-152.99 427.669)"/>
                <path id="Path_48" d="M130.489-395.428c-1.548 1.539-.8 2.3-2.349 3.844s-2.295.774-3.843 2.313-.8 2.3-2.349 3.844-2.295.774-3.843 2.313-.8 2.3-2.349 3.844-2.295.774-3.843 2.313l-2.347-2.4c1.548-1.539 2.295-.774 3.843-2.313s.8-2.3 2.349-3.844 2.295-.774 3.843-2.313.8-2.3 2.349-3.844 2.3-.774 3.843-2.313.8-2.3 2.349-3.844z" class="cls-6" data-name="Path 48" transform="translate(-103.266 403.238)"/>
                <path id="Path_49" d="M152.288-395.424c-1.549 1.539-.8 2.3-2.349 3.843s-2.3.774-3.843 2.313-.8 2.3-2.349 3.844-2.295.774-3.843 2.313-.8 2.3-2.349 3.844-2.295.773-3.843 2.313L132.7-378c1.542-1.529 2.29-.769 3.834-2.305s.8-2.3 2.349-3.844 2.295-.774 3.842-2.313.8-2.3 2.349-3.844 2.295-.774 3.843-2.313.8-2.3 2.349-3.844l-1.33-1.362.007-.007z" class="cls-7" data-name="Path 49" transform="translate(-125.065 403.234)"/>
                <path id="Path_50" d="M20.847-480.939a.862.862 0 0 1 .679.9c-.1 1.5.639 1.908.246 3.78-.45 2.146-1.492 1.923-1.942 4.069s.591 2.368.141 4.514-1.492 1.922-1.942 4.068.591 2.368.141 4.514c-.393 1.872-1.236 1.941-1.744 3.354a.854.854 0 0 1-.982.546l-7.272-1.555a.867.867 0 0 1-.606-1.2c.512-1.143 1.263-1.329 1.627-3.064.45-2.145-.591-2.368-.14-4.513s1.491-1.923 1.942-4.068-.591-2.368-.14-4.513 1.492-1.923 1.942-4.069c.364-1.735-.247-2.213-.256-3.467a.86.86 0 0 1 1.036-.85z" class="cls-4" data-name="Path 50" transform="translate(-7.058 483.004)"/>
                <path id="Path_51" d="M119.2-480.011c-.1 1.5.639 1.908.246 3.781-.451 2.146-1.492 1.923-1.942 4.069s.591 2.368.14 4.514-1.492 1.923-1.942 4.068.591 2.368.141 4.514c-.393 1.872-1.237 1.941-1.744 3.354a.853.853 0 0 1-.982.546L112-455.4a.854.854 0 0 0 .857-.563c.508-1.413 1.351-1.482 1.744-3.354.45-2.146-.591-2.368-.14-4.514s1.491-1.923 1.942-4.068-.59-2.368-.14-4.514 1.491-1.923 1.942-4.069c.393-1.872-.35-2.28-.246-3.78a.863.863 0 0 0-.679-.9l-6.162-1.317a.859.859 0 0 1 .128.018l7.272 1.555a.862.862 0 0 1 .682.895z" class="cls-5" data-name="Path 51" transform="translate(-104.731 482.977)"/>
                <path id="Path_52" d="M61.621-474.367c-.45 2.146.591 2.368.141 4.514s-1.492 1.923-1.942 4.069.591 2.368.14 4.514-1.492 1.923-1.942 4.068.591 2.368.14 4.514-1.491 1.923-1.942 4.068l-3.272-.7c.451-2.146 1.491-1.923 1.942-4.068s-.591-2.368-.14-4.513 1.491-1.923 1.942-4.068-.591-2.368-.14-4.513 1.492-1.923 1.942-4.069-.591-2.368-.141-4.514z" class="cls-6" data-name="Path 52" transform="translate(-49.901 475.989)"/>
                <path id="Path_53" d="M92-474.363c-.451 2.146.59 2.368.14 4.514s-1.492 1.923-1.942 4.069.591 2.368.14 4.514-1.488 1.922-1.938 4.066.59 2.368.14 4.514-1.492 1.922-1.942 4.068l-1.418-.3c.451-2.134 1.49-1.916 1.939-4.057s-.59-2.368-.14-4.514 1.492-1.923 1.942-4.068-.591-2.368-.14-4.514 1.491-1.923 1.942-4.068-.591-2.368-.14-4.514l-1.853-.4a.1.1 0 0 1 0-.01z" class="cls-7" data-name="Path 53" transform="translate(-80.282 475.986)"/>
                <path id="Path_54" d="M29.012-481.033l-1.484-1.52-2.347-2.4-1.386-1.42a1.28 1.28 0 0 0-1.049-.382 1.276 1.276 0 0 0-.947.582 5.18 5.18 0 0 0-.551 1.206 3.879 3.879 0 0 1-1.071 1.756 3.828 3.828 0 0 1-1.756 1.054 4.706 4.706 0 0 0-2.087 1.259 4.771 4.771 0 0 0-1.279 2.087 3.878 3.878 0 0 1-1.07 1.756 4.651 4.651 0 0 1-.6.514c-.036-.2-.08-.376-.123-.548a4.168 4.168 0 0 1-.171-1.259.433.433 0 0 0-.415-.45.431.431 0 0 0-.446.418 4.966 4.966 0 0 0 .2 1.5 3.906 3.906 0 0 1 .066 2.061 3.881 3.881 0 0 1-.889 1.856 4.779 4.779 0 0 0-1.053 2.212 4.809 4.809 0 0 0 .074 2.453 3.905 3.905 0 0 1 .067 2.061 3.884 3.884 0 0 1-.889 1.856 4.862 4.862 0 0 0-.838 1.44.426.426 0 0 1-.489.269l-1.632-.349a3.86 3.86 0 0 1 .784-1.435 4.777 4.777 0 0 0 1.053-2.212 4.8 4.8 0 0 0-.084-2.452 3.9 3.9 0 0 1-.066-2.061 3.883 3.883 0 0 1 .889-1.856 4.778 4.778 0 0 0 1.053-2.212 4.807 4.807 0 0 0-.074-2.453 3.906 3.906 0 0 1-.067-2.061 3.887 3.887 0 0 1 .889-1.857 4.779 4.779 0 0 0 1.053-2.212 4.8 4.8 0 0 0-.074-2.453 3.893 3.893 0 0 1-.139-1.632l1.631.349a.43.43 0 0 1 .339.446 4.9 4.9 0 0 0 .188 1.66 3.906 3.906 0 0 1 .067 2.061 3.886 3.886 0 0 1-.889 1.856 5.371 5.371 0 0 0-.661 1.014.436.436 0 0 0 .2.58.428.428 0 0 0 .575-.2 4.593 4.593 0 0 1 .564-.858 4.779 4.779 0 0 0 1.053-2.212 4.805 4.805 0 0 0-.074-2.453 4.046 4.046 0 0 1-.164-1.387 1.3 1.3 0 0 0-1.019-1.357l-7.272-1.555a1.275 1.275 0 0 0-1.084.265 1.294 1.294 0 0 0-.472 1.013 5.187 5.187 0 0 0 .2 1.313 3.905 3.905 0 0 1 .067 2.061 3.889 3.889 0 0 1-.889 1.857 4.777 4.777 0 0 0-1.053 2.212 4.805 4.805 0 0 0 .074 2.453 3.9 3.9 0 0 1 .066 2.061 3.883 3.883 0 0 1-.889 1.856 4.777 4.777 0 0 0-1.053 2.212 4.8 4.8 0 0 0 .074 2.453 3.908 3.908 0 0 1 .066 2.061 3.882 3.882 0 0 1-.886 1.856 5.146 5.146 0 0 0-.709 1.118 1.3 1.3 0 0 0 .025 1.119 1.286 1.286 0 0 0 .884.686l7.272 1.555a1.264 1.264 0 0 0 .265.028 1.293 1.293 0 0 0 .978-.452l.286.293a1.285 1.285 0 0 0 .921.388 1.263 1.263 0 0 0 .761-.252 3.956 3.956 0 0 1 1.246-.608 4.706 4.706 0 0 0 2.087-1.259 5.965 5.965 0 0 0 .464-.515.437.437 0 0 0-.067-.611.428.428 0 0 0-.6.067 5.071 5.071 0 0 1-.4.44 3.832 3.832 0 0 1-1.756 1.054 4.789 4.789 0 0 0-1.486.734.423.423 0 0 1-.555-.047l-.486-.5a4.833 4.833 0 0 1 .527-.785 6.05 6.05 0 0 0 .541-.786 4.576 4.576 0 0 0 1.772-1.15 4.769 4.769 0 0 0 1.278-2.088 3.879 3.879 0 0 1 1.071-1.756 3.827 3.827 0 0 1 1.756-1.054 4.712 4.712 0 0 0 2.087-1.259 4.774 4.774 0 0 0 1.279-2.087 3.877 3.877 0 0 1 1.07-1.756 3.829 3.829 0 0 1 1.756-1.054 4.71 4.71 0 0 0 2.087-1.259 4.774 4.774 0 0 0 1.279-2.087 3.865 3.865 0 0 1 .776-1.44l1.17 1.2a.433.433 0 0 1 .039.56 4.88 4.88 0 0 0-.75 1.489 3.876 3.876 0 0 1-1.071 1.756 3.827 3.827 0 0 1-1.756 1.054 4.7 4.7 0 0 0-2.087 1.259 4.765 4.765 0 0 0-1.279 2.087 3.881 3.881 0 0 1-1.071 1.756 3.829 3.829 0 0 1-1.756 1.054 4.7 4.7 0 0 0-2.087 1.259 4.589 4.589 0 0 0-1.132 1.682.436.436 0 0 0 .242.563.429.429 0 0 0 .558-.244 3.73 3.73 0 0 1 .935-1.382 3.828 3.828 0 0 1 1.756-1.054 4.71 4.71 0 0 0 2.087-1.259 4.771 4.771 0 0 0 1.279-2.087 3.877 3.877 0 0 1 1.07-1.756 3.829 3.829 0 0 1 1.756-1.054 4.712 4.712 0 0 0 2.087-1.26 4.77 4.77 0 0 0 1.279-2.087 4.028 4.028 0 0 1 .621-1.249 1.311 1.311 0 0 0-.11-1.697zM11.223-488.1a4.766 4.766 0 0 0 .149 2.025 3.9 3.9 0 0 1 .066 2.061 3.886 3.886 0 0 1-.889 1.857 4.776 4.776 0 0 0-1.049 2.215 4.8 4.8 0 0 0 .074 2.453 3.909 3.909 0 0 1 .066 2.061 3.886 3.886 0 0 1-.889 1.856 4.776 4.776 0 0 0-1.051 2.211 4.8 4.8 0 0 0 .074 2.453 3.907 3.907 0 0 1 .066 2.061 3.884 3.884 0 0 1-.889 1.856A4.736 4.736 0 0 0 6-463.2l-.366-.078-2.064-.442a3.857 3.857 0 0 1 .784-1.435 4.779 4.779 0 0 0 1.053-2.212 4.806 4.806 0 0 0-.074-2.453 3.905 3.905 0 0 1-.067-2.061 3.885 3.885 0 0 1 .889-1.856 4.779 4.779 0 0 0 1.053-2.212 4.8 4.8 0 0 0-.074-2.453 3.906 3.906 0 0 1-.067-2.061 3.886 3.886 0 0 1 .889-1.856 4.783 4.783 0 0 0 1.053-2.212 4.806 4.806 0 0 0-.074-2.453 3.88 3.88 0 0 1-.14-1.632l1.01.216zM.906-464.455a.424.424 0 0 1-.009-.369 4.385 4.385 0 0 1 .6-.941 4.777 4.777 0 0 0 1.053-2.212 4.8 4.8 0 0 0-.074-2.453 3.908 3.908 0 0 1-.067-2.061 3.886 3.886 0 0 1 .889-1.856 4.775 4.775 0 0 0 1.053-2.212 4.807 4.807 0 0 0-.074-2.453 3.906 3.906 0 0 1-.067-2.061 3.885 3.885 0 0 1 .889-1.856 4.779 4.779 0 0 0 1.053-2.212 4.8 4.8 0 0 0-.074-2.453 4.4 4.4 0 0 1-.168-1.106.422.422 0 0 1 .156-.333.425.425 0 0 1 .361-.088l1.525.326a4.773 4.773 0 0 0 .149 2.025 3.905 3.905 0 0 1 .067 2.061 3.889 3.889 0 0 1-.889 1.857 4.777 4.777 0 0 0-1.053 2.212 4.805 4.805 0 0 0 .074 2.453 3.9 3.9 0 0 1 .067 2.061 3.889 3.889 0 0 1-.889 1.856 4.777 4.777 0 0 0-1.053 2.212 4.806 4.806 0 0 0 .074 2.453 3.9 3.9 0 0 1 .067 2.061 3.885 3.885 0 0 1-.889 1.856 4.74 4.74 0 0 0-.95 1.79l-1.527-.328a.429.429 0 0 1-.294-.229zm12.426-10.184a5.571 5.571 0 0 0 .12-.932 4.92 4.92 0 0 0 1.136-.868 4.766 4.766 0 0 0 1.279-2.088 3.88 3.88 0 0 1 1.07-1.756 3.828 3.828 0 0 1 1.756-1.054 4.712 4.712 0 0 0 2.087-1.259 4.771 4.771 0 0 0 1.279-2.088 4.389 4.389 0 0 1 .461-1.02.416.416 0 0 1 .312-.191.425.425 0 0 1 .349.127l1.094 1.121a4.741 4.741 0 0 0-.982 1.772 3.876 3.876 0 0 1-1.071 1.756 3.828 3.828 0 0 1-1.756 1.054 4.707 4.707 0 0 0-2.087 1.259 4.766 4.766 0 0 0-1.279 2.087 3.877 3.877 0 0 1-1.071 1.756 3.828 3.828 0 0 1-1.756 1.054 4.787 4.787 0 0 0-1.474.726 4.9 4.9 0 0 0 .533-1.456zm12.309-5.831a3.878 3.878 0 0 1-1.071 1.756 3.827 3.827 0 0 1-1.756 1.054 4.709 4.709 0 0 0-2.087 1.259 4.773 4.773 0 0 0-1.278 2.088 3.883 3.883 0 0 1-1.07 1.756 3.83 3.83 0 0 1-1.756 1.054 4.707 4.707 0 0 0-2.087 1.259 4.77 4.77 0 0 0-1.278 2.087 3.881 3.881 0 0 1-1.07 1.756 4.432 4.432 0 0 1-.713.588c.02-.079.039-.16.057-.245a4.8 4.8 0 0 0-.074-2.453 5.606 5.606 0 0 1-.154-.777 5.715 5.715 0 0 0 .42-.986 3.878 3.878 0 0 1 1.071-1.756 3.829 3.829 0 0 1 1.755-1.054 4.705 4.705 0 0 0 2.087-1.259 4.769 4.769 0 0 0 1.279-2.088 3.878 3.878 0 0 1 1.071-1.756 3.827 3.827 0 0 1 1.756-1.054 4.71 4.71 0 0 0 2.087-1.259 4.77 4.77 0 0 0 1.279-2.088 3.862 3.862 0 0 1 .775-1.439l1.742 1.784a4.735 4.735 0 0 0-.985 1.773z" data-name="Path 54" transform="translate(.001 490.058)"/>
            </g>
        </g>
    </g>
</svg>
