<svg xmlns="http://www.w3.org/2000/svg" width="312.203" height="162.536" viewBox="0 0 312.203 162.536">
    <defs>
        <style>
            .cls-1{fill:#00305d}.cls-2{fill:#003b71}
        </style>
    </defs>
    <g id="Group_3069" data-name="Group 3069" transform="translate(-67.559 -30)">
        <g id="Group_2694" data-name="Group 2694" transform="translate(305.504 30)">
            <path id="Path_536" d="M-3130.579 1980.677a19.018 19.018 0 0 0-18.758-16.028h-36.276a19.02 19.02 0 0 0-18.758 16.028h-.233v143.544a2.965 2.965 0 0 0 2.964 2.965 2.966 2.966 0 0 0 2.967-2.965v-34.061a18.076 18.076 0 0 0 17.9 15.764h.741v1.629a9.437 9.437 0 0 0 9.426 9.425h6.9a9.437 9.437 0 0 0 9.424-9.425v-1.629h.1a18.079 18.079 0 0 0 17.906-15.764v34.061a2.966 2.966 0 0 0 2.965 2.965 2.965 2.965 0 0 0 2.964-2.965v-143.544zm-29.627 126.876a3.5 3.5 0 0 1-3.494 3.494h-6.9a3.5 3.5 0 0 1-3.5-3.494v-.958h13.891zm-25.406-136.973h36.276a13.083 13.083 0 0 1 12.722 10.1h-61.719a13.084 13.084 0 0 1 12.72-10.101zm43.557 117.289a12.139 12.139 0 0 1-12.125 12.126h-26.587a12.14 12.14 0 0 1-12.125-12.126v-3.242h50.838zm5.78-9.246h-62.4v-92.016h62.4z" class="cls-1" data-name="Path 536" transform="translate(3204.604 -1964.649)"/>
            <path id="Path_537" d="M-3160.118 2095.7a16.068 16.068 0 0 0 16.052-16.049 16.069 16.069 0 0 0-16.052-16.051 16.07 16.07 0 0 0-16.051 16.051 16.068 16.068 0 0 0 16.051 16.049zm0-26.169a10.132 10.132 0 0 1 10.118 10.116 10.132 10.132 0 0 1-10.121 10.119 10.131 10.131 0 0 1-10.119-10.119 10.131 10.131 0 0 1 10.122-10.121z" class="cls-1" data-name="Path 537" transform="translate(3197.245 -1990.25)"/>
        </g>
        <g id="Group_2695" data-name="Group 2695" transform="translate(130.559 70.27)">
            <g id="Group_2687" data-name="Group 2687">
                <g id="Group_948" data-name="Group 948">
                    <g id="Group_945" data-name="Group 945">
                        <g id="Group_944" data-name="Group 944">
                            <path id="Path_515" d="M-1904.208 1959.446h-55.37a.3.3 0 0 0-.3.3v32.678a62.484 62.484 0 0 0 4.04 22.143l.95 2.514a58.574 58.574 0 0 1 3.793 20.775v23.013a.014.014 0 0 1 0 .012l-3.2 3.366a7.091 7.091 0 0 0-1.945 5.389 7.226 7.226 0 0 0 7.272 6.619h34.217a7.321 7.321 0 0 0 7.333-7.114 7.066 7.066 0 0 0-1.957-4.894l-3.2-3.366a.016.016 0 0 1 0-.012v-23.013a58.585 58.585 0 0 1 3.792-20.775l.95-2.509a62.689 62.689 0 0 0 4.046-22.144v-32.567a.41.41 0 0 0-.421-.415zm-51.792 3.894a.018.018 0 0 1 .016-.016h48.292a.018.018 0 0 1 .016.016v11.078a.018.018 0 0 1-.016.016h-48.292a.018.018 0 0 1-.016-.016zm43.817 103.576a3.236 3.236 0 0 1 .889 2.323 3.326 3.326 0 0 1-3.37 3.135h-34.484a3.235 3.235 0 0 1-3.233-3.229 3.209 3.209 0 0 1 .893-2.229l3.164-3.326a.014.014 0 0 1 .012 0h32.949a.014.014 0 0 1 .013 0zm4.508-74.5a58.567 58.567 0 0 1-3.793 20.775l-.95 2.514a62.379 62.379 0 0 0-4.045 22.143v21.852a.017.017 0 0 1-.016.016h-30.721a.017.017 0 0 1-.016-.016v-21.844a62.391 62.391 0 0 0-4.045-22.143l-.95-2.514a58.664 58.664 0 0 1-3.789-20.779v-14.091a.018.018 0 0 1 .016-.016h48.292a.018.018 0 0 1 .016.016z" class="cls-2" data-name="Path 515" transform="translate(1959.874 -1959.446)"/>
                        </g>
                    </g>
                    <g id="Group_946" data-name="Group 946" transform="translate(9.796 22.431)">
                        <path id="Path_516" d="M-1938.881 2007.777a2.367 2.367 0 0 1-2.367-2.367v-.944a2.367 2.367 0 0 1 2.367-2.367 2.367 2.367 0 0 1 2.366 2.367v.944a2.367 2.367 0 0 1-2.366 2.367z" class="cls-2" data-name="Path 516" transform="translate(1941.248 -2002.099)"/>
                    </g>
                    <g id="Group_947" data-name="Group 947" transform="translate(9.796 28.532)">
                        <path id="Path_517" d="M-1938.881 2025.412a2.367 2.367 0 0 1-2.367-2.367v-6.98a2.367 2.367 0 0 1 2.367-2.367 2.366 2.366 0 0 1 2.366 2.367v6.98a2.367 2.367 0 0 1-2.366 2.367z" class="cls-2" data-name="Path 517" transform="translate(1941.248 -2013.699)"/>
                    </g>
                </g>
            </g>
        </g>
        <g id="Group_2696" data-name="Group 2696" transform="translate(67.559 70.27)">
            <g id="Group_2687-2" data-name="Group 2687">
                <g id="Group_948-2" data-name="Group 948">
                    <g id="Group_945-2" data-name="Group 945">
                        <g id="Group_944-2" data-name="Group 944">
                            <path id="Path_515-2" d="M-1904.208 1959.446h-55.37a.3.3 0 0 0-.3.3v32.678a62.484 62.484 0 0 0 4.04 22.143l.95 2.514a58.574 58.574 0 0 1 3.793 20.775v23.013a.014.014 0 0 1 0 .012l-3.2 3.366a7.091 7.091 0 0 0-1.945 5.389 7.226 7.226 0 0 0 7.272 6.619h34.217a7.321 7.321 0 0 0 7.333-7.114 7.066 7.066 0 0 0-1.957-4.894l-3.2-3.366a.016.016 0 0 1 0-.012v-23.013a58.585 58.585 0 0 1 3.792-20.775l.95-2.509a62.689 62.689 0 0 0 4.046-22.144v-32.567a.41.41 0 0 0-.421-.415zm-51.792 3.894a.018.018 0 0 1 .016-.016h48.292a.018.018 0 0 1 .016.016v11.078a.018.018 0 0 1-.016.016h-48.292a.018.018 0 0 1-.016-.016zm43.817 103.576a3.236 3.236 0 0 1 .889 2.323 3.326 3.326 0 0 1-3.37 3.135h-34.484a3.235 3.235 0 0 1-3.233-3.229 3.209 3.209 0 0 1 .893-2.229l3.164-3.326a.014.014 0 0 1 .012 0h32.949a.014.014 0 0 1 .013 0zm4.508-74.5a58.567 58.567 0 0 1-3.793 20.775l-.95 2.514a62.379 62.379 0 0 0-4.045 22.143v21.852a.017.017 0 0 1-.016.016h-30.721a.017.017 0 0 1-.016-.016v-21.844a62.391 62.391 0 0 0-4.045-22.143l-.95-2.514a58.664 58.664 0 0 1-3.789-20.779v-14.091a.018.018 0 0 1 .016-.016h48.292a.018.018 0 0 1 .016.016z" class="cls-2" data-name="Path 515" transform="translate(1959.874 -1959.446)"/>
                        </g>
                    </g>
                    <g id="Group_946-2" data-name="Group 946" transform="translate(9.796 22.431)">
                        <path id="Path_516-2" d="M-1938.881 2007.777a2.367 2.367 0 0 1-2.367-2.367v-.944a2.367 2.367 0 0 1 2.367-2.367 2.367 2.367 0 0 1 2.366 2.367v.944a2.367 2.367 0 0 1-2.366 2.367z" class="cls-2" data-name="Path 516" transform="translate(1941.248 -2002.099)"/>
                    </g>
                    <g id="Group_947-2" data-name="Group 947" transform="translate(9.796 28.532)">
                        <path id="Path_517-2" d="M-1938.881 2025.412a2.367 2.367 0 0 1-2.367-2.367v-6.98a2.367 2.367 0 0 1 2.367-2.367 2.366 2.366 0 0 1 2.366 2.367v6.98a2.367 2.367 0 0 1-2.366 2.367z" class="cls-2" data-name="Path 517" transform="translate(1941.248 -2013.699)"/>
                    </g>
                </g>
            </g>
        </g>
        <g id="Group_2697" data-name="Group 2697" transform="translate(194 69)">
            <text id="_---" fill="#003b71" data-name="---" font-family="Montserrat-Medium, Montserrat" font-size="69px" font-weight="500" transform="translate(39.632 67)">
                <tspan x="-39.847" y="0">---</tspan>
            </text>
            <path id="Path_3334" fill="none" stroke="#003b71" stroke-width="3px" d="M0 0l7.484 7.486L14.971 0" data-name="Path 3334" transform="rotate(-90 67.367 -11.39)"/>
        </g>
    </g>
</svg>
