<svg xmlns="http://www.w3.org/2000/svg" width="45" height="45" viewBox="0 0 45 45">
    <g id="Group_2461" data-name="Group 2461" transform="translate(16109 17613)">
        <g id="Group_2464" data-name="Group 2464">
            <g id="Group_3075" data-name="Group 3075">
                <circle id="Ellipse_423" cx="22.5" cy="22.5" r="22.5" fill="#799d4b" data-name="Ellipse 423" transform="translate(-16109 -17613)"/>
                <path id="Icon_awesome-check" fill="#fff" d="M7.269 20.224L.313 13.268a1.07 1.07 0 0 1 0-1.513l1.513-1.513a1.07 1.07 0 0 1 1.513 0l4.686 4.686L18.062 4.891a1.07 1.07 0 0 1 1.513 0L21.089 6.4a1.07 1.07 0 0 1 0 1.513L8.783 20.224a1.07 1.07 0 0 1-1.514 0z" data-name="Icon awesome-check" transform="translate(-16097 -17602.578)"/>
            </g>
        </g>
    </g>
</svg>
