<svg xmlns="http://www.w3.org/2000/svg" width="26" height="17" viewBox="0 0 26 17">
    <path id="Path_3338" fill="#003b71" d="M25.443 21.785a.554.554 0 0 1-.516-.344c-.064-.155-1.673-3.833-7.685-4.562a40.408 40.408 0 0 0-4.574-.248v4.584a.572.572 0 0 1-.3.5.553.553 0 0 1-.573-.033L.248 13.759A.573.573 0 0 1 0 13.286a.579.579 0 0 1 .248-.474L11.8 4.882a.54.54 0 0 1 .573-.029.567.567 0 0 1 .3.5v4.266C15.185 9.953 26 11.934 26 21.22a.567.567 0 0 1-.447.559.676.676 0 0 1-.11.006z" data-name="Path 3338" transform="translate(0 -4.785)"/>
</svg>
