<svg xmlns="http://www.w3.org/2000/svg" width="45" height="45" viewBox="0 0 45 45">
    <defs>
        <clipPath id="clip-path">
            <path id="Path_2469" fill="none" d="M0-484.617h27.383V-512H0z" clip-rule="evenodd" data-name="Path 2469" transform="translate(0 512)"/>
        </clipPath>
    </defs>
    <g id="Group_1866" data-name="Group 1866" transform="translate(0 -.326)">
        <g id="Path_2479" fill="#003b71" stroke="none" data-name="Path 2479">
            <path d="M22.5 43.5c-2.836 0-5.586-.555-8.174-1.65-2.5-1.057-4.746-2.572-6.675-4.5-1.93-1.93-3.444-4.176-4.501-6.676C2.055 28.086 1.5 25.336 1.5 22.5c0-2.836.555-5.586 1.65-8.174 1.057-2.5 2.572-4.746 4.5-6.675 1.93-1.93 4.176-3.444 6.676-4.501C16.914 2.055 19.664 1.5 22.5 1.5c2.836 0 5.586.555 8.174 1.65 2.5 1.057 4.746 2.572 6.675 4.5 1.93 1.93 3.444 4.176 4.501 6.676 1.095 2.588 1.65 5.338 1.65 8.174 0 2.836-.555 5.586-1.65 8.174-1.057 2.5-2.572 4.746-4.5 6.675-1.93 1.93-4.176 3.444-6.676 4.501-2.588 1.095-5.338 1.65-8.174 1.65z" transform="rotate(90 22.337 22.663)"/>
            <path d="M22.5 3C17.291 3 12.394 5.028 8.711 8.711 5.028 12.394 3 17.291 3 22.5s2.028 10.106 5.711 13.789C12.394 39.972 17.291 42 22.5 42s10.106-2.028 13.789-5.711C39.972 32.606 42 27.709 42 22.5s-2.028-10.106-5.711-13.789C32.606 5.028 27.709 3 22.5 3m0-3C34.926 0 45 10.074 45 22.5S34.926 45 22.5 45 0 34.926 0 22.5 10.074 0 22.5 0z" transform="rotate(90 22.337 22.663)"/>
        </g>
        <g id="Group_1865" data-name="Group 1865" transform="translate(9 8.325)">
            <g id="Group_1865-2" clip-path="url(#clip-path)" data-name="Group 1865">
                <path id="Path_2465" fill="#003b71" d="M13.691-512a13.691 13.691 0 0 1 13.691 13.691 13.691 13.691 0 0 1-13.691 13.691A13.691 13.691 0 0 1 0-498.309 13.691 13.691 0 0 1 13.691-512z" data-name="Path 2465" transform="translate(0 512)"/>
                <path id="Path_2467" fill="#ffce1a" d="M177.256-427.511a3.117 3.117 0 0 0 3.117-3.117v-1.192h-1.192a3.117 3.117 0 0 0-3.117 3.117v.044h-.439v-.044a3.117 3.117 0 0 0-3.117-3.117h-1.192v1.192a3.117 3.117 0 0 0 3.117 3.117h1.009v2.063a3.118 3.118 0 0 0-2.934-2.063h-1.192v1.192a3.117 3.117 0 0 0 3.117 3.117h1.009v2.063a3.118 3.118 0 0 0-2.934-2.063h-1.192v1.192a3.117 3.117 0 0 0 3.117 3.117h1.009v2.063a3.118 3.118 0 0 0-2.934-2.063h-1.192v1.192a3.117 3.117 0 0 0 3.117 3.117h1.009v5.85c.134 0 .268.006.4.006s.269 0 .4-.006v-5.85h1.009a3.117 3.117 0 0 0 3.117-3.117v-1.192h-1.192a3.118 3.118 0 0 0-2.934 2.063v-2.063h1.009a3.117 3.117 0 0 0 3.117-3.117v-1.19h-1.192a3.118 3.118 0 0 0-2.934 2.063v-2.063h1.009a3.117 3.117 0 0 0 3.117-3.117v-1.192h-1.192a3.118 3.118 0 0 0-2.934 2.063v-2.063z" data-name="Path 2467" transform="translate(-162.153 436.108)"/>
                <path id="Path_2468" fill="#fbb029" d="M257.1-427.511a3.117 3.117 0 0 0 3.117-3.117v-1.192h-1.192a3.117 3.117 0 0 0-3.125 3.12v.044h-.237v19.933h.018c.135 0 .269 0 .4-.006v-5.85h1.019a3.117 3.117 0 0 0 3.117-3.117v-1.192h-1.192a3.118 3.118 0 0 0-2.934 2.063v-2.063h1.009a3.117 3.117 0 0 0 3.117-3.117v-1.195h-1.192a3.118 3.118 0 0 0-2.934 2.063v-2.063h1.009a3.117 3.117 0 0 0 3.117-3.117v-1.192h-1.192a3.118 3.118 0 0 0-2.934 2.063v-2.063z" data-name="Path 2468" transform="translate(-241.994 436.108)"/>
            </g>
        </g>
    </g>
</svg>
