<svg xmlns="http://www.w3.org/2000/svg" width="45" height="45" viewBox="0 0 45 45">
    <defs>
        <clipPath id="clip-path">
            <path id="Path_1881" fill="none" d="M0-471.339h40.661V-512H0z" clip-rule="evenodd" data-name="Path 1881" transform="translate(0 512)"/>
        </clipPath>
    </defs>
    <g id="Group_4922" data-name="Group 4922" transform="translate(-1080 -739)">
        <circle id="Ellipse_596" cx="22.5" cy="22.5" r="22.5" fill="#003b71" data-name="Ellipse 596" transform="translate(1080 739)"/>
        <g id="Group_207" data-name="Group 207" transform="translate(1082 1253)">
            <g id="Group_206" clip-path="url(#clip-path)" data-name="Group 206" transform="translate(0 -512)">
                <path id="Path_1877" fill="#005e82" d="M20.331-512a20.331 20.331 0 0 1 20.331 20.331 20.331 20.331 0 0 1-20.331 20.331A20.331 20.331 0 0 1 0-491.669 20.331 20.331 0 0 1 20.331-512z" data-name="Path 1877" transform="translate(0 512)"/>
                <path id="Path_1878" fill="#1d2542" d="M189.753-401.6l-.01 4.066a20.33 20.33 0 0 0 19.733-20.321v-.362l-13.6-13.6-4.071 5.692-4.313-4.313-4.108 3.211 5.33 5.33-4.478 1.921 2.951 2.951-3.345 3.109 3.061 3.061-3.061 3.338z" data-name="Path 1878" transform="translate(-168.814 438.188)"/>
                <path id="Path_1879" fill="#ffce1a" d="M180.137-425.421a4.629 4.629 0 0 0 4.629-4.629v-1.771H183a4.629 4.629 0 0 0-4.629 4.629v.066h-.652v-.066a4.629 4.629 0 0 0-4.629-4.629h-1.771v1.771a4.629 4.629 0 0 0 4.629 4.629h1.5v3.064a4.63 4.63 0 0 0-4.357-3.064h-1.771v1.771a4.629 4.629 0 0 0 4.629 4.629h1.5v3.064a4.63 4.63 0 0 0-4.357-3.064h-1.771v1.771a4.629 4.629 0 0 0 4.629 4.629h1.5v3.064a4.63 4.63 0 0 0-4.357-3.064h-1.771v1.771a4.629 4.629 0 0 0 4.629 4.629h1.5v8.687c.2.006.4.009.6.009s.4 0 .6-.009v-8.687h1.5a4.629 4.629 0 0 0 4.629-4.629v-1.771H183a4.63 4.63 0 0 0-4.357 3.064v-3.064h1.5a4.629 4.629 0 0 0 4.629-4.629v-1.771H183a4.63 4.63 0 0 0-4.357 3.064v-3.064h1.5a4.629 4.629 0 0 0 4.629-4.629v-1.771H183a4.63 4.63 0 0 0-4.357 3.064v-3.064z" data-name="Path 1879" transform="translate(-157.71 438.188)"/>
                <path id="Path_1880" fill="#fbb029" d="M257.79-425.421a4.629 4.629 0 0 0 4.629-4.629v-1.771h-1.771a4.629 4.629 0 0 0-4.629 4.629v.066h-.353v29.6h.026c.2 0 .4 0 .6-.009v-8.687h1.5a4.629 4.629 0 0 0 4.629-4.629v-1.771h-1.771a4.63 4.63 0 0 0-4.357 3.064v-3.064h1.5a4.629 4.629 0 0 0 4.629-4.629v-1.771h-1.771a4.63 4.63 0 0 0-4.357 3.064v-3.064h1.5a4.629 4.629 0 0 0 4.629-4.629v-1.771h-1.771a4.63 4.63 0 0 0-4.357 3.064v-3.064z" data-name="Path 1880" transform="translate(-235.363 438.188)"/>
            </g>
        </g>
    </g>
</svg>
