<svg xmlns="http://www.w3.org/2000/svg" width="45" height="45" viewBox="0 0 45 45">
    <defs>
        <style>
            .cls-3{fill:#ffc10d}.cls-4{fill:#56abdf}
        </style>
    </defs>
    <g id="Group_184" data-name="Group 184" transform="translate(-1080 -739)">
        <circle id="Ellipse_596" cx="22.5" cy="22.5" r="22.5" fill="#003b71" data-name="Ellipse 596" transform="translate(1080 739)"/>
        <g id="Group_251" data-name="Group 251" transform="translate(1087.869 1126.116)">
            <path id="Path_2439" fill="#fff" d="M21.449-123.375a14.553 14.553 0 0 0 3.726 8.858H42.45a14.607 14.607 0 0 0 3.726-8.858z" data-name="Path 2439" transform="translate(-19.589 -235.335)"/>
            <path id="Path_2440" d="M135.24-346.322a12.369 12.369 0 0 1 1.554-2.589.915.915 0 0 1 1.437 0 12.369 12.369 0 0 1 1.554 2.589 2.452 2.452 0 0 0 .234-1.06c0-.9-1.3-3.128-2.51-4.891-1.21 1.762-2.51 3.987-2.51 4.891a2.658 2.658 0 0 0 .241 1.06z" class="cls-3" data-name="Path 2440" transform="translate(-123.293 -26.286)"/>
            <path id="Path_2441" d="M110.625-204.375h9.255v5.19h-9.255z" class="cls-3" data-name="Path 2441" transform="translate(-101.032 -161.359)"/>
            <path id="Path_2442" d="M27.53-245.352h-6.842v-6.107a.916.916 0 0 0-.917-.917H15.14v-1.633a.916.916 0 0 0-.917-.917.916.916 0 0 0-.917.917v1.633h-4.63a.916.916 0 0 0-.917.917v6.107H.917a.916.916 0 0 0-.917.917 16.441 16.441 0 0 0 4.52 11.329.928.928 0 0 0 .67.286h18.08a.93.93 0 0 0 .67-.286 16.431 16.431 0 0 0 4.52-11.329.936.936 0 0 0-.93-.917zm-21.944 10.7a14.608 14.608 0 0 1-3.726-8.858h24.721a14.553 14.553 0 0 1-3.727 8.858zm4.007-15.889h9.255v5.19H9.593z" data-name="Path 2442" transform="translate(0 -115.192)"/>
            <path id="Path_2443" d="M115.788-370.1a.917.917 0 0 0 1.4-.481 10.88 10.88 0 0 1 1.08-2.426 11.33 11.33 0 0 1 1.08 2.426.92.92 0 0 0 1.4.481 4.345 4.345 0 0 0 1.867-3.571c0-2.094-3-6.211-3.61-7.018a.917.917 0 0 0-1.47 0c-.6.807-3.61 4.924-3.61 7.018a4.345 4.345 0 0 0 1.863 3.571zm4.988-3.571a2.548 2.548 0 0 1-.234 1.06 12.368 12.368 0 0 0-1.554-2.589.914.914 0 0 0-1.437 0 12.368 12.368 0 0 0-1.551 2.592 2.452 2.452 0 0 1-.234-1.06c0-.9 1.3-3.128 2.51-4.891 1.199 1.759 2.5 3.986 2.5 4.89z" data-name="Path 2443" transform="translate(-104.042)"/>
            <path id="Path_2444" d="M46.017-102.148h-.267c.071.338.169.67.267 1z" class="cls-4" data-name="Path 2444" transform="translate(-41.783 -254.721)"/>
            <path id="Path_2445" d="M58.645-102.148v3.668a.916.916 0 0 1-.917.917.916.916 0 0 1-.917-.917v-3.668h-1.834v1.379a.916.916 0 0 1-.917.917.938.938 0 0 1-.514-.156 12.786 12.786 0 0 0 1.8 3.05h15.57a12.768 12.768 0 0 0 2.471-5.19z" class="cls-4" data-name="Path 2445" transform="translate(-48.903 -254.721)"/>
        </g>
    </g>
</svg>
