<svg xmlns="http://www.w3.org/2000/svg" width="45" height="45" viewBox="0 0 45 45">
    <defs>
        <style>
            .cls-3{fill:#d64545}
        </style>
    </defs>
    <g id="Group_66" data-name="Group 66" transform="translate(-985 -837)">
        <circle id="Ellipse_587" cx="22.5" cy="22.5" r="22.5" fill="#003b71" data-name="Ellipse 587" transform="translate(985 837)"/>
        <g id="Group_324" data-name="Group 324" transform="translate(991 1227)">
            <path id="Path_3164" fill="#ff595e" d="M33.814-367.093a16.907 16.907 0 0 1-16.907 16.907A16.907 16.907 0 0 1 0-367.093 16.907 16.907 0 0 1 16.907-384a16.907 16.907 0 0 1 16.907 16.907z" data-name="Path 3164"/>
            <path id="Path_3165" d="M31.081-314.579l-7.558 19.027a.66.66 0 0 1-.858.37l-5.451-2.165-7.587 3.273a16.93 16.93 0 0 1-3.758-2.5l-5.737-13.3A16.881 16.881 0 0 1 .789-314l11.289-4.87a.661.661 0 0 1 .868.345l1.747 4.051 2.27-5.715a.66.66 0 0 1 .858-.37l12.889 5.12a.66.66 0 0 1 .371.86z" class="cls-3" data-name="Path 3165" transform="translate(-.121 -57.814)"/>
            <path id="Path_3166" fill="#ffe1e6" d="M.4-331.888l12.735-5.494a.66.66 0 0 1 .868.345l8.11 18.8a.661.661 0 0 1-.345.868l-12.734 5.493a.66.66 0 0 1-.868-.345l-8.11-18.8a.661.661 0 0 1 .344-.867z" data-name="Path 3166" transform="translate(-.001 -42.464)"/>
            <path id="Path_3167" fill="#ffc2d1" d="M119.119-270.954a.661.661 0 0 1-.345.868l-7.708 3.325-4.231-1.814a.731.731 0 0 1-.409-.949l6.38-16.062z" data-name="Path 3167" transform="translate(-97.008 -89.748)"/>
            <path id="Path_3168" fill="#faa598" d="M92.485-289.4a.991.991 0 0 1 1.3.517.991.991 0 0 1-.517 1.3.991.991 0 0 1-1.3-.517.991.991 0 0 1 .517-1.3zm-5.374 16.488a.99.99 0 0 0 1.3.517.99.99 0 0 0 .517-1.3.99.99 0 0 0-1.3-.517.991.991 0 0 0-.517 1.301z" data-name="Path 3168" transform="translate(-79.366 -86.197)"/>
            <path id="Path_3169" d="M87.936-317.27a.083.083 0 0 1-.108.046l-1.167-.464a.532.532 0 0 1-.3-.691.532.532 0 0 1 .691-.3l.256.1.1-.256a.532.532 0 0 1 .691-.3.532.532 0 0 1 .3.691zm-3.974 19.77a.532.532 0 0 0 .3.691.532.532 0 0 0 .691-.3l.1-.256.256.1a.532.532 0 0 0 .691-.3.531.531 0 0 0-.3-.691l-1.167-.464a.083.083 0 0 0-.108.046zm-.546-9.285l3.708 1.473a.264.264 0 0 0 .343-.148l1.473-3.708a1.689 1.689 0 0 0-.946-2.194 1.69 1.69 0 0 0-2.194.947l-.323.813-.813-.323a1.689 1.689 0 0 0-2.194.946 1.69 1.69 0 0 0 .946 2.196z" class="cls-3" data-name="Path 3169" transform="translate(-75.098 -59.125)"/>
            <path id="Path_3170" fill="#e1fffa" d="M145.252-336.566l12.889 5.12a.661.661 0 0 1 .37.858l-7.558 19.027a.661.661 0 0 1-.858.37l-12.889-5.12a.661.661 0 0 1-.37-.858l7.558-19.027a.661.661 0 0 1 .858-.37z" data-name="Path 3170" transform="translate(-124.744 -43.214)"/>
            <path id="Path_3171" fill="#81e1e1" d="M184.2-244.653a.99.99 0 0 1 .555 1.286.991.991 0 0 1-1.286.555.991.991 0 0 1-.555-1.286.991.991 0 0 1 1.286-.555zm-14.9 9.145a.991.991 0 0 0 1.286-.555.991.991 0 0 0-.555-1.286.991.991 0 0 0-1.286.555.99.99 0 0 0 .555 1.286z" data-name="Path 3171" transform="translate(-153.819 -127.012)"/>
            <path id="Path_3172" fill="#405986" d="M166.206-267.548c.03.012.059.024.088.038a1.653 1.653 0 0 1 .144-.616 1.659 1.659 0 0 1 2.022-.893 1.652 1.652 0 0 1 1.019 2.178 1.651 1.651 0 0 1-.293.479l.09.033a1.651 1.651 0 0 1 .882 2.243 1.658 1.658 0 0 1-2.027.853 1.644 1.644 0 0 1-.923-.789.085.085 0 0 0-.154.008.085.085 0 0 0 0 .063l.659 1.63c.022.054-.037.094-.1.069l-3-1.19c-.063-.025-.078-.094-.025-.118l1.6-.733a.085.085 0 0 0 .043-.046.084.084 0 0 0-.106-.111 1.646 1.646 0 0 1-1.213-.059 1.659 1.659 0 0 1-.89-2.011 1.651 1.651 0 0 1 2.184-1.028zm8.227-4.731a.5.5 0 0 0 .267.6.492.492 0 0 0 .364.018.026.026 0 0 1 .032.033.026.026 0 0 1-.013.014l-.479.22c-.016.007-.011.028.007.035l.9.357c.019.008.036 0 .03-.021l-.2-.489a.024.024 0 0 1 0-.019.026.026 0 0 1 .046 0 .492.492 0 0 0 .277.237.5.5 0 0 0 .608-.256.5.5 0 0 0-.265-.673l-.027-.01a.5.5 0 0 0 .088-.143.5.5 0 0 0-.306-.653.5.5 0 0 0-.606.268.494.494 0 0 0-.043.185l-.026-.011a.5.5 0 0 0-.654.308zm-15.772 12.669l.027.01a.5.5 0 0 0-.088.144.5.5 0 0 0 .306.653.5.5 0 0 0 .606-.268.5.5 0 0 0 .043-.185l.026.011a.5.5 0 0 0 .654-.308.5.5 0 0 0-.267-.6.5.5 0 0 0-.364-.018.025.025 0 0 1-.032-.033.026.026 0 0 1 .013-.014l.48-.22c.016-.007.011-.028-.008-.035l-.9-.357c-.019-.008-.036 0-.03.021l.2.489a.026.026 0 0 1 0 .019.025.025 0 0 1-.046 0 .494.494 0 0 0-.277-.237.5.5 0 0 0-.608.256.5.5 0 0 0 .265.672z" data-name="Path 3172" transform="translate(-144.405 -101.177)"/>
        </g>
    </g>
</svg>
