<svg xmlns="http://www.w3.org/2000/svg" width="45" height="45" viewBox="0 0 45 45">
    <defs>
        <clipPath id="clip-path">
            <path id="Path_3195" fill="none" d="M-.5-356.051h23V-384h-23z" clip-rule="evenodd" data-name="Path 3195" transform="translate(.496 384)"/>
        </clipPath>
        <style>
            .cls-4{fill:#e18f4e}.cls-7{fill:#c27749}.cls-12{fill:#a35d42}
        </style>
    </defs>
    <g id="Group_63" data-name="Group 63" transform="translate(-1080 -837)">
        <circle id="Ellipse_582" cx="22.5" cy="22.5" r="22.5" fill="#003b71" data-name="Ellipse 582" transform="translate(1080 837)"/>
        <g id="Group_326" data-name="Group 326" transform="translate(1091.996 1229.025)">
            <g id="Group_325" clip-path="url(#clip-path)" data-name="Group 325" transform="translate(-.496 -384)">
                <path id="Path_3173" d="M77.424-377.161a1.228 1.228 0 0 0-.614-1.064 1.227 1.227 0 0 0-1.228 0 1.228 1.228 0 0 0-1.229 0 1.228 1.228 0 0 0-.614 1.064 1.228 1.228 0 0 0-.614 1.064v2.621h4.913v-2.624a1.228 1.228 0 0 0-.614-1.061z" class="cls-4" data-name="Path 3173" transform="translate(-67.767 378.798)"/>
                <path id="Path_3174" fill="#ffd9d4" d="M106.879-344.637v5.459l2.456-2.456v-.546a2.456 2.456 0 0 0-2.456-2.457z" data-name="Path 3174" transform="translate(-99.064 347.502)"/>
                <path id="Path_3175" fill="#fff0d3" d="M75.582-344.637a2.456 2.456 0 0 0-2.457 2.457v.546l3.276 2.456v-3c-.001-1.36-.367-2.459-.819-2.459z" data-name="Path 3175" transform="translate(-67.767 347.502)"/>
                <path id="Path_3176" d="M107.7-303.387l-.819 3.549a2.457 2.457 0 0 0 2.456-2.457v-1.092z" class="cls-7" data-name="Path 3176" transform="translate(-99.064 309.254)"/>
                <path id="Path_3177" d="M76.4-310.341v1.092c0 1.357-.367 2.457-.819 2.457a2.457 2.457 0 0 1-2.457-2.457v-1.092h1.638a.887.887 0 0 1 .819-.546.887.887 0 0 1 .819.546z" class="cls-4" data-name="Path 3177" transform="translate(-67.767 316.208)"/>
                <path id="Path_3178" fill="#ff4028" d="M104.767-254.633h-.546l-1.092 4.913 2.729-1.638v-2.184a1.092 1.092 0 0 0-1.091-1.091z" data-name="Path 3178" transform="translate(-95.587 264.049)"/>
                <path id="Path_3179" fill="#ff6237" d="M74.217-254.633a1.092 1.092 0 0 0-1.092 1.092v2.184l3.275 1.637v-4.913z" data-name="Path 3179" transform="translate(-67.767 264.049)"/>
                <path id="Path_3180" fill="#ffa653" d="M97.267-232.133A1.638 1.638 0 0 0 98.9-230.5v6.551h-1.633l-1.638-3.9z" data-name="Path 3180" transform="translate(-88.633 243.187)"/>
                <path id="Path_3181" fill="#ffcb62" d="M76.4-232.133v8.189h-3.275v-6.556a1.638 1.638 0 0 0 1.638-1.638z" data-name="Path 3181" transform="translate(-67.767 243.187)"/>
                <path id="Path_3182" d="M241.681-310.887l-3.548 11.109 3.548 11.109h1.638v-22.218z" class="cls-12" data-name="Path 3182" transform="translate(-220.764 316.208)"/>
                <path id="Path_3183" d="M219.379-310.887h4.913v22.218h-4.913z" class="cls-7" data-name="Path 3183" transform="translate(-203.375 316.208)"/>
                <path id="Path_3184" d="M281.258-310.887v6.553a.41.41 0 0 0 .409.409.41.41 0 0 0 .409-.409v-6.553z" class="cls-4" data-name="Path 3184" transform="translate(-260.751 316.208)"/>
                <path id="Path_3185" d="M216.62-215.258a2.869 2.869 0 0 0-2.866 2.866.41.41 0 0 0 .409.409.41.41 0 0 0 .41-.409 2.049 2.049 0 0 1 2.047-2.047 2.049 2.049 0 0 1 2.047 2.047V-200h.819v-12.392a2.869 2.869 0 0 0-2.866-2.866z" class="cls-4" data-name="Path 3185" transform="translate(-198.16 227.54)"/>
                <path id="Path_3186" d="M237.486-192.758a1.23 1.23 0 0 0-1.228 1.228v12.392h.819v-12.392a.41.41 0 0 1 .409-.409.41.41 0 0 1 .409.409.409.409 0 0 0 .409.409.41.41 0 0 0 .409-.409 1.23 1.23 0 0 0-1.227-1.228z" class="cls-4" data-name="Path 3186" transform="translate(-219.026 206.677)"/>
                <path id="Path_3187" d="M259.167-149.073a.409.409 0 0 1-.409-.409v-9.118a.41.41 0 0 1 .409-.409.41.41 0 0 1 .409.409v9.117a.409.409 0 0 1-.409.41z" class="cls-4" data-name="Path 3187" transform="translate(-239.888 175.384)"/>
                <path id="Path_3188" d="M237.9-310.887v4.913a.41.41 0 0 1-.409.409.41.41 0 0 1-.409-.409v-3.276a.41.41 0 0 0-.409-.409.409.409 0 0 0-.409.409v3.276a1.23 1.23 0 0 0 1.228 1.228 1.23 1.23 0 0 0 1.228-1.228v-4.913z" class="cls-4" data-name="Path 3188" transform="translate(-219.026 316.208)"/>
                <path id="Path_3189" d="M163.129-254.633v3.275a.819.819 0 0 0 .819.819.819.819 0 0 0 .819-.819v-3.275z" class="cls-12" data-name="Path 3189" transform="translate(-151.22 264.049)"/>
                <path id="Path_3190" fill="#ccc" d="M163.129-348.387v1.638l.819.819.819-.819v-1.638z" data-name="Path 3190" transform="translate(-151.22 350.979)"/>
                <path id="Path_3191" fill="#ebebeb" d="M163.129-323.158l.819.819.819-.819v-2.729h-1.638z" data-name="Path 3191" transform="translate(-151.22 330.117)"/>
                <path id="Path_3192" d="M11.184-356.85l-1.358-.45v-7.047h.409a.41.41 0 0 0 .409-.409v-8.734a1.5 1.5 0 0 0-.968-1.4 2.859 2.859 0 0 0 .968-2.145v-4.265a1.644 1.644 0 0 0-.63-1.291 1.645 1.645 0 0 0-.8-1.191 1.644 1.644 0 0 0-1.433-.1 1.643 1.643 0 0 0-1.433.1 1.644 1.644 0 0 0-.8 1.191 1.644 1.644 0 0 0-.63 1.291v4.259a2.859 2.859 0 0 0 .968 2.145 1.509 1.509 0 0 0-.907.979 4.509 4.509 0 0 1-4.156-4.489.41.41 0 0 0-.409-.409.409.409 0 0 0-.409.409 5.33 5.33 0 0 0 4.908 5.306v8.341a.41.41 0 0 0 .409.409h.409v7.047l-1.358.452a.409.409 0 0 0-.259.518.41.41 0 0 0 .388.28.41.41 0 0 0 .129-.021l1.638-.546a.409.409 0 0 0 .28-.388v-7.342h2.458v7.342a.41.41 0 0 0 .28.388l1.638.546a.412.412 0 0 0 .13.021.41.41 0 0 0 .388-.28.409.409 0 0 0-.259-.517zm-5.452-8.318v-5.773a2.054 2.054 0 0 0 1.6-1.6h.9a2.054 2.054 0 0 0 1.6 1.6v5.773zm2.457-9.007v.819H7.37v-.819zm1.638 2.386a1.23 1.23 0 0 1-.819-1.158v-1.228h.136a.683.683 0 0 1 .682.682zm-4.094-6.89a2.049 2.049 0 0 1 2.047-2.047 2.049 2.049 0 0 1 2.047 2.047v.136h-.99a1.293 1.293 0 0 0-1.057-.546 1.294 1.294 0 0 0-1.058.546h-.99zm0-2.621a.822.822 0 0 1 .41-.709.41.41 0 0 0 .2-.354.822.822 0 0 1 .409-.709.822.822 0 0 1 .819 0 .409.409 0 0 0 .409 0 .822.822 0 0 1 .819 0 .822.822 0 0 1 .409.709.41.41 0 0 0 .2.354.822.822 0 0 1 .41.709v.618a2.857 2.857 0 0 0-2.047-.863 2.858 2.858 0 0 0-2.047.863zm0 4.259v-.682H6.96a.409.409 0 0 0 .378-.252.477.477 0 0 1 .441-.294.477.477 0 0 1 .441.294.409.409 0 0 0 .378.252h1.228v.682a2.049 2.049 0 0 1-2.047 2.047 2.05 2.05 0 0 1-2.047-2.048zm.682 2.866h.136v1.228a1.23 1.23 0 0 1-.819 1.158v-1.7a.683.683 0 0 1 .682-.687z" data-name="Path 3192" transform="translate(.036 384.001)"/>
                <path id="Path_3193" d="M220.714-316.512h-6.551a.41.41 0 0 0-.409.409v22.218a.41.41 0 0 0 .12.289.41.41 0 0 0 .289.12h6.551a.409.409 0 0 0 .409-.409V-316.1a.409.409 0 0 0-.409-.412zm-.409 22.218h-5.732v-21.4h5.727z" data-name="Path 3193" transform="translate(-198.16 321.424)"/>
                <path id="Path_3194" d="M159.551-354.012h-1.638a.41.41 0 0 0-.409.409v4.367a.41.41 0 0 0 .12.29l.7.7v1.059h-.409a.409.409 0 0 0-.409.409v3.275a1.23 1.23 0 0 0 1.228 1.228 1.23 1.23 0 0 0 1.228-1.228v-3.275a.409.409 0 0 0-.409-.409h-.409v-1.059l.7-.7a.409.409 0 0 0 .12-.29v-4.364a.409.409 0 0 0-.413-.412zm-.409 10.509a.41.41 0 0 1-.409.409.41.41 0 0 1-.409-.409v-2.866h.819zm0-9.69v.819h-.819v-.819zm-.409 4.2l-.409-.409v-2.151h.819v2.151z" data-name="Path 3194" transform="translate(-146.004 356.195)"/>
            </g>
        </g>
    </g>
</svg>
