<svg xmlns="http://www.w3.org/2000/svg" width="45" height="45" viewBox="0 0 45 45">
    <defs>
        <style>
            .cls-9{fill:#5e256d}
        </style>
    </defs>
    <g id="Group_237" data-name="Group 237" transform="translate(-1743 -739)">
        <circle id="Ellipse_594" cx="22.5" cy="22.5" r="22.5" fill="#003b71" data-name="Ellipse 594" transform="translate(1743 739)"/>
        <g id="Group_313" data-name="Group 313" transform="translate(1750 1115.669)">
            <path id="Path_2959" fill="#86818e" d="M35.781-345.147l-14.32 12.94a.682.682 0 0 1-.915 0l-14.32-12.94a.682.682 0 0 1-.226-.506v-18.326a.682.682 0 0 1 .682-.682h28.64a.682.682 0 0 1 .682.682v18.326a.681.681 0 0 1-.223.506z" data-name="Path 2959" transform="translate(-5.454 -5.461)"/>
            <path id="Path_2960" fill="#ffe2e2" d="M36-319.6v-14.384a.682.682 0 0 1 .682-.682h23.182a.682.682 0 0 1 .682.682v14.384a.684.684 0 0 1-.225.506l-11.59 10.479a.683.683 0 0 1-.915 0l-11.591-10.474A.683.683 0 0 1 36-319.6z" data-name="Path 2960" transform="translate(-32.725 -32.732)"/>
            <path id="Path_2961" fill="#ffefed" d="M49.3-309.134l-.567.512a.681.681 0 0 1-.914 0L36.225-319.1a.684.684 0 0 1-.225-.5v-14.385a.683.683 0 0 1 .682-.682h2.048a.683.683 0 0 0-.682.682v14.385a.684.684 0 0 0 .225.506z" data-name="Path 2961" transform="translate(-32.725 -32.725)"/>
            <path id="Path_2962" fill="#ffcfcf" d="M172.942-333.987v14.387a.684.684 0 0 1-.225.506l-11.591 10.473a.681.681 0 0 1-.914 0l-.567-.512 11.025-9.967a.684.684 0 0 0 .225-.506v-14.385a.683.683 0 0 0-.682-.682h2.047a.683.683 0 0 1 .682.686z" data-name="Path 2962" transform="translate(-145.12 -32.725)"/>
            <path id="Path_2963" fill="#f9d334" d="M92.1-287.918c-.11.111-.223.216-.337.32a8.489 8.489 0 0 1-11.329 0c-.114-.1-.228-.209-.338-.32a8.486 8.486 0 0 1 0-12c.11-.111.224-.218.338-.32a8.489 8.489 0 0 1 11.329 0q.172.155.337.32a8.488 8.488 0 0 1 0 12z" data-name="Path 2963" transform="translate(-70.547 -62.052)"/>
            <path id="Path_2964" fill="#f9e27d" d="M82.484-287.59a8.427 8.427 0 0 0 4.64 2.1 8.463 8.463 0 0 1-6.687-2.1c-.115-.1-.228-.209-.337-.319a8.486 8.486 0 0 1 0-12c.109-.111.222-.217.337-.32a8.463 8.463 0 0 1 6.687-2.1 8.426 8.426 0 0 0-4.64 2.1c-.115.1-.228.209-.337.32a8.486 8.486 0 0 0 0 12c.109.109.222.217.337.319z" data-name="Path 2964" transform="translate(-70.552 -62.061)"/>
            <path id="Path_2965" fill="#f1c200" d="M166.671-287.908c-.111.111-.223.215-.337.319a8.471 8.471 0 0 1-6.689 2.1 8.431 8.431 0 0 0 4.642-2.1c.114-.1.226-.209.337-.319a8.489 8.489 0 0 0 0-12c-.111-.111-.223-.216-.337-.32a8.43 8.43 0 0 0-4.642-2.1 8.472 8.472 0 0 1 6.689 2.1c.114.1.226.209.337.32a8.489 8.489 0 0 1 0 12z" data-name="Path 2965" transform="translate(-145.12 -62.061)"/>
            <path id="Path_2966" d="M1.228-370.669A1.23 1.23 0 0 0 0-369.441v18.326a1.231 1.231 0 0 0 .405.911l14.32 12.94a1.223 1.223 0 0 0 1.647 0l14.32-12.936a1.232 1.232 0 0 0 .4-.911v-18.326a1.23 1.23 0 0 0-1.228-1.228zm28.777 1.228v18.326a.136.136 0 0 1-.045.1l-14.321 12.943a.137.137 0 0 1-.182 0l-14.32-12.94a.136.136 0 0 1-.045-.1v-18.326a.137.137 0 0 1 .136-.136h28.641a.137.137 0 0 1 .137.133z" class="cls-9" data-name="Path 2966"/>
            <path id="Path_2967" d="M54.41-340.661H31.228A1.23 1.23 0 0 0 30-339.433v14.384a1.23 1.23 0 0 0 .4.912L42-313.664a1.225 1.225 0 0 0 1.647 0l11.59-10.474a1.23 1.23 0 0 0 .4-.912v-14.384a1.229 1.229 0 0 0-1.227-1.227zm.136 15.612a.135.135 0 0 1-.045.1l-11.59 10.474a.136.136 0 0 1-.183 0l-11.591-10.473a.136.136 0 0 1-.045-.1v-14.384a.137.137 0 0 1 .136-.137H54.41a.137.137 0 0 1 .136.137z" class="cls-9" data-name="Path 2967" transform="translate(-27.27 -27.278)"/>
            <path id="Path_2968" d="M184.508-153.87a4.412 4.412 0 0 1-.472.193.546.546 0 0 0-.338.694.547.547 0 0 0 .516.368.548.548 0 0 0 .178-.03 5.648 5.648 0 0 0 .586-.241.545.545 0 0 0 .257-.728.546.546 0 0 0-.727-.256z" class="cls-9" data-name="Path 2968" transform="translate(-166.958 -197.026)"/>
            <path id="Path_2969" d="M145.068-153.458a4.276 4.276 0 0 1-1.492-.4.546.546 0 0 0-.739.219.546.546 0 0 0 .218.741 5.283 5.283 0 0 0 1.918.526h.048a.546.546 0 0 0 .543-.5.545.545 0 0 0-.496-.586z" class="cls-9" data-name="Path 2969" transform="translate(-129.781 -197.026)"/>
            <path id="Path_2970" d="M86.807-305.842a9.012 9.012 0 0 0-12.415-.341 8.942 8.942 0 0 0-3.007 6.729 9.041 9.041 0 0 0 15.064 6.726c.125-.112.245-.227.358-.339a9.045 9.045 0 0 0 0-12.775zm-12.052.822a7.888 7.888 0 0 1 2.277 5.565 7.889 7.889 0 0 1-2.277 5.566 7.928 7.928 0 0 1 0-11.131zm.816 11.854a8.97 8.97 0 0 0 2.552-6.289 8.97 8.97 0 0 0-2.552-6.289 7.9 7.9 0 0 1 4.847-1.66 7.908 7.908 0 0 1 4.847 1.66 8.97 8.97 0 0 0-2.553 6.289 8.969 8.969 0 0 0 2.553 6.289 7.917 7.917 0 0 1-9.694 0zm10.51-.724a7.888 7.888 0 0 1-2.277-5.565 7.888 7.888 0 0 1 2.277-5.565 7.946 7.946 0 0 1 .001 11.13z" class="cls-9" data-name="Path 2970" transform="translate(-64.869 -56.516)"/>
        </g>
    </g>
</svg>
