<svg xmlns="http://www.w3.org/2000/svg" width="45" height="45" viewBox="0 0 45 45">
  <defs>
    <style>
      .cls-1 {
        fill: #003b71;
      }

      .cls-2 {
        fill: #ef4237;
      }

      .cls-3 {
        fill: #d72f28;
      }

      .cls-4 {
        fill: #fff;
      }

      .cls-5 {
        fill: #00a0b2;
      }

      .cls-6 {
        fill: #00656d;
      }

      .cls-7 {
        fill: #fcbb55;
      }

      .cls-8 {
        fill: #f3773b;
      }

      .cls-9 {
        fill: #ee2d3f;
      }

      .cls-10 {
        fill: #d62528;
      }

      .cls-11 {
        fill: #9bc5d3;
      }

      .cls-12 {
        fill: #0a030b;
      }
    </style>
  </defs>
  <g id="Group_220" data-name="Group 220" transform="translate(-511 -641)">
    <circle id="Ellipse_668" data-name="Ellipse 668" class="cls-1" cx="22.5" cy="22.5" r="22.5" transform="translate(511 641)"/>
    <g id="Group_244" data-name="Group 244" transform="translate(519 1160.119)">
      <path id="Path_2217" data-name="Path 2217" class="cls-2" d="M210.713-167.828a2.807,2.807,0,0,1,2.807,2.807,2.807,2.807,0,0,1-2.807,2.807,2.807,2.807,0,0,1-2.807-2.807A2.807,2.807,0,0,1,210.713-167.828Z" transform="translate(-195.772 -324.086)"/>
      <path id="Path_2218" data-name="Path 2218" class="cls-3" d="M209.31-165.034a2.805,2.805,0,0,1,2.1-2.7,2.8,2.8,0,0,0-.688-.092,2.807,2.807,0,0,0-2.82,2.793,2.807,2.807,0,0,0,2.793,2.82,2.8,2.8,0,0,0,.715-.092A2.806,2.806,0,0,1,209.31-165.034Z" transform="translate(-195.773 -324.086)"/>
      <path id="Path_2219" data-name="Path 2219" class="cls-4" d="M265.018-134.829h.877v-.936h-.877Z" transform="translate(-249.551 -354.278)"/>
      <path id="Path_2220" data-name="Path 2220" class="cls-5" d="M258.807-256a2.807,2.807,0,0,1,2.807,2.807,2.807,2.807,0,0,1-2.807,2.807A2.807,2.807,0,0,1,256-253.193,2.807,2.807,0,0,1,258.807-256Z" transform="translate(-241.06 -241.06)"/>
      <path id="Path_2221" data-name="Path 2221" class="cls-6" d="M257.4-253.206a2.805,2.805,0,0,1,2.1-2.7,2.8,2.8,0,0,0-.688-.092,2.807,2.807,0,0,0-2.82,2.793,2.807,2.807,0,0,0,2.793,2.82,2.8,2.8,0,0,0,.715-.092A2.806,2.806,0,0,1,257.4-253.206Z" transform="translate(-241.06 -241.06)"/>
      <path id="Path_2222" data-name="Path 2222" class="cls-5" d="M162.619-256a2.807,2.807,0,0,1,2.807,2.807,2.807,2.807,0,0,1-2.807,2.807,2.807,2.807,0,0,1-2.807-2.807A2.807,2.807,0,0,1,162.619-256Z" transform="translate(-150.485 -241.06)"/>
      <path id="Path_2223" data-name="Path 2223" class="cls-6" d="M161.216-253.206a2.805,2.805,0,0,1,2.105-2.7,2.8,2.8,0,0,0-.688-.092,2.807,2.807,0,0,0-2.82,2.793,2.807,2.807,0,0,0,2.793,2.82,2.8,2.8,0,0,0,.715-.092A2.806,2.806,0,0,1,161.216-253.206Z" transform="translate(-150.486 -241.06)"/>
      <path id="Path_2224" data-name="Path 2224" class="cls-4" d="M216.924-223h.877v-.936h-.877Z" transform="translate(-204.264 -271.251)"/>
      <path id="Path_2225" data-name="Path 2225" class="cls-4" d="M313.112-223h.877v-.936h-.877Z" transform="translate(-294.839 -271.251)"/>
      <path id="Path_2226" data-name="Path 2226" class="cls-7" d="M114.525-344.172a2.807,2.807,0,0,1,2.807,2.807,2.807,2.807,0,0,1-2.807,2.807,2.807,2.807,0,0,1-2.807-2.807A2.807,2.807,0,0,1,114.525-344.172Z" transform="translate(-105.198 -158.033)"/>
      <path id="Path_2227" data-name="Path 2227" class="cls-8" d="M113.122-341.378a2.805,2.805,0,0,1,2.105-2.7,2.8,2.8,0,0,0-.688-.092,2.807,2.807,0,0,0-2.82,2.793,2.807,2.807,0,0,0,2.793,2.82,2.806,2.806,0,0,0,.715-.092A2.806,2.806,0,0,1,113.122-341.378Z" transform="translate(-105.198 -158.034)"/>
      <path id="Path_2228" data-name="Path 2228" class="cls-7" d="M306.9-344.172a2.807,2.807,0,0,1,2.807,2.807,2.807,2.807,0,0,1-2.807,2.807,2.807,2.807,0,0,1-2.807-2.807A2.807,2.807,0,0,1,306.9-344.172Z" transform="translate(-286.347 -158.033)"/>
      <path id="Path_2229" data-name="Path 2229" class="cls-8" d="M305.5-341.378a2.805,2.805,0,0,1,2.105-2.7,2.8,2.8,0,0,0-.688-.092,2.807,2.807,0,0,0-2.82,2.793,2.807,2.807,0,0,0,2.793,2.82,2.805,2.805,0,0,0,.715-.092A2.806,2.806,0,0,1,305.5-341.378Z" transform="translate(-286.347 -158.034)"/>
      <path id="Path_2230" data-name="Path 2230" class="cls-7" d="M210.713-344.172a2.807,2.807,0,0,1,2.807,2.807,2.807,2.807,0,0,1-2.807,2.807,2.807,2.807,0,0,1-2.807-2.807A2.807,2.807,0,0,1,210.713-344.172Z" transform="translate(-195.772 -158.033)"/>
      <path id="Path_2231" data-name="Path 2231" class="cls-8" d="M209.31-341.378a2.805,2.805,0,0,1,2.1-2.7,2.8,2.8,0,0,0-.688-.092,2.807,2.807,0,0,0-2.82,2.793,2.807,2.807,0,0,0,2.793,2.82,2.805,2.805,0,0,0,.715-.092A2.806,2.806,0,0,1,209.31-341.378Z" transform="translate(-195.773 -158.034)"/>
      <path id="Path_2232" data-name="Path 2232" class="cls-4" d="M168.83-311.174h.877v-.936h-.877Z" transform="translate(-158.977 -188.224)"/>
      <path id="Path_2233" data-name="Path 2233" class="cls-4" d="M265.018-311.174h.877v-.936h-.877Z" transform="translate(-249.551 -188.224)"/>
      <path id="Path_2234" data-name="Path 2234" class="cls-4" d="M361.2-311.174h.877v-.936H361.2Z" transform="translate(-340.125 -188.224)"/>
      <path id="Path_2235" data-name="Path 2235" class="cls-9" d="M354.995-432.344a2.807,2.807,0,0,1,2.807,2.807,2.807,2.807,0,0,1-2.807,2.807,2.807,2.807,0,0,1-2.807-2.807A2.807,2.807,0,0,1,354.995-432.344Z" transform="translate(-331.634 -75.007)"/>
      <path id="Path_2236" data-name="Path 2236" class="cls-10" d="M353.592-429.55a2.805,2.805,0,0,1,2.1-2.7,2.8,2.8,0,0,0-.688-.092,2.807,2.807,0,0,0-2.82,2.793,2.807,2.807,0,0,0,2.793,2.82,2.8,2.8,0,0,0,.715-.092A2.805,2.805,0,0,1,353.592-429.55Z" transform="translate(-331.635 -75.008)"/>
      <path id="Path_2237" data-name="Path 2237" class="cls-9" d="M258.807-432.344a2.807,2.807,0,0,1,2.807,2.807,2.807,2.807,0,0,1-2.807,2.807A2.807,2.807,0,0,1,256-429.537,2.807,2.807,0,0,1,258.807-432.344Z" transform="translate(-241.06 -75.007)"/>
      <path id="Path_2238" data-name="Path 2238" class="cls-10" d="M257.4-429.55a2.805,2.805,0,0,1,2.1-2.7,2.8,2.8,0,0,0-.688-.092A2.807,2.807,0,0,0,256-429.55a2.807,2.807,0,0,0,2.793,2.82,2.8,2.8,0,0,0,.715-.092A2.806,2.806,0,0,1,257.4-429.55Z" transform="translate(-241.06 -75.008)"/>
      <path id="Path_2239" data-name="Path 2239" class="cls-9" d="M66.431-432.344a2.807,2.807,0,0,1,2.807,2.807,2.807,2.807,0,0,1-2.807,2.807,2.807,2.807,0,0,1-2.807-2.807A2.807,2.807,0,0,1,66.431-432.344Z" transform="translate(-59.911 -75.007)"/>
      <path id="Path_2240" data-name="Path 2240" class="cls-10" d="M65.028-429.55a2.805,2.805,0,0,1,2.105-2.7,2.8,2.8,0,0,0-.688-.092,2.807,2.807,0,0,0-2.82,2.793,2.807,2.807,0,0,0,2.793,2.82,2.8,2.8,0,0,0,.715-.092A2.806,2.806,0,0,1,65.028-429.55Z" transform="translate(-59.911 -75.008)"/>
      <path id="Path_2241" data-name="Path 2241" class="cls-9" d="M162.619-432.344a2.807,2.807,0,0,1,2.807,2.807,2.807,2.807,0,0,1-2.807,2.807,2.807,2.807,0,0,1-2.807-2.807A2.807,2.807,0,0,1,162.619-432.344Z" transform="translate(-150.485 -75.007)"/>
      <path id="Path_2242" data-name="Path 2242" class="cls-10" d="M161.216-429.55a2.805,2.805,0,0,1,2.105-2.7,2.8,2.8,0,0,0-.688-.092,2.807,2.807,0,0,0-2.82,2.793,2.807,2.807,0,0,0,2.793,2.82,2.8,2.8,0,0,0,.715-.092A2.806,2.806,0,0,1,161.216-429.55Z" transform="translate(-150.486 -75.008)"/>
      <path id="Path_2243" data-name="Path 2243" class="cls-4" d="M120.736-399.346h.877v-.936h-.877Z" transform="translate(-113.69 -105.198)"/>
      <path id="Path_2244" data-name="Path 2244" class="cls-4" d="M216.924-399.346h.877v-.936h-.877Z" transform="translate(-204.264 -105.198)"/>
      <path id="Path_2245" data-name="Path 2245" class="cls-4" d="M313.112-399.346h.877v-.936h-.877Z" transform="translate(-294.839 -105.198)"/>
      <path id="Path_2246" data-name="Path 2246" class="cls-4" d="M409.3-399.346h.877v-.936H409.3Z" transform="translate(-385.412 -105.198)"/>
      <path id="Path_2247" data-name="Path 2247" class="cls-11" d="M416.668-504.485l-4.449,4.3a2.8,2.8,0,0,1,1.354.8l4.03-4.169A.936.936,0,0,0,416.668-504.485Z" transform="translate(-388.162 -7.076)"/>
      <path id="Path_2248" data-name="Path 2248" class="cls-11" d="M16.6-190.115,7.514-181.33a1.871,1.871,0,0,0,1.871,1.871l8.786-9.089A2.812,2.812,0,0,1,16.6-190.115Z" transform="translate(-7.075 -303.1)"/>
      <path id="Path_2249" data-name="Path 2249" class="cls-7" d="M465.426-504.485,464-503.105l.983.983,1.38-1.427A.936.936,0,0,0,465.426-504.485Z" transform="translate(-436.92 -7.076)"/>
      <path id="Path_2250" data-name="Path 2250" class="cls-5" d="M7.514-72.968A1.871,1.871,0,0,0,9.385-71.1l2.069-2.141-1.8-1.8Z" transform="translate(-7.075 -411.462)"/>
      <path id="Path_2251" data-name="Path 2251" class="cls-11" d="M8.45-504.485l4.449,4.3a2.8,2.8,0,0,0-1.354.8l-4.03-4.169A.936.936,0,0,1,8.45-504.485Z" transform="translate(-7.075 -7.076)"/>
      <path id="Path_2252" data-name="Path 2252" class="cls-11" d="M323.444-190.115l9.088,8.785a1.871,1.871,0,0,1-1.871,1.871l-8.786-9.089A2.812,2.812,0,0,0,323.444-190.115Z" transform="translate(-303.09 -303.1)"/>
      <path id="Path_2253" data-name="Path 2253" class="cls-7" d="M8.45-504.485l1.427,1.38-.983.983-1.38-1.427A.936.936,0,0,1,8.45-504.485Z" transform="translate(-7.075 -7.076)"/>
      <path id="Path_2254" data-name="Path 2254" class="cls-5" d="M440.9-72.967a1.871,1.871,0,0,1-1.871,1.871l-2.069-2.141,1.8-1.8Z" transform="translate(-411.462 -411.463)"/>
      <path id="Path_2255" data-name="Path 2255" class="cls-12" d="M25.056-502.833a2.352,2.352,0,0,1-1.666.686h-.012a2.353,2.353,0,0,1-1.671-.7,2.353,2.353,0,0,1-.686-1.678,2.371,2.371,0,0,1,2.368-2.357H23.4a2.35,2.35,0,0,1,1.483.531,2.386,2.386,0,0,1,.207.2.44.44,0,0,0,.039.036,2.351,2.351,0,0,1,.628,1.617A2.353,2.353,0,0,1,25.056-502.833Zm-2.807,5.146a2.352,2.352,0,0,1-1.666.686h-.012a2.352,2.352,0,0,1-1.671-.7,2.353,2.353,0,0,1-.686-1.678,2.371,2.371,0,0,1,2.368-2.357h.011a2.353,2.353,0,0,1,1.671.7,2.352,2.352,0,0,1,.686,1.678A2.353,2.353,0,0,1,22.25-497.687Zm-4.473,5.831h-.012a2.352,2.352,0,0,1-1.671-.7,2.353,2.353,0,0,1-.686-1.678,2.371,2.371,0,0,1,2.368-2.357h.011a2.352,2.352,0,0,1,1.671.7,2.352,2.352,0,0,1,.686,1.678,2.377,2.377,0,0,1-.106.693.437.437,0,0,0-.092.142,2.38,2.38,0,0,1-1.324,1.323.436.436,0,0,0-.143.093A2.375,2.375,0,0,1,17.777-491.855Zm-1.141,4.46a2.352,2.352,0,0,1-1.666.686h-.012a2.353,2.353,0,0,1-1.671-.7,2.353,2.353,0,0,1-.686-1.678,2.371,2.371,0,0,1,2.368-2.357h.012a2.353,2.353,0,0,1,1.671.7,2.353,2.353,0,0,1,.686,1.678A2.353,2.353,0,0,1,16.636-487.4Zm-4.473-4.46h-.012a2.372,2.372,0,0,1-.787-.138.436.436,0,0,0-.106-.061,2.378,2.378,0,0,1-.874-.606,2.351,2.351,0,0,1-.589-1.574,2.371,2.371,0,0,1,2.368-2.357h.011a2.352,2.352,0,0,1,1.671.7,2.352,2.352,0,0,1,.686,1.678,2.353,2.353,0,0,1-.7,1.671A2.352,2.352,0,0,1,12.163-491.855ZM9.356-497H9.345a2.353,2.353,0,0,1-1.671-.7,2.353,2.353,0,0,1-.686-1.678,2.371,2.371,0,0,1,2.368-2.357h.011a2.353,2.353,0,0,1,1.671.7,2.352,2.352,0,0,1,.686,1.678,2.353,2.353,0,0,1-.7,1.671A2.352,2.352,0,0,1,9.356-497ZM6.55-502.147H6.538a2.353,2.353,0,0,1-1.671-.7,2.353,2.353,0,0,1-.686-1.678,2.371,2.371,0,0,1,2.368-2.357h.012a2.353,2.353,0,0,1,1.671.7A2.349,2.349,0,0,1,8.9-504.8c-.006.08-.011.161-.011.243,0,.106,0,.21.014.314a2.35,2.35,0,0,1-.686,1.413A2.352,2.352,0,0,1,6.55-502.147ZM1.222-511.1l.954.922-.352.352L.9-510.778A.5.5,0,0,1,1.222-511.1Zm3.8,3.677a3.224,3.224,0,0,0-.539.352l-2.053-2.123.373-.373Zm4.5,4.812q-.078,0-.156,0H9.356c-.06,0-.12,0-.18.005q.094-.129.174-.265Q9.432-502.739,9.527-502.61Zm2.607,1.311c.079,0,.157,0,.235-.009a3.241,3.241,0,0,0-.2.311,3.231,3.231,0,0,0-.2-.306q.078,0,.156,0Zm5.642-5.584h.011a2.353,2.353,0,0,1,1.671.7,2.353,2.353,0,0,1,.686,1.678,2.353,2.353,0,0,1-.7,1.671,2.352,2.352,0,0,1-1.666.686h-.012a2.353,2.353,0,0,1-1.671-.7,2.353,2.353,0,0,1-.686-1.678A2.371,2.371,0,0,1,17.776-506.883Zm2.986,4.273q-.081,0-.164,0h-.016c-.06,0-.12,0-.18.005a3.241,3.241,0,0,0,.18-.275A3.221,3.221,0,0,0,20.762-502.61ZM17.778-501a3.236,3.236,0,0,0-.181-.277q.082,0,.164,0h.016c.061,0,.122,0,.182-.005A3.26,3.26,0,0,0,17.778-501Zm0,3.259a3.251,3.251,0,0,0,.179.275q-.081,0-.164,0h-.016c-.06,0-.12,0-.18.005A3.272,3.272,0,0,0,17.776-497.739Zm-2.805,1.887a3.245,3.245,0,0,0-.181-.277q.082,0,.164,0h.016c.061,0,.122,0,.182-.005A3.23,3.23,0,0,0,14.971-495.852Zm0,3.259a3.267,3.267,0,0,0,.179.275q-.082,0-.164,0c-.066,0-.131,0-.2.006A3.226,3.226,0,0,0,14.969-492.593Zm.016-10.022h-.016c-.078,0-.156,0-.233.009a3.243,3.243,0,0,0,.21-.32,3.216,3.216,0,0,0,.2.315Q15.067-502.614,14.985-502.615Zm-1.7,4.912a2.353,2.353,0,0,1-.686-1.678,2.371,2.371,0,0,1,2.368-2.357h.012a2.353,2.353,0,0,1,1.671.7,2.353,2.353,0,0,1,.686,1.678,2.353,2.353,0,0,1-.7,1.671A2.352,2.352,0,0,1,14.97-497h-.012A2.351,2.351,0,0,1,13.287-497.7Zm-1.124-.036a3.251,3.251,0,0,0,.179.275q-.081,0-.164,0h-.016c-.06,0-.12,0-.18.005A3.272,3.272,0,0,0,12.163-497.739Zm14.911-11.828.373.373-2.053,2.123a3.232,3.232,0,0,0-.539-.352Zm1.906-1.212-.922.954-.352-.352.954-.922a.493.493,0,0,1,.137.07.5.5,0,0,1,.12.123.487.487,0,0,1,.042.072A.52.52,0,0,1,28.98-510.778Zm-1.233,27.771-1.63-1.686,1.19-1.19,1.686,1.63A1.436,1.436,0,0,1,27.747-483.007ZM.888-484.253l1.686-1.63,1.19,1.19-1.63,1.686A1.436,1.436,0,0,1,.888-484.253Zm28.87-26.068.123-.127v-.177A1.376,1.376,0,0,0,28.506-512h-.177l-.127.123h0l-4.3,4.156a3.281,3.281,0,0,0-.5-.04H23.39a3.247,3.247,0,0,0-2.805,1.617,3.263,3.263,0,0,0-.5-.655,3.224,3.224,0,0,0-2.29-.962h-.016a3.247,3.247,0,0,0-2.813,1.63,3.242,3.242,0,0,0-.64-.809l-.592.647a2.373,2.373,0,0,1,.77,1.759,2.353,2.353,0,0,1-.7,1.671,2.352,2.352,0,0,1-1.666.686h-.012a2.353,2.353,0,0,1-1.671-.7,2.35,2.35,0,0,1-.668-1.378c.006-.081.011-.162.011-.244,0-.106,0-.21-.014-.314a2.371,2.371,0,0,1,2.352-2.1h.011a2.365,2.365,0,0,1,.78.135l.293-.827a3.24,3.24,0,0,0-1.068-.185h-.016a3.247,3.247,0,0,0-2.8,1.607,3.261,3.261,0,0,0-.479-.616,3.224,3.224,0,0,0-2.29-.962H6.549a3.246,3.246,0,0,0-.561.049l-2.562-2.476-.134-.13-1.613-1.56h0L1.551-512H1.374A1.376,1.376,0,0,0,0-510.626v.177l.123.127h0L3.911-506.4a3.226,3.226,0,0,0-.607,1.871,3.224,3.224,0,0,0,.94,2.3,3.224,3.224,0,0,0,2.29.961H6.55c.061,0,.122,0,.182-.005a3.227,3.227,0,0,0-.621,1.89,3.224,3.224,0,0,0,.94,2.3,3.224,3.224,0,0,0,2.29.961h.016c.061,0,.122,0,.182-.005a3.227,3.227,0,0,0-.621,1.89,3.261,3.261,0,0,0,.119.889l-3.744,3.619.61.631,3.508-3.391a3.268,3.268,0,0,0,.316.411c.042.048.086.1.131.141a3.276,3.276,0,0,0,.507.419l-5.991,6.2L3.2-486.493,5.1-488.324l-.61-.631L.134-484.744a.439.439,0,0,0-.134.315,2.312,2.312,0,0,0,2.31,2.31.439.439,0,0,0,.315-.134l8.574-8.87a3.259,3.259,0,0,0,.948.145h.016c.061,0,.122,0,.183-.006a3.224,3.224,0,0,0-.622,1.89,3.224,3.224,0,0,0,.94,2.3,3.224,3.224,0,0,0,2.29.961h.016a3.224,3.224,0,0,0,2.283-.94,3.224,3.224,0,0,0,.962-2.29,3.222,3.222,0,0,0-.618-1.921q.081,0,.164,0h.016a3.256,3.256,0,0,0,.917-.131l4.48,4.635.631-.61L19.539-491.5a3.279,3.279,0,0,0,.521-.42,3.271,3.271,0,0,0,.442-.544l6.174,5.968-1.169,1.169-.893-.924-.631.61,3.272,3.385a.439.439,0,0,0,.315.134,2.312,2.312,0,0,0,2.31-2.31.439.439,0,0,0-.134-.315l-8.857-8.562a3.26,3.26,0,0,0,.132-.9,3.222,3.222,0,0,0-.618-1.921q.082,0,.164,0h.016a3.224,3.224,0,0,0,2.283-.94,3.224,3.224,0,0,0,.961-2.29,3.221,3.221,0,0,0-.618-1.921q.081,0,.164,0h.016a3.224,3.224,0,0,0,2.283-.94,3.224,3.224,0,0,0,.961-2.29A3.22,3.22,0,0,0,26-506.439l3.753-3.882Z" transform="translate(0 0)"/>
    </g>
  </g>
</svg>
