<svg xmlns="http://www.w3.org/2000/svg" width="45" height="45" viewBox="0 0 45 45">
    <defs>
        <style>
            .cls-2{fill:#ffcc69}.cls-2,.cls-3,.cls-5,.cls-6{fill-rule:evenodd}.cls-3{fill:#ff7b78}.cls-5{fill:#ffd0c7}.cls-6{fill:#ffdbd5}
        </style>
    </defs>
    <g id="Group_180" data-name="Group 180" transform="translate(-1459 -739)">
        <circle id="Ellipse_598" cx="22.5" cy="22.5" r="22.5" fill="#003b71" data-name="Ellipse 598" transform="translate(1459 739)"/>
        <g id="Group_283" data-name="Group 283" transform="translate(1466.329 1125.244)">
            <path id="Path_2533" d="M229.415-297.191c-2.375 0-4.239 1.738-4.239 5.411 1.646.432 3.347.182 4.239-1.584.893 1.765 2.594 2.016 4.24 1.584 0-3.673-1.705-5.411-4.24-5.411z" class="cls-2" data-name="Path 2533" transform="translate(-207.371 -75.029)"/>
            <path id="Path_2534" d="M7.5-133.482h14.3v-5.187c-.05-3.162-3.093-3.329-5.322-4.065a1.832 1.832 0 0 1-1.827 1.827 1.834 1.834 0 0 1-1.829-1.827c-2.229.736-5.27.9-5.322 4.065z" class="cls-3" data-name="Path 2534" transform="translate(-6.907 -217.273)"/>
            <path id="Path_2535" fill="#a0c7ff" fill-rule="evenodd" d="M188.352-133.482h14.3v-5.187a3.081 3.081 0 0 0-1.847-2.944 25.7 25.7 0 0 0-3.474-1.121 1.834 1.834 0 0 1-1.829 1.827 1.832 1.832 0 0 1-1.827-1.827 25.708 25.708 0 0 0-3.476 1.121 3.081 3.081 0 0 0-1.848 2.944z" data-name="Path 2535" transform="translate(-173.459 -217.273)"/>
            <path id="Path_2536" d="M74.809-156.714a1.834 1.834 0 0 0 1.829 1.827 1.832 1.832 0 0 0 1.827-1.827v-1.2l-.087.037a4.422 4.422 0 0 1-1.74.353 4.424 4.424 0 0 1-1.741-.353l-.087-.037z" class="cls-5" data-name="Path 2536" transform="translate(-68.894 -203.293)"/>
            <path id="Path_2537" d="M305.4-206.344a25.7 25.7 0 0 0-3.474-1.121v-1.735a4.251 4.251 0 0 0 2.41-3.823 4.564 4.564 0 0 0 3.487 4.423 2.466 2.466 0 0 1-2.423 2.256z" class="cls-2" data-name="Path 2537" transform="translate(-278.049 -152.541)"/>
            <path id="Path_2538" d="M187-207.21a25.711 25.711 0 0 0-3.476 1.121 2.464 2.464 0 0 1-2.421-2.256 4.564 4.564 0 0 0 3.485-4.4 4.257 4.257 0 0 0 2.412 3.8z" class="cls-2" data-name="Path 2538" transform="translate(-166.785 -152.797)"/>
            <path id="Path_2539" d="M231.2-242.131a4.2 4.2 0 0 1-1.829.417 4.21 4.21 0 0 1-1.827-.415 4.254 4.254 0 0 1-2.412-3.8c-.008-1.669 0 0 0 0v-1.271c1.646.432 3.347.182 4.239-1.584.893 1.765 2.594 2.016 4.24 1.584v1.244a4.251 4.251 0 0 1-2.411 3.825z" class="cls-6" data-name="Path 2539" transform="translate(-207.328 -119.611)"/>
            <path id="Path_2540" d="M41.133-237.455v-1.15c1.269-.128 2.3-.207 3.081-1.227a9.433 9.433 0 0 0 5.9 1.2v1.178a4.5 4.5 0 0 1-2.75 4.137 4.427 4.427 0 0 1-1.74.353 4.43 4.43 0 0 1-1.741-.353 4.5 4.5 0 0 1-2.75-4.138z" class="cls-6" data-name="Path 2540" transform="translate(-37.881 -127.852)"/>
            <path id="Path_2541" d="M41.133-291.867a4.5 4.5 0 0 1 4.492-4.492 4.5 4.5 0 0 1 4.49 4.492v1.177a9.433 9.433 0 0 1-5.9-1.2c-.777 1.02-1.812 1.1-3.081 1.227z" class="cls-2" data-name="Path 2541" transform="translate(-37.881 -75.795)"/>
            <path id="Path_2542" d="M259.338-162.941a1.832 1.832 0 0 1-1.827 1.827 1.832 1.832 0 0 1-1.827-1.827v-1.733a4.21 4.21 0 0 0 1.827.415 4.2 4.2 0 0 0 1.829-.417z" class="cls-5" data-name="Path 2542" transform="translate(-235.467 -197.066)"/>
            <path id="Path_2543" d="M154.96-132.03a5.325 5.325 0 0 0-6.4 0v.247a3.21 3.21 0 0 0 1.518 2.722 3.186 3.186 0 0 0 1.684.481 3.181 3.181 0 0 0 1.683-.481 3.212 3.212 0 0 0 1.52-2.722z" class="cls-6" data-name="Path 2543" transform="translate(-136.809 -226.145)"/>
            <path id="Path_2544" d="M151.757-167.547a3.2 3.2 0 0 0-3.2 3.2v.592a5.325 5.325 0 0 1 6.4 0v-.582a3.2 3.2 0 0 0-3.2-3.21z" class="cls-2" data-name="Path 2544" transform="translate(-136.809 -194.422)"/>
            <path id="Path_2545" d="M171.121-82.016a3.181 3.181 0 0 1-1.683.481 3.186 3.186 0 0 1-1.684-.481v1.3a1.643 1.643 0 0 0 1.637 1.637 1.641 1.641 0 0 0 1.73-1.637z" class="cls-5" data-name="Path 2545" transform="translate(-154.489 -273.19)"/>
            <path id="Path_2546" fill="#d5e979" fill-rule="evenodd" d="M123.837-65.586a1.641 1.641 0 0 1-1.73 1.638 1.643 1.643 0 0 1-1.637-1.638c-2 .659-4.014.809-4.06 3.639v.953h11.49v-.953c-.049-2.83-2.066-2.98-4.063-3.639z" data-name="Path 2546" transform="translate(-107.205 -288.32)"/>
            <path id="Path_2547" d="M151.94-367.692a2.025 2.025 0 0 0 .052-2.856 2.027 2.027 0 0 0-2.856-.05l-.334.323-.335-.323a2.027 2.027 0 0 0-2.856.05 2.027 2.027 0 0 0 .052 2.856l3.138 3.029z" class="cls-3" data-name="Path 2547" transform="translate(-133.579 -6.906)"/>
            <path id="Path_2548" d="M78.444-196.078a.592.592 0 0 0-.427.181.593.593 0 0 0 .015.839 2.041 2.041 0 0 0 2.813 0 .593.593 0 0 0 .014-.839.593.593 0 0 0-.839-.015.844.844 0 0 1-1.164 0 .59.59 0 0 0-.412-.166z" data-name="Path 2548" transform="translate(-71.695 -168.146)"/>
            <path id="Path_2549" d="M30.346-292.873a.593.593 0 0 0-.389-.706 3.977 3.977 0 0 1-3.08-3.86v-1.244a6.829 6.829 0 0 0-1.306-4.462 4.413 4.413 0 0 0-3.526-1.542 4.4 4.4 0 0 0-3.461 1.536 6.79 6.79 0 0 0-1.371 4.468v1.244a3.623 3.623 0 0 1-1.52 3.077 3.807 3.807 0 0 0-.744-.074 3.8 3.8 0 0 0-3.551 2.457c-.158-.044-.988-.268-1.233-.34v-.394a5.088 5.088 0 0 0 2.662-4.469v-2.355a5.089 5.089 0 0 0-5.083-5.085 5.09 5.09 0 0 0-5.085 5.085v2.355a5.087 5.087 0 0 0 2.662 4.469v.4c-.245.072-.5.141-.763.212-2.007.536-4.508 1.209-4.558 4.275v5.2a.593.593 0 0 0 .593.593h8.019v.843a.593.593 0 0 0 .593.593h3.078a.593.593 0 0 0 .593-.593.593.593 0 0 0-.593-.593H9.8v-.355a3.459 3.459 0 0 1 .168-1.085c.373-1.069 1.339-1.353 2.653-1.741l.187-.055a2.234 2.234 0 0 0 2.1 1.468 2.26 2.26 0 0 0 2.193-1.466l.182.054c1.678.5 2.787.822 2.821 2.826v.355h-2.496a.593.593 0 0 0-.593.593.593.593 0 0 0 .593.593h3.083a.593.593 0 0 0 .593-.593v-.843H29.2a.593.593 0 0 0 .593-.593v-5.2a3.633 3.633 0 0 0-1.072-2.7 3.092 3.092 0 0 0 1.625-2.348zm-8.3-10.628a3.224 3.224 0 0 1 2.615 1.114 5.338 5.338 0 0 1 1.021 3.23 2.668 2.668 0 0 1-3.106-1.377.6.6 0 0 0-1.058 0 2.668 2.668 0 0 1-3.1 1.377c.129-2.73 1.466-4.343 3.626-4.343zm-3.646 5.542a5.317 5.317 0 0 0 .736.053 3.667 3.667 0 0 0 2.911-1.285 3.668 3.668 0 0 0 2.911 1.285 5.317 5.317 0 0 0 .736-.053v.52a3.651 3.651 0 0 1-3.646 3.647 3.651 3.651 0 0 1-3.647-3.647zm4.882 5.192v.886a1.237 1.237 0 0 1-1.236 1.234 1.236 1.236 0 0 1-1.234-1.234v-.886a4.807 4.807 0 0 0 1.234.161 4.815 4.815 0 0 0 1.234-.161zm-5.44-2.294a4.869 4.869 0 0 0 1.784 1.8v.94c-.247.072-.5.141-.767.213l-.37.1a3.826 3.826 0 0 0-1.546-1.862 4.714 4.714 0 0 0 .897-1.191zm-5.309 3.439a2.613 2.613 0 0 1 2.417-1.628 2.615 2.615 0 0 1 2.561 2.118 5.948 5.948 0 0 0-2.561-.581 5.949 5.949 0 0 0-2.562.581 2.621 2.621 0 0 1 .143-.49zm-8.686-7.915a3.9 3.9 0 0 1 3.9-3.9 3.9 3.9 0 0 1 3.9 3.9v.614a8.507 8.507 0 0 1-4.973-1.125.593.593 0 0 0-.807.13 2.6 2.6 0 0 1-2.016.927zm0 2.355v-.615a4.138 4.138 0 0 0 2.6-1 10.119 10.119 0 0 0 5.2 1.056v.555a3.9 3.9 0 0 1-3.9 3.9 3.9 3.9 0 0 1-3.902-3.896zm5.133 4.931v.369a1.236 1.236 0 0 1-1.234 1.234 1.236 1.236 0 0 1-1.236-1.234v-.37a5.082 5.082 0 0 0 1.236.153 5.07 5.07 0 0 0 1.233-.152zm3.693 6.035l-.388.116c-1.464.432-3.1.913-3.549 2.879H4.36v-2.4a.593.593 0 0 0-.593-.593.593.593 0 0 0-.593.593v2.4H1.186v-4.59c.036-2.022 1.415-2.54 3.681-3.15.191-.052.385-.1.578-.159a2.425 2.425 0 0 0 2.3 1.659 2.423 2.423 0 0 0 2.3-1.659c.193.054.944.258 1.117.308v1.011a3.792 3.792 0 0 0 1.517 3.034zm3.367.05v.385a1.051 1.051 0 0 1-1.137 1.045 1.045 1.045 0 0 1-1.044-1.045v-.386a3.7 3.7 0 0 0 .443.1 3.771 3.771 0 0 0 .648.056 3.719 3.719 0 0 0 .538-.039 3.621 3.621 0 0 0 .55-.116zm.316-1.438a2.612 2.612 0 0 1-2.79.012 2.609 2.609 0 0 1-1.222-2.153 4.767 4.767 0 0 1 5.214 0 2.61 2.61 0 0 1-1.204 2.145zm12.244 4.382h-1.985v-2.4a.593.593 0 0 0-.593-.593.593.593 0 0 0-.593.593v2.4h-4.267c-.454-1.966-2.086-2.447-3.549-2.878l-.388-.116v-.55a3.793 3.793 0 0 0 1.519-3.036v-.828c0-.072 0-.143-.006-.214l.428-.116c.192-.052.387-.1.582-.16a2.424 2.424 0 0 0 2.3 1.659 2.426 2.426 0 0 0 2.3-1.659c.193.054.387.107.578.158 2.266.611 3.646 1.128 3.681 3.15zm-1.168-8.152a13.629 13.629 0 0 0-2.2-.733c-.263-.071-.518-.14-.763-.212v-.941a4.872 4.872 0 0 0 1.779-1.8 5.461 5.461 0 0 0 2.8 2.4 1.7 1.7 0 0 1-1.614 1.286z" data-name="Path 2549" transform="translate(0 -68.125)"/>
            <path id="Path_2550" d="M141.475-371.142a.592.592 0 0 0 .412.166.592.592 0 0 0 .412-.166l3.138-3.029a2.616 2.616 0 0 0 .067-3.7 2.6 2.6 0 0 0-1.834-.795 2.59 2.59 0 0 0-1.783.658 2.592 2.592 0 0 0-1.783-.658 2.6 2.6 0 0 0-1.835.8 2.618 2.618 0 0 0 .068 3.694zm-2.352-5.9a1.418 1.418 0 0 1 1-.433h.027a1.413 1.413 0 0 1 .989.4l.334.323a.593.593 0 0 0 .824 0l.335-.323a1.412 1.412 0 0 1 1.015-.4 1.417 1.417 0 0 1 1 .433 1.429 1.429 0 0 1-.037 2.018l-2.727 2.632-2.727-2.632a1.429 1.429 0 0 1-.034-2.018z" data-name="Path 2550" transform="translate(-126.664)"/>
            <path id="Path_2551" d="M182.105-15a.593.593 0 0 0-.593.593.593.593 0 0 0 .593.593.592.592 0 0 0 .591-.593.594.594 0 0 0-.591-.593z" data-name="Path 2551" transform="translate(-167.16 -334.907)"/>
        </g>
    </g>
</svg>
