<svg xmlns="http://www.w3.org/2000/svg" width="45" height="45" viewBox="0 0 45 45">
    <defs>
        <style>
            .cls-2{fill:#e2e8ed}
        </style>
    </defs>
    <g id="Group_151" data-name="Group 151" transform="translate(-1269 -739)">
        <circle id="Ellipse_593" cx="22.5" cy="22.5" r="22.5" fill="#003b71" data-name="Ellipse 593" transform="translate(1269 739)"/>
        <g id="Group_307" data-name="Group 307" transform="translate(1274.791 1070.825)">
            <path id="Path_2906" d="M86.369-215.535l10.41-10.41 2.095 2.1-10.41 10.41z" class="cls-2" data-name="Path 2906" transform="translate(-78.628 -89.394)"/>
            <path id="Path_2907" d="M267.264-311.175l2.02-2.02 2.1 2.095-2.02 2.02z" class="cls-2" data-name="Path 2907" transform="translate(-243.311 -9.964)"/>
            <path id="Path_2908" d="M191.475-309.381a10.584 10.584 0 0 1-10.59 10.59l-2.737-7.721-4.352-4.352 1.859-1.859-2.4-2.4a5.3 5.3 0 0 1 7.492 0l3 3z" class="cls-2" data-name="Path 2908" transform="translate(-157.732 -6.8)"/>
            <path id="Path_2909" fill="#a6bdcc" d="M188.242-310.526v1.146a7.31 7.31 0 0 1-2.153 5.2 7.309 7.309 0 0 1-5.2 2.153h-1.146l-1.591-4.489-4.352-4.352 1.859-1.859-2.4-2.4a5.3 5.3 0 0 1 7.492 0l3 3z" data-name="Path 2909" transform="translate(-157.732 -6.8)"/>
            <path id="Path_2910" fill="#ff7b78" d="M10.145-103.468l-2.667-2.666 6.785-6.784 2.666 2.666z" data-name="Path 2910" transform="translate(-6.808 -192.291)"/>
            <path id="Path_2911" d="M33.968-316.814l-6.79-2.407 1.37-1.37a.672.672 0 0 0 0-.951l-2.1-2.1a.673.673 0 0 0-.951 0l-1.624 1.624-.382-.382a5.976 5.976 0 0 0-8.442 0 .672.672 0 0 0 0 .951l1.921 1.921-1.384 1.384a.672.672 0 0 0 0 .951l1.732 1.732-2.718 2.725a.672.672 0 0 0 0 .95.67.67 0 0 0 .475.2.669.669 0 0 0 .475-.2l2.721-2.721 1.145 1.145-9.578 9.578-1.145-1.145 2.58-2.58a.673.673 0 0 0 0-.951.672.672 0 0 0-.951 0l-2.62 2.62a.673.673 0 0 0-.246-.047.672.672 0 0 0-.475.2L.2-298.9a.673.673 0 0 0 0 .95l2.667 2.667a.67.67 0 0 0 .475.2.67.67 0 0 0 .475-.2l6.785-6.785a.672.672 0 0 0 .15-.722l9.364-9.364 2.407 6.791a.672.672 0 0 0 .633.447 11.19 11.19 0 0 0 7.966-3.3 11.189 11.189 0 0 0 3.3-7.965.672.672 0 0 0-.454-.633zm-7.991-5.4l1.145 1.145-1.149 1.149-1.144-1.145zm-18.52 17.951l1.716 1.716-1.311 1.311-1.716-1.716zM5.6-298.974l-1.716-1.716L5.2-302l1.716 1.716zm-2.262 2.262l-1.716-1.716 1.311-1.311 1.716 1.716zm17.553-17.076l-3.876-3.876 1.384-1.384a.673.673 0 0 0 0-.951l-1.886-1.886a4.632 4.632 0 0 1 6.031.441l3 3a.671.671 0 0 0 .251.158l4.041 1.432v.671a6.643 6.643 0 0 1-1.956 4.729 6.643 6.643 0 0 1-4.729 1.956h-.671l-1.432-4.042a.676.676 0 0 0-.156-.247zm2.732 7.514l-.665-1.878h.194a7.979 7.979 0 0 0 5.68-2.35 7.976 7.976 0 0 0 2.35-5.68v-.194l1.878.665a9.932 9.932 0 0 1-9.436 9.437z" data-name="Path 2911"/>
            <path id="Path_2912" d="M137.522-173.89a.678.678 0 0 0 .475-.2.678.678 0 0 0 .2-.475.677.677 0 0 0-.2-.475.678.678 0 0 0-.475-.2.677.677 0 0 0-.475.2.677.677 0 0 0-.2.475.678.678 0 0 0 .2.475.677.677 0 0 0 .475.2z" data-name="Path 2912" transform="translate(-124.585 -135.56)"/>
        </g>
    </g>
</svg>
