<svg xmlns="http://www.w3.org/2000/svg" width="45" height="45" viewBox="0 0 45 45">
    <defs>
        <clipPath id="clip-path">
            <path id="Path_2812" fill="none" d="M-.115-354.569h28.357V-384H-.115z" clip-rule="evenodd" data-name="Path 2812" transform="translate(.115 384)"/>
        </clipPath>
        <style>
            .cls-4{fill:#678b95}.cls-5{fill:#547881}.cls-7{fill:#fff0db}.cls-9{fill:#d94a53}
        </style>
    </defs>
    <g id="Group_166" data-name="Group 166" transform="translate(-606 -739)">
        <circle id="Ellipse_619" cx="22.5" cy="22.5" r="22.5" fill="#003b71" data-name="Ellipse 619" transform="translate(606 739)"/>
        <g id="Group_298" data-name="Group 298" transform="translate(614.936 1131.285)">
            <g id="Group_298-2" clip-path="url(#clip-path)" data-name="Group 298" transform="translate(-.115 -384)">
                <path id="Path_2795" d="M28.273-156.706L27.927-162a4.49 4.49 0 0 0-3.1-3.979l-5.759-1.282H14.83l-5.759 1.282a4.49 4.49 0 0 0-3.1 3.979l-.346 5.291a1.723 1.723 0 0 0 1.72 1.836h19.208a1.723 1.723 0 0 0 1.72-1.833z" class="cls-4" data-name="Path 2795" transform="translate(-5.181 183.87)"/>
                <path id="Path_2796" d="M139.215-156.706l-.346-5.294a4.49 4.49 0 0 0-3.1-3.979l-5.759-1.282h-4.238l2.119 1.4 5.759 1.282a4.489 4.489 0 0 1 3.1 3.979l.346 5.291v.233c0 .028 0 .055-.008.082v.019c0 .034-.01.067-.016.1h.427a1.723 1.723 0 0 0 1.716-1.831z" class="cls-5" data-name="Path 2796" transform="translate(-116.124 183.87)"/>
                <path id="Path_2797" fill="#c8e2e7" d="M127.891-157.162l2.119-8.03v-2.066h-4.238v2.066l2.119 8.03z" data-name="Path 2797" transform="translate(-116.124 183.87)"/>
                <path id="Path_2798" d="M130.01-199.792v-2.884h-4.238v2.884a2.873 2.873 0 0 0 4.238 0z" class="cls-7" data-name="Path 2798" transform="translate(-116.124 216.573)"/>
                <path id="Path_2799" d="M92.939-341.879h-1.092v-.449a4.086 4.086 0 0 0-1.383-3.1 4.594 4.594 0 0 0-3-1.149 4.593 4.593 0 0 0-3 1.149 4.085 4.085 0 0 0-1.384 3.1v.449h-1.09v2.112a1.093 1.093 0 0 0 1.093 1.093 4.079 4.079 0 0 0 1.383 3.012 4.593 4.593 0 0 0 3 1.149 4.593 4.593 0 0 0 3-1.149 4.078 4.078 0 0 0 1.382-3.012 1.093 1.093 0 0 0 1.093-1.093z" class="cls-7" data-name="Path 2799" transform="translate(-75.697 349.45)"/>
                <path id="Path_2800" fill="#ffe3bf" d="M145.038-341.879v-.449a4.086 4.086 0 0 0-1.383-3.1 4.594 4.594 0 0 0-3-1.149 4.661 4.661 0 0 0-1.059.134 4.683 4.683 0 0 1 1.939 1.016 4.085 4.085 0 0 1 1.384 3.1v3.655a4.079 4.079 0 0 1-1.383 3.012 4.677 4.677 0 0 1-1.939 1.016 4.624 4.624 0 0 0 1.059.134 4.593 4.593 0 0 0 3-1.149 4.078 4.078 0 0 0 1.382-3.012 1.093 1.093 0 0 0 1.093-1.093v-2.112z" data-name="Path 2800" transform="translate(-128.888 349.45)"/>
                <path id="Path_2801" d="M70.432-324.892c0 1.315-3.363 2.381-7.512 2.381s-7.512-1.066-7.512-2.381 3.363-2.381 7.512-2.381 7.512 1.066 7.512 2.381z" class="cls-5" data-name="Path 2801" transform="translate(-51.153 331.621)"/>
                <path id="Path_2802" d="M99.219-377.525a1.034 1.034 0 0 0-1.326-.8 9.131 9.131 0 0 1-5.44 0 1.034 1.034 0 0 0-1.326.8c-.839 4.667-.788 4.366-.788 4.409 0 .786 2.165 1.423 4.834 1.423s4.834-.637 4.834-1.423c0-.034-.79-4.417-.788-4.409z" class="cls-4" data-name="Path 2802" transform="translate(-83.405 378.807)"/>
                <path id="Path_2803" d="M84.358-191.9v-4.284l-3.158 2.078a.619.619 0 0 0-.055.993l.725.6a1.24 1.24 0 0 1 .173 1.732l-.873 1.081a.619.619 0 0 0 .056.838l5.252 4.984z" class="cls-5" data-name="Path 2803" transform="translate(-74.71 210.582)"/>
                <path id="Path_2804" d="M155.543-191.9v-4.284l3.159 2.082a.619.619 0 0 1 .055.993l-.725.6a1.24 1.24 0 0 0-.173 1.732l.873 1.082a.619.619 0 0 1-.056.838l-5.252 4.984z" class="cls-5" data-name="Path 2804" transform="translate(-141.656 210.582)"/>
                <path id="Path_2805" d="M292.619-152.187c.131.136.282.306.282.306l.722-.461a.94.94 0 0 1 .817-.094l1.236.436a.362.362 0 0 0 .461-.221l.3-.854a.362.362 0 0 0-.221-.461l-3.6-1.268z" class="cls-9" data-name="Path 2805" transform="translate(-270.183 172.371)"/>
                <path id="Path_2806" d="M271.479-233.065a14.9 14.9 0 0 0 5.138-2.819.407.407 0 0 1 .561.037l1.032 1.124a.408.408 0 0 1-.037.588 17.154 17.154 0 0 1-6.979 3.579z" class="cls-5" data-name="Path 2806" transform="translate(-250.4 247.324)"/>
                <path id="Path_2807" d="M263.879-351.838v-4.944a.558.558 0 0 0-.558-.558h-.893v5.5z" class="cls-9" data-name="Path 2807" transform="translate(-242.306 359.383)"/>
                <path id="Path_2808" fill="#8cb9c2" d="M260.094-270.759L259-278.922a.792.792 0 0 1-.792-.792v-12.367a.31.31 0 0 1 .31-.31h1.464v2.335a2.486 2.486 0 0 0 .571 1.588 2.493 2.493 0 0 1 .574 1.591v7.956l2.336 7.291a.4.4 0 0 1-.279.509l-2.593.7a.4.4 0 0 1-.497-.338z" data-name="Path 2808" transform="translate(-238.414 299.412)"/>
                <path id="Path_2809" d="M269.411-110.131l3.082-.826-1.824-5.695h-2.128z" class="cls-9" data-name="Path 2809" transform="translate(-247.951 137.142)"/>
                <path id="Path_2810" d="M134.082-228.359a.431.431 0 0 0 .431-.431.023.023 0 0 1 .023-.023h1.16a.023.023 0 0 1 .024.023.431.431 0 0 0 .431.431.431.431 0 0 0 .431-.431.887.887 0 0 0-.886-.886h-1.16a.887.887 0 0 0-.886.886.431.431 0 0 0 .432.431z" data-name="Path 2810" transform="translate(-123.399 241.504)"/>
                <path id="Path_2811" d="M28.119-371.693l-1.032-1.124a.838.838 0 0 0-1.155-.076 14.965 14.965 0 0 1-2.792 1.845v-.419c0-1.685-1.145-1.839-1.145-3.178v-6.755a.99.99 0 0 0-.989-.989h-.462v-.822a.431.431 0 0 0-.431-.431.431.431 0 0 0-.431.431v5.728c-.146-.82-1.145-1.519-2.858-2l-.089-.494a.431.431 0 0 0-.5-.349.431.431 0 0 0-.348.5l.271 1.523c-.032.078-.281.345-1.147.593a12.325 12.325 0 0 1-3.253.387 12.323 12.323 0 0 1-3.252-.387c-.89-.255-1.129-.529-1.149-.6.031-.181.14-.778.78-4.34a.6.6 0 0 1 .773-.469 9.521 9.521 0 0 0 5.7 0 .6.6 0 0 1 .773.469c0 .022.065.358.151.836a.432.432 0 0 0 .5.348.431.431 0 0 0 .348-.5c-.148-.82-.14-.787-.153-.839a1.465 1.465 0 0 0-1.878-1.139 8.668 8.668 0 0 1-5.183 0 1.466 1.466 0 0 0-1.879 1.144c-.339 1.884-.518 2.875-.6 3.317-1.857.517-2.876 1.295-2.876 2.205 0 .767.7 1.431 2.037 1.934v1.02a1.527 1.527 0 0 0 1.115 1.468 4.48 4.48 0 0 0 1.51 2.963q.178.154.364.289l-2.6 1.712a1.05 1.05 0 0 0-.089 1.692l.725.6a.812.812 0 0 1 .113 1.13l-.873 1.082a1.055 1.055 0 0 0 .095 1.421l5.118 4.856v1.676H5.277l.187-2.863a.431.431 0 0 0-.4-.458.432.432 0 0 0-.458.4l-.191 2.919h-2.26a1.291 1.291 0 0 1-1.29-1.377l.346-5.291a4.038 4.038 0 0 1 2.784-3.591l.585-.13a.431.431 0 0 0 .327-.515.431.431 0 0 0-.514-.327l-.606.135-.039.01a4.9 4.9 0 0 0-3.4 4.362L0-356.866a2.156 2.156 0 0 0 2.15 2.3h19.919a22.383 22.383 0 0 0 2.808-.724.834.834 0 0 0 .578-1.057l-2.235-6.974.442-.283a.505.505 0 0 1 .442-.051l1.236.436a.787.787 0 0 0 .606-.033.787.787 0 0 0 .405-.451l.3-.854a.788.788 0 0 0-.033-.606.788.788 0 0 0-.451-.405l-3.029-1.067v-.9a17.861 17.861 0 0 0 4.9-2.946.839.839 0 0 0 .081-1.212zm-7.045 8.612h1.32l1.591 4.964-2.171.582zm1.2-8.387v7.525h-1.7a.361.361 0 0 1-.36-.36v-12.246h.912v1.9c.007 1.691 1.152 1.84 1.152 3.181zm-1.272-10.059a.127.127 0 0 1 .127.127v3.988h-.589v-4.115zm-1.647 5.133v9.782l-1.613-.359v-.1a1.041 1.041 0 0 0-.471-.819l-2.6-1.712q.185-.135.363-.289a4.48 4.48 0 0 0 1.51-2.963 1.527 1.527 0 0 0 1.116-1.468v-1.02a4.022 4.022 0 0 0 1.699-1.052zm-3.5 12.467l.873 1.082a.189.189 0 0 1-.017.254l-4.151 3.939c1.836-6.974 1.746-6.566 1.746-6.672v-3.483l2.491 1.641a.188.188 0 0 1 .016.3l-.725.6a1.678 1.678 0 0 0-.23 2.339zm-4.1 4.944l-1.688-6.4v-.942a3.309 3.309 0 0 0 1.688.466 3.311 3.311 0 0 0 1.688-.466v.942zm-7.081-18.29c0-.348.577-.844 1.845-1.255a1.944 1.944 0 0 0-.029.218c0 .605.58 1.083 1.725 1.42a13.077 13.077 0 0 0 3.54.434 13.078 13.078 0 0 0 3.54-.434c1.144-.337 1.725-.815 1.725-1.42a1.286 1.286 0 0 0-.031-.218c1.269.411 1.846.907 1.846 1.255 0 .309-.5.828-1.9 1.273a17.876 17.876 0 0 1-5.181.677c-4.318 0-7.076-1.155-7.076-1.95zm3.13 4.038a.431.431 0 0 0-.431-.422.663.663 0 0 1-.662-.662v-.743a19.548 19.548 0 0 0 5.044.6 19.532 19.532 0 0 0 5.043-.6v.743a.663.663 0 0 1-.662.662.431.431 0 0 0-.431.422 3.647 3.647 0 0 1-1.233 2.695 4.147 4.147 0 0 1-2.717 1.044 4.148 4.148 0 0 1-2.718-1.044 3.647 3.647 0 0 1-1.229-2.694zm3.946 4.6h.01a5 5 0 0 0 1.683-.305v1.542a2.412 2.412 0 0 1-1.688.678 2.413 2.413 0 0 1-1.688-.678v-1.542a5 5 0 0 0 1.687.307zM6.8-362.59a.189.189 0 0 1-.017-.254l.873-1.082a1.678 1.678 0 0 0-.233-2.335l-.725-.6a.188.188 0 0 1 .017-.3l2.491-1.641v3.483c0 .106-.09-.3 1.746 6.672zm5.386 5.482l5.118-4.856a1.056 1.056 0 0 0 .094-1.421l-.873-1.082a.812.812 0 0 1 .113-1.13l.7-.58 2.019.449v1.425a1.225 1.225 0 0 0 .837 1.16l1.029 7.709H19.1l-.191-2.919a.432.432 0 0 0-.458-.4.431.431 0 0 0-.4.458l.187 2.863h-6.05zm9.9 1.668l-.164-1.231 2.319-.622.376 1.174zm3.723-9.343l-.254.723-1.17-.412a1.361 1.361 0 0 0-1.193.138l-.059.038v-1.429zm-2.669-3.687v-1.618a15.727 15.727 0 0 0 3.327-2.129l1 1.09a17.054 17.054 0 0 1-4.327 2.657z" data-name="Path 2811" transform="translate(.009 384.002)"/>
            </g>
        </g>
    </g>
</svg>
