<svg xmlns="http://www.w3.org/2000/svg" width="45" height="45" viewBox="0 0 45 45">
    <defs>
        <style>
            .cls-2{fill:#fff}
        </style>
    </defs>
    <g id="Group_192" data-name="Group 192" transform="translate(-37 -739)">
        <g id="Group_239" data-name="Group 239">
            <circle id="Ellipse_663" cx="22.5" cy="22.5" r="22.5" fill="#003b71" data-name="Ellipse 663" transform="translate(37 739)"/>
            <g id="Group_238" data-name="Group 238" transform="translate(43.726 1106.538)">
                <path id="Path_2055" d="M176.523-45.981a.477.477 0 0 1-.5-.5.477.477 0 0 0-.5-.5.477.477 0 0 0-.5.5.477.477 0 0 1-.5.5.477.477 0 0 1-.5-.5A1.487 1.487 0 0 1 175.514-48a1.487 1.487 0 0 1 1.514 1.514.477.477 0 0 1-.505.505z" class="cls-2" data-name="Path 2055" transform="translate(-159.364 -285.756)"/>
                <path id="Path_2056" d="M174.5-32.972a.477.477 0 0 1-.5-.5V-35.5a.477.477 0 0 1 .5-.5.477.477 0 0 1 .5.5v2.019a.477.477 0 0 1-.5.509z" class="cls-2" data-name="Path 2056" transform="translate(-159.364 -296.746)"/>
                <path id="Path_2057" d="M198.5-32.972a.477.477 0 0 1-.5-.5V-35.5a.477.477 0 0 1 .5-.5.477.477 0 0 1 .5.5v2.019a.477.477 0 0 1-.5.509z" class="cls-2" data-name="Path 2057" transform="translate(-181.345 -296.746)"/>
                <path id="Path_2058" d="M150.5-87.925a.477.477 0 0 1-.5-.5V-95.5a.477.477 0 0 1 .5-.5.477.477 0 0 1 .5.5v7.066a.477.477 0 0 1-.5.509z" class="cls-2" data-name="Path 2058" transform="translate(-137.383 -241.793)"/>
                <path id="Path_2059" d="M126.5-87.925a.477.477 0 0 1-.5-.5V-95.5a.477.477 0 0 1 .5-.5.477.477 0 0 1 .5.5v7.066a.477.477 0 0 1-.5.509z" class="cls-2" data-name="Path 2059" transform="translate(-115.401 -241.793)"/>
                <path id="Path_2060" d="M139.513-105.982a.458.458 0 0 1-.353-.151l-1.009-1.009a.487.487 0 0 1 0-.706.487.487 0 0 1 .706 0l1.009 1.009a.487.487 0 0 1 0 .706.458.458 0 0 1-.353.151z" class="cls-2" data-name="Path 2060" transform="translate(-126.391 -230.802)"/>
                <path id="Path_2061" d="M126.5-105.982a.458.458 0 0 1-.353-.151.487.487 0 0 1 0-.706l1.009-1.009a.487.487 0 0 1 .706 0 .487.487 0 0 1 0 .706l-1.009 1.009a.458.458 0 0 1-.353.151z" class="cls-2" data-name="Path 2061" transform="translate(-115.4 -230.802)"/>
                <path id="Path_2062" d="M246.5-87.925a.477.477 0 0 1-.5-.5V-95.5a.477.477 0 0 1 .5-.5.477.477 0 0 1 .5.5v7.066a.477.477 0 0 1-.5.509z" class="cls-2" data-name="Path 2062" transform="translate(-225.307 -241.793)"/>
                <path id="Path_2063" d="M222.5-87.925a.477.477 0 0 1-.5-.5V-95.5a.477.477 0 0 1 .5-.5.477.477 0 0 1 .5.5v7.066a.477.477 0 0 1-.5.509z" class="cls-2" data-name="Path 2063" transform="translate(-203.326 -241.793)"/>
                <path id="Path_2064" d="M235.513-105.982a.458.458 0 0 1-.353-.151l-1.009-1.009a.487.487 0 0 1 0-.706.487.487 0 0 1 .706 0l1.009 1.009a.487.487 0 0 1 0 .706.458.458 0 0 1-.353.151z" class="cls-2" data-name="Path 2064" transform="translate(-214.316 -230.802)"/>
                <path id="Path_2065" d="M222.5-105.982a.458.458 0 0 1-.353-.151.487.487 0 0 1 0-.706l1.009-1.009a.487.487 0 0 1 .706 0 .487.487 0 0 1 0 .706l-1.009 1.009a.458.458 0 0 1-.353.151z" class="cls-2" data-name="Path 2065" transform="translate(-203.325 -230.802)"/>
                <path id="Path_2066" d="M156.561-82.991H150.5a.477.477 0 0 1-.5-.5.477.477 0 0 1 .5-.5h6.056a.477.477 0 0 1 .5.5.477.477 0 0 1-.495.5z" class="cls-2" data-name="Path 2066" transform="translate(-137.383 -252.784)"/>
                <path id="Path_2067" d="M31.8-10.991H.5a.477.477 0 0 1-.5-.5A.477.477 0 0 1 .5-12h31.3a.477.477 0 0 1 .5.5.477.477 0 0 1-.5.509z" class="cls-2" data-name="Path 2067" transform="translate(0 -318.728)"/>
                <path id="Path_2068" d="M116.636-130.991H102.5a.477.477 0 0 1-.5-.5.477.477 0 0 1 .5-.5h14.132a.477.477 0 0 1 .5.5.477.477 0 0 1-.496.5z" class="cls-2" data-name="Path 2068" transform="translate(-93.42 -208.821)"/>
                <path id="Path_2069" d="M102.5-198.392a.477.477 0 0 1-.5-.5v-10.6a.477.477 0 0 1 .5-.5.477.477 0 0 1 .5.5v10.6a.477.477 0 0 1-.5.5z" class="cls-2" data-name="Path 2069" transform="translate(-93.42 -137.383)"/>
                <path id="Path_2070" d="M60.561-82.991H54.5a.477.477 0 0 1-.5-.5.477.477 0 0 1 .5-.5h6.056a.477.477 0 0 1 .5.5.477.477 0 0 1-.495.5z" class="cls-2" data-name="Path 2070" transform="translate(-49.458 -252.784)"/>
                <path id="Path_2071" d="M48.5-104.411a.477.477 0 0 1-.5-.5v-8.58a.477.477 0 0 1 .5-.5.477.477 0 0 1 .5.5v8.58a.477.477 0 0 1-.5.5z" class="cls-2" data-name="Path 2071" transform="translate(-43.962 -225.307)"/>
                <path id="Path_2072" d="M24.5-104.411a.477.477 0 0 1-.5-.5v-8.58a.477.477 0 0 1 .5-.5.477.477 0 0 1 .5.5v8.58a.477.477 0 0 1-.5.5z" class="cls-2" data-name="Path 2072" transform="translate(-21.981 -225.307)"/>
                <path id="Path_2073" d="M18.5-134.972a.477.477 0 0 1-.5-.5v-2.028a.477.477 0 0 1 .5-.5.477.477 0 0 1 .5.5v2.019a.477.477 0 0 1-.5.509z" class="cls-2" data-name="Path 2073" transform="translate(-16.486 -203.326)"/>
                <path id="Path_2074" d="M21.533-136.991H18.5a.477.477 0 0 1-.5-.5.477.477 0 0 1 .5-.5h3.028a.477.477 0 0 1 .5.5.477.477 0 0 1-.495.5z" class="cls-2" data-name="Path 2074" transform="translate(-16.486 -203.326)"/>
                <path id="Path_2075" d="M54.5-134.972a.477.477 0 0 1-.5-.5v-2.028a.477.477 0 0 1 .5-.5.477.477 0 0 1 .5.5v2.019a.477.477 0 0 1-.5.509z" class="cls-2" data-name="Path 2075" transform="translate(-49.458 -203.326)"/>
                <path id="Path_2076" d="M21.533-112.991H18.5a.477.477 0 0 1-.5-.5.477.477 0 0 1 .5-.5h3.028a.477.477 0 0 1 .5.5.477.477 0 0 1-.495.5z" class="cls-2" data-name="Path 2076" transform="translate(-16.486 -225.307)"/>
                <path id="Path_2077" d="M36.5-136.486a.477.477 0 0 1-.5-.5v-.5a.477.477 0 0 1 .5-.5.477.477 0 0 1 .5.5v.5a.477.477 0 0 1-.5.5z" class="cls-2" data-name="Path 2077" transform="translate(-32.972 -203.326)"/>
                <path id="Path_2078" d="M252.561-82.991H246.5a.477.477 0 0 1-.5-.5.477.477 0 0 1 .5-.5h6.056a.477.477 0 0 1 .5.5.477.477 0 0 1-.495.5z" class="cls-2" data-name="Path 2078" transform="translate(-225.307 -252.784)"/>
                <path id="Path_2079" d="M324.5-104.411a.477.477 0 0 1-.5-.5v-8.58a.477.477 0 0 1 .5-.5.477.477 0 0 1 .5.5v8.58a.477.477 0 0 1-.5.5z" class="cls-2" data-name="Path 2079" transform="translate(-296.746 -225.307)"/>
                <path id="Path_2080" d="M348.5-104.411a.477.477 0 0 1-.5-.5v-8.58a.477.477 0 0 1 .5-.5.477.477 0 0 1 .5.5v8.58a.477.477 0 0 1-.5.5z" class="cls-2" data-name="Path 2080" transform="translate(-318.728 -225.307)"/>
                <path id="Path_2081" d="M354.5-134.972a.477.477 0 0 1-.5-.5v-2.028a.477.477 0 0 1 .5-.5.477.477 0 0 1 .5.5v2.019a.477.477 0 0 1-.5.509z" class="cls-2" data-name="Path 2081" transform="translate(-324.223 -203.326)"/>
                <path id="Path_2082" d="M321.533-136.991H318.5a.477.477 0 0 1-.5-.5.477.477 0 0 1 .5-.5h3.028a.477.477 0 0 1 .5.5.477.477 0 0 1-.495.5z" class="cls-2" data-name="Path 2082" transform="translate(-291.251 -203.326)"/>
                <path id="Path_2083" d="M318.5-134.972a.477.477 0 0 1-.5-.5v-2.028a.477.477 0 0 1 .5-.5.477.477 0 0 1 .5.5v2.019a.477.477 0 0 1-.5.509z" class="cls-2" data-name="Path 2083" transform="translate(-291.251 -203.326)"/>
                <path id="Path_2084" d="M321.533-112.991H318.5a.477.477 0 0 1-.5-.5.477.477 0 0 1 .5-.5h3.028a.477.477 0 0 1 .5.5.477.477 0 0 1-.495.5z" class="cls-2" data-name="Path 2084" transform="translate(-291.251 -225.307)"/>
                <path id="Path_2085" d="M336.5-136.486a.477.477 0 0 1-.5-.5v-.5a.477.477 0 0 1 .5-.5.477.477 0 0 1 .5.5v.5a.477.477 0 0 1-.5.5z" class="cls-2" data-name="Path 2085" transform="translate(-307.737 -203.326)"/>
                <path id="Path_2086" d="M270.5-198.392a.477.477 0 0 1-.5-.5v-10.6a.477.477 0 0 1 .5-.5.477.477 0 0 1 .5.5v10.6a.477.477 0 0 1-.5.5z" class="cls-2" data-name="Path 2086" transform="translate(-247.289 -137.383)"/>
                <path id="Path_2087" d="M78.5-198.392a.477.477 0 0 1-.5-.5v-10.6a.477.477 0 0 1 .5-.5.477.477 0 0 1 .5.5v10.6a.477.477 0 0 1-.5.5z" class="cls-2" data-name="Path 2087" transform="translate(-71.439 -137.383)"/>
                <path id="Path_2088" d="M92.158-230.832a.46.46 0 0 1-.4-.2l-1.514-2.019a.543.543 0 0 1 .1-.707.543.543 0 0 1 .707.1l1.514 2.019a.543.543 0 0 1-.1.707.723.723 0 0 1-.307.1z" class="cls-2" data-name="Path 2088" transform="translate(-82.569 -115.541)"/>
                <path id="Path_2089" d="M75.533-208.991H72.5a.477.477 0 0 1-.5-.5.477.477 0 0 1 .5-.5h3.028a.477.477 0 0 1 .5.5.477.477 0 0 1-.495.5z" class="cls-2" data-name="Path 2089" transform="translate(-65.944 -137.383)"/>
                <path id="Path_2090" d="M72.644-230.832a.723.723 0 0 1-.3-.1.543.543 0 0 1-.1-.707l1.514-2.019a.543.543 0 0 1 .707-.1.543.543 0 0 1 .1.707l-1.514 2.019a.46.46 0 0 1-.407.2z" class="cls-2" data-name="Path 2090" transform="translate(-66.083 -115.541)"/>
                <path id="Path_2091" d="M294.5-198.392a.477.477 0 0 1-.5-.5v-10.6a.477.477 0 0 1 .5-.5.477.477 0 0 1 .5.5v10.6a.477.477 0 0 1-.5.5z" class="cls-2" data-name="Path 2091" transform="translate(-269.27 -137.383)"/>
                <path id="Path_2092" d="M284.158-230.832a.46.46 0 0 1-.4-.2l-1.514-2.019a.543.543 0 0 1 .1-.707.543.543 0 0 1 .707.1l1.514 2.019a.543.543 0 0 1-.1.707.723.723 0 0 1-.307.1z" class="cls-2" data-name="Path 2092" transform="translate(-258.419 -115.541)"/>
                <path id="Path_2093" d="M267.533-208.991H264.5a.477.477 0 0 1-.5-.5.477.477 0 0 1 .5-.5h3.028a.477.477 0 0 1 .5.5.477.477 0 0 1-.495.5z" class="cls-2" data-name="Path 2093" transform="translate(-241.793 -137.383)"/>
                <path id="Path_2094" d="M264.644-230.832a.723.723 0 0 1-.3-.1.543.543 0 0 1-.1-.707l1.514-2.019a.543.543 0 0 1 .707-.1.543.543 0 0 1 .1.707l-1.514 2.019a.46.46 0 0 1-.407.2z" class="cls-2" data-name="Path 2094" transform="translate(-241.933 -115.541)"/>
                <path id="Path_2095" d="M126.5-185.944a.477.477 0 0 1-.5-.5v-5.056a.477.477 0 0 1 .5-.5.477.477 0 0 1 .5.5v5.047a.477.477 0 0 1-.5.509z" class="cls-2" data-name="Path 2095" transform="translate(-115.401 -153.868)"/>
                <path id="Path_2096" d="M246.5-185.944a.477.477 0 0 1-.5-.5v-5.056a.477.477 0 0 1 .5-.5.477.477 0 0 1 .5.5v5.047a.477.477 0 0 1-.5.509z" class="cls-2" data-name="Path 2096" transform="translate(-225.307 -153.868)"/>
                <path id="Path_2097" d="M136.6-184.991h-10.1a.477.477 0 0 1-.5-.5.477.477 0 0 1 .5-.5h10.1a.477.477 0 0 1 .5.5.477.477 0 0 1-.5.5z" class="cls-2" data-name="Path 2097" transform="translate(-115.401 -159.364)"/>
                <path id="Path_2098" d="M126.5-207.477a.477.477 0 0 1-.5-.5v-1.523a.477.477 0 0 1 .5-.5.477.477 0 0 1 .5.5v1.514a.477.477 0 0 1-.5.509z" class="cls-2" data-name="Path 2098" transform="translate(-115.401 -137.383)"/>
                <path id="Path_2099" d="M246.5-207.477a.477.477 0 0 1-.5-.5v-1.523a.477.477 0 0 1 .5-.5.477.477 0 0 1 .5.5v1.514a.477.477 0 0 1-.5.509z" class="cls-2" data-name="Path 2099" transform="translate(-225.307 -137.383)"/>
                <path id="Path_2100" d="M136.6-208.991h-10.1a.477.477 0 0 1-.5-.5.477.477 0 0 1 .5-.5h10.1a.477.477 0 0 1 .5.5.477.477 0 0 1-.5.5z" class="cls-2" data-name="Path 2100" transform="translate(-115.401 -137.383)"/>
                <path id="Path_2101" d="M162.5-252.953a.477.477 0 0 1-.5-.5v-4.047a.477.477 0 0 1 .5-.5.477.477 0 0 1 .5.5v4.038a.477.477 0 0 1-.5.509z" class="cls-2" data-name="Path 2101" transform="translate(-148.373 -93.42)"/>
                <path id="Path_2102" d="M210.5-252.953a.477.477 0 0 1-.5-.5v-4.047a.477.477 0 0 1 .5-.5.477.477 0 0 1 .5.5v4.038a.477.477 0 0 1-.5.509z" class="cls-2" data-name="Path 2102" transform="translate(-192.336 -93.42)"/>
                <path id="Path_2103" d="M156.406-295.557a.724.724 0 0 1-.3-.1.488.488 0 0 1-.1-.707l2.523-3.533a.488.488 0 0 1 .707-.1.488.488 0 0 1 .1.707l-2.523 3.533a.46.46 0 0 1-.407.2z" class="cls-2" data-name="Path 2103" transform="translate(-142.779 -54.854)"/>
                <path id="Path_2104" d="M189.168-295.318a.46.46 0 0 1-.4-.2l-2.523-3.533a.543.543 0 0 1 .1-.707.543.543 0 0 1 .707.1l2.523 3.533a.543.543 0 0 1-.1.707.724.724 0 0 1-.307.1z" class="cls-2" data-name="Path 2104" transform="translate(-170.494 -55.092)"/>
                <path id="Path_2105" d="M161.552-256.991H156.5a.477.477 0 0 1-.5-.5.477.477 0 0 1 .5-.5h5.047a.477.477 0 0 1 .5.5.477.477 0 0 1-.495.5z" class="cls-2" data-name="Path 2105" transform="translate(-142.878 -93.42)"/>
                <path id="Path_2106" d="M186.5-237.981a.477.477 0 0 1-.5-.5v-1.019a.477.477 0 0 1 .5-.5.477.477 0 0 1 .5.5v1.009a.477.477 0 0 1-.5.51z" class="cls-2" data-name="Path 2106" transform="translate(-170.354 -109.906)"/>
                <path id="Path_2107" d="M150.5-160.486a.477.477 0 0 1-.5-.5v-.5a.477.477 0 0 1 .5-.5.477.477 0 0 1 .5.5v.5a.477.477 0 0 1-.5.5z" class="cls-2" data-name="Path 2107" transform="translate(-137.383 -181.345)"/>
                <path id="Path_2108" d="M174.5-160.486a.477.477 0 0 1-.5-.5v-.5a.477.477 0 0 1 .5-.5.477.477 0 0 1 .5.5v.5a.477.477 0 0 1-.5.5z" class="cls-2" data-name="Path 2108" transform="translate(-159.364 -181.345)"/>
                <path id="Path_2109" d="M198.5-160.486a.477.477 0 0 1-.5-.5v-.5a.477.477 0 0 1 .5-.5.477.477 0 0 1 .5.5v.5a.477.477 0 0 1-.5.5z" class="cls-2" data-name="Path 2109" transform="translate(-181.345 -181.345)"/>
                <path id="Path_2110" d="M222.5-160.486a.477.477 0 0 1-.5-.5v-.5a.477.477 0 0 1 .5-.5.477.477 0 0 1 .5.5v.5a.477.477 0 0 1-.5.5z" class="cls-2" data-name="Path 2110" transform="translate(-203.326 -181.345)"/>
                <path id="Path_2111" d="M186.5-326.467a.477.477 0 0 1-.5-.5v-2.533a.477.477 0 0 1 .5-.5.477.477 0 0 1 .5.5v2.523a.477.477 0 0 1-.5.51z" class="cls-2" data-name="Path 2111" transform="translate(-170.354 -27.477)"/>
                <path id="Path_2112" d="M189.533-322.991H186.5a.477.477 0 0 1-.5-.5.477.477 0 0 1 .5-.5h3.028a.477.477 0 0 1 .5.5.477.477 0 0 1-.495.5z" class="cls-2" data-name="Path 2112" transform="translate(-170.354 -32.972)"/>
                <path id="Path_2113" d="M210.5-321.982a.458.458 0 0 1-.353-.151.487.487 0 0 1 0-.706l1.009-1.009a.487.487 0 0 1 .706 0 .487.487 0 0 1 0 .706l-1.009 1.009a.458.458 0 0 1-.353.151z" class="cls-2" data-name="Path 2113" transform="translate(-192.334 -32.971)"/>
                <path id="Path_2114" d="M213.533-310.991H210.5a.477.477 0 0 1-.5-.5.477.477 0 0 1 .5-.5h3.028a.477.477 0 0 1 .5.5.477.477 0 0 1-.495.5z" class="cls-2" data-name="Path 2114" transform="translate(-192.336 -43.962)"/>
                <path id="Path_2115" d="M60.5-326.972a.477.477 0 0 1-.5-.5v-2.028a.477.477 0 0 1 .5-.5.477.477 0 0 1 .5.5v2.019a.477.477 0 0 1-.5.509z" class="cls-2" data-name="Path 2115" transform="translate(-54.953 -27.477)"/>
                <path id="Path_2116" d="M60.5-272.972a.477.477 0 0 1-.5-.5v-2.028a.477.477 0 0 1 .5-.5.477.477 0 0 1 .5.5v2.019a.477.477 0 0 1-.5.509z" class="cls-2" data-name="Path 2116" transform="translate(-54.953 -76.934)"/>
                <path id="Path_2117" d="M28.089-308.163a.454.454 0 0 1-.252-.051l-1.766-1.009a.559.559 0 0 1-.2-.706.559.559 0 0 1 .707-.2l1.766 1.009a.559.559 0 0 1 .2.707.53.53 0 0 1-.455.25z" class="cls-2" data-name="Path 2117" transform="translate(-23.648 -45.629)"/>
                <path id="Path_2118" d="M74.89-281.163a.453.453 0 0 1-.252-.051l-1.766-1.009a.559.559 0 0 1-.2-.706.559.559 0 0 1 .707-.2l1.766 1.009a.559.559 0 0 1 .2.707.53.53 0 0 1-.455.25z" class="cls-2" data-name="Path 2118" transform="translate(-66.512 -70.358)"/>
                <path id="Path_2119" d="M26.679-281.406a.6.6 0 0 1-.454-.252.511.511 0 0 1 .2-.707l1.766-1.009a.511.511 0 0 1 .707.2.511.511 0 0 1-.2.706l-1.766 1.009a2.2 2.2 0 0 0-.253.053z" class="cls-2" data-name="Path 2119" transform="translate(-23.953 -70.115)"/>
                <path id="Path_2120" d="M73.48-308.406a.6.6 0 0 1-.454-.252.511.511 0 0 1 .2-.707l1.766-1.009a.511.511 0 0 1 .707.2.511.511 0 0 1-.2.706l-1.766 1.009a2.192 2.192 0 0 0-.253.053z" class="cls-2" data-name="Path 2120" transform="translate(-66.818 -45.386)"/>
                <path id="Path_2121" d="M318.5-298.991a.477.477 0 0 1-.5-.5.477.477 0 0 1 .5-.5.477.477 0 0 1 .5.5.477.477 0 0 1-.5.5z" class="cls-2" data-name="Path 2121" transform="translate(-291.251 -54.953)"/>
                <path id="Path_2122" d="M318.5-355.458a.477.477 0 0 1-.5-.5v-3.542a.477.477 0 0 1 .5-.5.477.477 0 0 1 .5.5v3.533a.477.477 0 0 1-.5.509z" class="cls-2" data-name="Path 2122" transform="translate(-291.251)"/>
                <path id="Path_2123" d="M318.5-277.458a.477.477 0 0 1-.5-.5v-3.542a.477.477 0 0 1 .5-.5.477.477 0 0 1 .5.5v3.533a.477.477 0 0 1-.5.509z" class="cls-2" data-name="Path 2123" transform="translate(-291.251 -71.439)"/>
                <path id="Path_2124" d="M269.4-327.206a.455.455 0 0 1-.252-.051l-3.078-1.766a.559.559 0 0 1-.2-.706.543.543 0 0 1 .707-.2l3.078 1.766a.559.559 0 0 1 .2.706.6.6 0 0 1-.455.251z" class="cls-2" data-name="Path 2124" transform="translate(-243.46 -27.495)"/>
                <path id="Path_2125" d="M337.2-288.206a.454.454 0 0 1-.252-.051l-3.078-1.766a.559.559 0 0 1-.2-.706.543.543 0 0 1 .707-.2l3.078 1.766a.559.559 0 0 1 .2.706.7.7 0 0 1-.455.251z" class="cls-2" data-name="Path 2125" transform="translate(-305.558 -63.215)"/>
                <path id="Path_2126" d="M266.08-288.448a.6.6 0 0 1-.454-.252.511.511 0 0 1 .2-.706l3.078-1.766a.511.511 0 0 1 .707.2.51.51 0 0 1-.2.706l-3.078 1.766a.377.377 0 0 1-.253.052z" class="cls-2" data-name="Path 2126" transform="translate(-243.217 -62.972)"/>
                <path id="Path_2127" d="M333.879-327.448a.6.6 0 0 1-.454-.252.51.51 0 0 1 .2-.706l3.078-1.766a.511.511 0 0 1 .707.2.511.511 0 0 1-.2.706l-3.078 1.766a.454.454 0 0 1-.253.052z" class="cls-2" data-name="Path 2127" transform="translate(-305.313 -27.252)"/>
            </g>
        </g>
    </g>
</svg>
