<svg xmlns="http://www.w3.org/2000/svg" width="45" height="45" viewBox="0 0 45 45">
    <defs>
        <style>
            .cls-4{fill:#ffeb3a}.cls-5{fill:#fdd833}
        </style>
    </defs>
    <g id="Group_157" data-name="Group 157" transform="translate(-1080 -739)">
        <circle id="Ellipse_596" cx="22.5" cy="22.5" r="22.5" fill="#003b71" data-name="Ellipse 596" transform="translate(1080 739)"/>
        <g id="Group_305" data-name="Group 305" transform="translate(1088 1131)">
            <path id="Path_2884" fill="#ffdb00" d="M27.112-354.915H9.357a2.959 2.959 0 0 1 2.959 2.959A2.959 2.959 0 0 1 9.357-349a2.96 2.96 0 0 1-2.957-2.956v-22.687a2.96 2.96 0 0 1 2.957-2.957 2.959 2.959 0 0 1 2.959 2.959 2.959 2.959 0 0 1-2.959 2.959h10.21c-3.388 3.8-2.126 7.3-1.623 8.355a16.459 16.459 0 0 1 1.381-1.992 13.213 13.213 0 0 0-.858 2.688c1.578 1.317 5.519 1.174 7.491-2.654a5.548 5.548 0 0 1 1.154-1.534z" data-name="Path 2884" transform="translate(-5.905 -5.905)"/>
            <path id="Path_2885" fill="#fec108" d="M256.325-236.161c-.1.2-.213.381-.325.561v9.811h1.479V-237.7a5.548 5.548 0 0 0-1.154 1.539z" data-name="Path 2885" transform="translate(-236.272 -135.031)"/>
            <path id="Path_2886" d="M65.515-374.643a2.146 2.146 0 0 1-.015.256c-3.4-.109-6.846-1-10.016 2.19-.168.173-.331.34-.474.513H44.8a2.959 2.959 0 0 0 2.959-2.959A2.959 2.959 0 0 0 44.8-377.6h17.756a2.96 2.96 0 0 1 2.959 2.957z" class="cls-4" data-name="Path 2886" transform="translate(-41.349 -5.905)"/>
            <path id="Path_2887" d="M257.479-377.6H256a2.959 2.959 0 0 1 2.959 2.959c0 .06-.005.117-.01.175.493.034.984.066 1.475.082a2.138 2.138 0 0 0 .015-.256 2.959 2.959 0 0 0-.867-2.092 2.959 2.959 0 0 0-2.093-.868z" class="cls-5" data-name="Path 2887" transform="translate(-236.272 -5.905)"/>
            <path id="Path_2888" d="M65.515-80.24a2.96 2.96 0 0 1-2.959 2.959H44.8a2.959 2.959 0 0 0 2.96-2.959 2.959 2.959 0 0 0-2.96-2.96h17.756a2.959 2.959 0 0 1 2.959 2.96z" class="cls-4" data-name="Path 2888" transform="translate(-41.349 -277.621)"/>
            <path id="Path_2889" d="M257.479-83.2H256a2.959 2.959 0 0 1 2.959 2.959 2.959 2.959 0 0 1-2.959 2.96h1.479a2.96 2.96 0 0 0 2.959-2.959 2.959 2.959 0 0 0-2.959-2.96z" class="cls-5" data-name="Path 2889" transform="translate(-236.272 -277.621)"/>
            <path id="Path_2890" fill="#3f50b4" d="M132.267-218.238a13.212 13.212 0 0 0-.858 2.688 17.722 17.722 0 0 0-.39 3.112l-2.249 1.647a16.854 16.854 0 0 1 2.116-5.454 16.455 16.455 0 0 1 1.381-1.993z" data-name="Path 2890" transform="translate(-118.847 -152.988)"/>
            <path id="Path_2891" fill="#01a8f4" d="M165.485-348.609s-.34 5.435-3.492 6.446a11.054 11.054 0 0 0-4.4 2.1 5.548 5.548 0 0 0-1.154 1.534c-1.973 3.827-5.913 3.97-7.491 2.654a13.212 13.212 0 0 1 .858-2.688 16.456 16.456 0 0 0-1.381 1.992c-.5-1.051-1.766-4.552 1.623-8.355.143-.172.306-.34.474-.513 3.171-3.191 6.613-2.3 10.016-2.19a9.162 9.162 0 0 0 4.947-.98z" data-name="Path 2891" transform="translate(-136.386 -32.664)"/>
            <path id="Path_2892" fill="#0377bc" d="M197.8-347.974c-.2 1.463-.937 5.013-3.423 5.811a11.054 11.054 0 0 0-4.4 2.1 5.54 5.54 0 0 0-1.154 1.534 5.918 5.918 0 0 1-4.359 3.344 5.664 5.664 0 0 0 5.838-3.344 5.548 5.548 0 0 1 1.154-1.534 11.054 11.054 0 0 1 4.4-2.1c3.151-1.011 3.492-6.446 3.492-6.446a7.377 7.377 0 0 1-1.548.635z" data-name="Path 2892" transform="translate(-170.246 -32.664)"/>
            <path id="Path_2893" d="M29.361-381.69a.494.494 0 0 0-.5-.014 8.194 8.194 0 0 1-4.21.93A3.453 3.453 0 0 0 21.207-384H3.452A3.456 3.456 0 0 0 0-380.548v22.687a3.456 3.456 0 0 0 3.452 3.452h17.755a3.452 3.452 0 0 0 3.417-3.2 3.452 3.452 0 0 0-2.923-3.66v-11.235a10.263 10.263 0 0 1 3.7-1.736l.352-.112c3.432-1.1 3.818-6.65 3.834-6.886a.494.494 0 0 0-.226-.452zm-8.154-1.324a2.46 2.46 0 0 1 2.44 2.208c-.367-.019-.74-.045-1.112-.07a18.29 18.29 0 0 0-4.156.035.15.15 0 0 0-.035.005 8.017 8.017 0 0 0-4.56 2.386c-.122.123-.238.246-.351.368H5.869a3.449 3.449 0 0 0 1.038-2.466 3.448 3.448 0 0 0-1.038-2.466zM.986-357.861v-22.687a2.466 2.466 0 0 1 2.466-2.466 2.466 2.466 0 0 1 2.466 2.466 2.466 2.466 0 0 1-2.466 2.466.493.493 0 0 0-.493.493.494.494 0 0 0 .493.493h9.169a7.763 7.763 0 0 0-1.137 7.832 17.933 17.933 0 0 0-1.969 4.991H4.439a.493.493 0 0 0-.493.493.493.493 0 0 0 .493.493h5.483a.494.494 0 0 0 .291-.1l2.251-1.648a.493.493 0 0 0 .2-.395 16.791 16.791 0 0 1 .247-2.318 4.644 4.644 0 0 0 2.032.444 5.618 5.618 0 0 0 1.108-.112 6.17 6.17 0 0 0 3.641-2.314c.009-.009.014-.022.023-.031a7.905 7.905 0 0 0 .777-1.215c.07-.137.144-.266.222-.39v10.046H3.452a.494.494 0 0 0-.493.493.493.493 0 0 0 .493.493 2.466 2.466 0 0 1 2.466 2.466 2.466 2.466 0 0 1-2.466 2.466 2.466 2.466 0 0 1-2.466-2.459zm10.981-10.229a18.125 18.125 0 0 0-.279 2.407l-.973.712a17.649 17.649 0 0 1 1.252-3.119zm11.706 10.229a2.469 2.469 0 0 1-2.466 2.466H5.869a3.448 3.448 0 0 0 1.038-2.466 3.449 3.449 0 0 0-1.038-2.466h15.338a2.469 2.469 0 0 1 2.466 2.466zm1.782-17.439l-.349.112a15.713 15.713 0 0 0-2.91 1.151 1.824 1.824 0 0 1-1.134-.452.494.494 0 0 0-.477-.127.494.494 0 0 0-.349.349.494.494 0 0 0 .128.476 2.365 2.365 0 0 0 .748.493 5.958 5.958 0 0 0-1.5 1.877 7 7 0 0 1-.523.856 6.16 6.16 0 0 1-2.6-.563.493.493 0 0 0-.662.221.493.493 0 0 0 .221.662 6.559 6.559 0 0 0 2.216.615 5.1 5.1 0 0 1-2.417 1.255 3.884 3.884 0 0 1-2.738-.375 12.714 12.714 0 0 1 .727-2.219c3.806-4.7 6.57-5.789 11.31-6.447a.493.493 0 0 0 .39-.3.492.492 0 0 0-.068-.489.493.493 0 0 0-.458-.185c-4.919.682-7.966 1.88-11.972 6.844l-.013.017c-.322.4-.612.8-.88 1.2a6.83 6.83 0 0 1 1.062-5.888 4.981 4.981 0 0 0 .12.724.493.493 0 0 0 .6.357.493.493 0 0 0 .357-.6 4.564 4.564 0 0 1-.07-1.737c.087-.093.175-.186.267-.28a7.162 7.162 0 0 1 3.047-1.881 4.563 4.563 0 0 0-.272 1.554.493.493 0 0 0 .493.493.493.493 0 0 0 .493-.493 3.419 3.419 0 0 1 .5-1.816 13.6 13.6 0 0 1 2.478-.069 3.409 3.409 0 0 0-.462.68.493.493 0 0 0 .223.661.485.485 0 0 0 .221.051.493.493 0 0 0 .444-.274 2.926 2.926 0 0 1 .918-1.036 12.793 12.793 0 0 0 5.933-.553c-.233 1.495-.961 4.475-3.042 5.136z" data-name="Path 2893"/>
            <path id="Path_2894" d="M51.692-159.014h3.945a.493.493 0 0 0 .493-.493.493.493 0 0 0-.493-.493h-3.945a.493.493 0 0 0-.493.493.493.493 0 0 0 .493.493z" data-name="Path 2894" transform="translate(-47.254 -206.738)"/>
            <path id="Path_2895" d="M51.692-191.014h4.932a.493.493 0 0 0 .493-.493.493.493 0 0 0-.493-.493h-4.932a.493.493 0 0 0-.493.493.493.493 0 0 0 .493.493z" data-name="Path 2895" transform="translate(-47.254 -177.204)"/>
            <path id="Path_2896" d="M51.692-223.014h4.932a.493.493 0 0 0 .493-.493.493.493 0 0 0-.493-.493h-4.932a.493.493 0 0 0-.493.493.493.493 0 0 0 .493.493z" data-name="Path 2896" transform="translate(-47.254 -147.67)"/>
            <path id="Path_2897" d="M51.692-255.014h4.932a.493.493 0 0 0 .493-.493.493.493 0 0 0-.493-.493h-4.932a.493.493 0 0 0-.493.493.493.493 0 0 0 .493.493z" data-name="Path 2897" transform="translate(-47.254 -118.136)"/>
        </g>
    </g>
</svg>
