<svg xmlns="http://www.w3.org/2000/svg" width="45" height="45" viewBox="0 0 45 45">
  <defs>
    <style>
      .cls-1 {
        fill: #003b71;
      }

      .cls-2 {
        fill: #fff;
      }
    </style>
  </defs>
  <g id="Group_301" data-name="Group 301" transform="translate(-795 -739)">
    <circle id="Ellipse_599" data-name="Ellipse 599" class="cls-1" cx="22.5" cy="22.5" r="22.5" transform="translate(795 739)"/>
    <g id="Group_300" data-name="Group 300" transform="translate(801 1185.524)">
      <path id="Path_2822" data-name="Path 2822" class="cls-2" d="M35.359-340.369v-1.17l2.153,2.325a.557.557,0,0,0,.409.179h2.83a.463.463,0,0,0,.356,0h.453a.573.573,0,0,1,.475.657.573.573,0,0,1-.475.475H37.643Zm2.785,7.942v3.438a.557.557,0,0,1-.557.557.557.557,0,0,1-.557-.557v-2.076a.557.557,0,0,0-.306-.5l-1.7-.857c.107-.55.189-1.105.243-1.666Zm-6.79,5.968-.934,1.364a1.105,1.105,0,0,1-1.505.42l-.014-.008a1.136,1.136,0,0,1-.424-1.515,17.725,17.725,0,0,0,3.494-9.475H34.24A16.442,16.442,0,0,1,31.354-326.458Zm.663-16.455h2.228v6.127H32.017Zm24.787,6.2-4.25,2.454a.532.532,0,0,0-.091-.137l-3.9-3.9a.557.557,0,0,0-.76-.026l-4.456,3.9a.557.557,0,0,0-.057.786.557.557,0,0,0,.786.057l0,0,4.066-3.556,3.44,3.44-10.1,5.83v-8.918h.075a1.682,1.682,0,0,0,1.593-1.766,1.682,1.682,0,0,0-1.593-1.593h-.075V-341.8a.557.557,0,0,0-.557-.557.557.557,0,0,0-.557.557v1.653H38.164l-2.805-3.03v-.294a.557.557,0,0,0-.557-.557H31.46a.557.557,0,0,0-.557.557v6.67a16.6,16.6,0,0,1-3.339,9.962.567.567,0,0,0-.039.06,2.254,2.254,0,0,0,.815,3.06,2.205,2.205,0,0,0,1.114.3,2.228,2.228,0,0,0,.577-.076,2.178,2.178,0,0,0,1.332-1.009l.91-1.326a17.541,17.541,0,0,0,2.5-5.471l1.147.58v1.732a1.671,1.671,0,0,0,1.671,1.671,1.671,1.671,0,0,0,1.671-1.671v-3.76a.557.557,0,0,0-.279-.482l-3.638-2.1c0-.159.018-.316.018-.475v-2.928l1.634,1.765a.557.557,0,0,0,.408.178h2.97v9.442a.521.521,0,0,0,.022.106l-10.6,6.122a.557.557,0,0,0-.209.759.557.557,0,0,0,.759.209l.007,0,27.015-15.6a.557.557,0,0,0,.2-.762A.557.557,0,0,0,56.8-336.711Z" transform="translate(-25.333 -88.848)"/>
      <path id="Path_2823" data-name="Path 2823" class="cls-2" d="M82.834-438.445a1.671,1.671,0,0,1,1.57,1.132h-3.14A1.671,1.671,0,0,1,82.834-438.445Zm0,3.378a1.671,1.671,0,0,1-1.57-1.132H84.4A1.671,1.671,0,0,1,82.834-435.067Zm0,1.114a2.8,2.8,0,0,0,2.729-2.246h1.17a.557.557,0,0,0,.557-.557.557.557,0,0,0-.557-.557h-1.17a2.785,2.785,0,0,0-3.3-2.15,2.785,2.785,0,0,0-2.15,3.3A2.785,2.785,0,0,0,82.834-433.953Z" transform="translate(-74.479 0)"/>
      <path id="Path_2824" data-name="Path 2824" class="cls-2" d="M3.342-374.057a2.789,2.789,0,0,1-2.228-2.729V-381.8a1.114,1.114,0,0,1,1.114-1.114A1.114,1.114,0,0,1,3.342-381.8Zm1.114.613V-381.8a2.228,2.228,0,0,0-2.228-2.228A2.228,2.228,0,0,0,0-381.8v5.013a3.9,3.9,0,0,0,3.9,3.9A.557.557,0,0,0,4.456-373.444Z" transform="translate(0 -51.632)"/>
      <path id="Path_2825" data-name="Path 2825" class="cls-2" d="M370.228-318.914a1.114,1.114,0,0,1,1.114,1.114,1.114,1.114,0,0,1-1.114,1.114,1.114,1.114,0,0,1-1.114-1.114A1.114,1.114,0,0,1,370.228-318.914ZM368-317.8a2.228,2.228,0,0,0,2.228,2.228,2.228,2.228,0,0,0,2.228-2.228,2.228,2.228,0,0,0-2.228-2.228A2.228,2.228,0,0,0,368-317.8Z" transform="translate(-342.378 -111.176)"/>
      <path id="Path_2826" data-name="Path 2826" class="cls-2" d="M422.254-361.774a.557.557,0,0,0-.763.195h0l-.572.967a.557.557,0,0,0,.2.763.557.557,0,0,0,.763-.2l.572-.965a.557.557,0,0,0-.192-.764Z" transform="translate(-391.539 -72.263)"/>
      <path id="Path_2827" data-name="Path 2827" class="cls-2" d="M441.445-332.025a.557.557,0,0,0,.758.213l.992-.557a.557.557,0,0,0,.2-.763.557.557,0,0,0-.741-.209l-.991.557a.557.557,0,0,0-.214.758Z" transform="translate(-410.643 -98.729)"/>
      <path id="Path_2828" data-name="Path 2828" class="cls-2" d="M449.262-296.028h-1.145a.557.557,0,0,0-.557.557.557.557,0,0,0,.557.557h1.145a.557.557,0,0,0,.557-.557A.557.557,0,0,0,449.262-296.028Z" transform="translate(-416.398 -133.504)"/>
      <path id="Path_2829" data-name="Path 2829" class="cls-2" d="M319.56-295.471a.557.557,0,0,0,.557.557h1.145a.557.557,0,0,0,.557-.557.557.557,0,0,0-.557-.557h-1.145A.557.557,0,0,0,319.56-295.471Z" transform="translate(-297.31 -133.504)"/>
      <path id="Path_2830" data-name="Path 2830" class="cls-2" d="M328.827-335.384a.557.557,0,0,0-.759.213.557.557,0,0,0,.213.759l.991.557a.557.557,0,0,0,.759-.212.557.557,0,0,0-.213-.759Z" transform="translate(-305.159 -96.822)"/>
      <path id="Path_2831" data-name="Path 2831" class="cls-2" d="M356.111-361.576a.557.557,0,0,0-.763-.2.557.557,0,0,0-.2.763l.573.965a.557.557,0,0,0,.772.156.557.557,0,0,0,.186-.721Z" transform="translate(-330.352 -72.266)"/>
      <path id="Path_2832" data-name="Path 2832" class="cls-2" d="M393.186-369.82v-1.114a.557.557,0,0,0-.557-.557.557.557,0,0,0-.557.557v1.114a.557.557,0,0,0,.557.557A.557.557,0,0,0,393.186-369.82Z" transform="translate(-364.774 -63.296)"/>
    </g>
  </g>
</svg>
