<svg xmlns="http://www.w3.org/2000/svg" width="45" height="45" viewBox="0 0 45 45">
    <defs>
        <style>
            .cls-2{fill:#2956b0}.cls-4{fill:#f16521}.cls-6{fill:#3165db}.cls-8{fill:#ec834d}.cls-9{fill:#538bfe}.cls-13{fill:#f19d70}
        </style>
    </defs>
    <g id="Group_330" data-name="Group 330" transform="translate(-132 -837)">
        <circle id="Ellipse_659" cx="22.5" cy="22.5" r="22.5" fill="#003b71" data-name="Ellipse 659" transform="translate(132 837)"/>
        <g id="Group_316" data-name="Group 316" transform="translate(135.947 1221.877)">
            <path id="Path_3017" d="M184.257-134.926h-.01v3.253l2.969 2.227c7.864-2.2 12.567-6.936 15.678-13.87l-5.6 2s-6.032 6.376-13.037 6.39z" class="cls-2" data-name="Path 3017" transform="translate(-166.416 -214.244)"/>
            <path id="Path_3018" d="M338.993-291.42l2.446-1.282.349-2.038a61.21 61.21 0 0 1-2.918-6.484l-.933 4.9z" class="cls-2" data-name="Path 3018" transform="translate(-305.233 -71.619)"/>
            <path id="Path_3019" fill="#ede1db" d="M202.727-234.227l-.429.581a28.39 28.39 0 0 1-2.366 2.737l-6.072 8.245-9.883 5.55.024.073h.01a24.824 24.824 0 0 0 17.844-7.583l.791-.8z" data-name="Path 3019" transform="translate(-166.172 -132.131)"/>
            <path id="Path_3020" d="M113.979-75.254l-.024-.073-3.922-1.923-3.171 1.336-.412 3 2.519 2.418 7.979.726-.41-.5a18.119 18.119 0 0 1-2.559-4.984z" class="cls-4" data-name="Path 3020" transform="translate(-96.148 -273.916)"/>
            <path id="Path_3021" d="M9.881-135.242l-3.713-2.2 3.747 6.949z" class="cls-4" data-name="Path 3021" transform="translate(-5.571 -219.553)"/>
            <path id="Path_3022" d="M44-99.624l-3.7-3.223-3.454-.653q.168 1.205.448 2.385l.33 1.28 8.476 5.626-.419-.715a25.51 25.51 0 0 1-1.681-4.7z" class="cls-2" data-name="Path 3022" transform="translate(-33.282 -250.206)"/>
            <path id="Path_3023" fill="#f5efe9" d="M164.138-191.875h-.019l-1.142 3.005 2.032 2.763a18.6 18.6 0 0 0 15.954-13.793 26.857 26.857 0 0 1-16.825 8.025z" data-name="Path 3023" transform="translate(-147.204 -163.138)"/>
            <path id="Path_3024" d="M182.63-293.628a18.71 18.71 0 0 0-.122-9.8l-.169-.237-1.325.689-1.265 3.639c-2.839 6.9-14.928 13.113-14.928 13.113l.964.624h.019a26.855 26.855 0 0 0 16.826-8.028z" class="cls-6" data-name="Path 3024" transform="translate(-148.87 -69.41)"/>
            <path id="Path_3025" fill="#f53d52" d="M310.261-322.122a18.066 18.066 0 0 0 2.339-3.747l.251-.581a2.922 2.922 0 0 1-2.133-2.442l-1.4 2.138z" data-name="Path 3025" transform="translate(-279.382 -46.629)"/>
            <path id="Path_3026" d="M89.527-135.922l-4.827.446 2.518 6.567a18.6 18.6 0 0 0 5.058.7 18.83 18.83 0 0 0 2.032-.111 18.2 18.2 0 0 1-.679-2.838 17.976 17.976 0 0 1-.21-2.93c0-.073 0-.15.005-.224z" class="cls-8" data-name="Path 3026" transform="translate(-76.503 -220.922)"/>
            <path id="Path_3027" d="M4.458-166.622L0-168.352c.432.885 1.038 1.776.6 2.992a18.674 18.674 0 0 0 2.969 3.284z" class="cls-8" data-name="Path 3027" transform="translate(0 -191.631)"/>
            <path id="Path_3028" d="M34.358-147.462a25.473 25.473 0 0 0 .24 3.729 18.545 18.545 0 0 0 7.149 3.875 25.4 25.4 0 0 1-.747-5.191l-2.946-2.994z" class="cls-6" data-name="Path 3028" transform="translate(-31.032 -209.974)"/>
            <path id="Path_3029" d="M179.622-258.723l-6.795 1.067-5.444 5.335-2.5 3.42.963 3.469a18.612 18.612 0 0 0 13.954-13.513l-.182.218z" class="cls-9" data-name="Path 3029" transform="translate(-148.926 -109.805)"/>
            <path id="Path_3030" fill="#ff627b" d="M84.7-374.316l22.5 9.09.182-.218a18.609 18.609 0 0 0 .581-4.627 18.772 18.772 0 0 0-.124-2.143c-3.912-2.1-7.878-4.645-12.878-4.645-3.793-.002-6.797 1.212-10.261 2.543z" data-name="Path 3030" transform="translate(-76.503 -3.303)"/>
            <path id="Path_3031" fill="#fff4f4" d="M54.229-337.294a18.054 18.054 0 0 0 5.081-4.21 31.071 31.071 0 0 0-21.485-9.09h-1.016l-2.193 2.537-2.936 2.544z" data-name="Path 3031" transform="translate(-28.614 -27.026)"/>
            <path id="Path_3032" fill="#75a2fe" d="M22.491-288.462a17.962 17.962 0 0 0 7.157-2.194 28.274 28.274 0 0 0-21.87-8.244l-.679.023L6.262-296l-1.8 3.012z" data-name="Path 3032" transform="translate(-4.033 -73.664)"/>
            <path id="Path_3033" d="M32.9-243.893a18.063 18.063 0 0 0-6.619-1.161l-.008.019-3.239 4.679 1.1 5.275a18.468 18.468 0 0 0 6.64 2.409l2.41-5.5z" class="cls-9" data-name="Path 3033" transform="translate(-20.807 -122.35)"/>
            <path id="Path_3034" d="M111.279-228.922a17.975 17.975 0 0 0-6.364-4.117 25.305 25.305 0 0 0-2.129 11.22 18.718 18.718 0 0 0 6.955-.214 17.987 17.987 0 0 1 1.538-6.889z" class="cls-13" data-name="Path 3034" transform="translate(-92.821 -133.204)"/>
            <path id="Path_3035" d="M5.466-245.051l.008-.019a18.076 18.076 0 0 0-4.444.611l-.6.145.165 3.79L0-237.645a18.693 18.693 0 0 0 3.326 2.545 25.332 25.332 0 0 1 2.14-9.951z" class="cls-13" data-name="Path 3035" transform="translate(0 -122.337)"/>
            <path id="Path_3036" d="M32.238-375.264a18.582 18.582 0 0 0-26.085.191 18.582 18.582 0 0 0-.191 26.085 18.582 18.582 0 0 0 26.085-.191 18.582 18.582 0 0 0 .191-26.085zm-12.764 13.646a18.565 18.565 0 0 0 8.832-3.358 18.7 18.7 0 0 0 5.618-6.429 17.392 17.392 0 0 1 2.257 5.5 26.361 26.361 0 0 1-18.051 10.289 17.422 17.422 0 0 1 1.344-6.002zm-9.458-15.452a30.868 30.868 0 0 1 4.182.378.565.565 0 0 0 .087.007.545.545 0 0 0 .539-.5.544.544 0 0 0-.454-.579c-.818-.132-1.647-.229-2.478-.3a17.385 17.385 0 0 1 7.21-1.556 17.473 17.473 0 0 1 14.125 7.186 17.376 17.376 0 0 1-1.936 3.094 31.658 31.658 0 0 0-14.359-7.912.544.544 0 0 0-.658.4.544.544 0 0 0 .4.658A30.568 30.568 0 0 1 30.59-368.5a17.632 17.632 0 0 1-4.255 3.5 29.145 29.145 0 0 0-3.492-2.9.544.544 0 0 0-.409-.1.545.545 0 0 0-.356.223.543.543 0 0 0-.091.41.544.544 0 0 0 .228.353 28.025 28.025 0 0 1 3.115 2.556 17.44 17.44 0 0 1-6.031 1.767 18.567 18.567 0 0 0-16.832-4.853 17.442 17.442 0 0 1 2.223-4.487 27.694 27.694 0 0 1 15.41 3.663.545.545 0 0 0 .744-.2.544.544 0 0 0-.2-.744 28.755 28.755 0 0 0-15.113-3.847 17.626 17.626 0 0 1 4.485-3.911zm-7.891 10.72a17.427 17.427 0 0 1 3.162-.481 25.683 25.683 0 0 0-1.67 12.843 17.481 17.481 0 0 1-1.492-12.362zm3.033 14.773a24.634 24.634 0 0 1 1.319-15.283 17.589 17.589 0 0 1 5.53.944 25.961 25.961 0 0 0 0 19.775 17.588 17.588 0 0 1-6.849-5.435zm8.282 6a24.874 24.874 0 0 1-.412-19.956A17.441 17.441 0 0 1 18.455-362a18.565 18.565 0 0 0 1.6 17.338q-.47.026-.947.026a17.423 17.423 0 0 1-5.669-.941zm7.85.8a17.425 17.425 0 0 1-2.043-3.867 25.48 25.48 0 0 0 5.322-.731.544.544 0 0 0 .391-.657.544.544 0 0 0-.652-.4 24.409 24.409 0 0 1-5.428.708 17.653 17.653 0 0 1-.76-4.8 26.983 26.983 0 0 0 10.572-3.422 28.126 28.126 0 0 0 7.746-6.539 17.636 17.636 0 0 1 .158 2.354 17.425 17.425 0 0 1-.756 5.087 24.5 24.5 0 0 1-9.048 5.853.543.543 0 0 0-.313.281.542.542 0 0 0-.02.42.546.546 0 0 0 .285.309.545.545 0 0 0 .42.013 25.569 25.569 0 0 0 7.781-4.552 17.537 17.537 0 0 1-13.656 9.946z" data-name="Path 3036" transform="translate(-.643)"/>
        </g>
    </g>
</svg>
