<svg xmlns="http://www.w3.org/2000/svg" width="45" height="45" viewBox="0 0 45 45">
  <defs>
    <style>
      .cls-1 {
        fill: #003b71;
      }

      .cls-2 {
        fill: #ffdb00;
      }

      .cls-3 {
        fill: #fec108;
      }

      .cls-4 {
        fill: #e81d62;
      }

      .cls-5 {
        fill: #ac1357;
      }

      .cls-6 {
        fill: #90562d;
      }

      .cls-7 {
        fill: #6d4021;
      }

      .cls-8 {
        fill: #f5f5f5;
      }

      .cls-9 {
        fill: #cfd8db;
      }

      .cls-10 {
        fill: #9d9d9d;
      }

      .cls-11 {
        fill: #6f6f6f;
      }
    </style>
  </defs>
  <g id="Group_327" data-name="Group 327" transform="translate(-416 -739)">
    <circle id="Ellipse_627" data-name="Ellipse 627" class="cls-1" cx="22.5" cy="22.5" r="22.5" transform="translate(416 739)"/>
    <g id="Group_296" data-name="Group 296" transform="translate(426.585 1132.59)">
      <path id="Path_2729" data-name="Path 2729" class="cls-2" d="M23.778-259.322v2.934a1.655,1.655,0,0,1-1.655,1.655h-8.45a.834.834,0,0,0-.443.128l-4.349,2.768v-2.069a.83.83,0,0,0-.828-.828,1.653,1.653,0,0,1-1.171-.484,1.654,1.654,0,0,1-.484-1.171v-10.759A1.655,1.655,0,0,1,8.053-268.8h3.31v7.035a1.655,1.655,0,0,0,1.655,1.655H22.3a.832.832,0,0,1,.443.128Z" transform="translate(-5.984 -107.75)"/>
      <path id="Path_2730" data-name="Path 2730" class="cls-3" d="M232.256-134.272a.832.832,0,0,0-.443-.128h-1.241a.833.833,0,0,1,.443.128l1.039.662v2.934a1.655,1.655,0,0,1-1.655,1.655h1.242a1.655,1.655,0,0,0,1.655-1.655v-2.934Z" transform="translate(-215.501 -233.463)"/>
      <path id="Path_2731" data-name="Path 2731" class="cls-4" d="M102.235-375.949v12.414a1.656,1.656,0,0,1-1.655,1.655h-.828a.83.83,0,0,0-.828.827v2.069l-3.31-2.106-1.039-.662a.832.832,0,0,0-.443-.128H84.854a1.655,1.655,0,0,1-1.655-1.655v-12.414a1.655,1.655,0,0,1,1.655-1.655h15.725A1.656,1.656,0,0,1,102.235-375.949Z" transform="translate(-77.819 -5.984)"/>
      <path id="Path_2732" data-name="Path 2732" class="cls-5" d="M310.1-377.6h-1.241a1.655,1.655,0,0,1,1.655,1.655v12.414a1.655,1.655,0,0,1-1.655,1.655h-.828a.83.83,0,0,0-.828.827v1.279l1.241.79v-2.069a.83.83,0,0,1,.828-.827h.828a1.656,1.656,0,0,0,1.655-1.655v-12.414A1.656,1.656,0,0,0,310.1-377.6Z" transform="translate(-287.336 -5.984)"/>
      <path id="Path_2733" data-name="Path 2733" class="cls-6" d="M135.672-319.174v8.69a.83.83,0,0,1-.828.828H122.429a.83.83,0,0,1-.827-.828v-8.69a.83.83,0,0,1,.827-.828h.828v8.276a.414.414,0,0,0,.414.414H133.6a.414.414,0,0,0,.414-.414V-320h.827A.83.83,0,0,1,135.672-319.174Z" transform="translate(-113.739 -59.862)"/>
      <path id="Path_2734" data-name="Path 2734" class="cls-7" d="M308.44-320h-.827v.115a.828.828,0,0,1,.414.712v8.69a.83.83,0,0,1-.828.828h1.241a.83.83,0,0,0,.828-.828v-8.69A.83.83,0,0,0,308.44-320Z" transform="translate(-287.336 -59.862)"/>
      <path id="Path_2735" data-name="Path 2735" class="cls-8" d="M235.778-351.588v8.276h-3.724a1.656,1.656,0,0,0-1.655,1.655v-8.69A1.655,1.655,0,0,1,232.053-352h3.31A.414.414,0,0,1,235.778-351.588Z" transform="translate(-215.501 -29.931)"/>
      <path id="Path_2736" data-name="Path 2736" class="cls-9" d="M289.241-352H288a.414.414,0,0,1,.414.414v8.276h1.242v-8.276A.414.414,0,0,0,289.241-352Z" transform="translate(-269.378 -29.931)"/>
      <path id="Path_2737" data-name="Path 2737" class="cls-8" d="M152.579-350.347v8.69a1.655,1.655,0,0,0-1.655-1.655H147.2v-8.276a.414.414,0,0,1,.414-.414h3.31a1.653,1.653,0,0,1,1.171.484A1.652,1.652,0,0,1,152.579-350.347Z" transform="translate(-137.681 -29.931)"/>
      <path id="Path_2738" data-name="Path 2738" class="cls-9" d="M188.014-351.518a1.664,1.664,0,0,0-1.171-.484H185.6a1.654,1.654,0,0,1,1.171.484,1.653,1.653,0,0,1,.484,1.171v7.093a1.651,1.651,0,0,1,1.241,1.6v-8.69A1.666,1.666,0,0,0,188.014-351.518Z" transform="translate(-173.601 -29.931)"/>
      <path id="Path_2739" data-name="Path 2739" class="cls-10" d="M235.778-217.6v1.655a.414.414,0,0,1-.414.414H230.4v-.414a1.656,1.656,0,0,1,1.655-1.655Z" transform="translate(-215.501 -155.639)"/>
      <path id="Path_2740" data-name="Path 2740" class="cls-11" d="M288.414-217.6v1.655a.414.414,0,0,1-.414.414h1.241a.414.414,0,0,0,.414-.414V-217.6Z" transform="translate(-269.378 -155.639)"/>
      <path id="Path_2741" data-name="Path 2741" class="cls-10" d="M152.579-215.949v.414h-4.966a.414.414,0,0,1-.414-.414V-217.6h3.724A1.655,1.655,0,0,1,152.579-215.949Z" transform="translate(-137.681 -155.639)"/>
      <path id="Path_2742" data-name="Path 2742" class="cls-11" d="M186.843-217.6H185.6a1.655,1.655,0,0,1,1.655,1.655v.414H188.5v-.414A1.655,1.655,0,0,0,186.843-217.6Z" transform="translate(-173.601 -155.639)"/>
      <path id="Path_2743" data-name="Path 2743" d="M22.76-384H7.035a2.071,2.071,0,0,0-2.069,2.069v4.966h-2.9A2.071,2.071,0,0,0,0-374.9v10.759a2.071,2.071,0,0,0,2.069,2.069.414.414,0,0,1,.414.414v2.069a.414.414,0,0,0,.215.363.414.414,0,0,0,.422-.014l4.349-2.767a.413.413,0,0,1,.222-.065h8.449a2.072,2.072,0,0,0,2.069-2.069v-2.18l2.674,1.7a.414.414,0,0,0,.421.014.414.414,0,0,0,.215-.363v-2.069a.414.414,0,0,1,.414-.414h.828a2.072,2.072,0,0,0,2.069-2.069v-12.414A2.071,2.071,0,0,0,22.76-384Zm-5.38,19.863a1.241,1.241,0,0,1-1.241,1.241H7.69a1.236,1.236,0,0,0-.666.194L3.31-360.341v-1.315A1.241,1.241,0,0,0,2.069-362.9a1.241,1.241,0,0,1-1.241-1.241V-374.9a1.241,1.241,0,0,1,1.241-1.241h2.9v2.483H2.9a.414.414,0,0,0-.414.414.414.414,0,0,0,.414.414H4.966v2.9H2.9a.414.414,0,0,0-.414.414.414.414,0,0,0,.414.414h2.11a2.073,2.073,0,0,0,2.028,1.655h9.277a.414.414,0,0,1,.222.065l.847.539ZM24-369.518a1.241,1.241,0,0,1-1.241,1.241h-.828a1.242,1.242,0,0,0-1.241,1.241v1.315l-3.713-2.362a1.235,1.235,0,0,0-.666-.194H7.035a1.241,1.241,0,0,1-1.241-1.241v-12.414a1.241,1.241,0,0,1,1.241-1.241H22.76A1.241,1.241,0,0,1,24-381.933Z"/>
      <path id="Path_2744" data-name="Path 2744" d="M128.855-356.331h-.414v-1.242a.828.828,0,0,0-.828-.827H124.3a2.07,2.07,0,0,0-1.655.827,2.069,2.069,0,0,0-1.655-.827h-3.31a.828.828,0,0,0-.828.827v1.242h-.414a1.241,1.241,0,0,0-1.241,1.241v8.69a1.241,1.241,0,0,0,1.241,1.241h12.414A1.241,1.241,0,0,0,130.1-346.4v-8.69A1.241,1.241,0,0,0,128.855-356.331Zm-11.173,8.69v-1.241h3.31a1.241,1.241,0,0,1,1.241,1.241Zm6.621-9.932h3.31v7.863H124.3a2.048,2.048,0,0,0-1.241.425v-7.045A1.241,1.241,0,0,1,124.3-357.573Zm3.31,8.69v1.241h-4.552a1.241,1.241,0,0,1,1.241-1.241Zm-6.621-8.69a1.242,1.242,0,0,1,1.241,1.242v7.045a2.048,2.048,0,0,0-1.241-.425h-3.31v-7.863Zm8.276,11.173a.414.414,0,0,1-.414.414H116.44a.414.414,0,0,1-.414-.414v-8.69a.414.414,0,0,1,.414-.414h.414v7.863a.828.828,0,0,0,.828.828h9.931a.828.828,0,0,0,.828-.828V-355.5h.414a.414.414,0,0,1,.414.414Z" transform="translate(-107.75 -23.947)"/>
      <path id="Path_2745" data-name="Path 2745" d="M166.812-331.975h2.069a.414.414,0,0,0,.414-.414.414.414,0,0,0-.414-.414h-2.069a.414.414,0,0,0-.414.414A.414.414,0,0,0,166.812-331.975Z" transform="translate(-155.639 -47.889)"/>
      <path id="Path_2746" data-name="Path 2746" d="M166.812-306.373h2.069a.414.414,0,0,0,.414-.414.414.414,0,0,0-.414-.414h-2.069a.414.414,0,0,0-.414.414A.414.414,0,0,0,166.812-306.373Z" transform="translate(-155.639 -71.835)"/>
      <path id="Path_2747" data-name="Path 2747" d="M166.812-280.776h2.069a.414.414,0,0,0,.414-.414.414.414,0,0,0-.414-.414h-2.069a.414.414,0,0,0-.414.414A.414.414,0,0,0,166.812-280.776Z" transform="translate(-155.639 -95.777)"/>
      <path id="Path_2748" data-name="Path 2748" d="M166.812-255.174h2.069a.414.414,0,0,0,.414-.414.414.414,0,0,0-.414-.414h-2.069a.414.414,0,0,0-.414.414A.414.414,0,0,0,166.812-255.174Z" transform="translate(-155.639 -119.724)"/>
      <path id="Path_2749" data-name="Path 2749" d="M250.016-331.975h2.069a.414.414,0,0,0,.414-.414.414.414,0,0,0-.414-.414h-2.069a.414.414,0,0,0-.414.414A.414.414,0,0,0,250.016-331.975Z" transform="translate(-233.463 -47.889)"/>
      <path id="Path_2750" data-name="Path 2750" d="M250.016-306.373h2.069a.414.414,0,0,0,.414-.414.414.414,0,0,0-.414-.414h-2.069a.414.414,0,0,0-.414.414A.414.414,0,0,0,250.016-306.373Z" transform="translate(-233.463 -71.835)"/>
      <path id="Path_2751" data-name="Path 2751" d="M250.016-280.776h2.069a.414.414,0,0,0,.414-.414.414.414,0,0,0-.414-.414h-2.069a.414.414,0,0,0-.414.414A.414.414,0,0,0,250.016-280.776Z" transform="translate(-233.463 -95.777)"/>
      <path id="Path_2752" data-name="Path 2752" d="M250.016-255.174h2.069a.414.414,0,0,0,.414-.414.414.414,0,0,0-.414-.414h-2.069a.414.414,0,0,0-.414.414A.414.414,0,0,0,250.016-255.174Z" transform="translate(-233.463 -119.724)"/>
      <path id="Path_2753" data-name="Path 2753" d="M51.226-108.8H38.812a.414.414,0,0,0-.414.414.414.414,0,0,0,.414.414H51.226a.414.414,0,0,0,.414-.414A.414.414,0,0,0,51.226-108.8Z" transform="translate(-35.915 -257.405)"/>
    </g>
  </g>
</svg>
