<svg xmlns="http://www.w3.org/2000/svg" width="45" height="45" viewBox="0 0 45 45">
    <defs>
        <style>
            .cls-4{fill:#2f3c41}.cls-5{fill:#fff}
        </style>
    </defs>
    <g id="Group_154" data-name="Group 154" transform="translate(-1174 -739)">
        <circle id="Ellipse_584" cx="22.5" cy="22.5" r="22.5" fill="#003b71" data-name="Ellipse 584" transform="translate(1174 739)"/>
        <g id="Group_306" data-name="Group 306" transform="translate(1180.196 1099.596)">
            <path id="Path_2898" fill="#4a4a4a" d="M29.407-335.9a15.094 15.094 0 0 0-1.165-5.03c3.754-.967 5.367-7.6 5.367-10.373a.7.7 0 0 0-.7-.7c-3.947 0-9.267 2.565-10.308 5.354a16.552 16.552 0 0 0-5.8-1.153 16.545 16.545 0 0 0-5.8 1.153C9.968-349.435 4.648-352 .7-352a.7.7 0 0 0-.7.7c0 2.769 1.612 9.406 5.366 10.373A15.094 15.094 0 0 0 4.2-335.9a3.654 3.654 0 0 1-.572 2.225 5.755 5.755 0 0 0-.829 3.376c0 3.72 4.987 9.1 14 9.1s14-5.382 14-9.1a5.755 5.755 0 0 0-.829-3.376 3.654 3.654 0 0 1-.563-2.225z" data-name="Path 2898"/>
            <path id="Path_2899" fill="#ffed58" d="M69.842-315.012a.7.7 0 0 1 .944.3c.025.049.212.416.464.977a3.164 3.164 0 0 0 1.76-1.065 15.5 15.5 0 0 0-1.855-5.955c-1.9.916-3.388 2.143-3.718 3.161.579.271.934.475.979.5a.7.7 0 0 1 .25.957.7.7 0 0 1-.957.252 16.6 16.6 0 0 0-7.349-2 16.507 16.507 0 0 0-7.348 2 .7.7 0 0 1-.354.1.7.7 0 0 1-.6-.347.7.7 0 0 1 .25-.958c.045-.026.4-.23.979-.5-.33-1.019-1.814-2.245-3.718-3.161a14.953 14.953 0 0 0-1.832 5.981 3.145 3.145 0 0 0 1.739 1.042c.252-.561.439-.928.464-.977a.7.7 0 0 1 .944-.3.7.7 0 0 1 .3.943c-.02.04-2.023 3.956-2.023 6.681a5.035 5.035 0 0 1-.756 2.921 4.05 4.05 0 0 0-.5 1.19 3.469 3.469 0 0 1 1.956-.611 3.5 3.5 0 0 1 3.5 3.5 3.5 3.5 0 0 1-2.594 3.367 15.4 15.4 0 0 0 9.6 2.935 15.4 15.4 0 0 0 9.6-2.935 3.5 3.5 0 0 1-2.594-3.367 3.5 3.5 0 0 1 3.5-3.5 3.473 3.473 0 0 1 1.957.61 4.068 4.068 0 0 0-.5-1.19 5.035 5.035 0 0 1-.756-2.921c0-2.73-2-6.641-2.023-6.68a.7.7 0 0 1 .291-.95z" data-name="Path 2899" transform="translate(-43.556 -28.508)"/>
            <path id="Path_2900" d="M100.2-189.9a2.1 2.1 0 0 1-2.1 2.1 2.1 2.1 0 0 1-2.1-2.1 2.1 2.1 0 0 1 2.1-2.1 2.1 2.1 0 0 1 2.1 2.1z" class="cls-4" data-name="Path 2900" transform="translate(-87.598 -145.996)"/>
            <path id="Path_2901" d="M121.4-183.3a.7.7 0 0 1-.7.7.7.7 0 0 1-.7-.7.7.7 0 0 1 .7-.7.7.7 0 0 1 .7.7z" class="cls-5" data-name="Path 2901" transform="translate(-109.497 -153.296)"/>
            <path id="Path_2902" d="M244.2-189.9a2.1 2.1 0 0 1-2.1 2.1 2.1 2.1 0 0 1-2.1-2.1 2.1 2.1 0 0 1 2.1-2.1 2.1 2.1 0 0 1 2.1 2.1z" class="cls-4" data-name="Path 2902" transform="translate(-218.995 -145.996)"/>
            <path id="Path_2903" d="M250.681-183.3a.7.7 0 0 1-.7.7.7.7 0 0 1-.7-.7.7.7 0 0 1 .7-.7.7.7 0 0 1 .7.7z" class="cls-5" data-name="Path 2903" transform="translate(-227.463 -153.296)"/>
            <path id="Path_2904" d="M144.524-141.6a1.865 1.865 0 0 1-1.071.375 2.819 2.819 0 0 1-2.09-.5.7.7 0 0 0-.464-.177.7.7 0 0 0 .494-.2l.7-.7a.7.7 0 0 0 .152-.763.7.7 0 0 0-.645-.435h-1.4a.7.7 0 0 0-.647.432.7.7 0 0 0 .152.763l.7.7a.7.7 0 0 0 .494.2.7.7 0 0 0-.464.177 2.812 2.812 0 0 1-2.09.5 1.865 1.865 0 0 1-1.071-.375.7.7 0 0 0-.975-.176.7.7 0 0 0-.176.974 2.931 2.931 0 0 0 1.964.953 5.015 5.015 0 0 0 .968 3.52 2.479 2.479 0 0 0 1.845.729 2.332 2.332 0 0 0 1.749-.753 5.527 5.527 0 0 0 1.063-3.5 2.93 2.93 0 0 0 1.964-.953.7.7 0 0 0-.176-.97.7.7 0 0 0-.976.179z" class="cls-4" data-name="Path 2904" transform="translate(-124.095 -189.795)"/>
            <path id="Path_2905" fill="#e43834" d="M176.43-99.124a4.024 4.024 0 0 1-.569-2.557 3.962 3.962 0 0 0 1.412-.476 3.979 3.979 0 0 0 1.411.452 4.392 4.392 0 0 1-.687 2.58 1.123 1.123 0 0 1-1.567.001z" data-name="Path 2905" transform="translate(-160.468 -227.977)"/>
        </g>
    </g>
</svg>
