<svg xmlns="http://www.w3.org/2000/svg" width="45" height="45" viewBox="0 0 45 45">
    <defs>
        <clipPath id="clip-path">
            <path id="Path_2702" fill="none" d="M-.25-342.527h39.745V-384H-.25z" clip-rule="evenodd" data-name="Path 2702" transform="translate(.25 384)"/>
        </clipPath>
        <style>
            .cls-5{fill:#3c58a0}.cls-6{fill:#29418b}.cls-7{fill:#bae949}.cls-8{fill:#9ed332}.cls-9{fill:#f9b98f}.cls-11{fill:#fbac6d}.cls-12{fill:#d9e2fe}.cls-14{fill:#4e70b5}.cls-16{fill:#73c2f9}
        </style>
    </defs>
    <g id="Group_175" data-name="Group 175" transform="translate(-132 -739)">
        <circle id="Ellipse_658" cx="22.5" cy="22.5" r="22.5" fill="#003b71" data-name="Ellipse 658" transform="translate(132 739)"/>
        <g id="Group_292" data-name="Group 292" transform="translate(134.378 1124.264)">
            <g id="Group_291" clip-path="url(#clip-path)" data-name="Group 291" transform="translate(-.25 -384)">
                <path id="Path_2677" fill="#4eabf6" d="M19.845-367.5A19.846 19.846 0 0 0 0-347.655a19.83 19.83 0 0 0 9.29 16.807l10.269 3.035h.286a19.845 19.845 0 0 0 19.845-19.845A19.846 19.846 0 0 0 19.845-367.5z" data-name="Path 2677" transform="translate(.027 369.282)"/>
                <path id="Path_2678" d="M118.788-380.834a7.479 7.479 0 0 1-2.06-1.468c-1.8-1.9-6.259-2.732-8.378.36a1.336 1.336 0 0 1-.544.454c-1.056.489-3.629 2.268-1.074 6.733a14.593 14.593 0 0 1 1.248 2.705 3.161 3.161 0 0 0 .921-1.75 3.6 3.6 0 0 0-.282-1.408c-.152-.416-.253-.692-.052-.966a.793.793 0 0 1 1.1-.085.666.666 0 0 1 .308.592l-.012.415a.546.546 0 0 0 .53.561.545.545 0 0 0 .559-.5c.157-1.977.454-3.349.8-3.672.27-.255.9-.176 1.694-.075a9.538 9.538 0 0 0 3.308 0c-.008.03-.015.064-.023.1l.187-.258a9.892 9.892 0 0 0 1.817-.913.473.473 0 0 0-.047-.825z" class="cls-5" data-name="Path 2678" transform="translate(-94.199 384)"/>
                <path id="Path_2679" d="M107.8-364.488c-1.056.489-3.629 2.268-1.074 6.733a14.593 14.593 0 0 1 1.248 2.705 3.161 3.161 0 0 0 .921-1.75 3.6 3.6 0 0 0-.282-1.408c-.152-.416-.253-.692-.052-.966a.793.793 0 0 1 1.1-.085.665.665 0 0 1 .308.592l-.012.415a.546.546 0 0 0 .53.561.545.545 0 0 0 .559-.5 9.284 9.284 0 0 1 .735-3.6 3.425 3.425 0 0 1-3.441-3.146 1.339 1.339 0 0 1-.54.449z" class="cls-6" data-name="Path 2679" transform="translate(-94.199 366.999)"/>
                <path id="Path_2680" d="M78.848-252.365c-.1-.247-.227-.53-.36-.829v.013c-.925-1.1-2.632-1.632-4.976-2.363a4.178 4.178 0 0 1-2.038-1.2 1.719 1.719 0 0 1-.372-.725c-1.676 1.624-5.815 6.386-4.152 12.505a47.89 47.89 0 0 1 1.478 12.112 19.726 19.726 0 0 0 7.248 2.873l2.363.281q.587.034 1.182.035h.048c.225-1.567 1.032-7.1 1.836-11.271.949-4.9-2.257-11.431-2.257-11.431z" class="cls-5" data-name="Path 2680" transform="translate(-59.35 271.131)"/>
                <path id="Path_2681" d="M77.137-247.253c-3.351-1.624-2.159-5.416-1.839-6.269a.32.32 0 0 0-.041-.3.845.845 0 0 1-.056-.892.331.331 0 0 0-.009-.3c-.515-.174-1.074-.348-1.676-.536a4.178 4.178 0 0 1-2.038-1.2 1.719 1.719 0 0 1-.372-.725c-1.676 1.624-5.815 6.386-4.152 12.505a47.89 47.89 0 0 1 1.478 12.112 19.726 19.726 0 0 0 7.248 2.873l2.363.281q.587.034 1.182.035h.048c.225-1.567 1.032-7.1 1.836-11.271a10.5 10.5 0 0 0 .174-2.128c-1.648-1.158-1.122-2.719-4.146-4.185z" class="cls-6" data-name="Path 2681" transform="translate(-59.35 271.131)"/>
                <path id="Path_2682" d="M117.608-151.494a3.46 3.46 0 0 0-1.024-.7 4.8 4.8 0 0 1-2.049-1.74 16.612 16.612 0 0 0 1.238 6.144c1.488 3.4 3.387 6.923 2.687 10.163a19.9 19.9 0 0 0 2.37.281 9.4 9.4 0 0 0-.311-6.159c-1.163-2.952-2.431-5.533-2.911-7.989z" class="cls-7" data-name="Path 2682" transform="translate(-102.138 178.782)"/>
                <path id="Path_2683" d="M116.843-145.386a1.8 1.8 0 0 1 2.392-1.235 26.507 26.507 0 0 1-1.631-4.873 3.457 3.457 0 0 0-1.025-.7 4.8 4.8 0 0 1-2.049-1.74 16.622 16.622 0 0 0 1.238 6.144c.349.797.72 1.6 1.075 2.404z" class="cls-8" data-name="Path 2683" transform="translate(-102.134 178.782)"/>
                <path id="Path_2684" d="M131.222-335.657a4.874 4.874 0 0 1-.222-3.413c-2.428.6-4.584-.473-5.246.152-.52.491-.754 2.771-.83 3.728a.442.442 0 0 1-.405.413.429.429 0 0 1-.451-.44l.012-.419a.779.779 0 0 0-.365-.691.905.905 0 0 0-1.259.116c-.442.6.346 1.21.311 2.439a4.134 4.134 0 0 1-1.455 2.254.3.3 0 0 1 .125.123 2.6 2.6 0 0 0 1.363 1.595c1.053.506 2.735 1.49 3.447 1.779a1.4 1.4 0 0 1 .442.307 2.931 2.931 0 0 1-.1-.9c.156-2.171 2.612 0 3.405-.557 1.2-.844.27-3.63.9-3.781 1.297-.309 1.167-1.305.328-2.705z" class="cls-9" data-name="Path 2684" transform="translate(-108.18 343.967)"/>
                <path id="Path_2685" fill="#ffaa7b" d="M124.065-313.77l.012-.419a.779.779 0 0 0-.365-.691.9.9 0 0 0-1.259.116c-.442.6.346 1.21.311 2.439a4.136 4.136 0 0 1-1.455 2.254.3.3 0 0 1 .125.123 2.6 2.6 0 0 0 1.365 1.591c1.053.506 2.735 1.49 3.447 1.779a1.4 1.4 0 0 1 .442.307 2.919 2.919 0 0 1-.1-.9c.078-1.085.732-1.086 1.464-.884a5.559 5.559 0 0 1-3.537-5.277.429.429 0 0 1-.45-.438z" data-name="Path 2685" transform="translate(-108.18 322.521)"/>
                <path id="Path_2686" d="M115.061-265.179a1.76 1.76 0 0 0-.953-1.162c-.709-.288-2.38-1.266-3.442-1.777a2.525 2.525 0 0 1-1.321-1.544.4.4 0 0 0-.624-.11l-.932.876a.4.4 0 0 0-.1.427s.243 1.242 2.247 1.867c2.49.777 4.279 1.308 5.2 2.466a.065.065 0 0 0 .113-.053z" class="cls-7" data-name="Path 2686" transform="translate(-96.009 282.205)"/>
                <path id="Path_2687" d="M187.244-183.876l-.095.006c-.094 0-.188.007-.283.007a5.886 5.886 0 0 1-2.542-.575 2.764 2.764 0 0 1-.429.608c-.8.8-2.887 2.126-3.553 4.153a.134.134 0 0 1-.246.02 8.527 8.527 0 0 0-1.475-1.988 11 11 0 0 1-6.148 6.6 9.862 9.862 0 0 0 3.91 1.638s2.81 2.119 5.1 1.458a1.016 1.016 0 0 1 .475-.024 1.467 1.467 0 0 0 1.143-.2 1.392 1.392 0 0 0 .537-.966.959.959 0 0 1 .135-.393 27.885 27.885 0 0 0 3.632-10.361c-.055.01-.105.013-.161.017z" class="cls-9" data-name="Path 2687" transform="translate(-153.819 205.991)"/>
                <path id="Path_2688" d="M178.671-135.146l-1.1-3.03a10.349 10.349 0 0 1-5.1 4.4 9.862 9.862 0 0 0 3.91 1.638c-.506-2.447 2.29-3.008 2.29-3.008z" class="cls-11" data-name="Path 2688" transform="translate(-153.819 164.725)"/>
                <path id="Path_2689" d="M215.272-184.434a2.774 2.774 0 0 1-.429.608c-.8.8-2.887 2.126-3.553 4.153a.134.134 0 0 1-.246.02 8.528 8.528 0 0 0-1.475-1.988 12.175 12.175 0 0 1-2.4 4.015c.343.183.76.719 1.279.876 3.887 1.174 3.948.9 4.7.153s3.566-4.86 3.566-7.366a5.885 5.885 0 0 1-1.442-.471z" class="cls-11" data-name="Path 2689" transform="translate(-184.766 205.987)"/>
                <path id="Path_2690" d="M170.725-164.9a10.653 10.653 0 0 1-6.291 6.6 10.113 10.113 0 0 0 .931.731 10.708 10.708 0 0 0 6.135-6.6c-.227-.237-.485-.483-.775-.731z" class="cls-12" data-name="Path 2690" transform="translate(-146.648 188.565)"/>
                <path id="Path_2691" fill="#aab9f1" d="M168.226-126.7a9.621 9.621 0 0 1-3.792 2.472 10.1 10.1 0 0 0 .931.731 9.659 9.659 0 0 0 3.777-2.582 4.039 4.039 0 0 1-.916-.621z" data-name="Path 2691" transform="translate(-146.648 154.484)"/>
                <path id="Path_2692" d="M115.752-218.055a1.226 1.226 0 0 1-.586-.667l-.253-.7a4.786 4.786 0 0 0-.368-.8 4.782 4.782 0 0 0-4.333-2.362 4.8 4.8 0 0 0-4.577 4.637 4.786 4.786 0 0 0 2.836 4.514 3.425 3.425 0 0 1 1.518 1.317 10.7 10.7 0 0 0 2.064 2.419 10.665 10.665 0 0 0 6.276-6.613 13.3 13.3 0 0 0-2.577-1.745z" class="cls-14" data-name="Path 2692" transform="translate(-94.197 240.023)"/>
                <path id="Path_2693" d="M111.984-216.078c-3.351-1.624-2.159-5.416-1.84-6.269a.32.32 0 0 0 .014-.169 4.8 4.8 0 0 0-4.523 4.633 4.786 4.786 0 0 0 2.836 4.515 3.423 3.423 0 0 1 1.518 1.317 10.7 10.7 0 0 0 2.064 2.419 9.634 9.634 0 0 0 3.784-2.48c-1.302-1.139-1.022-2.594-3.853-3.966z" class="cls-5" data-name="Path 2693" transform="translate(-94.197 239.957)"/>
                <path id="Path_2694" fill="#6189cc" d="M263.345-280.6a5.189 5.189 0 0 1 4.633 5.692 5.189 5.189 0 0 1-5.692 4.633 5.19 5.19 0 0 1-4.634-5.692 5.19 5.19 0 0 1 5.693-4.633z" data-name="Path 2694" transform="translate(-229.774 291.789)"/>
                <path id="Path_2695" d="M265.875-261.777a1.044 1.044 0 0 1-.143-.549.271.271 0 0 0-.248-.266 1.662 1.662 0 0 1-1.484-2.167.27.27 0 0 0-.049-.207l-1.748-2.381a.269.269 0 0 0-.19-.107 1.6 1.6 0 0 1-1.552-2.023.273.273 0 0 0-.225-.308.891.891 0 0 1-.559-.3 5.178 5.178 0 0 0-1.968 4.066 5.189 5.189 0 0 0 5.188 5.189 5.167 5.167 0 0 0 2.978-.947z" class="cls-14" data-name="Path 2695" transform="translate(-229.847 282.392)"/>
                <path id="Path_2696" d="M256.843-275.424a5.928 5.928 0 0 1-5.921-5.921 5.928 5.928 0 0 1 5.921-5.921 5.928 5.928 0 0 1 5.921 5.921 5.928 5.928 0 0 1-5.921 5.921zm0-10.377a4.46 4.46 0 0 0-4.456 4.456 4.46 4.46 0 0 0 4.456 4.455 4.46 4.46 0 0 0 4.455-4.455 4.46 4.46 0 0 0-4.455-4.455z" class="cls-14" data-name="Path 2696" transform="translate(-223.795 297.714)"/>
                <path id="Path_2697" d="M260.5-267.561h-.005a.893.893 0 0 1-.818-.951.265.265 0 0 0-.088-.194 4.431 4.431 0 0 1-2.748.952 4.461 4.461 0 0 1-4.456-4.455 4.454 4.454 0 0 1 1.946-3.679.28.28 0 0 0-.152-.082.939.939 0 0 1-.778-1.054 5.916 5.916 0 0 0-2.482 4.815 5.928 5.928 0 0 0 5.921 5.921 5.89 5.89 0 0 0 3.66-1.273z" class="cls-5" data-name="Path 2697" transform="translate(-223.795 288.58)"/>
                <path id="Path_2698" d="M293.038-247.345a1.613 1.613 0 0 1 .884 2.1 1.614 1.614 0 0 1-2.1.884 1.613 1.613 0 0 1-.884-2.1 1.613 1.613 0 0 1 2.1-.884z" class="cls-12" data-name="Path 2698" transform="translate(-259.379 262.212)"/>
                <path id="Path_2699" d="M0-309.954a19.787 19.787 0 0 0 6.243 14.448c.631-1.742-.1-4.482-1.2-8.346-2.111-7.437 2-13.171 3.833-16.859 1.1-2.206-.351-3.688-1.691-4.524A19.8 19.8 0 0 0 0-309.954z" class="cls-16" data-name="Path 2699" transform="translate(.027 331.581)"/>
                <path id="Path_2700" d="M109.937-266.6c.707.221 1.358.421 1.948.622a.811.811 0 0 1 .349-1.32c-.552-.3-1.115-.6-1.569-.818a2.525 2.525 0 0 1-1.321-1.544.4.4 0 0 0-.624-.11l-.932.876a.4.4 0 0 0-.1.427s.244 1.24 2.249 1.867z" class="cls-8" data-name="Path 2700" transform="translate(-96.009 282.205)"/>
                <path id="Path_2701" d="M232.116-357.184a2.777 2.777 0 0 1-.508 2.177c-1.942 1.942-.785 5.374 1.2 5.374 1.653 0 4.072-2.673 8-1.514a19.875 19.875 0 0 0-8.692-6.037z" class="cls-16" data-name="Path 2701" transform="translate(-205.676 360.08)"/>
            </g>
        </g>
    </g>
</svg>
