<svg xmlns="http://www.w3.org/2000/svg" width="45" height="45" viewBox="0 0 45 45">
    <defs>
        <style>
            .cls-3{fill:#f44236}.cls-4{fill:#d43a2e}.cls-5{fill:#d9d9d9}
        </style>
    </defs>
    <g id="Group_78" data-name="Group 78" transform="translate(-416 -837)">
        <circle id="Ellipse_628" cx="22.5" cy="22.5" r="22.5" fill="#003b71" data-name="Ellipse 628" transform="translate(416 837)"/>
        <g id="Group_318" data-name="Group 318" transform="translate(422.074 1228.073)">
            <path id="Path_3047" fill="#fafafa" d="M13.273-293.455A13.288 13.288 0 0 1 0-306.727 13.288 13.288 0 0 1 13.273-320a13.288 13.288 0 0 1 13.273 13.273 13.288 13.288 0 0 1-13.273 13.272z" data-name="Path 3047" transform="translate(0 -58.691)"/>
            <path id="Path_3048" d="M13.273-293.455A13.288 13.288 0 0 1 0-306.727 13.288 13.288 0 0 1 13.273-320a13.288 13.288 0 0 1 13.273 13.273 13.288 13.288 0 0 1-13.273 13.272zm0-24.554a11.294 11.294 0 0 0-11.282 11.282 11.294 11.294 0 0 0 11.282 11.282 11.294 11.294 0 0 0 11.282-11.282 11.294 11.294 0 0 0-11.282-11.282z" class="cls-3" data-name="Path 3048" transform="translate(0 -58.691)"/>
            <path id="Path_3049" d="M64.627-246.746A8.637 8.637 0 0 1 56-255.373 8.637 8.637 0 0 1 64.627-264a8.637 8.637 0 0 1 8.627 8.627 8.637 8.637 0 0 1-8.627 8.627zm0-15.263a6.644 6.644 0 0 0-6.636 6.636 6.644 6.644 0 0 0 6.636 6.636 6.644 6.644 0 0 0 6.636-6.636 6.644 6.644 0 0 0-6.636-6.636z" class="cls-3" data-name="Path 3049" transform="translate(-51.355 -110.046)"/>
            <path id="Path_3050" d="M115.982-200.036a3.987 3.987 0 0 1-3.982-3.982 3.987 3.987 0 0 1 3.982-3.982 3.986 3.986 0 0 1 3.982 3.982 3.987 3.987 0 0 1-3.982 3.982zm0-5.973a1.994 1.994 0 0 0-1.991 1.991 1.994 1.994 0 0 0 1.991 1.991 1.994 1.994 0 0 0 1.991-1.991 1.994 1.994 0 0 0-1.991-1.991z" class="cls-3" data-name="Path 3050" transform="translate(-102.709 -161.4)"/>
            <path id="Path_3051" d="M13.273-320A13.288 13.288 0 0 0 0-306.727a13.288 13.288 0 0 0 13.273 13.272v-1.991a11.294 11.294 0 0 1-11.282-11.281 11.294 11.294 0 0 1 11.282-11.282z" class="cls-4" data-name="Path 3051" transform="translate(0 -58.691)"/>
            <path id="Path_3052" d="M64.627-264A8.637 8.637 0 0 0 56-255.373a8.637 8.637 0 0 0 8.627 8.627v-1.991a6.644 6.644 0 0 1-6.636-6.636 6.644 6.644 0 0 1 6.636-6.636z" class="cls-4" data-name="Path 3052" transform="translate(-51.355 -110.046)"/>
            <path id="Path_3053" d="M137.991-184a1.994 1.994 0 0 0-1.991 1.991 1.994 1.994 0 0 0 1.991 1.991z" class="cls-5" data-name="Path 3053" transform="translate(-124.718 -183.409)"/>
            <path id="Path_3054" d="M115.982-208a3.987 3.987 0 0 0-3.982 3.982 3.987 3.987 0 0 0 3.982 3.982v-1.991a1.994 1.994 0 0 1-1.991-1.991 1.994 1.994 0 0 1 1.991-1.991z" class="cls-4" data-name="Path 3054" transform="translate(-102.709 -161.4)"/>
            <path id="Path_3055" d="M86.636-240A6.644 6.644 0 0 0 80-233.364a6.644 6.644 0 0 0 6.636 6.636v-2.655a3.987 3.987 0 0 1-3.982-3.982 3.987 3.987 0 0 1 3.982-3.982z" class="cls-5" data-name="Path 3055" transform="translate(-73.364 -132.055)"/>
            <path id="Path_3056" d="M35.282-296A11.294 11.294 0 0 0 24-284.718a11.294 11.294 0 0 0 11.282 11.282v-2.655a8.637 8.637 0 0 1-8.627-8.627 8.637 8.637 0 0 1 8.627-8.627z" class="cls-5" data-name="Path 3056" transform="translate(-22.009 -80.7)"/>
            <path id="Path_3057" fill="#607d8b" d="M149-280.066a.988.988 0 0 1-.7-.292 1 1 0 0 1 0-1.408l9.954-9.954a1 1 0 0 1 1.408 0 1 1 0 0 1 0 1.408l-9.954 9.954a.993.993 0 0 1-.708.292z" data-name="Path 3057" transform="translate(-135.727 -84.357)"/>
            <path id="Path_3058" fill="#2095f2" d="M276.314-374.706H273a1 1 0 0 1-1-1v-3.318a.992.992 0 0 1 .292-.7l3.982-3.982a1 1 0 0 1 1.085-.217 1 1 0 0 1 .614.92v2.323h2.327a1 1 0 0 1 .92.614.994.994 0 0 1-.216 1.085L277.017-375a.992.992 0 0 1-.703.294z" data-name="Path 3058" transform="translate(-249.437 -.004)"/>
            <path id="Path_3059" fill="#536d78" d="M158.29-288.945l-.04.039-9.954 9.954a1 1 0 0 0 0 1.408l10.286-10.286a.994.994 0 0 1-.292-.7z" data-name="Path 3059" transform="translate(-135.727 -87.17)"/>
            <path id="Path_3060" fill="#1c82d4" d="M276.977-384a1 1 0 0 0-.7.292l-3.982 3.982a1 1 0 0 0-.291.7v3.318a.989.989 0 0 0 .292.7l5.681-5.681V-383a1 1 0 0 0-.614-.92 1.011 1.011 0 0 0-.386-.08z" data-name="Path 3060" transform="translate(-249.437)"/>
        </g>
    </g>
</svg>
