<svg xmlns="http://www.w3.org/2000/svg" width="44" height="43" viewBox="0 0 44 43">
    <defs>
        <clipPath id="clip-path">
            <path id="Path_2438" fill="none" d="M0-319.888h26.906V-349H0z" clip-rule="evenodd" data-name="Path 2438" transform="translate(0 349)"/>
        </clipPath>
        <style>
            .cls-4{fill:#d3833c}.cls-5{fill:#ac6226}.cls-8{fill:#66332e}.cls-9{fill:#dd3d45}.cls-10{fill:#f9ba4a}.cls-12{fill:#4da6e9}
        </style>
    </defs>
    <g id="Group_185" data-name="Group 185" transform="translate(.483)">
        <ellipse id="Ellipse_586" cx="22" cy="21.5" fill="#003b71" data-name="Ellipse 586" rx="22" ry="21.5" transform="translate(-.483)"/>
        <g id="Group_250" data-name="Group 250" transform="translate(8.626 7.954)">
            <g id="Group_249" clip-path="url(#clip-path)" data-name="Group 249">
                <path id="Path_2408" d="M12-318h.961v2H12z" class="cls-4" data-name="Path 2408" transform="translate(-11.039 320.586)"/>
                <path id="Path_2409" d="M312-318h.961v2H312z" class="cls-4" data-name="Path 2409" transform="translate(-287.016 320.586)"/>
                <path id="Path_2410" d="M150-96h2.883v8.008H150z" class="cls-4" data-name="Path 2410" transform="translate(-137.988 117.104)"/>
                <path id="Path_2411" d="M89.285-96l-1.922 8.008H84.48l.48-2H84v-2h1.441l.961-4z" class="cls-4" data-name="Path 2411" transform="translate(-77.273 117.104)"/>
                <path id="Path_2412" d="M190.8-92h-.961l.961 4h-2.883L186-96h2.883l.48 2h1.437z" class="cls-4" data-name="Path 2412" transform="translate(-171.106 117.104)"/>
                <path id="Path_2413" d="M103.441-60v1H102l.24-1z" class="cls-5" data-name="Path 2413" transform="translate(-93.832 84.107)"/>
                <path id="Path_2414" d="M94.682-24v1H93l.24-1z" class="cls-5" data-name="Path 2414" transform="translate(-85.553 51.11)"/>
                <path id="Path_2415" d="M211.441-83H210v-1h1.2z" class="cls-5" data-name="Path 2415" transform="translate(-193.184 106.105)"/>
                <path id="Path_2416" d="M217.682-47H216v-1h1.441z" class="cls-5" data-name="Path 2416" transform="translate(-198.703 73.108)"/>
                <path id="Path_2417" d="M205.441-24v1h-1.2L204-24z" class="cls-5" data-name="Path 2417" transform="translate(-187.664 51.11)"/>
                <path id="Path_2418" d="M150-78h1.441v1H150z" class="cls-5" data-name="Path 2418" transform="translate(-137.988 100.606)"/>
                <path id="Path_2419" d="M168-54h1.441v1H168z" class="cls-5" data-name="Path 2419" transform="translate(-154.547 78.608)"/>
                <path id="Path_2420" d="M150-30h1.441v1H150z" class="cls-5" data-name="Path 2420" transform="translate(-137.988 56.61)"/>
                <path id="Path_2421" d="M109.441-84v1H108l.24-1z" class="cls-5" data-name="Path 2421" transform="translate(-99.352 106.105)"/>
                <path id="Path_2422" fill="#e87324" d="M112.762-251.994c0 1-1.441 2-1.441 2 0-2.5-1.441-1.5-.961-4.5s-1.441-3.5-1.441-3.5A4.779 4.779 0 0 1 107-254.5c-1.922 1.5-.961 3-.961 3a6.912 6.912 0 0 1-1.922-2c-.961 2 .48 1.5 0 5s3.189 4 4.8 4a4.559 4.559 0 0 0 4.324-2.5c1.679-3.485-.479-4.994-.479-4.994z" data-name="Path 2422" transform="translate(-95.465 265.591)"/>
                <path id="Path_2423" fill="#fbf059" d="M134.883-178.493A3.3 3.3 0 0 1 132-182v-1.5l1.441.5a4.352 4.352 0 0 1 .961-3c1.441 1 .961 2.5 1.922 4a4.71 4.71 0 0 0 1.441-.5s.001 4.007-2.882 4.007z" data-name="Path 2423" transform="translate(-121.43 199.597)"/>
                <path id="Path_2424" d="M5.766-323H.48a.491.491 0 0 1-.48-.5.491.491 0 0 1 .48-.5h5.286a.491.491 0 0 1 .48.5.491.491 0 0 1-.48.5z" class="cls-8" data-name="Path 2424" transform="translate(0 326.085)"/>
                <path id="Path_2425" d="M263.766-323h-5.286a.491.491 0 0 1-.48-.5.491.491 0 0 1 .48-.5h5.285a.491.491 0 0 1 .48.5.491.491 0 0 1-.479.5z" class="cls-8" data-name="Path 2425" transform="translate(-237.34 326.085)"/>
                <path id="Path_2426" d="M6-294h1.922v24.524H6z" class="cls-5" data-name="Path 2426" transform="translate(-5.52 298.588)"/>
                <path id="Path_2427" d="M306-294h1.922v24.524H306z" class="cls-5" data-name="Path 2427" transform="translate(-281.496 298.588)"/>
                <path id="Path_2428" d="M108-240h.961v1H108z" class="cls-9" data-name="Path 2428" transform="translate(-99.352 249.092)"/>
                <path id="Path_2429" d="M204-222h.961v1H204z" class="cls-9" data-name="Path 2429" transform="translate(-187.664 232.594)"/>
                <path id="Path_2430" d="M198-270h.961v1H198z" class="cls-9" data-name="Path 2430" transform="translate(-182.145 276.59)"/>
                <path id="Path_2431" d="M138-264h.961v1H138z" class="cls-9" data-name="Path 2431" transform="translate(-126.949 271.09)"/>
                <path id="Path_2432" d="M6-24h1.922v2H6z" class="cls-10" data-name="Path 2432" transform="translate(-5.52 51.11)"/>
                <path id="Path_2433" d="M306-24h1.922v2H306z" class="cls-10" data-name="Path 2433" transform="translate(-281.496 51.11)"/>
                <path id="Path_2434" fill="#91ccde" d="M120.3-347.869a12.754 12.754 0 0 1 1.9-.14 13.691 13.691 0 0 1 5.285 1 13.871 13.871 0 0 0 2.4.5l1.922-1v4l-1.922-1a13.871 13.871 0 0 0-2.4.5 13.691 13.691 0 0 1-5.285 1 12.754 12.754 0 0 1-1.9-.14z" data-name="Path 2434" transform="translate(-110.668 348.092)"/>
                <path id="Path_2435" d="M76.8-343.958a3.36 3.36 0 0 1-.937 2.362c-2.052-.31-3.575-1.111-3.829-2.077a1.079 1.079 0 0 1 0-.571c.255-.966 1.778-1.767 3.829-2.077a3.36 3.36 0 0 1 .937 2.363z" class="cls-12" data-name="Path 2435" transform="translate(-66.234 346.544)"/>
                <path id="Path_2436" d="M146.405-331.536l-.679-.708a.879.879 0 0 0 .281-.649.879.879 0 0 0-.283-.648l.682-.7a1.9 1.9 0 0 1 .562 1.355 1.9 1.9 0 0 1-.563 1.35z" class="cls-12" data-name="Path 2436" transform="translate(-134.054 335.477)"/>
                <path id="Path_2437" d="M170.405-331.536l-.679-.708a.879.879 0 0 0 .281-.649.879.879 0 0 0-.283-.648l.682-.7a1.9 1.9 0 0 1 .562 1.355 1.9 1.9 0 0 1-.563 1.35z" class="cls-12" data-name="Path 2437" transform="translate(-156.132 335.477)"/>
            </g>
        </g>
    </g>
</svg>
