<svg xmlns="http://www.w3.org/2000/svg" width="45" height="45" viewBox="0 0 45 45">
    <defs>
        <style>
            .cls-2{fill:#e7f1f9}.cls-3{fill:#d5e7f5}.cls-4{fill:#ffdd53}.cls-5{fill:#ffb453}.cls-8{fill:#09789a}.cls-9{fill:#08465d}
        </style>
    </defs>
    <g id="Group_189" data-name="Group 189" transform="translate(-322 -739)">
        <circle id="Ellipse_644" cx="22.5" cy="22.5" r="22.5" fill="#003b71" data-name="Ellipse 644" transform="translate(322 739)"/>
        <g id="Group_242" data-name="Group 242" transform="translate(331.667 1132.667)">
            <path id="Path_2165" d="M162.156-249h-3.125a.781.781 0 0 0-.781.781v15.729h4.687v-15.729a.781.781 0 0 0-.781-.781z" class="cls-2" data-name="Path 2165" transform="translate(-147.261 -125.625)"/>
            <path id="Path_2166" d="M193.562-249H192v16.51h2.344v-15.729a.781.781 0 0 0-.782-.781z" class="cls-3" data-name="Path 2166" transform="translate(-178.667 -125.625)"/>
            <path id="Path_2167" d="M264.573-139.8h-7.291a.781.781 0 0 0-.781.781 14.307 14.307 0 0 0 .551 3.933 12.76 12.76 0 0 1 .491 3.5v.708h6.771v-.708a12.759 12.759 0 0 1 .491-3.5 14.308 14.308 0 0 0 .551-3.933.781.781 0 0 0-.783-.781z" class="cls-4" data-name="Path 2167" transform="translate(-238.688 -227.241)"/>
            <path id="Path_2168" d="M323.9-139.8h-3.65v8.927h3.385v-.708a12.759 12.759 0 0 1 .491-3.5 14.307 14.307 0 0 0 .551-3.933.781.781 0 0 0-.777-.786z" class="cls-5" data-name="Path 2168" transform="translate(-298.011 -227.241)"/>
            <path id="Path_2169" d="M264.573-195h-7.291a.781.781 0 0 0-.781.781v3.833h8.854v-3.833a.781.781 0 0 0-.782-.781z" class="cls-2" data-name="Path 2169" transform="translate(-238.688 -175.875)"/>
            <path id="Path_2170" d="M324.677-194.219a.781.781 0 0 0-.777-.781h-3.65v4.614h4.427z" class="cls-3" data-name="Path 2170" transform="translate(-298.011 -175.875)"/>
            <path id="Path_2171" d="M8.073-139.8H.781a.781.781 0 0 0-.781.78 14.307 14.307 0 0 0 .551 3.933 12.76 12.76 0 0 1 .491 3.5v.708h6.77v-.708a12.76 12.76 0 0 1 .491-3.5 14.307 14.307 0 0 0 .551-3.933.781.781 0 0 0-.781-.78z" class="cls-4" data-name="Path 2171" transform="translate(0 -227.241)"/>
            <path id="Path_2172" d="M67.4-139.8h-3.65v8.927h3.385v-.708a12.76 12.76 0 0 1 .491-3.5 14.307 14.307 0 0 0 .551-3.933.781.781 0 0 0-.777-.786z" class="cls-5" data-name="Path 2172" transform="translate(-59.323 -227.241)"/>
            <path id="Path_2173" d="M8.073-195H.781a.781.781 0 0 0-.781.781v3.833h8.854v-3.833a.781.781 0 0 0-.781-.781z" class="cls-2" data-name="Path 2173" transform="translate(0 -175.875)"/>
            <path id="Path_2174" d="M68.177-194.219A.781.781 0 0 0 67.4-195h-3.65v4.614h4.427z" class="cls-3" data-name="Path 2174" transform="translate(-59.323 -175.875)"/>
            <path id="Path_2175" fill="#985d33" d="M78.6-337.438A2.34 2.34 0 0 0 76.394-339h-6.08a2.34 2.34 0 0 0-2.21 1.562H64.5v4.687h3.6a2.34 2.34 0 0 0 2.21 1.562h6.081a2.34 2.34 0 0 0 2.21-1.562h3.6v-4.687z" data-name="Path 2175" transform="translate(-60.021 -41.875)"/>
            <path id="Path_2176" fill="#814e2a" d="M195.04-339H192v7.812h3.04a2.34 2.34 0 0 0 2.21-1.562h3.6v-4.687h-3.6a2.34 2.34 0 0 0-2.21-1.563z" data-name="Path 2176" transform="translate(-178.667 -41.875)"/>
            <path id="Path_2177" d="M25.885-20.938H.781A.781.781 0 0 1 0-21.719a.781.781 0 0 1 .781-.781h25.1a.781.781 0 0 1 .781.781.781.781 0 0 1-.777.781z" class="cls-8" data-name="Path 2177" transform="translate(0 -336.397)"/>
            <path id="Path_2178" d="M204.552-22.5H192v1.562h12.552a.781.781 0 0 0 .781-.781.781.781 0 0 0-.781-.781z" class="cls-9" data-name="Path 2178" transform="translate(-178.667 -336.397)"/>
            <path id="Path_2179" d="M309.781-267.854a.781.781 0 0 1-.781-.781v-2.083a.781.781 0 0 1 .781-.781.781.781 0 0 1 .781.781v2.083a.781.781 0 0 1-.781.781z" class="cls-4" data-name="Path 2179" transform="translate(-287.542 -104.688)"/>
            <path id="Path_2180" d="M320.25-271.5v3.646a.781.781 0 0 0 .781-.781v-2.083a.781.781 0 0 0-.781-.782z" class="cls-5" data-name="Path 2180" transform="translate(-298.011 -104.688)"/>
            <path id="Path_2181" d="M287.11-377.629a.778.778 0 0 1-.3-.06.78.78 0 0 1-.3-.222.78.78 0 0 1-.3.222.781.781 0 0 1-1.022-.421l-1-2.4a2.512 2.512 0 0 1 .229-2.365A2.512 2.512 0 0 1 286.51-384a2.512 2.512 0 0 1 2.094 1.121 2.512 2.512 0 0 1 .229 2.365l-1 2.4a.781.781 0 0 1-.723.485z" class="cls-8" data-name="Path 2181" transform="translate(-264.271)"/>
            <path id="Path_2182" d="M322.344-382.879A2.512 2.512 0 0 0 320.25-384v6.089a.78.78 0 0 0 .3.222.778.778 0 0 0 .3.06.781.781 0 0 0 .721-.481l1-2.4a2.513 2.513 0 0 0-.227-2.369z" class="cls-9" data-name="Path 2182" transform="translate(-298.011)"/>
            <path id="Path_2183" d="M288.844-311.813a2.346 2.346 0 0 1-2.344-2.344 2.346 2.346 0 0 1 2.344-2.344 2.346 2.346 0 0 1 2.344 2.344 2.346 2.346 0 0 1-2.344 2.344z" class="cls-2" data-name="Path 2183" transform="translate(-266.605 -62.813)"/>
            <path id="Path_2184" d="M320.25-316.5v4.687a2.346 2.346 0 0 0 2.344-2.344 2.346 2.346 0 0 0-2.344-2.343z" class="cls-3" data-name="Path 2184" transform="translate(-298.011 -62.813)"/>
            <path id="Path_2185" d="M53.281-267.854a.781.781 0 0 1-.781-.781v-2.083a.781.781 0 0 1 .781-.781.781.781 0 0 1 .781.781v2.083a.781.781 0 0 1-.781.781z" class="cls-4" data-name="Path 2185" transform="translate(-48.854 -104.688)"/>
            <path id="Path_2186" d="M63.75-271.5v3.646a.781.781 0 0 0 .781-.781v-2.083a.781.781 0 0 0-.781-.782z" class="cls-5" data-name="Path 2186" transform="translate(-59.323 -104.688)"/>
            <path id="Path_2187" d="M30.61-377.629a.778.778 0 0 1-.3-.06.78.78 0 0 1-.3-.222.78.78 0 0 1-.3.222.781.781 0 0 1-1.022-.421l-1-2.4a2.512 2.512 0 0 1 .229-2.365A2.512 2.512 0 0 1 30.01-384a2.512 2.512 0 0 1 2.094 1.121 2.512 2.512 0 0 1 .229 2.365l-1 2.4a.781.781 0 0 1-.723.485z" class="cls-8" data-name="Path 2187" transform="translate(-25.583)"/>
            <path id="Path_2188" d="M65.844-382.879A2.512 2.512 0 0 0 63.75-384v6.089a.78.78 0 0 0 .3.222.778.778 0 0 0 .3.06.781.781 0 0 0 .721-.481l1-2.4a2.512 2.512 0 0 0-.227-2.369z" class="cls-9" data-name="Path 2188" transform="translate(-59.323)"/>
            <path id="Path_2189" d="M32.344-311.813A2.346 2.346 0 0 1 30-314.156a2.346 2.346 0 0 1 2.344-2.344 2.346 2.346 0 0 1 2.344 2.344 2.346 2.346 0 0 1-2.344 2.343z" class="cls-2" data-name="Path 2189" transform="translate(-27.917 -62.813)"/>
            <path id="Path_2190" d="M63.75-316.5v4.687a2.346 2.346 0 0 0 2.344-2.344 2.346 2.346 0 0 0-2.344-2.343z" class="cls-3" data-name="Path 2190" transform="translate(-59.323 -62.813)"/>
        </g>
    </g>
</svg>
