<svg xmlns="http://www.w3.org/2000/svg" width="45" height="45" viewBox="0 0 45 45">
    <defs>
        <style>
            .cls-2{fill:#fff}
        </style>
    </defs>
    <g id="Group_164" data-name="Group 164" transform="translate(-701 -739)">
        <circle id="Ellipse_602" cx="22.5" cy="22.5" r="22.5" fill="#003b71" data-name="Ellipse 602" transform="translate(701 739)"/>
        <g id="Group_299" data-name="Group 299" transform="translate(707.219 1128.911)">
            <path id="Path_2813" d="M73.218-326.448l1.387-4.06a.759.759 0 0 0-.183-.786.757.757 0 0 0-.786-.182l-1.143.39a.464.464 0 0 0-.289.589.464.464 0 0 0 .589.289l.824-.281-1.3 3.815a.76.76 0 0 0 .075.651l2.195 3.515-4.227-.331a.759.759 0 0 0-.7.347l-2.141 3.314-1.09-3.608a.76.76 0 0 0-.509-.51l-3.609-1.089 3.314-2.141a.763.763 0 0 0 .346-.7l-.331-4.227 3.515 2.195a.761.761 0 0 0 .65.075l1.116-.381a.464.464 0 0 0 .289-.589.464.464 0 0 0-.589-.289l-1.041.356-3.726-2.327a.759.759 0 0 0-.8-.005.759.759 0 0 0-.365.711l.349 4.456-3.538 2.28a.755.755 0 0 0-.341.747.756.756 0 0 0 .535.624l2.075.627-11.008 11.01a.464.464 0 0 0 0 .656.463.463 0 0 0 .328.136.462.462 0 0 0 .328-.136L64.78-322.67l.782.236.236.783-3.47 3.47a.464.464 0 0 0 0 .656.463.463 0 0 0 .328.136.462.462 0 0 0 .328-.136l3.118-3.118.627 2.075a.754.754 0 0 0 .623.535.742.742 0 0 0 .11.008.754.754 0 0 0 .637-.349l2.282-3.531 4.456.349a.76.76 0 0 0 .711-.365.759.759 0 0 0-.005-.8z" class="cls-2" data-name="Path 2813" transform="translate(-48.294 -46.745)"/>
            <path id="Path_2814" d="M12.635-142.66l-10.45 10.449a.751.751 0 0 1-1.058.04.751.751 0 0 1 .04-1.059l2.556-2.556a.464.464 0 0 0 0-.656.464.464 0 0 0-.656 0L.51-133.886a1.679 1.679 0 0 0-.04 2.371 1.615 1.615 0 0 0 1.149.471 1.728 1.728 0 0 0 1.222-.51L13.291-142a.464.464 0 0 0 0-.656.464.464 0 0 0-.656-.004z" class="cls-2" data-name="Path 2814" transform="translate(0 -220.866)"/>
            <path id="Path_2815" d="M115.427-304.122a.74.74 0 0 0 .35.087.74.74 0 0 0 .233-.038l1.829-.612a.735.735 0 0 0 .482-.522.735.735 0 0 0-.181-.687l-1.368-1.44a.739.739 0 0 0-1.006-.061 2.588 2.588 0 0 0-.7 2.813.742.742 0 0 0 .361.46zm.8-2.436l1.033 1.088-1.351.452a1.619 1.619 0 0 1 .319-1.54z" class="cls-2" data-name="Path 2815" transform="translate(-105.467 -69.659)"/>
            <path id="Path_2816" d="M231.374-380.32a.734.734 0 0 0 .605.317h.031a.735.735 0 0 0 .608-.367l1-1.717a.74.74 0 0 0-.224-.983 2.588 2.588 0 0 0-2.9.115.743.743 0 0 0-.338.479.74.74 0 0 0 .116.574zm1.346-2.071l-.754 1.3-.813-1.17a1.619 1.619 0 0 1 1.566-.13z" class="cls-2" data-name="Path 2816" transform="translate(-211.201)"/>
            <path id="Path_2817" d="M173.562-367.7a.463.463 0 0 0 .361.172.463.463 0 0 0 .292-.1.464.464 0 0 0 .069-.652l-.845-1.046a.464.464 0 0 0-.653-.069.464.464 0 0 0-.069.653z" class="cls-2" data-name="Path 2817" transform="translate(-158.408 -12.818)"/>
            <path id="Path_2818" d="M267.084-155.714a.735.735 0 0 0-.687-.181.735.735 0 0 0-.522.482l-.612 1.829a.741.741 0 0 0 .049.583.744.744 0 0 0 .459.365 3.708 3.708 0 0 0 .968.139 2.306 2.306 0 0 0 1.845-.842.74.74 0 0 0-.061-1.006zm-.875 2.229l.452-1.351 1.088 1.033a1.618 1.618 0 0 1-1.539.318z" class="cls-2" data-name="Path 2818" transform="translate(-243.399 -208.824)"/>
            <path id="Path_2819" d="M344.961-272.721a.739.739 0 0 0-.983-.224l-1.717 1a.734.734 0 0 0-.366.608.735.735 0 0 0 .316.636l1.583 1.1a.741.741 0 0 0 .422.132.754.754 0 0 0 .151-.015.742.742 0 0 0 .479-.338 2.517 2.517 0 0 0 .115-2.899zm-.806 2.24l-1.17-.813 1.3-.754a1.619 1.619 0 0 1-.13 1.566z" class="cls-2" data-name="Path 2819" transform="translate(-313.758 -101.336)"/>
            <path id="Path_2820" d="M347.853-192.68l-1.046-.845a.464.464 0 0 0-.653.069.464.464 0 0 0 .069.653l1.046.845a.462.462 0 0 0 .291.1.463.463 0 0 0 .361-.172.464.464 0 0 0-.068-.65z" class="cls-2" data-name="Path 2820" transform="translate(-317.573 -174.217)"/>
            <path id="Path_2821" d="M332.641-353.241a.464.464 0 0 0-.656-.022l-1.16 1.085a.464.464 0 0 0-.022.656.462.462 0 0 0 .339.147.463.463 0 0 0 .317-.125l1.16-1.085a.464.464 0 0 0 .022-.656z" class="cls-2" data-name="Path 2821" transform="translate(-303.464 -27.605)"/>
        </g>
    </g>
</svg>
