<svg xmlns="http://www.w3.org/2000/svg" width="45" height="45" viewBox="0 0 45 45">
    <defs>
        <style>
            .cls-4{fill:#ffb59d}.cls-6{fill:#0073aa}.cls-7{fill:#40b4e6}.cls-8{fill:#ffd952}
        </style>
    </defs>
    <g id="Group_199" data-name="Group 199" transform="translate(-1743 -641)">
        <circle id="Ellipse_669" cx="22.5" cy="22.5" r="22.5" fill="#003b71" data-name="Ellipse 669" transform="translate(1743 641)"/>
        <g id="Group_288" data-name="Group 288" transform="translate(1750.607 1032.353)">
            <path id="Path_2603" fill="#404a81" d="M178.2-181.767l-3.425-13.085a1.47 1.47 0 0 1 1.052-1.792 1.47 1.47 0 0 1 1.792 1.052l3.425 13.085a1.469 1.469 0 0 1-1.052 1.791 1.469 1.469 0 0 1-1.792-1.051z" data-name="Path 2603" transform="translate(-160.49 -172.046)"/>
            <path id="Path_2604" fill="#5e6e9a" d="M97.387-170.31a1.469 1.469 0 0 1-1.291-1.628l.745-6.464a1.472 1.472 0 0 1 .091-.367l2.229-5.7a1.469 1.469 0 0 1 1.9-.833 1.469 1.469 0 0 1 .833 1.9l-2.159 5.524-.724 6.275a1.469 1.469 0 0 1-1.624 1.293z" data-name="Path 2604" transform="translate(-88.258 -182.414)"/>
            <path id="Path_2605" d="M144.993-351.784a2.538 2.538 0 0 1 1.373 3.316 2.538 2.538 0 0 1-3.316 1.373 2.538 2.538 0 0 1-1.373-3.316 2.538 2.538 0 0 1 3.316-1.373z" class="cls-4" data-name="Path 2605" transform="translate(-129.956 -29.411)"/>
            <path id="Path_2606" d="M69.042-377.526l-1.1-.781-1.376-4.8a1.224 1.224 0 0 0-1.514-.84 1.224 1.224 0 0 0-.84 1.514l1.494 5.218a1.224 1.224 0 0 0 .47.662l1.287.91 1.709-.3z" class="cls-4" data-name="Path 2606" transform="translate(-58.933)"/>
            <path id="Path_2607" d="M159.982-279.953l-.044-.39h-2.374l-.052.343a1.247 1.247 0 0 0 1.232 1.435 1.246 1.246 0 0 0 1.238-1.388z" class="cls-4" data-name="Path 2607" transform="translate(-144.665 -95.21)"/>
            <path id="Path_2608" d="M250.834-322.45a1.224 1.224 0 0 0-1.719.207l-2.616 3.331-1.3-.1-.207 1.342.207 1.114 1.761.14a1.225 1.225 0 0 0 1.06-.464l3.021-3.847a1.218 1.218 0 0 0 .195-.357 1.225 1.225 0 0 0-.402-1.366z" class="cls-4" data-name="Path 2608" transform="translate(-225.032 -56.293)"/>
            <path id="Path_2609" fill="#64afff" d="M113.175-302.587h-1.78a1.21 1.21 0 0 1-1.2 1.19 1.175 1.175 0 0 1-1.178-1.166v-.025l-2.79-1.973-1.582 1.88 2.314 1.636c-.015.153-.007-.3-.008 7.3a1.664 1.664 0 0 0 1.663 1.664h3.158a1.663 1.663 0 0 0 1.663-1.663v-6.371l2.851.226v-2.455z" data-name="Path 2609" transform="translate(-96.122 -72.965)"/>
            <path id="Path_2610" d="M242.736-370.568h-.729v-2.8a.564.564 0 0 1 .377-.532l2.3-.8a.564.564 0 0 1 .75.532v2.83h-.734v-2.4a.14.14 0 0 0-.186-.132l-1.6.561a.269.269 0 0 0-.18.254z" class="cls-6" data-name="Path 2610" transform="translate(-222.291 -8.51)"/>
            <path id="Path_2611" d="M231.521-329.644c-.458 0-.829.22-.829.491s.371.491.829.491.829-.22.829-.491-.372-.491-.829-.491z" class="cls-7" data-name="Path 2611" transform="translate(-211.898 -49.926)"/>
            <path id="Path_2612" d="M264.383-339.1c-.458 0-.829.22-.829.491s.371.491.829.491.829-.22.829-.491-.371-.491-.829-.491z" class="cls-7" data-name="Path 2612" transform="translate(-242.082 -41.239)"/>
            <path id="Path_2613" d="M319.193-252.636h-.729v-2.76a.615.615 0 0 1 .412-.581l1.335-.467a.729.729 0 0 1-.447.929l-.358.125a.318.318 0 0 0-.213.3z" class="cls-6" data-name="Path 2613" transform="translate(-292.519 -117.162)"/>
            <path id="Path_2614" d="M307.973-215.737c-.458 0-.829.22-.829.491s.371.491.829.491.829-.22.829-.491-.371-.491-.829-.491z" class="cls-7" data-name="Path 2614" transform="translate(-282.121 -154.553)"/>
            <path id="Path_2615" d="M24.486-308.781h-.729v-2.779a.587.587 0 0 1 .394-.554l1.354-.474a.729.729 0 0 1-.447.929l-.409.143a.243.243 0 0 0-.163.229z" class="cls-6" data-name="Path 2615" transform="translate(-21.822 -65.591)"/>
            <path id="Path_2616" d="M.634-341.6a1.314 1.314 0 0 1-.578.578.1.1 0 0 0 0 .182 1.314 1.314 0 0 1 .578.578.1.1 0 0 0 .182 0 1.315 1.315 0 0 1 .578-.578.1.1 0 0 0 0-.182 1.315 1.315 0 0 1-.578-.578.1.1 0 0 0-.182 0z" class="cls-8" data-name="Path 2616" transform="translate(0 -38.892)"/>
            <path id="Path_2617" d="M38.591-357.826a.944.944 0 0 1-.372.372.092.092 0 0 0 0 .161.945.945 0 0 1 .372.372.091.091 0 0 0 .161 0 .947.947 0 0 1 .372-.372.091.091 0 0 0 0-.161.947.947 0 0 1-.372-.372.092.092 0 0 0-.161 0z" class="cls-8" data-name="Path 2617" transform="translate(-35.061 -23.996)"/>
            <path id="Path_2618" d="M10.613-368.2a.71.71 0 0 1-.27.27.073.073 0 0 0 0 .127.709.709 0 0 1 .27.27.073.073 0 0 0 .127 0 .711.711 0 0 1 .27-.27.073.073 0 0 0 0-.127.713.713 0 0 1-.27-.27.073.073 0 0 0-.127 0z" class="cls-8" data-name="Path 2618" transform="translate(-9.466 -14.478)"/>
            <path id="Path_2619" d="M317.608-367.993a1.318 1.318 0 0 1-.578-.578.1.1 0 0 0-.181 0 1.318 1.318 0 0 1-.578.578.1.1 0 0 0 0 .181 1.318 1.318 0 0 1 .578.578.1.1 0 0 0 .181 0 1.318 1.318 0 0 1 .578-.578.1.1 0 0 0 0-.181z" class="cls-8" data-name="Path 2619" transform="translate(-290.453 -14.118)"/>
            <path id="Path_2620" d="M338.9-330.04a.947.947 0 0 1-.372-.372.091.091 0 0 0-.16 0 .947.947 0 0 1-.372.372.091.091 0 0 0 0 .16.944.944 0 0 1 .372.372.091.091 0 0 0 .16 0 .946.946 0 0 1 .372-.372.091.091 0 0 0 0-.16z" class="cls-8" data-name="Path 2620" transform="translate(-310.419 -49.176)"/>
            <path id="Path_2621" d="M352.213-358.015a.711.711 0 0 1-.27-.27.073.073 0 0 0-.127 0 .711.711 0 0 1-.27.27.073.073 0 0 0 0 .127.709.709 0 0 1 .27.27.073.073 0 0 0 .127 0 .709.709 0 0 1 .27-.27.073.073 0 0 0 0-.127z" class="cls-8" data-name="Path 2621" transform="translate(-322.872 -23.585)"/>
            <path id="Path_2622" d="M14.1-271.391c0 .271-.371.491-.829.491s-.829-.22-.829-.491.371-.491.829-.491.829.22.829.491z" class="cls-7" data-name="Path 2622" transform="translate(-11.428 -102.982)"/>
        </g>
    </g>
</svg>
