<svg xmlns="http://www.w3.org/2000/svg" width="45" height="45" viewBox="0 0 45 45">
    <defs>
        <clipPath id="clip-path">
            <path id="Path_2869" fill="none" d="M-.25-348h34.5v-36H-.25z" clip-rule="evenodd" data-name="Path 2869" transform="translate(.25 384)"/>
        </clipPath>
        <style>
            .cls-5{fill:#f5a86b}.cls-6{fill:#374949}.cls-7{fill:#668c98}.cls-8{fill:#537882}.cls-9{fill:#3d5858}.cls-10{fill:#e99a58}.cls-13{fill:#d88a54}.cls-14{fill:#fac600}.cls-15{fill:#e7b800}
        </style>
    </defs>
    <g id="Group_162" data-name="Group 162" transform="translate(-890 -739)">
        <circle id="Ellipse_590" cx="22.5" cy="22.5" r="22.5" fill="#003b71" data-name="Ellipse 590" transform="translate(890 739)"/>
        <g id="Group_303" data-name="Group 303" transform="translate(895.25 1128)">
            <g id="Group_302" clip-path="url(#clip-path)" data-name="Group 302" transform="translate(-.25 -384)">
                <path id="Path_2833" fill="#fe5ca6" d="M17.227-367.5A17.226 17.226 0 0 0 0-350.273a17.226 17.226 0 0 0 17.227 17.227 17.2 17.2 0 0 0 5.786-1l7.033-4.723a17.16 17.16 0 0 0 4.407-11.506A17.226 17.226 0 0 0 17.227-367.5z" data-name="Path 2833" transform="translate(.023 369.047)"/>
                <path id="Path_2834" d="M135.989-189.155a1.061 1.061 0 0 1-.22-1.169 3.041 3.041 0 0 0-.647-3.342l-1.436-1.436-9.43 9.431-.044.143 1.386 1.386a3.04 3.04 0 0 0 3.344.646 1.062 1.062 0 0 1 1.17.219l.586.586 5.878-5.878z" class="cls-5" data-name="Path 2834" transform="translate(-112.543 212.811)"/>
                <path id="Path_2835" d="M44.8-79.25l-1.328 1.328q.341.4.706.785l1.365-1.363z" class="cls-6" data-name="Path 2835" transform="translate(-39.37 107.82)"/>
                <path id="Path_2836" d="M52.009-101.359l-.766.765a.7.7 0 0 0 0 .995l1.471 1.471a.7.7 0 0 0 .994 0l.766-.766z" class="cls-7" data-name="Path 2836" transform="translate(-46.229 127.857)"/>
                <path id="Path_2837" d="M52.368-100.116l.153-.153-.562-.562-.716.716a.7.7 0 0 0 0 .995l1.471 1.471a.7.7 0 0 0 .995 0l.065-.066-1.406-1.406a.7.7 0 0 1 0-.995z" class="cls-8" data-name="Path 2837" transform="translate(-46.229 127.379)"/>
                <path id="Path_2838" d="M120.318-262.676l-8.67 8.67.056.156 3.987 3.986.166.067 8.67-8.67z" class="cls-8" data-name="Path 2838" transform="translate(-101.158 274.05)"/>
                <path id="Path_2839" d="M58.1-160.856l-3.214-3.214a.7.7 0 0 1 0-.994l5.135-5.135 4.209 4.209-5.13 5.134a.7.7 0 0 1-1 0z" class="cls-9" data-name="Path 2839" transform="translate(-49.531 190.243)"/>
                <path id="Path_2840" d="M178.821-262.145l-2.563 2.563.642.642a1.613 1.613 0 0 1 .364.56 1.86 1.86 0 0 1 .483-.01l2.414-2.414z" class="cls-9" data-name="Path 2840" transform="translate(-159.71 273.569)"/>
                <path id="Path_2841" d="M57.565-135.176l.711-.71a1.65 1.65 0 0 1-.132-.118l-1.214-1.214-2.043 2.043a.7.7 0 0 0 0 .994l3.214 3.214a.7.7 0 0 0 .994 0l.842-.842-2.372-2.372a.7.7 0 0 1 0-.995z" class="cls-6" data-name="Path 2841" transform="translate(-49.531 160.355)"/>
                <path id="Path_2842" d="M72.137-256.027l-2.429-2.429a1.618 1.618 0 0 0-2.287 0 1.617 1.617 0 0 0 0 2.287l.521.521a1.617 1.617 0 0 0-2.287 0 1.617 1.617 0 0 0 0 2.287 1.617 1.617 0 0 0-2.287 0 1.617 1.617 0 0 0 0 2.287v.007a1.615 1.615 0 0 0-2.237.045 1.617 1.617 0 0 0 0 2.287l2.429 2.43a1.617 1.617 0 0 0 2.287 0 1.618 1.618 0 0 0 0-2.287v-.008a1.616 1.616 0 0 0 2.238-.044 1.617 1.617 0 0 0 0-2.287 1.617 1.617 0 0 0 2.287 0 1.618 1.618 0 0 0 0-2.287l-.521-.521a1.617 1.617 0 0 0 2.287 0 1.617 1.617 0 0 0-.001-2.288z" class="cls-10" data-name="Path 2842" transform="translate(-54.947 270.655)"/>
                <path id="Path_2843" d="M223.165-322.787l-8.615-8.613a6.169 6.169 0 0 0-1.085 4.623l.014.012 5.052 5.052.012.014a6.169 6.169 0 0 0 4.623-1.085z" class="cls-7" data-name="Path 2843" transform="translate(-193.354 336.333)"/>
                <path id="Path_2844" d="M240.625-357.486l8.615 8.615a6.171 6.171 0 0 0-.637-7.978 6.171 6.171 0 0 0-7.978-.637z" class="cls-7" data-name="Path 2844" transform="translate(-218.043 361.032)"/>
                <path id="Path_2845" d="M243.076-355.694a6.176 6.176 0 0 1 6.627-.535 6.18 6.18 0 0 0-.538-.616 6.171 6.171 0 0 0-7.92-.679z" class="cls-8" data-name="Path 2845" transform="translate(-218.606 361.028)"/>
                <path id="Path_2846" d="M213.516-326.25l1.987 1.987a6.171 6.171 0 0 1 .876-4.632l-1.882-1.883a6.167 6.167 0 0 0-1.063 4.453 1.093 1.093 0 0 1 .082.075z" class="cls-8" data-name="Path 2846" transform="translate(-193.342 335.767)"/>
                <path id="Path_2847" d="M230.957-339.585l-8.615-8.615a1.05 1.05 0 0 1 0-1.485 1.05 1.05 0 0 1 1.485 0l8.615 8.615a1.05 1.05 0 0 1 0 1.485 1.05 1.05 0 0 1-1.485 0z" class="cls-9" data-name="Path 2847" transform="translate(-201.196 353.18)"/>
                <path id="Path_2848" d="M224.5-347.521a1.147 1.147 0 0 1 1.228-.257l-1.907-1.906a1.05 1.05 0 0 0-1.485 0 1.051 1.051 0 0 0 0 1.485l1.906 1.906a1.148 1.148 0 0 1 .258-1.228z" class="cls-6" data-name="Path 2848" transform="translate(-201.194 353.18)"/>
                <path id="Path_2849" fill="#8eb9c4" d="M201.176-278.924l-5.052-5.052a1.05 1.05 0 0 1 0-1.485 1.05 1.05 0 0 1 1.485 0l5.052 5.052a1.05 1.05 0 0 1 0 1.485 1.05 1.05 0 0 1-1.485 0z" data-name="Path 2849" transform="translate(-177.436 294.978)"/>
                <path id="Path_2850" fill="#7ca1b0" d="M198.513-283.073a1.05 1.05 0 0 1 1.485 0l-2.388-2.388a1.05 1.05 0 0 0-1.485 0 1.05 1.05 0 0 0 0 1.485l2.388 2.388a1.05 1.05 0 0 1 0-1.485z" data-name="Path 2850" transform="translate(-177.436 294.978)"/>
                <path id="Path_2851" d="M88.917-199.391l-2.429-2.429a1.617 1.617 0 0 1 0-2.287 1.621 1.621 0 0 1 .385-.285 1.618 1.618 0 0 0-1.9.285 1.617 1.617 0 0 0 0 2.287l2.429 2.429a1.617 1.617 0 0 0 1.9.285 1.626 1.626 0 0 1-.385-.285z" class="cls-13" data-name="Path 2851" transform="translate(-76.552 221.402)"/>
                <path id="Path_2852" d="M112.142-224.76l.1-.1-1.358-1.358a1.618 1.618 0 0 1 0-2.287 1.621 1.621 0 0 1 .386-.285 1.618 1.618 0 0 0-1.9.285 1.617 1.617 0 0 0 0 2.287l2.292 2.292a1.842 1.842 0 0 1 .48-.834z" class="cls-13" data-name="Path 2852" transform="translate(-98.663 243.513)"/>
                <path id="Path_2853" d="M130.643-253.741a1.6 1.6 0 0 0 .226.188l.739-.739-1.878-1.878a1.618 1.618 0 0 1 0-2.287 1.613 1.613 0 0 1 .386-.285 1.618 1.618 0 0 0-1.9.285 1.617 1.617 0 0 0 0 2.287z" class="cls-13" data-name="Path 2853" transform="translate(-115.74 270.656)"/>
                <path id="Path_2854" d="M130.7-207.269l5.878-5.878-.587-.587a1.061 1.061 0 0 1-.22-1.169 3.041 3.041 0 0 0-.647-3.342l-3.437-3.437a1.852 1.852 0 0 0-2.618 0l-3.045 3.045a1.852 1.852 0 0 0 0 2.619 1.852 1.852 0 0 0 2.618 0l1.487-1.487a.352.352 0 0 1 .5 0l.492.492-6.905 6.906 1.386 1.386a3.04 3.04 0 0 0 3.344.646 1.062 1.062 0 0 1 1.17.219z" class="cls-5" data-name="Path 2854" transform="translate(-112.543 237.391)"/>
                <path id="Path_2855" d="M235.081-89.6l-5.881 5.876 1.525 1.524a17.246 17.246 0 0 0 7.033-4.723z" class="cls-5" data-name="Path 2855" transform="translate(-207.692 117.202)"/>
                <path id="Path_2856" d="M230.863-38.41l-1.129 1.129 1.475 1.475a17.182 17.182 0 0 0 1.6-.661z" class="cls-10" data-name="Path 2856" transform="translate(-208.173 70.809)"/>
                <path id="Path_2857" d="M130.648-101.105l1.129-1.129-.92-.92a1.062 1.062 0 0 0-1.17-.219 3.041 3.041 0 0 1-3.344-.646l-1-1-1.129 1.129 1.386 1.386a3.04 3.04 0 0 0 3.344.646 1.062 1.062 0 0 1 1.17.219z" class="cls-10" data-name="Path 2857" transform="translate(-112.543 131.177)"/>
                <path id="Path_2858" d="M167.114-379.111h-.945a.189.189 0 0 1-.182-.24l1.236-4.407a.189.189 0 0 0-.333-.165l-3.466 4.59a.189.189 0 0 0 .151.3h.945a.189.189 0 0 1 .182.24l-1.236 4.407a.189.189 0 0 0 .333.165l3.466-4.59a.189.189 0 0 0-.151-.3z" class="cls-14" data-name="Path 2858" transform="translate(-148.044 384)"/>
                <path id="Path_2859" d="M165.557-379.158a.189.189 0 0 0-.182-.24h-.945a.189.189 0 0 1-.151-.3l2.874-3.805.071-.253a.189.189 0 0 0-.333-.165l-3.466 4.59a.189.189 0 0 0 .151.3h.945a.189.189 0 0 1 .182.24l-1.236 4.407a.189.189 0 0 0 .333.165l.592-.785z" class="cls-15" data-name="Path 2859" transform="translate(-148.045 384.001)"/>
                <path id="Path_2860" d="M98.155-348.109l-.53.53a.15.15 0 0 1-.237-.033l-1.777-3.164a.15.15 0 0 0-.279.094l.63 4.516a.15.15 0 0 0 .255.086l.53-.53a.15.15 0 0 1 .237.033l1.778 3.164a.15.15 0 0 0 .279-.094l-.63-4.517a.15.15 0 0 0-.256-.085z" class="cls-14" data-name="Path 2860" transform="translate(-86.369 353.961)"/>
                <path id="Path_2861" d="M98.953-344.135l-1.7-3.018a.15.15 0 0 0-.237-.033l-.529.53a.15.15 0 0 1-.255-.085l-.542-3.888-.082-.146a.15.15 0 0 0-.279.094l.63 4.516a.15.15 0 0 0 .255.086l.53-.53a.15.15 0 0 1 .237.033l1.778 3.164a.15.15 0 0 0 .279-.094z" class="cls-15" data-name="Path 2861" transform="translate(-86.369 353.961)"/>
                <path id="Path_2862" d="M270.941-156.043v-.75a.15.15 0 0 1 .191-.144l3.494.98a.15.15 0 0 0 .131-.264l-3.639-2.748a.15.15 0 0 0-.24.12v.749a.15.15 0 0 1-.191.144l-3.494-.98a.15.15 0 0 0-.131.264l3.639 2.748a.15.15 0 0 0 .24-.119z" class="cls-14" data-name="Path 2862" transform="translate(-241.946 180.093)"/>
                <path id="Path_2863" d="M267.473-158.386l3.494.98a.15.15 0 0 0 .191-.144v-.749a.15.15 0 0 1 .24-.12l3.269 2.468a.15.15 0 0 0 .089-.27l-3.639-2.748a.15.15 0 0 0-.24.12v.749a.15.15 0 0 1-.191.144l-3.494-.98a.15.15 0 0 0-.131.264l.371.28a.153.153 0 0 1 .041.006z" class="cls-15" data-name="Path 2863" transform="translate(-241.946 180.093)"/>
                <path id="Path_2864" d="M274.459-218.045l-.6-.6a.17.17 0 0 1 .037-.268l3.589-2.016a.17.17 0 0 0-.107-.317l-5.124.715a.17.17 0 0 0-.1.289l.6.6a.17.17 0 0 1-.037.269l-3.589 2.016a.17.17 0 0 0 .107.317l5.124-.715a.17.17 0 0 0 .1-.29z" class="cls-14" data-name="Path 2864" transform="translate(-243.798 236.508)"/>
                <path id="Path_2865" d="M273.494-219.094a.17.17 0 0 0 .037-.269l-.6-.6a.17.17 0 0 1 .1-.289l4.321-.6.136-.076a.17.17 0 0 0-.107-.317l-5.124.715a.17.17 0 0 0-.1.289l.6.6a.17.17 0 0 1-.037.269l-3.589 2.016a.17.17 0 0 0 .107.317l.8-.112z" class="cls-15" data-name="Path 2865" transform="translate(-243.798 236.508)"/>
                <path id="Path_2866" d="M65.076-174.434l-2.429-2.429a1.617 1.617 0 0 1 0-2.287 1.61 1.61 0 0 1 .385-.285 1.618 1.618 0 0 0-1.9.285 1.618 1.618 0 0 0 0 2.287l2.429 2.429a1.618 1.618 0 0 0 1.9.285 1.611 1.611 0 0 1-.385-.285z" class="cls-13" data-name="Path 2866" transform="translate(-54.947 198.784)"/>
                <path id="Path_2867" fill="#814aa2" d="M195.2-130.641l-7.035 7.035a.7.7 0 0 1-.995 0l-2.462-2.462a.7.7 0 0 1 0-.995l7.035-7.035a.7.7 0 0 1 .994 0l2.462 2.462a.7.7 0 0 1 .001.995z" data-name="Path 2867" transform="translate(-167.184 157.712)"/>
                <path id="Path_2868" fill="#6f3f8a" d="M187.03-126.067a.7.7 0 0 1 0-.995l6.372-6.372-.663-.663a.7.7 0 0 0-.994 0l-7.035 7.035a.7.7 0 0 0 0 .995l2.462 2.462a.7.7 0 0 0 .995 0l.663-.663z" data-name="Path 2868" transform="translate(-167.184 157.712)"/>
            </g>
        </g>
    </g>
</svg>
