<svg xmlns="http://www.w3.org/2000/svg" width="45" height="45" viewBox="0 0 45 45">
    <defs>
        <clipPath id="clip-path">
            <path id="Path_2602" fill="none" d="M-.852-349.286h28.928V-384H-.852z" clip-rule="evenodd" data-name="Path 2602" transform="translate(.852 384)"/>
        </clipPath>
        <style>
            .cls-4{fill:#80381b}.cls-5{fill:#ffb59d}.cls-6{fill:#e64937}
        </style>
    </defs>
    <g id="Group_178" data-name="Group 178" transform="translate(-1648 -739)">
        <circle id="Ellipse_585" cx="22.5" cy="22.5" r="22.5" fill="#003b71" data-name="Ellipse 585" transform="translate(1648 739)"/>
        <g id="Group_287" data-name="Group 287" transform="translate(1657.388 1128.643)">
            <g id="Group_286" clip-path="url(#clip-path)" data-name="Group 286" transform="translate(-.852 -384)">
                <path id="Path_2587" d="M62.925-287.268l2.275-.423a1.172 1.172 0 0 1-.866 1.691H64.3a1.173 1.173 0 0 1-1.344-1.027z" class="cls-4" data-name="Path 2587" transform="translate(-57.16 296.397)"/>
                <path id="Path_2588" d="M1.877-374.687l2.371.357-.268-1.991-1.057-1.216 2.32-4.527a1.33 1.33 0 0 0-.577-1.79 1.33 1.33 0 0 0-1.79.577l-2.73 5.327a1.33 1.33 0 0 0 .18 1.479z" class="cls-4" data-name="Path 2588" transform="translate(.077 384)"/>
                <path id="Path_2589" d="M198.239-286.918l2.558.477.016.1a1.235 1.235 0 0 1-1.356 1.421l-.356-.04a1.235 1.235 0 0 1-.862-1.958z" class="cls-5" data-name="Path 2589" transform="translate(-180.024 295.694)"/>
                <path id="Path_2590" d="M144.9-323.011a1.33 1.33 0 0 0-1.852-.325l-4.033 2.829h-.571l-.5 1.33.5 1.33h.991a1.33 1.33 0 0 0 .764-.241l4.377-3.07a1.329 1.329 0 0 0 .324-1.853z" class="cls-4" data-name="Path 2590" transform="translate(-125.394 329.04)"/>
                <path id="Path_2591" d="M92.094-289.617l-3.964.013s-1.145.582-1.145 1.317a1.33 1.33 0 0 0 1.329 1.33h3.78z" class="cls-6" data-name="Path 2591" transform="translate(-79.044 298.149)"/>
                <path id="Path_2592" d="M59.555-266.879l-1.4.845-5.666 1.27a1.33 1.33 0 0 0-1.007 1.588 1.33 1.33 0 0 0 1.3 1.039 1.336 1.336 0 0 0 .292-.032l5.877-1.316a1.333 1.333 0 0 0 .4-.159l1.466-.883.112-1.521z" class="cls-5" data-name="Path 2592" transform="translate(-46.718 277.467)"/>
                <path id="Path_2593" fill="#54696e" d="M18.619-175.705l-6.678-3.429a1.511 1.511 0 0 1-.543-2.215l5.053-7.187a1.51 1.51 0 0 1 2.1-.361 1.51 1.51 0 0 1 .361 2.1l-4.049 5.767L20-178.392a1.51 1.51 0 0 1 .653 2.033 1.51 1.51 0 0 1-2.034.654z" data-name="Path 2593" transform="translate(-10.039 206.787)"/>
                <path id="Path_2594" fill="#738387" d="M45.277-175.49l-1.023-7.349a1.511 1.511 0 0 1 .278-1.1l5.095-6.944a1.51 1.51 0 0 1 2.11-.324 1.51 1.51 0 0 1 .324 2.11l-4.732 6.45.939 6.742a1.51 1.51 0 0 1-1.287 1.7 1.509 1.509 0 0 1-1.704-1.285z" data-name="Path 2594" transform="translate(-40.163 208.902)"/>
                <path id="Path_2595" fill="#404a81" d="M166.42-172.27a1.51 1.51 0 0 1 .654-2.033l5.13-2.634-3.834-5.638.361-2.1 2.7 1.423 4.24 6a1.511 1.511 0 0 1-.543 2.215l-6.678 3.429a1.51 1.51 0 0 1-2.03-.662z" data-name="Path 2595" transform="translate(-151.147 202.699)"/>
                <path id="Path_2596" fill="#5e6e9a" d="M158.485-177.736l-5.095-6.944-2.722.785a1.505 1.505 0 0 0 .288 1l4.733 6.45-.939 6.742a1.51 1.51 0 0 0 1.287 1.7 1.51 1.51 0 0 0 1.7-1.287l1.023-7.349a1.508 1.508 0 0 0-.275-1.097z" data-name="Path 2596" transform="translate(-136.967 202.699)"/>
                <path id="Path_2597" d="M28.873-297.28c-.136-.6-.976-.912-.976-.912l-1.045.161a1.286 1.286 0 0 1 .029.216 1.178 1.178 0 0 1-1.165 1.165 1.17 1.17 0 0 1-1.138-.958l-.384.071-1.324-1.522-2.1 1.634 1.582 1.819 1.74 8.819 6.881-1.346z" class="cls-6" data-name="Path 2597" transform="translate(-18.811 306.738)"/>
                <path id="Path_2598" d="M185.855-354.31a2.712 2.712 0 0 1-.895 3.73 2.712 2.712 0 0 1-3.729-.895 2.712 2.712 0 0 1 .895-3.73 2.712 2.712 0 0 1 3.729.895z" class="cls-5" data-name="Path 2598" transform="translate(-164.407 358.171)"/>
                <path id="Path_2599" d="M268.038-349.98a1.33 1.33 0 0 0-1.625.947l-1.3 4.919-.476.059-.509 1.458.755 1.191 1.45-.181a1.329 1.329 0 0 0 1.122-.981l1.525-5.788a1.33 1.33 0 0 0-.942-1.624z" class="cls-5" data-name="Path 2599" transform="translate(-240.177 353.096)"/>
                <path id="Path_2600" fill="#64afff" d="M152.775-289.076l-2.9.361-.789-.147a1.335 1.335 0 0 1-1.278 1.051 1.317 1.317 0 0 1-1.295-1.295 1.115 1.115 0 0 1 .015-.234l-1.118-.209a1.894 1.894 0 0 0-1.327.242l-2.933 1.778 1.251 2.351 1.095-.66-1.485 6.524 6.913 1.147 1.568-7.946 2.532-.315z" data-name="Path 2600" transform="translate(-128.311 298.116)"/>
                <path id="Path_2601" d="M56.118-355.341a2.709 2.709 0 0 1 1.778 3.394 2.709 2.709 0 0 1-3.394 1.778 2.709 2.709 0 0 1-1.778-3.394 2.709 2.709 0 0 1 3.394-1.778z" class="cls-4" data-name="Path 2601" transform="translate(-47.768 358.044)"/>
            </g>
        </g>
    </g>
</svg>
