<svg xmlns="http://www.w3.org/2000/svg" width="45" height="45" viewBox="0 0 45 45">
    <defs>
        <style>
            .cls-2{fill:#98d085}.cls-3{fill:#4d5b4d}.cls-4{fill:#98b398}.cls-5{fill:#133340}.cls-6{fill:#748974}.cls-7{fill:#384d5c}.cls-8{fill:#f4f4e6}
        </style>
    </defs>
    <g id="Group_70" data-name="Group 70" transform="translate(-795 -837)">
        <circle id="Ellipse_600" cx="22.5" cy="22.5" r="22.5" fill="#003b71" data-name="Ellipse 600" transform="translate(795 837)"/>
        <g id="Group_322" data-name="Group 322" transform="translate(801 1116)">
            <path id="Path_3122" d="M65.089-206.169l-2.058-6.862 1.427.709 1.931 6.438z" class="cls-2" data-name="Path 3122" transform="translate(-56.918 -51.444)"/>
            <path id="Path_3123" d="M307.164-171.09H306v-2.328a.582.582 0 0 1 .582-.582h2.328v1.164h-1.746z" class="cls-2" data-name="Path 3123" transform="translate(-276.322 -86.689)"/>
            <path id="Path_3124" d="M38.187-75.853H18.4L12-79.927V-84h31.424v3.492z" class="cls-3" data-name="Path 3124" transform="translate(-10.836 -167.96)"/>
            <path id="Path_3125" d="M149.819-57.09a2.909 2.909 0 0 1-2.91 2.91A2.909 2.909 0 0 1 144-57.09a2.909 2.909 0 0 1 2.91-2.91 2.909 2.909 0 0 1 2.909 2.91z" class="cls-4" data-name="Path 3125" transform="translate(-130.034 -189.633)"/>
            <path id="Path_3126" d="M164.328-40.836a1.164 1.164 0 0 1-1.164 1.164A1.164 1.164 0 0 1 162-40.836 1.164 1.164 0 0 1 163.164-42a1.164 1.164 0 0 1 1.164 1.164z" class="cls-5" data-name="Path 3126" transform="translate(-146.288 -205.887)"/>
            <path id="Path_3127" d="M221.819-57.09a2.909 2.909 0 0 1-2.91 2.91A2.909 2.909 0 0 1 216-57.09a2.909 2.909 0 0 1 2.91-2.91 2.909 2.909 0 0 1 2.909 2.91z" class="cls-4" data-name="Path 3127" transform="translate(-195.051 -189.633)"/>
            <path id="Path_3128" d="M236.328-40.836a1.164 1.164 0 0 1-1.164 1.164A1.164 1.164 0 0 1 234-40.836 1.164 1.164 0 0 1 235.164-42a1.164 1.164 0 0 1 1.164 1.164z" class="cls-5" data-name="Path 3128" transform="translate(-211.305 -205.887)"/>
            <path id="Path_3129" d="M77.819-57.09a2.909 2.909 0 0 1-2.91 2.91A2.909 2.909 0 0 1 72-57.09 2.909 2.909 0 0 1 74.91-60a2.909 2.909 0 0 1 2.909 2.91z" class="cls-4" data-name="Path 3129" transform="translate(-65.017 -189.633)"/>
            <path id="Path_3130" d="M92.328-40.836a1.164 1.164 0 0 1-1.164 1.164A1.164 1.164 0 0 1 90-40.836 1.164 1.164 0 0 1 91.164-42a1.164 1.164 0 0 1 1.164 1.164z" class="cls-5" data-name="Path 3130" transform="translate(-81.271 -205.887)"/>
            <path id="Path_3131" d="M28.655-69.672a2.328 2.328 0 0 1-2.328 2.328A2.328 2.328 0 0 1 24-69.672 2.328 2.328 0 0 1 26.328-72a2.328 2.328 0 0 1 2.327 2.328z" class="cls-4" data-name="Path 3131" transform="translate(-21.672 -178.796)"/>
            <path id="Path_3132" d="M42-54h1.164v1.164H42z" class="cls-5" data-name="Path 3132" transform="translate(-37.927 -195.051)"/>
            <path id="Path_3133" d="M280.655-69.672a2.328 2.328 0 0 1-2.328 2.328A2.328 2.328 0 0 1 276-69.672 2.328 2.328 0 0 1 278.328-72a2.328 2.328 0 0 1 2.327 2.328z" class="cls-4" data-name="Path 3133" transform="translate(-249.231 -178.796)"/>
            <path id="Path_3134" d="M294-54h1.164v1.164H294z" class="cls-5" data-name="Path 3134" transform="translate(-265.486 -195.051)"/>
            <path id="Path_3135" d="M0-108h33.752v2.328H0z" class="cls-4" data-name="Path 3135" transform="translate(0 -146.288)"/>
            <path id="Path_3136" d="M47.678-140.508H18L20.91-144h26.768z" class="cls-6" data-name="Path 3136" transform="translate(-16.254 -113.78)"/>
            <path id="Path_3137" d="M139.966-176.508h-11.638L126-180h16.294z" class="cls-3" data-name="Path 3137" transform="translate(-113.78 -81.271)"/>
            <path id="Path_3138" d="M142.294-212.508H126l1.164-3.492h13.966z" class="cls-4" data-name="Path 3138" transform="translate(-113.78 -48.763)"/>
            <path id="Path_3139" d="M174-240h6.983v2.328H174z" class="cls-6" data-name="Path 3139" transform="translate(-157.124 -27.09)"/>
            <path id="Path_3140" d="M98.91-223.345L96-224.508 97.164-228l2.91 1.164z" class="cls-6" data-name="Path 3140" transform="translate(-86.689 -37.927)"/>
            <path id="Path_3141" d="M10.475-265.927L1.164-270 0-266.508l9.311 4.073z" class="cls-7" data-name="Path 3141"/>
            <path id="Path_3142" d="M144-258h1.164v4.073H144z" class="cls-2" data-name="Path 3142" transform="translate(-130.034 -10.836)"/>
            <path id="Path_3143" d="M186-216h2.328v3.492H186z" class="cls-2" data-name="Path 3143" transform="translate(-167.96 -48.763)"/>
            <path id="Path_3144" d="M210-216h2.328v3.492H210z" class="cls-7" data-name="Path 3144" transform="translate(-189.633 -48.763)"/>
            <path id="Path_3145" d="M110.328-142.836a1.164 1.164 0 0 1-1.164 1.164 1.164 1.164 0 0 1-1.164-1.164 1.164 1.164 0 0 1 1.164-1.164 1.164 1.164 0 0 1 1.164 1.164z" class="cls-2" data-name="Path 3145" transform="translate(-97.525 -113.78)"/>
            <path id="Path_3146" d="M242.328-142.836a1.164 1.164 0 0 1-1.164 1.164 1.164 1.164 0 0 1-1.164-1.164 1.164 1.164 0 0 1 1.164-1.164 1.164 1.164 0 0 1 1.164 1.164z" class="cls-2" data-name="Path 3146" transform="translate(-216.723 -113.78)"/>
            <path id="Path_3147" d="M162-126h1.164v1.746H162z" class="cls-8" data-name="Path 3147" transform="translate(-146.288 -130.034)"/>
            <path id="Path_3148" d="M186-126h1.164v1.746H186z" class="cls-8" data-name="Path 3148" transform="translate(-167.96 -130.034)"/>
        </g>
    </g>
</svg>
