<svg xmlns="http://www.w3.org/2000/svg" width="45" height="45" viewBox="0 0 45 45">
    <defs>
        <style>
            .cls-2{fill:#ffccbe}.cls-3{fill:#ebae9d}.cls-10{fill:#734b9d}
        </style>
    </defs>
    <g id="Group_190" data-name="Group 190" transform="translate(-228 -739)">
        <circle id="Ellipse_653" cx="22.5" cy="22.5" r="22.5" fill="#003b71" data-name="Ellipse 653" transform="translate(228 739)"/>
        <g id="Group_241" data-name="Group 241" transform="translate(236 1118.078)">
            <path id="Path_2145" d="M115.459-215.59v-3.2h-3.694v3.2a.173.173 0 0 1-.114.162l-3.608 1.324a1.617 1.617 0 0 0-1.06 1.518v9.119h13.257v-9.119a1.617 1.617 0 0 0-1.06-1.518l-3.608-1.324a.173.173 0 0 1-.113-.162z" class="cls-2" data-name="Path 2145" transform="translate(-98.643 -140.415)"/>
            <path id="Path_2146" d="M205.442-214.1l-3.609-1.324a.173.173 0 0 1-.113-.162v-3.2h-1.181v3.842a.173.173 0 0 0 .114.162l3.608 1.324a1.617 1.617 0 0 1 1.06 1.518v8.476h1.179v-9.119a1.617 1.617 0 0 0-1.058-1.517z" class="cls-3" data-name="Path 2146" transform="translate(-184.904 -140.415)"/>
            <path id="Path_2147" d="M168.312-216.512a4.2 4.2 0 0 0 1.847.615 4.191 4.191 0 0 0 1.847-.615v-2.277h-3.694z" class="cls-3" data-name="Path 2147" transform="translate(-155.189 -140.415)"/>
            <path id="Path_2148" fill="#ddebfd" d="M109.346-167.718v5.03h8.533v-5.03h2.362v-4.089a1.617 1.617 0 0 0-1.06-1.518l-3.372-1.237a2.242 2.242 0 0 1-2.2 1.8 2.242 2.242 0 0 1-2.2-1.8l-3.372 1.237a1.617 1.617 0 0 0-1.06 1.518v4.089z" data-name="Path 2148" transform="translate(-98.643 -181.194)"/>
            <path id="Path_2149" fill="#bed9fd" d="M218.56-173.325l-3.372-1.237a2.232 2.232 0 0 1-.422.922l2.613.958a1.617 1.617 0 0 1 1.06 1.518v3.446h1.181v-4.089a1.617 1.617 0 0 0-1.06-1.518z" data-name="Path 2149" transform="translate(-198.021 -181.194)"/>
            <path id="Path_2150" fill="#2f569e" d="M137.281-133.557v7.851h8.533v-7.851a.982.982 0 0 0-.981-.982h-6.57a.982.982 0 0 0-.982.982z" data-name="Path 2150" transform="translate(-126.578 -218.097)"/>
            <path id="Path_2151" fill="#20386a" d="M131.142-357.083h-10.753l-.2-2.273a5.6 5.6 0 0 1 5.578-6.1 5.6 5.6 0 0 1 5.579 6.1z" data-name="Path 2151" transform="translate(-110.796 -5.186)"/>
            <path id="Path_2152" d="M226-267.461h-2.419v-2.379H226a1.189 1.189 0 0 1 1.189 1.189 1.189 1.189 0 0 1-1.189 1.19z" class="cls-2" data-name="Path 2152" transform="translate(-206.146 -93.345)"/>
            <path id="Path_2153" d="M115.326-267.461h2.419v-2.379h-2.419a1.189 1.189 0 0 0-1.189 1.189 1.189 1.189 0 0 0 1.189 1.19z" class="cls-2" data-name="Path 2153" transform="translate(-105.238 -93.345)"/>
            <path id="Path_2154" d="M149.028-321.012a.3.3 0 0 0-.442.055 2.912 2.912 0 0 1-2.351 1.015 2.912 2.912 0 0 1-2.351-1.015.3.3 0 0 0-.442-.055c-1.335 1.153-1.327 6.008-.521 7.577a4.817 4.817 0 0 0 3.316 1.931 4.817 4.817 0 0 0 3.316-1.931c.802-1.565.81-6.424-.525-7.577z" class="cls-2" data-name="Path 2154" transform="translate(-131.263 -46.094)"/>
            <path id="Path_2155" fill="#934b34" d="M5.625-31.289v1.354a.336.336 0 0 0 .337.337h28.389a.336.336 0 0 0 .337-.337v-1.354a.336.336 0 0 0-.337-.336H5.962a.336.336 0 0 0-.337.336z" data-name="Path 2155" transform="translate(-5.186 -312.987)"/>
            <path id="Path_2156" fill="#74cff9" d="M301.629-105.715a.146.146 0 0 1 .137.2 22.143 22.143 0 0 0-.9 2.89 20.666 20.666 0 0 0-.008 2.5.181.181 0 0 1-.181.188h-2.466a.181.181 0 0 1-.181-.188 20.622 20.622 0 0 0-.008-2.5 22.139 22.139 0 0 0-.9-2.89.146.146 0 0 1 .137-.2z" data-name="Path 2156" transform="translate(-273.948 -244.673)"/>
            <path id="Path_2157" d="M311.68-62.805c-.041.649 0 1.794.017 2.243a.181.181 0 0 1-.181.188h-2.466a.181.181 0 0 1-.181-.188c.019-.449.059-1.593.017-2.243z" class="cls-10" data-name="Path 2157" transform="translate(-284.788 -284.238)"/>
            <path id="Path_2158" d="M24.808-205.439l-.613-4.62a.148.148 0 0 0-.147-.128h-1.287a.148.148 0 0 0-.147.128l-.614 4.62-.447.512a1.837 1.837 0 0 0-.453 1.208v6.849a.48.48 0 0 0 .48.481h3.645a.481.481 0 0 0 .481-.481v-6.849a1.838 1.838 0 0 0-.453-1.208z" class="cls-10" data-name="Path 2158" transform="translate(-19.457 -148.347)"/>
            <path id="Path_2159" fill="#ebb34b" d="M21.451-135.216c0 2-1.207 3.628-2.7 3.628s-2.7-1.625-2.7-3.628 1.207-3.628 2.7-3.628a2.406 2.406 0 0 1 1.906 1.063 4.344 4.344 0 0 1 .794 2.565z" data-name="Path 2159" transform="translate(-14.807 -214.127)"/>
            <path id="Path_2160" d="M171.3-106.414h-2.865a.439.439 0 0 0-.439.439.439.439 0 0 0 .439.439h2.865a.439.439 0 0 0 .439-.439.439.439 0 0 0-.439-.439z" data-name="Path 2160" transform="translate(-154.902 -244.029)"/>
            <path id="Path_2161" d="M164.689-271.539a.439.439 0 0 0-.439.439v.146a.439.439 0 0 0 .439.439.439.439 0 0 0 .439-.439v-.146a.439.439 0 0 0-.439-.439z" data-name="Path 2161" transform="translate(-151.444 -91.778)"/>
            <path id="Path_2162" d="M208.939-270.516a.439.439 0 0 0 .439-.439v-.146a.439.439 0 0 0-.439-.439.439.439 0 0 0-.439.439v.146a.439.439 0 0 0 .439.439z" data-name="Path 2162" transform="translate(-192.244 -91.778)"/>
            <path id="Path_2163" d="M178.448-245.874a.439.439 0 0 0 .218-.581.439.439 0 0 0-.581-.218 1.4 1.4 0 0 1-1.216 0 .439.439 0 0 0-.581.218.439.439 0 0 0 .218.581 2.335 2.335 0 0 0 .971.22 2.335 2.335 0 0 0 .971-.22z" data-name="Path 2163" transform="translate(-162.507 -114.669)"/>
            <path id="Path_2164" d="M29.164-345.05h-1.825a17.561 17.561 0 0 1 .013-2.188 22.279 22.279 0 0 1 .877-2.8.585.585 0 0 0-.069-.536.585.585 0 0 0-.479-.25h-4.37a.585.585 0 0 0-.48.25.584.584 0 0 0-.069.536 22.286 22.286 0 0 1 .877 2.8 17.509 17.509 0 0 1 .013 2.188h-1.616V-353a2.063 2.063 0 0 0-1.347-1.929l-2.28-.836a.438.438 0 0 0-.438-.427.437.437 0 0 0-.327.147l-.39-.143v-1.774a3.922 3.922 0 0 0 1.421-1.365 4.529 4.529 0 0 0 .351-1.039h.824A1.629 1.629 0 0 0 21.479-362a1.624 1.624 0 0 0-.6-1.265l.111-1.244a6.049 6.049 0 0 0-.479-2.953.439.439 0 0 0-.578-.226.438.438 0 0 0-.226.577 5.17 5.17 0 0 1 .409 2.523l-.086.968a1.649 1.649 0 0 0-.174-.009h-.596c-.125-2.515-.808-3.47-1.208-3.815a.737.737 0 0 0-.565-.173.748.748 0 0 0-.518.3 2.506 2.506 0 0 1-2 .835 2.506 2.506 0 0 1-2-.835.748.748 0 0 0-.518-.3.734.734 0 0 0-.56.169l-.008.006c-.4.346-1.083 1.3-1.208 3.815h-.591a1.652 1.652 0 0 0-.174.009l-.086-.968a5.174 5.174 0 0 1 1.333-3.942 5.174 5.174 0 0 1 3.813-1.672 5.128 5.128 0 0 1 3.64 1.5.439.439 0 0 0 .62 0 .439.439 0 0 0 0-.62 6 6 0 0 0-4.258-1.757 6.052 6.052 0 0 0-4.455 1.962 6.053 6.053 0 0 0-1.56 4.612l.111 1.244A1.625 1.625 0 0 0 8.46-362a1.629 1.629 0 0 0 1.628 1.627h.824a4.515 4.515 0 0 0 .351 1.039 3.921 3.921 0 0 0 1.421 1.365v1.774l-.39.143a.437.437 0 0 0-.327-.147.438.438 0 0 0-.438.427l-2.28.837A2.062 2.062 0 0 0 7.9-353v7.945H6.674a.9.9 0 0 0 .016-.166v-6.849a2.276 2.276 0 0 0-.561-1.5l-.36-.412-.134-1.014a.439.439 0 0 0-.493-.377.439.439 0 0 0-.377.492l.152 1.145a.442.442 0 0 0 .1.231l.447.512a1.4 1.4 0 0 1 .339.8 3.463 3.463 0 0 0-1.859-.541 3.463 3.463 0 0 0-1.859.541 1.4 1.4 0 0 1 .339-.8l.447-.512a.443.443 0 0 0 .1-.231l.579-4.367h.778l.157 1.183a.438.438 0 0 0 .492.377.439.439 0 0 0 .377-.492l-.19-1.436a.589.589 0 0 0-.581-.509H3.3a.588.588 0 0 0-.581.51l-.6 4.489-.36.412a2.275 2.275 0 0 0-.561 1.5v6.849a.9.9 0 0 0 .016.166H.775a.776.776 0 0 0-.775.775v1.354a.776.776 0 0 0 .775.775h28.389a.776.776 0 0 0 .775-.775v-1.354a.776.776 0 0 0-.775-.771zm-27.08-1.45a3.462 3.462 0 0 0 1.864.545 3.462 3.462 0 0 0 1.864-.545v1.285a.042.042 0 0 1-.042.042H2.126a.042.042 0 0 1-.042-.042zm3.728-4.559v3.434a2.585 2.585 0 0 1-1.864.793 2.585 2.585 0 0 1-1.864-.793v-3.434a2.586 2.586 0 0 1 1.864-.792 2.586 2.586 0 0 1 1.864.791zm21.45 1.11a20.807 20.807 0 0 0-.759 2.468h-2.015a20.853 20.853 0 0 0-.759-2.468zm-2.708 3.349h1.884c-.008.5.006 1.091.023 1.554H24.53c.017-.468.032-1.059.024-1.554zm-4.879 1.554v-3.424h1.485v3.424zM21.159-353v3.651h-1.484v-2.3a1.421 1.421 0 0 0-1.265-1.411v-1.767l1.977.725a1.182 1.182 0 0 1 .772 1.102zm-8.753-2.153l.084-.031a2.69 2.69 0 0 0 2.479 1.663 2.69 2.69 0 0 0 2.479-1.663l.084.031v2.08h-5.125zm2.563-2.006a3.748 3.748 0 0 0 1.408-.345v1.5a.612.612 0 0 0 .256.5 1.809 1.809 0 0 1-1.663 1.104 1.81 1.81 0 0 1-1.664-1.109.613.613 0 0 0 .256-.5v-1.5a3.748 3.748 0 0 0 1.408.348zm5.239-5.495a.752.752 0 0 1 .393.66.751.751 0 0 1-.751.75h-.672a13.1 13.1 0 0 0 .1-1.5h.573a.747.747 0 0 1 .358.089zm-2.444-4.451l-.288.331zm-7.677 5.862a.751.751 0 0 1-.751-.75.752.752 0 0 1 .393-.66.745.745 0 0 1 .358-.091h.573a13.1 13.1 0 0 0 .1 1.5zm1.956 1.515a8.564 8.564 0 0 1-.5-3.449v-.006q0-.135.008-.27a5.879 5.879 0 0 1 .811-3.217 3.424 3.424 0 0 0 2.608 1.07 3.423 3.423 0 0 0 2.609-1.073 5.876 5.876 0 0 1 .811 3.217l.008.27v.006a8.564 8.564 0 0 1-.5 3.449 4.466 4.466 0 0 1-2.926 1.692 4.466 4.466 0 0 1-2.928-1.691zm-2.492 5.623l1.977-.725v1.767a1.421 1.421 0 0 0-1.265 1.411v2.3H8.78V-353a1.182 1.182 0 0 1 .772-1.107zm-.772 5.633h1.485v3.424H8.78zm20.282 5.451H.877v-1.15h14.688a.439.439 0 0 0 .439-.439.439.439 0 0 0-.439-.439h-4.423v-6.6a.544.544 0 0 1 .387-.52v.414a.439.439 0 0 0 .439.439.439.439 0 0 0 .439-.439v-.437h5.126v.437a.439.439 0 0 0 .439.439.439.439 0 0 0 .439-.439v-.414a.544.544 0 0 1 .387.52v6.6h-1.186a.439.439 0 0 0-.439.439.439.439 0 0 0 .439.439h11.45z" data-name="Path 2164"/>
        </g>
    </g>
</svg>
