<svg xmlns="http://www.w3.org/2000/svg" width="45" height="45" viewBox="0 0 45 45">
    <defs>
        <style>
            .cls-2{fill:#6a8c9d}.cls-4{fill:#b9d6e2}.cls-5{fill:#90b5c5}.cls-9{fill:#30bdbb}.cls-10{fill:#0a030b}
        </style>
    </defs>
    <g id="Group_120" data-name="Group 120" transform="translate(-1838 -739)">
        <circle id="Ellipse_595" cx="22.5" cy="22.5" r="22.5" fill="#003b71" data-name="Ellipse 595" transform="translate(1838 739)"/>
        <g id="Group_314" data-name="Group 314" transform="translate(1845.747 1223.856)">
            <path id="Path_2971" d="M16-118.983h5.593V-120H16z" class="cls-2" data-name="Path 2971" transform="translate(-14.983 -334.507)"/>
            <path id="Path_2972" fill="#37c2dc" d="M48-181.966l9.66 9.151h8.135a2.542 2.542 0 0 0 2.542-2.542l-9.151-.508L51.05-184z" data-name="Path 2972" transform="translate(-44.95 -274.574)"/>
            <path id="Path_2973" d="M59.185-175.865L51.05-184 48-181.966l1.2 1.134.985-.985.719.719-.966.966.828.784.944-.944.719.719-.925.925.828.784.9-.9.719.719-.884.884.829.784.864-.864.719.719-.846.845.828.784.821-.821L57-175l-.8.8 1.458 1.381h8.135a2.542 2.542 0 0 0 2.542-2.542z" class="cls-4" data-name="Path 2973" transform="translate(-44.95 -274.574)"/>
            <path id="Path_2974" d="M67.825-149.656l-.985.985.738.7.966-.966z" class="cls-5" data-name="Path 2974" transform="translate(-62.592 -306.735)"/>
            <path id="Path_2975" d="M92.432-125.656l-.944.944.738.7.925-.925z" class="cls-5" data-name="Path 2975" transform="translate(-85.674 -329.21)"/>
            <path id="Path_2976" d="M117.039-101.656l-.9.9.738.7.884-.884z" class="cls-5" data-name="Path 2976" transform="translate(-108.755 -351.685)"/>
            <path id="Path_2977" d="M141.646-77.656l-.862.862.738.7.842-.842z" class="cls-5" data-name="Path 2977" transform="translate(-131.837 -374.16)"/>
            <path id="Path_2978" d="M166.253-53.656l-.821.821.739.7.8-.8z" class="cls-5" data-name="Path 2978" transform="translate(-154.918 -396.634)"/>
            <path id="Path_2979" d="M144-390.983h7.626V-392H144z" class="cls-2" data-name="Path 2979" transform="translate(-134.849 -79.793)"/>
            <path id="Path_2980" d="M112-390.983h1.017V-392H112z" class="cls-2" data-name="Path 2980" transform="translate(-104.882 -79.793)"/>
            <path id="Path_2981" d="M88-358.983h5.084V-360H88z" class="cls-2" data-name="Path 2981" transform="translate(-82.407 -109.759)"/>
            <path id="Path_2982" d="M56-358.983h1.017V-360H56z" class="cls-2" data-name="Path 2982" transform="translate(-52.441 -109.759)"/>
            <path id="Path_2983" d="M48-262.983h2.034V-264H48z" class="cls-2" data-name="Path 2983" transform="translate(-44.95 -199.658)"/>
            <path id="Path_2984" d="M16-262.983h1.017V-264H16z" class="cls-2" data-name="Path 2984" transform="translate(-14.983 -199.658)"/>
            <path id="Path_2985" d="M72-70.983h2.034V-72H72z" class="cls-2" data-name="Path 2985" transform="translate(-67.424 -379.456)"/>
            <path id="Path_2986" d="M40-70.983h1.017V-72H40z" class="cls-2" data-name="Path 2986" transform="translate(-37.458 -379.456)"/>
            <path id="Path_2987" fill="#f05a68" d="M0-14.983h30.5V-16H0z" data-name="Path 2987" transform="translate(0 -431.897)"/>
            <path id="Path_2988" fill="#f9b195" d="M104.287-448.047l-4.207-1.26-2.933-5.407h-.012L111.892-472h-9.151L92.71-459.462a3.164 3.164 0 0 0-.559-.757l-.6-.6-1.232 2.831-1.815 1.814a1.748 1.748 0 0 0 0 2.472l8.131 8.135 9.151.508v-.972a2.109 2.109 0 0 0-1.499-2.016z" data-name="Path 2988" transform="translate(-82.404 -4.877)"/>
            <path id="Path_2989" d="M104.287-285.726l-4.207-1.26-2.933-5.407h-.012l1.41-1.652-4.618-4.618-1.22 1.522a3.165 3.165 0 0 0-.559-.757l-.593-.6-1.232 2.831-1.815 1.814a1.748 1.748 0 0 0 0 2.472l8.131 8.135 9.151.508v-.972a2.109 2.109 0 0 0-1.503-2.016z" class="cls-4" data-name="Path 2989" transform="translate(-82.404 -167.197)"/>
            <path id="Path_2990" fill="#0076b4" d="M100.081-284.492l-2.933-5.408-1.342-.119a3.174 3.174 0 0 1-2.725-3.142 3.174 3.174 0 0 0-.929-2.244l-.6-.6-1.232 2.831-1.815 1.814a1.748 1.748 0 0 0 0 2.472l8.131 8.135 9.151.508v-.972a2.109 2.109 0 0 0-1.5-2.02z" data-name="Path 2990" transform="translate(-82.404 -169.692)"/>
            <path id="Path_2991" d="M203.063-188.889l1.955-1.955-.505-.932-2.168 2.168z" class="cls-9" data-name="Path 2991" transform="translate(-189.485 -267.292)"/>
            <path id="Path_2992" d="M227.063-158.221l1.5-1.5-.506-.932-1.715 1.716z" class="cls-9" data-name="Path 2992" transform="translate(-211.959 -296.435)"/>
            <path id="Path_2993" d="M251.063-127.546l1.052-1.052-.5-.928-1.263 1.263z" class="cls-9" data-name="Path 2993" transform="translate(-234.434 -325.584)"/>
            <path id="Path_2994" d="M186.346-276.637l1.017-1.017.719.719-1.017 1.017z" class="cls-5" data-name="Path 2994" transform="translate(-174.503 -186.872)"/>
            <path id="Path_2995" d="M210.343-252.637l1.017-1.017.719.719-1.017 1.017z" class="cls-5" data-name="Path 2995" transform="translate(-196.975 -209.347)"/>
            <path id="Path_2996" d="M12.914-447.9l-1.3-1.233.441-.441-.716-.719-.461.461-.828-.784.482-.482-.719-.719-.5.5-.83-.784.517-.521-.717-.719-.543.543-.829-.785.565-.565-.717-.719-.585.585-.83-.785.607-.607-.717-.719-.626.626-.747-.706 2.173-1.448 7.842 7.84a.509.509 0 0 0 .331.148l8.615.478a2.038 2.038 0 0 1-1.981 1.556zm-6.448-12.79l1.814-1.81a.5.5 0 0 0 .107-.157l.934-2.147.068.068a2.649 2.649 0 0 1 .779 1.885 3.706 3.706 0 0 0 3.188 3.648l1.071.1.225.415-1.79 1.793.719.719 1.578-1.58.567 1.046-1.339 1.34.719.719 1.127-1.127.567 1.045-.888.888.719.719.7-.7a.5.5 0 0 0 .2.13l4.207 1.26a1.611 1.611 0 0 1 1.14 1.533v.435l-3.288-.183-5.131-.285-7.994-8a1.241 1.241 0 0 1 .001-1.751zm5.1-4.413l.933.933-.655.657.719.719.654-.657.808.806-.655.657.719.719.654-.657.712.712-.929 1.09-1.053-.092a2.679 2.679 0 0 1-2.288-2.639 3.679 3.679 0 0 0-.283-1.419zM23.9-449.931v-.973a2.6 2.6 0 0 0-1.866-2.507l-4-1.2-2.666-4.916 14.518-17.023-.774-.661-12.992 15.225-3.915-3.914 8.53-10.658-.794-.636-4.322 5.4H9.151v1.017h5.655l-4.463 5.577c-.074-.089-.153-.176-.235-.259l-.6-.6a.508.508 0 0 0-.719 0 .509.509 0 0 0-.107.157l-1.189 2.752-1.748 1.744a2.229 2.229 0 0 0-.362 2.7l-2.613 1.743a.508.508 0 0 0-.141.705.507.507 0 0 0 .073.087l1.757 1.665H1.017v1.017h4.514l5.9 5.593H0v1.017h30.5v-1.021h-7.386a3.032 3.032 0 0 0 .786-2.031z" class="cls-10" data-name="Path 2996"/>
            <path id="Path_2997" d="M112.024-390.983h1.017V-392h-1.017z" class="cls-10" data-name="Path 2997" transform="translate(-104.905 -79.793)"/>
            <path id="Path_2998" d="M88.024-358.983h5.084V-360h-5.084z" class="cls-10" data-name="Path 2998" transform="translate(-82.43 -109.759)"/>
            <path id="Path_2999" d="M56.024-358.983h1.017V-360h-1.017z" class="cls-10" data-name="Path 2999" transform="translate(-52.464 -109.759)"/>
            <path id="Path_3000" d="M48.024-262.983h2.034V-264h-2.034z" class="cls-10" data-name="Path 3000" transform="translate(-44.972 -199.658)"/>
            <path id="Path_3001" d="M16.024-262.983h1.017V-264h-1.017z" class="cls-10" data-name="Path 3001" transform="translate(-15.006 -199.658)"/>
            <path id="Path_3002" d="M72.024-70.983h2.034V-72h-2.034z" class="cls-10" data-name="Path 3002" transform="translate(-67.447 -379.456)"/>
            <path id="Path_3003" d="M40.024-70.983h1.017V-72h-1.017z" class="cls-10" data-name="Path 3003" transform="translate(-37.48 -379.456)"/>
        </g>
    </g>
</svg>
