<svg xmlns="http://www.w3.org/2000/svg" width="43" height="43" viewBox="0 0 43 43">
    <defs>
        <clipPath id="clip-path">
            <path id="Path_2954" fill="none" d="M0-310.623h31.707V-342H0z" clip-rule="evenodd" data-name="Path 2954" transform="translate(0 342)"/>
        </clipPath>
        <style>
            .cls-9{fill:#626162}.cls-11{fill:#787580}
        </style>
    </defs>
    <g id="Group_125" data-name="Group 125" transform="translate(.041)">
        <circle id="Ellipse_597" cx="21.5" cy="21.5" r="21.5" fill="#003b71" data-name="Ellipse 597" transform="translate(-.041)"/>
        <g id="Group_311" data-name="Group 311" transform="translate(5.28 6.398)">
            <g id="Group_310" clip-path="url(#clip-path)" data-name="Group 310">
                <path id="Path_2937" fill="#45f7ff" d="M24-336h15.853v6.055H24z" data-name="Path 2937" transform="translate(-21.886 336.55)"/>
                <path id="Path_2938" fill="#ffd944" d="M6-246h19.024v17.065H6z" data-name="Path 2938" transform="translate(-5.472 254.808)"/>
                <path id="Path_2939" fill="#c7bec4" d="M12-60h29.064v2.752H12z" data-name="Path 2939" transform="translate(-10.943 85.872)"/>
                <path id="Path_2940" fill="#e1ecfd" d="M233.626-135.248v4.4H222V-138h9.512z" data-name="Path 2940" transform="translate(-202.448 156.716)"/>
                <path id="Path_2941" fill="#2487ff" d="M228.251-220.4l1.675 6.11H222V-222h4.217a2.128 2.128 0 0 1 2.034 1.6z" data-name="Path 2941" transform="translate(-202.448 233.009)"/>
                <path id="Path_2942" d="M252.341-74.7a3.239 3.239 0 0 1-3.171 3.3 3.239 3.239 0 0 1-3.17-3.3 3.239 3.239 0 0 1 3.171-3.3 3.239 3.239 0 0 1 3.17 3.3z" class="cls-9" data-name="Path 2942" transform="translate(-224.334 102.221)"/>
                <path id="Path_2943" d="M54.341-74.7a3.239 3.239 0 0 1-3.171 3.3A3.239 3.239 0 0 1 48-74.7a3.239 3.239 0 0 1 3.171-3.3 3.109 3.109 0 0 1 2.242.967 3.375 3.375 0 0 1 .928 2.333z" class="cls-9" data-name="Path 2943" transform="translate(-43.772 102.221)"/>
                <path id="Path_2944" fill="#ababb0" d="M44.8-120v.55a1.083 1.083 0 0 1-1.057 1.1H31.057a1.083 1.083 0 0 1-1.057-1.1v-.55z" data-name="Path 2944" transform="translate(-27.358 140.368)"/>
                <path id="Path_2945" d="M174-270h1.585v2.2H174z" class="cls-11" data-name="Path 2945" transform="translate(-158.675 276.606)"/>
                <path id="Path_2946" fill="#fff" d="M49.74-196.844v.55H36v-.55A7.017 7.017 0 0 1 42.87-204a7.017 7.017 0 0 1 6.87 7.156z" data-name="Path 2946" transform="translate(-32.829 216.661)"/>
                <path id="Path_2947" d="M36-270h1.585v2.2H36z" class="cls-11" data-name="Path 2947" transform="translate(-32.829 276.606)"/>
                <path id="Path_2948" d="M31.59-320.873l-2.114-2.752a.521.521 0 0 0-.412-.209h-1.189l-1.564-5.708a2.672 2.672 0 0 0-2.542-2h-3.688v-1.651a.54.54 0 0 0-.528-.55h-2.114v-1.1h.528a.54.54 0 0 0 .528-.55v-6.055a.54.54 0 0 0-.528-.55H2.114a.54.54 0 0 0-.528.55v6.055a.54.54 0 0 0 .528.55h.528v1.1H.528a.54.54 0 0 0-.528.55v17.065a.54.54 0 0 0 .528.55v2.2a.54.54 0 0 0 .528.55h3.008a3.679 3.679 0 0 0 3.334 2.2 3.679 3.679 0 0 0 3.334-2.2H21.5a3.679 3.679 0 0 0 3.334 2.2 3.679 3.679 0 0 0 3.334-2.2h1.95a.54.54 0 0 0 .528-.55v-2.2h.528a.54.54 0 0 0 .528-.55v-4.4a.552.552 0 0 0-.112-.345zm-11.51-9.567h3.688a1.605 1.605 0 0 1 1.527 1.2l1.48 5.406h-6.7zM2.642-340.9h14.8v4.954h-14.8zm13.74 6.055v1.1h-.528v-1.1zm-1.585 0v1.1H5.284v-1.1zm-10.569 0v1.1H3.7v-1.1zm-.486 20.918H1.585v-1.651h2.267a4.172 4.172 0 0 0-.153 1.1 3.787 3.787 0 0 0 .042.552zm3.657 2.2a2.643 2.643 0 0 1-2.441-1.7 2.837 2.837 0 0 1 .572-3 2.566 2.566 0 0 1 2.88-.6 2.756 2.756 0 0 1 1.631 2.543 2.7 2.7 0 0 1-2.641 2.76zm3.033-4.954A3.654 3.654 0 0 0 7.4-318.33a3.654 3.654 0 0 0-3.033 1.651h-3.31v-15.964h17.967v15.964zm10.749 2.752H11.055a3.788 3.788 0 0 0 .042-.551 4.172 4.172 0 0 0-.153-1.1h10.347a4.172 4.172 0 0 0-.153 1.1 3.787 3.787 0 0 0 .042.554zm3.657 2.2a2.643 2.643 0 0 1-2.441-1.7 2.837 2.837 0 0 1 .572-3 2.566 2.566 0 0 1 2.88-.6 2.756 2.756 0 0 1 1.631 2.543 2.7 2.7 0 0 1-2.643 2.762zm4.756-2.2h-1.1a3.787 3.787 0 0 0 .042-.551 4.172 4.172 0 0 0-.153-1.1h1.21zm1.057-2.752H27.87a3.654 3.654 0 0 0-3.033-1.651 3.654 3.654 0 0 0-3.033 1.651h-1.723v-6.055h8.73l1.839 2.395z" data-name="Path 2948" transform="translate(0 342)"/>
                <path id="Path_2949" d="M39.325-218.642a7.592 7.592 0 0 0-6.87-7.679v-.578h.528a.54.54 0 0 0 .528-.55.54.54 0 0 0-.528-.55H30.87a.54.54 0 0 0-.528.55.54.54 0 0 0 .528.55h.53v.578a7.592 7.592 0 0 0-6.87 7.679.54.54 0 0 0-.528.55v.55a1.624 1.624 0 0 0 1.585 1.651h12.681a1.624 1.624 0 0 0 1.585-1.651v-.55a.54.54 0 0 0-.528-.55zm-7.4-6.606a6.483 6.483 0 0 1 6.341 6.606H25.585a6.483 6.483 0 0 1 6.342-6.606zm6.341 8.257H25.585a.54.54 0 0 1-.528-.55H38.8a.54.54 0 0 1-.532.55z" data-name="Path 2949" transform="translate(-21.886 238.459)"/>
                <path id="Path_2950" d="M49.057-322.9v.55h.528v1.1h-.528v1.1H48v-3.3a.54.54 0 0 1 .528-.551h1.585v1.1z" data-name="Path 2950" transform="translate(-43.772 325.651)"/>
                <path id="Path_2951" d="M79.585-324h-.528A1.083 1.083 0 0 0 78-322.9v1.651a1.083 1.083 0 0 0 1.057 1.1h.528a1.083 1.083 0 0 0 1.057-1.1v-1.651a1.083 1.083 0 0 0-1.057-1.1zm0 2.752h-.528v-1.652h.528z" data-name="Path 2951" transform="translate(-71.13 325.651)"/>
                <path id="Path_2952" d="M115.585-324h-.528a1.083 1.083 0 0 0-1.057 1.1v1.651a1.083 1.083 0 0 0 1.057 1.1h.528a1.083 1.083 0 0 0 1.057-1.1v-1.651a1.083 1.083 0 0 0-1.057-1.1zm0 2.752h-.528v-1.652h.528z" data-name="Path 2952" transform="translate(-103.96 325.651)"/>
                <path id="Path_2953" d="M151.057-324h-.528a.54.54 0 0 0-.528.551v2.752a.54.54 0 0 0 .528.55h.528a1.624 1.624 0 0 0 1.585-1.651v-.55a1.624 1.624 0 0 0-1.585-1.652zm.528 2.2a.54.54 0 0 1-.528.55v-1.65a.54.54 0 0 1 .528.55z" data-name="Path 2953" transform="translate(-136.789 325.651)"/>
            </g>
        </g>
    </g>
</svg>
