<svg xmlns="http://www.w3.org/2000/svg" width="45" height="45" viewBox="0 0 45 45">
    <defs>
        <clipPath id="clip-path">
            <path id="Path_2728" fill="none" d="M0-319.321h28.679V-348H0z" clip-rule="evenodd" data-name="Path 2728" transform="translate(0 348)"/>
        </clipPath>
        <style>
            .cls-4{fill:#2e4053}.cls-5{fill:#f4cdaf}.cls-7{fill:#f1c194}.cls-10{fill:#254f79}
        </style>
    </defs>
    <g id="Group_329" data-name="Group 329" transform="translate(-322 -739)">
        <circle id="Ellipse_644" cx="22.5" cy="22.5" r="22.5" fill="#003b71" data-name="Ellipse 644" transform="translate(322 739)"/>
        <g id="Group_295" data-name="Group 295" transform="translate(329.66 1094.66)">
            <g id="Group_294" clip-path="url(#clip-path)" data-name="Group 294" transform="translate(0 -348)">
                <path id="Path_2709" d="M152.967-276l-1.483 1.978L150-276z" class="cls-4" data-name="Path 2709" transform="translate(-137.638 281.934)"/>
                <path id="Path_2710" d="M79.974-263.3v-.494l-1.535-4.222a7.347 7.347 0 0 1 1.261-7.217l.769-.923h.556A1.42 1.42 0 0 0 82.4-277.2a1.4 1.4 0 0 0 .05-.372v-2.364l2.967.147v3.639H86.9l-.381 1.335a5.686 5.686 0 0 0 .381 4.1 3.5 3.5 0 0 0-1.024 2.472 3.5 3.5 0 0 0 1.024 2.472l3.255 1.7z" class="cls-5" data-name="Path 2710" transform="translate(-71.568 285.547)"/>
                <path id="Path_2711" fill="#386694" d="M28.679-120.546a3.4 3.4 0 0 1-.994 2.4 3.4 3.4 0 0 1-2.4.994H7.07a16.15 16.15 0 0 1-5.105-.828 2.874 2.874 0 0 1-1.928-3.186 2.874 2.874 0 0 1 2.836-2.413h5.533v-.494h1.331a7.021 7.021 0 0 0 5.256-2.366 3.532 3.532 0 0 0 .336.388l8.39 4.395-.375-1.312-1.03-3.608 2.192-1.1 3.577 5.2a3.393 3.393 0 0 1 .596 1.93z" data-name="Path 2711" transform="translate(0 145.83)"/>
                <path id="Path_2712" d="M167.867-260.533a1.465 1.465 0 0 1-.445 1.06 1.5 1.5 0 0 1-1.039.425 1.471 1.471 0 0 1-.663-.159l-2.848-1.424-2.917-1.458-1.483.494-2.472-2.471 2.472-2.967 2.472.494 1.648 1.854 2.308 2.6-.943-3.456-.541-1.983-1.978-.494.989-1.978h.989l.989.494.494 1.978 1.912 3.187a7.4 7.4 0 0 1 1.056 3.804z" class="cls-5" data-name="Path 2712" transform="translate(-143.144 276.428)"/>
                <path id="Path_2713" d="M90.856-335.289v1.483l-.989 1.978-1.483-1.483-2.472-1.649-1.236-.824-3.709.989v4.45L78-324.905l.4-9.267a13.263 13.263 0 0 1 .831-4.079 1.977 1.977 0 0 1 2.317-1.229 2.019 2.019 0 0 1 .354.123l4.006 1.821z" class="cls-5" data-name="Path 2713" transform="translate(-71.572 340.234)"/>
                <path id="Path_2714" d="M113.439-336.916v2.577l-1.236-.824-3.709.989v1.976a2.455 2.455 0 0 1-.494-1.482v-2.472a3.973 3.973 0 0 1 .04-.566 3.924 3.924 0 0 1 1.038-2.142 2.02 2.02 0 0 1 .354.123z" class="cls-7" data-name="Path 2714" transform="translate(-99.099 339.612)"/>
                <path id="Path_2715" fill="#8acce7" d="M86.9-229.31a3.5 3.5 0 0 0-.336 4.556 7.021 7.021 0 0 1-5.256 2.366h-1.334l-1.535-4.222a7.347 7.347 0 0 1 1.261-7.217l.769-.923h.556a1.409 1.409 0 0 0 .433-.067v1.056a.986.986 0 0 0 .289.7.987.987 0 0 0 .7.289 2.968 2.968 0 0 0 2.374-1.187l.593-.791H86.9l-.381 1.335a5.686 5.686 0 0 0 .381 4.105z" data-name="Path 2715" transform="translate(-71.568 244.144)"/>
                <path id="Path_2716" fill="#252d42" d="M182.967-298.517a1.483 1.483 0 0 1-1.483 1.483 1.483 1.483 0 0 1-1.484-1.483 1.483 1.483 0 0 1 1.483-1.483 1.483 1.483 0 0 1 1.484 1.483z" data-name="Path 2716" transform="translate(-165.166 303.956)"/>
                <path id="Path_2717" d="M120.917-344.539a3.462 3.462 0 0 1-2.137 3.2 3.462 3.462 0 0 1-3.773-.75 3.461 3.461 0 0 1-.75-3.773 3.462 3.462 0 0 1 3.2-2.137 3.463 3.463 0 0 1 3.46 3.46z" class="cls-4" data-name="Path 2717" transform="translate(-104.6 348)"/>
                <path id="Path_2718" d="M57.945-59.257a1.6 1.6 0 0 1-.12.611h-1.48a.611.611 0 0 0 .595-.471.611.611 0 0 0-.321-.687l-4.345-2.173a1.946 1.946 0 0 0-.868-.205 1.918 1.918 0 0 0-1.194.41l-.2.154-3.461-.944a10.233 10.233 0 0 0-3.977-.283l-1.939.242-.122-.982 1.939-.242a11.239 11.239 0 0 1 4.36.31l3 .817a2.893 2.893 0 0 1 1.6-.472 2.944 2.944 0 0 1 1.311.31l4.344 2.172a1.59 1.59 0 0 1 .878 1.433z" class="cls-10" data-name="Path 2718" transform="translate(-37.177 87.325)"/>
                <path id="Path_2719" d="M239.878-209.863a1.5 1.5 0 0 1-1.039.425 1.471 1.471 0 0 1-.663-.159l-2.848-1.424a2.864 2.864 0 0 1-.089-.5l-.27-2.969a1.329 1.329 0 0 1 .08-.587l2.308 2.6-.943-3.456a1.336 1.336 0 0 1 1.118.831l1.747 4.368z" class="cls-7" data-name="Path 2719" transform="translate(-215.599 226.818)"/>
                <path id="Path_2720" d="M245.61-203.21l-2.192 1.1-.556-1.947a2.391 2.391 0 0 1-1.625-2.051l-.27-2.969a.838.838 0 0 1 .639-.889.837.837 0 0 1 .973.5l1.767 4.419z" class="cls-5" data-name="Path 2720" transform="translate(-221.105 221.368)"/>
                <path id="Path_2721" d="M151.912-39.977a.612.612 0 0 1-.611.611H144V-42.6l.989.269a1.939 1.939 0 0 1 2.24-.363l4.345 2.173a.611.611 0 0 1 .338.544z" class="cls-5" data-name="Path 2721" transform="translate(-132.133 68.045)"/>
                <path id="Path_2722" d="M134.408-279.791v2.65h-2.472a2.484 2.484 0 0 1-.545-.06 1.4 1.4 0 0 0 .05-.372v-2.364z" class="cls-7" data-name="Path 2722" transform="translate(-120.563 285.547)"/>
                <path id="Path_2723" d="M118.45-310.517v3.461h-2.472a1.978 1.978 0 0 1-1.978-1.977v-2.472a3.436 3.436 0 0 1 .035-.495h2.932a1.484 1.484 0 0 1 1.483 1.483z" class="cls-5" data-name="Path 2723" transform="translate(-104.605 314.967)"/>
                <path id="Path_2724" d="M120.989-299.506a.5.5 0 0 1-.494.494.5.5 0 0 1-.494-.494.5.5 0 0 1 .494-.494.5.5 0 0 1 .494.494z" class="cls-4" data-name="Path 2724" transform="translate(-110.111 303.956)"/>
                <path id="Path_2725" d="M138.989-299.506a.5.5 0 0 1-.494.494.5.5 0 0 1-.494-.494.5.5 0 0 1 .494-.494.5.5 0 0 1 .494.494z" class="cls-4" data-name="Path 2725" transform="translate(-126.627 303.956)"/>
                <path id="Path_2726" d="M168-305.011a.989.989 0 0 1 .989-.989.989.989 0 0 1 .989.989v.989a.989.989 0 0 1-.989.989H168z" class="cls-7" data-name="Path 2726" transform="translate(-154.155 309.461)"/>
                <path id="Path_2727" d="M286.082-69.117l-.459.876-1.994-1.045-.375-1.312z" class="cls-10" data-name="Path 2727" transform="translate(-259.91 93.459)"/>
            </g>
        </g>
    </g>
</svg>
