<svg xmlns="http://www.w3.org/2000/svg" width="45" height="45" viewBox="0 0 45 45">
    <defs>
        <style>
            .cls-2{fill:#fff}
        </style>
    </defs>
    <g id="Group_127" data-name="Group 127" transform="translate(-1459 -739)">
        <circle id="Ellipse_598" cx="22.5" cy="22.5" r="22.5" fill="#003b71" data-name="Ellipse 598" transform="translate(1459 739)"/>
        <g id="Group_309" data-name="Group 309" transform="translate(1464.587 1065.445)">
            <path id="Path_2921" d="M293.873-263.8h-5.667a.511.511 0 0 0-.511.511.511.511 0 0 0 .511.511h5.667a1.535 1.535 0 0 1 1.533 1.534v18.814a1.535 1.535 0 0 1-1.533 1.533h-5.667a.511.511 0 0 0-.511.511.511.511 0 0 0 .511.511h5.667a2.559 2.559 0 0 0 2.556-2.556v-18.814a2.559 2.559 0 0 0-2.556-2.555z" class="cls-2" data-name="Path 2921" transform="translate(-261.603 -49.23)"/>
            <path id="Path_2922" d="M24.558-290.133h-22a1.535 1.535 0 0 1-1.533-1.534v-18.813a1.535 1.535 0 0 1 1.533-1.534h22a.511.511 0 0 0 .511-.511.511.511 0 0 0-.511-.511H9.972l15.93-3.9a.511.511 0 0 0 .375-.618.511.511 0 0 0-.618-.375l-19.983 4.9h-3.12A2.558 2.558 0 0 0 0-310.48v18.813a2.559 2.559 0 0 0 2.556 2.556h22a.511.511 0 0 0 .511-.511.511.511 0 0 0-.509-.511z" class="cls-2" data-name="Path 2922"/>
            <path id="Path_2923" d="M33.322-217.429H56.2a.511.511 0 0 0 .511-.511v-17.928a.511.511 0 0 0-.511-.511H27.249a.511.511 0 0 0-.511.511v17.928a.511.511 0 0 0 .511.511h4.028a.511.511 0 0 0 .511-.511.511.511 0 0 0-.511-.511H27.76v-16.906h27.932v16.906h-22.37a.511.511 0 0 0-.511.511.511.511 0 0 0 .511.511z" class="cls-2" data-name="Path 2923" transform="translate(-24.313 -74.169)"/>
            <path id="Path_2924" d="M57.625-137.032a.511.511 0 0 0 .511.511H70.7a.511.511 0 0 0 .511-.511.511.511 0 0 0-.511-.511H58.136a.511.511 0 0 0-.511.511z" class="cls-2" data-name="Path 2924" transform="translate(-52.399 -164.041)"/>
            <path id="Path_2925" d="M61.8-160.763a.511.511 0 0 0 .511.511h11.8a.511.511 0 0 0 .511-.511.511.511 0 0 0-.511-.511h-11.8a.511.511 0 0 0-.511.511z" class="cls-2" data-name="Path 2925" transform="translate(-56.192 -142.462)"/>
            <path id="Path_2926" d="M76.449-184.493a.511.511 0 0 0 .511.511h9.14a.511.511 0 0 0 .511-.511.511.511 0 0 0-.511-.507h-9.14a.511.511 0 0 0-.511.507z" class="cls-2" data-name="Path 2926" transform="translate(-69.516 -120.885)"/>
            <path id="Path_2927" d="M62.308-112.791h11.8a.511.511 0 0 0 .511-.511.511.511 0 0 0-.511-.511h-11.8a.511.511 0 0 0-.511.511.511.511 0 0 0 .511.511z" class="cls-2" data-name="Path 2927" transform="translate(-56.192 -185.619)"/>
            <path id="Path_2928" d="M76.96-89.06h9.14a.511.511 0 0 0 .511-.511.511.511 0 0 0-.511-.511h-9.14a.511.511 0 0 0-.511.511.511.511 0 0 0 .511.511z" class="cls-2" data-name="Path 2928" transform="translate(-69.516 -207.198)"/>
            <path id="Path_2929" d="M110.447-205.763a.511.511 0 0 0 .511-.511.511.511 0 0 0-.511-.511H106.7a.511.511 0 0 0-.511.511.511.511 0 0 0 .511.511z" class="cls-2" data-name="Path 2929" transform="translate(-96.554 -101.079)"/>
            <path id="Path_2930" d="M106.7-68.3a.511.511 0 0 0-.511.511.511.511 0 0 0 .511.511h3.752a.511.511 0 0 0 .511-.511.511.511 0 0 0-.511-.511z" class="cls-2" data-name="Path 2930" transform="translate(-96.554 -227.003)"/>
            <path id="Path_2931" d="M235.972-206.785h-6.025a1.336 1.336 0 0 0-1.334 1.334v2.481a1.336 1.336 0 0 0 1.334 1.335h6.025a1.336 1.336 0 0 0 1.335-1.335v-2.481a1.336 1.336 0 0 0-1.335-1.334zm.312 3.816a.312.312 0 0 1-.312.312h-6.025a.312.312 0 0 1-.312-.312v-2.482a.312.312 0 0 1 .312-.312h6.025a.312.312 0 0 1 .312.312z" class="cls-2" data-name="Path 2931" transform="translate(-207.879 -101.079)"/>
            <path id="Path_2932" d="M229.124-124.185h1.4a.511.511 0 0 0 .511-.511.511.511 0 0 0-.511-.511h-1.4a.511.511 0 0 0-.511.511.511.511 0 0 0 .511.511z" class="cls-2" data-name="Path 2932" transform="translate(-207.879 -175.258)"/>
            <path id="Path_2933" d="M265.6-124.692a.511.511 0 0 0-.511-.511h-1.4a.511.511 0 0 0-.511.511.511.511 0 0 0 .511.511h1.4a.511.511 0 0 0 .511-.511z" class="cls-2" data-name="Path 2933" transform="translate(-239.311 -175.262)"/>
            <path id="Path_2934" d="M299.662-124.185a.511.511 0 0 0 .511-.511.511.511 0 0 0-.511-.511h-1.4a.511.511 0 0 0-.511.511.511.511 0 0 0 .511.511z" class="cls-2" data-name="Path 2934" transform="translate(-270.746 -175.258)"/>
            <path id="Path_2935" d="M230.541-95.68a1.929 1.929 0 0 0 1.927-1.927 1.93 1.93 0 0 0-1.927-1.927 1.93 1.93 0 0 0-1.928 1.927 1.929 1.929 0 0 0 1.928 1.927zm0-2.832a.906.906 0 0 1 .905.905.906.906 0 0 1-.905.905.906.906 0 0 1-.905-.905.906.906 0 0 1 .905-.906z" class="cls-2" data-name="Path 2935" transform="translate(-207.879 -198.602)"/>
            <path id="Path_2936" d="M284.06-95.68a1.929 1.929 0 0 0 1.928-1.927 1.93 1.93 0 0 0-1.928-1.927 1.93 1.93 0 0 0-1.927 1.927 1.929 1.929 0 0 0 1.927 1.927zm0-2.832a.906.906 0 0 1 .905.905.906.906 0 0 1-.905.905.906.906 0 0 1-.9-.905.906.906 0 0 1 .9-.906z" class="cls-2" data-name="Path 2936" transform="translate(-256.546 -198.602)"/>
        </g>
    </g>
</svg>
