<svg xmlns="http://www.w3.org/2000/svg" width="45" height="45" viewBox="0 0 45 45">
  <defs>
    <style>
      .cls-1 {
        fill: #003b71;
      }

      .cls-2 {
        fill: #fa4953;
      }

      .cls-3 {
        fill: #fa293b;
      }

      .cls-4 {
        fill: #c7edfa;
      }

      .cls-5 {
        fill: #97e3f9;
      }

      .cls-6 {
        fill: #c2242f;
      }

      .cls-7 {
        fill: #faa65c;
      }

      .cls-8 {
        fill: #e9b04d;
      }

      .cls-9 {
        fill: #fbedab;
      }
    </style>
  </defs>
  <g id="Group_219" data-name="Group 219" transform="translate(-416 -641)">
    <circle id="Ellipse_667" data-name="Ellipse 667" class="cls-1" cx="22.5" cy="22.5" r="22.5" transform="translate(416 641)"/>
    <g id="Group_243" data-name="Group 243" transform="translate(423.317 1031.843)">
      <path id="Path_2191" data-name="Path 2191" class="cls-2" d="M208.744-199.6h-5.166a1.223,1.223,0,0,1-1.2-1l-2.747-14.571h13.064L209.946-200.6A1.223,1.223,0,0,1,208.744-199.6Z" transform="translate(-183.716 -155.284)"/>
      <path id="Path_2192" data-name="Path 2192" class="cls-3" d="M287.422-215.172,284.676-200.6a1.223,1.223,0,0,1-1.2,1H285.9a1.223,1.223,0,0,0,1.2-1l2.747-14.571Z" transform="translate(-260.877 -155.284)"/>
      <path id="Path_2193" data-name="Path 2193" class="cls-4" d="M199.147-226.306H185.826a1.056,1.056,0,0,1-1.056-1.056,1.056,1.056,0,0,1,1.056-1.056h13.321a1.056,1.056,0,0,1,1.056,1.056A1.056,1.056,0,0,1,199.147-226.306Z" transform="translate(-170.042 -143.094)"/>
      <path id="Path_2194" data-name="Path 2194" class="cls-5" d="M337.865-228.418H336.56v1.056a1.056,1.056,0,0,1-1.056,1.056h2.361a1.056,1.056,0,0,0,1.056-1.056A1.056,1.056,0,0,0,337.865-228.418Z" transform="translate(-308.761 -143.094)"/>
      <path id="Path_2195" data-name="Path 2195" class="cls-3" d="M211.6-151.668l.706,3.748h9.742l.706-3.748Z" transform="translate(-194.735 -213.726)"/>
      <path id="Path_2196" data-name="Path 2196" class="cls-6" d="M312.18-147.92h2.431l.706-3.748h-2.431Z" transform="translate(-287.296 -213.726)"/>
      <path id="Path_2197" data-name="Path 2197" class="cls-2" d="M29.6-199.6H24.433a1.223,1.223,0,0,1-1.2-1l-2.747-14.571H33.548L30.8-200.6A1.223,1.223,0,0,1,29.6-199.6Z" transform="translate(-18.851 -155.284)"/>
      <path id="Path_2198" data-name="Path 2198" class="cls-3" d="M75.665-200.6l2.747-14.571H69.234L71.981-200.6a1.223,1.223,0,0,0,1.2,1h1.28A1.223,1.223,0,0,0,75.665-200.6Z" transform="translate(-63.715 -155.284)"/>
      <path id="Path_2199" data-name="Path 2199" class="cls-4" d="M20-226.306H6.681a1.056,1.056,0,0,1-1.056-1.056,1.056,1.056,0,0,1,1.056-1.056H20a1.056,1.056,0,0,1,1.056,1.056A1.056,1.056,0,0,1,20-226.306Z" transform="translate(-5.177 -143.094)"/>
      <path id="Path_2200" data-name="Path 2200" class="cls-5" d="M76.983-227.362a1.056,1.056,0,0,0-1.056-1.056H66.395l.226,1.056.2,1.056h9.107A1.056,1.056,0,0,0,76.983-227.362Z" transform="translate(-61.103 -143.094)"/>
      <path id="Path_2201" data-name="Path 2201" class="cls-3" d="M43.612-151.668H32.457l.706,3.747h9.742Z" transform="translate(-29.87 -213.726)"/>
      <path id="Path_2202" data-name="Path 2202" class="cls-6" d="M87.77-147.92l.706-3.748H81.207l.706,3.748Z" transform="translate(-74.734 -213.726)"/>
      <path id="Path_2203" data-name="Path 2203" class="cls-2" d="M107.73-213.592h-5.977a1.415,1.415,0,0,1-1.391-1.154L97.184-231.6H112.3l-3.178,16.86A1.416,1.416,0,0,1,107.73-213.592Z" transform="translate(-89.437 -140.161)"/>
      <path id="Path_2204" data-name="Path 2204" class="cls-3" d="M203.561-231.6l-3.178,16.86a1.416,1.416,0,0,1-1.391,1.153h2.431a1.416,1.416,0,0,0,1.391-1.153l3.178-16.86Z" transform="translate(-183.13 -140.161)"/>
      <path id="Path_2205" data-name="Path 2205" class="cls-4" d="M96.623-244.489H81.21a1.222,1.222,0,0,1-1.222-1.222,1.222,1.222,0,0,1,1.222-1.222H96.623a1.222,1.222,0,0,1,1.222,1.222A1.222,1.222,0,0,1,96.623-244.489Z" transform="translate(-73.612 -126.055)"/>
      <path id="Path_2206" data-name="Path 2206" class="cls-5" d="M261.247-246.933h-1.155v1.222a1.222,1.222,0,0,1-1.222,1.222h2.376a1.222,1.222,0,0,0,1.222-1.222A1.222,1.222,0,0,0,261.247-246.933Z" transform="translate(-238.236 -126.055)"/>
      <path id="Path_2207" data-name="Path 2207" class="cls-3" d="M121.8-171.625H108.492l1.223,6.489h10.867Z" transform="translate(-99.844 -195.36)"/>
      <path id="Path_2208" data-name="Path 2208" class="cls-6" d="M229.664-165.136H232.1l1.223-6.489h-2.431Z" transform="translate(-211.357 -195.36)"/>
      <path id="Path_2209" data-name="Path 2209" class="cls-7" d="M156.7-374.933a3.348,3.348,0,0,1-3.348,3.348A3.348,3.348,0,0,1,150-374.933a3.348,3.348,0,0,1,3.348-3.348A3.348,3.348,0,0,1,156.7-374.933Z" transform="translate(-138.043 -5.177)"/>
      <path id="Path_2210" data-name="Path 2210" class="cls-8" d="M178.2-378.281a3.34,3.34,0,0,0-1.2.22,3.349,3.349,0,0,1,2.152,3.128A3.349,3.349,0,0,1,177-371.805a3.342,3.342,0,0,0,1.2.22,3.348,3.348,0,0,0,3.348-3.348A3.348,3.348,0,0,0,178.2-378.281Z" transform="translate(-162.891 -5.177)"/>
      <path id="Path_2211" data-name="Path 2211" class="cls-9" d="M247.3-300.547a4.257,4.257,0,0,0-2.371.54.33.33,0,0,1-.42-.49,6.47,6.47,0,0,1,2.134-1.992,1.129,1.129,0,0,1,1.5.529A.979.979,0,0,1,247.3-300.547Z" transform="translate(-224.952 -74.836)"/>
      <path id="Path_2212" data-name="Path 2212" class="cls-9" d="M92.956-300.547a4.257,4.257,0,0,1,2.371.54.33.33,0,0,0,.42-.49,6.47,6.47,0,0,0-2.134-1.992,1.129,1.129,0,0,0-1.5.529A.979.979,0,0,0,92.956-300.547Z" transform="translate(-84.692 -74.836)"/>
      <path id="Path_2213" data-name="Path 2213" d="M30.609-249.578a1.506,1.506,0,0,0-1.5-1.5H24.669a1.672,1.672,0,0,0-1.658-1.476H7.6a1.672,1.672,0,0,0-1.658,1.476H1.5a1.506,1.506,0,0,0-1.5,1.5,1.506,1.506,0,0,0,1.46,1.5l2.479,13.151a1.673,1.673,0,0,0,1.643,1.362H10.6a1.866,1.866,0,0,0,1.716,1.136h5.977a1.866,1.866,0,0,0,1.716-1.136h5.018a1.673,1.673,0,0,0,1.643-1.362l.221-1.172a.448.448,0,0,0-.357-.524.449.449,0,0,0-.524.357l-.221,1.173a.775.775,0,0,1-.762.631H20.222l1.1-5.861h5.448l-.376,2a.448.448,0,0,0,.357.524.449.449,0,0,0,.524-.358l1.87-9.917A1.506,1.506,0,0,0,30.609-249.578ZM7.6-251.661H23.011a.775.775,0,0,1,.773.773.774.774,0,0,1-.773.773H7.6a.774.774,0,0,1-.773-.773A.775.775,0,0,1,7.6-251.661Zm20.052,6.7H22.2l.586-3.109h5.448Zm-6.061-1.591h-8.95a.448.448,0,0,0-.448.448.448.448,0,0,0,.448.448H21.42l-1.054,5.592H10.243l-1.054-5.592h1.354a.448.448,0,0,0,.448-.448.448.448,0,0,0-.448-.448H9.02l-.5-2.663H22.091ZM8.407-244.964H2.959l-.586-3.109H7.821Zm-5.279.9H8.576l.537,2.851H3.665ZM.9-249.578a.608.608,0,0,1,.607-.607H6.083a1.672,1.672,0,0,0,1.515.968h.007l.047.247H1.5A.608.608,0,0,1,.9-249.578ZM4.82-235.091l-.986-5.229H9.283l1.1,5.861H5.582A.776.776,0,0,1,4.82-235.091Zm13.473,1.767H12.316a.968.968,0,0,1-.951-.788l-.953-5.058H20.2l-.953,5.058A.968.968,0,0,1,18.293-233.323Zm3.2-7.893.537-2.851h5.448l-.537,2.851ZM29.1-248.97H22.957l.047-.247h.007a1.673,1.673,0,0,0,1.515-.968H29.1a.608.608,0,0,1,.607.607A.608.608,0,0,1,29.1-248.97Z" transform="translate(0 -120.878)"/>
      <path id="Path_2214" data-name="Path 2214" d="M148.171-376.314a3.8,3.8,0,0,0,3.8-3.8,3.8,3.8,0,0,0-3.8-3.8,3.8,3.8,0,0,0-3.8,3.8A3.8,3.8,0,0,0,148.171-376.314Zm0-6.7a2.9,2.9,0,0,1,2.9,2.9,2.9,2.9,0,0,1-2.9,2.9,2.9,2.9,0,0,1-2.9-2.9A2.9,2.9,0,0,1,148.171-383.009Z" transform="translate(-132.867)"/>
      <path id="Path_2215" data-name="Path 2215" d="M239.01-304.974a.772.772,0,0,0,.962.177,3.8,3.8,0,0,1,2.123-.487,1.424,1.424,0,0,0,1.3-2.027,1.574,1.574,0,0,0-2.093-.775,6.588,6.588,0,0,0-2.316,2.133A.772.772,0,0,0,239.01-304.974Zm2.638-2.286a.689.689,0,0,1,.91.283c.166.415-.094.823-.394.8a4.55,4.55,0,0,0-2.15.366A5.04,5.04,0,0,1,241.649-307.26Z" transform="translate(-219.785 -69.652)"/>
      <path id="Path_2216" data-name="Path 2216" d="M87.826-305.279a3.8,3.8,0,0,1,2.123.487.773.773,0,0,0,.962-.177.772.772,0,0,0,.027-.978,6.591,6.591,0,0,0-2.316-2.133,1.574,1.574,0,0,0-2.092.775,1.563,1.563,0,0,0,.175,1.5A1.251,1.251,0,0,0,87.826-305.279Zm-.464-1.694a.69.69,0,0,1,.91-.283,5.038,5.038,0,0,1,1.634,1.448,4.6,4.6,0,0,0-1.81-.379c-.352,0-.5.076-.669-.154A.658.658,0,0,1,87.362-306.972Z" transform="translate(-79.527 -69.657)"/>
    </g>
  </g>
</svg>
