<svg xmlns="http://www.w3.org/2000/svg" width="45" height="45" viewBox="0 0 45 45">
    <defs>
        <style>
            .cls-3{fill:#6f4b54}.cls-5{fill:#59334a}
        </style>
    </defs>
    <g id="Group_81" data-name="Group 81" transform="translate(-322 -837)">
        <circle id="Ellipse_645" cx="22.5" cy="22.5" r="22.5" fill="#003b71" data-name="Ellipse 645" transform="translate(322 837)"/>
        <g id="Group_317" data-name="Group 317" transform="translate(331.506 1197.471)">
            <path id="Path_3037" fill="#ecf9ff" d="M0-350.718l1.548 2.945c.014.028 1.416 2.728 4.038 2.728a12.37 12.37 0 0 0 1.9-.079l3.637.818v4H8.75a13.788 13.788 0 0 1-6.15-2.152 6.028 6.028 0 0 1-2.6-4.959z" data-name="Path 3037"/>
            <path id="Path_3038" d="M23.25-198.547a3.972 3.972 0 0 1 .058-.676 3.943 3.943 0 0 1 3.9-3.277h3.953v.791a3.959 3.959 0 0 1-3.953 3.953H23.25z" class="cls-3" data-name="Path 3038" transform="translate(-21.616 -137.801)"/>
            <path id="Path_3039" fill="#bfe1f0" d="M236.871-350.718l-1.5 2.945c-.014.028-1.469 2.728-4.091 2.728a12.37 12.37 0 0 1-1.9-.079l-3.637.818v4h2.372a13.788 13.788 0 0 0 6.145-2.157 6.028 6.028 0 0 0 2.6-4.959z" data-name="Path 3039" transform="translate(-209.884)"/>
            <path id="Path_3040" d="M256.156-197.756H252.2a3.959 3.959 0 0 1-3.953-3.953v-.791h3.953a3.943 3.943 0 0 1 3.9 3.277 3.973 3.973 0 0 1 .058.676z" class="cls-5" data-name="Path 3040" transform="translate(-230.803 -137.801)"/>
            <path id="Path_3041" fill="#9a786f" d="M110.4-274.206l-.589-1.163a3.811 3.811 0 0 1 0-4.3l.61-.87-1.227-.4a4.5 4.5 0 0 0-1.619-.317 4.737 4.737 0 0 0-1.983.475 2.983 2.983 0 0 1-1.18.264 2.984 2.984 0 0 1-1.18-.264 4.737 4.737 0 0 0-1.983-.475 4.5 4.5 0 0 0-1.619.317l-1.227.4.61.87a3.811 3.811 0 0 1 0 4.3l-.589 1.163a5.967 5.967 0 0 0 2.035 7.662l3.953-.02 3.953.02a5.967 5.967 0 0 0 2.035-7.662z" data-name="Path 3041" transform="translate(-90.92 -64.586)"/>
            <path id="Path_3042" d="M197.988-274.206l-.589-1.163a3.811 3.811 0 0 1 0-4.3l.61-.87-1.227-.4a4.5 4.5 0 0 0-1.619-.317 4.737 4.737 0 0 0-1.983.475 2.983 2.983 0 0 1-1.18.264v13.947l3.953.02a5.967 5.967 0 0 0 2.035-7.656z" class="cls-3" data-name="Path 3042" transform="translate(-178.506 -64.586)"/>
            <path id="Path_3043" fill="#ffe6cc" d="M139.7-90a6.056 6.056 0 0 0-3.953 1.265v2.688a2.375 2.375 0 0 0 2.372 2.372h3.163a2.375 2.375 0 0 0 2.372-2.372v-2.688A6.056 6.056 0 0 0 139.7-90z" data-name="Path 3043" transform="translate(-126.21 -242.395)"/>
            <path id="Path_3044" fill="#fc9" d="M195.953-86.047v-2.688A6.056 6.056 0 0 0 192-90v6.325h1.581a2.375 2.375 0 0 0 2.372-2.372z" data-name="Path 3044" transform="translate(-178.506 -242.395)"/>
            <path id="Path_3045" d="M139.008-175.589l1.118-1.118 1.581 1.581-1.118 1.118z" class="cls-3" data-name="Path 3045" transform="translate(-129.239 -161.782)"/>
            <path id="Path_3046" d="M206.5-175.118l1.581-1.581 1.118 1.118-1.577 1.581z" class="cls-5" data-name="Path 3046" transform="translate(-191.991 -161.789)"/>
        </g>
    </g>
</svg>
