<svg xmlns="http://www.w3.org/2000/svg" width="45" height="45" viewBox="0 0 45 45">
    <defs>
        <style>
            .cls-3{fill:#d94a53}.cls-4{fill:#c2242f}.cls-5{fill:#f1d333}.cls-6{fill:#e7a52e}
        </style>
    </defs>
    <g id="Group_76" data-name="Group 76" transform="translate(-511 -837)">
        <circle id="Ellipse_624" cx="22.5" cy="22.5" r="22.5" fill="#003b71" data-name="Ellipse 624" transform="translate(511 837)"/>
        <g id="Group_319" data-name="Group 319" transform="translate(518.481 1228.482)">
            <path id="Path_3061" fill="#746e78" d="M43.125-349.988h22.516v23.725H43.125z" data-name="Path 3061" transform="translate(-39.864 -31.44)"/>
            <path id="Path_3062" d="M12.462-354.055H5.625v-24.32l2.158.515 6.837 1.632a21.811 21.811 0 0 1 .338 3.59c.054 3.51-.674 8.622-4.994 10.712v2.217c1.395 1.19 2.13 3.359 2.498 5.654z" class="cls-3" data-name="Path 3062" transform="translate(-5.2 -5.2)"/>
            <path id="Path_3063" d="M6.693-360.818a8.594 8.594 0 0 1 .749 6.763H5.625v-24.32l2.158.515.678 1.928s2.75 10.596-1.768 15.114z" class="cls-4" data-name="Path 3063" transform="translate(-5.2 -5.2)"/>
            <path id="Path_3064" d="M5.625-160.859h4.338v2.217H5.625z" class="cls-5" data-name="Path 3064" transform="translate(-5.2 -206.267)"/>
            <path id="Path_3065" d="M5.625-160.859h1.127v2.217H5.625z" class="cls-6" data-name="Path 3065" transform="translate(-5.2 -206.267)"/>
            <path id="Path_3066" d="M264.26-378.375v24.32h-6.837c.369-2.3 1.1-4.464 2.5-5.654v-2.217c-4.32-2.09-5.049-7.2-4.994-10.712a23.141 23.141 0 0 1 .276-3.234c.037-.229.062-.356.062-.356z" class="cls-3" data-name="Path 3066" transform="translate(-235.648 -5.2)"/>
            <path id="Path_3067" d="M261.424-330.23a15.275 15.275 0 0 0-2.241 6.763h-1.761c.369-2.3 1.1-4.464 2.5-5.654v-2.217c-4.32-2.09-5.049-7.2-4.994-10.712a23.141 23.141 0 0 1 .276-3.234l2.22 1.79s-.824 9.68 4 13.264z" class="cls-4" data-name="Path 3067" transform="translate(-235.648 -35.788)"/>
            <path id="Path_3068" d="M5.625-56.77h28.188v3.87H5.625z" class="cls-5" data-name="Path 3068" transform="translate(-5.2 -302.485)"/>
            <path id="Path_3069" d="M14.62-376.228a21.811 21.811 0 0 1 .338 3.59 25.236 25.236 0 0 1-9.333-3.841v-1.895z" class="cls-4" data-name="Path 3069" transform="translate(-5.2 -5.2)"/>
            <path id="Path_3070" d="M264.294-378.375v1.895a25.236 25.236 0 0 1-9.333 3.841 21.8 21.8 0 0 1 .338-3.59z" class="cls-4" data-name="Path 3070" transform="translate(-235.681 -5.2)"/>
            <path id="Path_3071" d="M5.625-378.375a25.281 25.281 0 0 0 28.187 0" class="cls-3" data-name="Path 3071" transform="translate(-5.2 -5.2)"/>
            <path id="Path_3072" d="M19.718-374.082a25.253 25.253 0 0 1-14.092-4.293h8.012c1.838 2.862 3.962 4.293 6.08 4.293z" class="cls-4" data-name="Path 3072" transform="translate(-5.2 -5.2)"/>
            <path id="Path_3073" d="M321.008-160.859h4.338v2.217h-4.338z" class="cls-5" data-name="Path 3073" transform="translate(-296.733 -206.267)"/>
            <path id="Path_3074" d="M321.008-160.859h1.126v2.217h-1.126z" class="cls-6" data-name="Path 3074" transform="translate(-296.733 -206.267)"/>
            <path id="Path_3075" fill="#dee9ef" d="M178.9-179.918a1.072 1.072 0 0 0-1.072 1.072v.96a1.072 1.072 0 0 0 1.072 1.072 1.072 1.072 0 0 0 1.072-1.072v-.96a1.072 1.072 0 0 0-1.072-1.072z" data-name="Path 3075" transform="translate(-164.377 -188.65)"/>
            <path id="Path_3076" d="M321.655-381a.425.425 0 0 0 .171-.036 25.8 25.8 0 0 0 3.962-2.181.426.426 0 0 0 .116-.591.425.425 0 0 0-.59-.116 24.932 24.932 0 0 1-3.83 2.109.425.425 0 0 0-.218.561.426.426 0 0 0 .389.254z" data-name="Path 3076" transform="translate(-296.938)"/>
            <path id="Path_3077" d="M28.613-366.7a.426.426 0 0 0 .425-.425.425.425 0 0 0-.425-.425h-.776a15.133 15.133 0 0 1-.968-4.785.425.425 0 0 0-.425-.425.425.425 0 0 0-.425.425 15.474 15.474 0 0 0 .913 4.785h-.319a11.189 11.189 0 0 1-3.162-7.779.425.425 0 0 0-.425-.425.426.426 0 0 0-.425.425 12.063 12.063 0 0 0 1.771 6.278 11.955 11.955 0 0 0 1.082 1.5h-1.079a8.221 8.221 0 0 1-4.2-5.735 19.318 19.318 0 0 1-.392-6.118 25.52 25.52 0 0 0 3.5-.992.426.426 0 0 0 .255-.545.425.425 0 0 0-.538-.259 24.989 24.989 0 0 1-11.416 1.315 24.961 24.961 0 0 1-10.921-4.043.425.425 0 0 0-.59.116.426.426 0 0 0 .116.591 25.837 25.837 0 0 0 9.067 3.82 19.319 19.319 0 0 1-.393 6.115 8.221 8.221 0 0 1-4.2 5.735H3.585a11.932 11.932 0 0 0 1.082-1.5 12.063 12.063 0 0 0 1.771-6.278.426.426 0 0 0-.425-.425.425.425 0 0 0-.425.425 11.209 11.209 0 0 1-1.63 5.807 10.312 10.312 0 0 1-1.532 1.972h-.319a15.474 15.474 0 0 0 .913-4.785.425.425 0 0 0-.425-.425.425.425 0 0 0-.425.425 15.141 15.141 0 0 1-.968 4.785H.425a.425.425 0 0 0-.425.425.426.426 0 0 0 .425.425h3.913v1.366H.425a.425.425 0 0 0-.425.425.425.425 0 0 0 .425.425h2.1a4.648 4.648 0 0 1 .812 3.393.426.426 0 0 0 .359.483.444.444 0 0 0 .062 0 .426.426 0 0 0 .42-.364 5.678 5.678 0 0 0-.639-3.517H4.6a8.589 8.589 0 0 1 2.155 4.8H.425a.425.425 0 0 0-.425.425v3.867a.426.426 0 0 0 .425.425h28.188a.426.426 0 0 0 .425-.425v-3.867a.425.425 0 0 0-.425-.425h-6.332a8.59 8.59 0 0 1 2.155-4.8H25.5a5.334 5.334 0 0 0-.4.925 5.7 5.7 0 0 0-.232 2.591.426.426 0 0 0 .42.364.4.4 0 0 0 .062 0 .426.426 0 0 0 .359-.483 4.651 4.651 0 0 1 .812-3.393h2.1a.425.425 0 0 0 .425-.425.425.425 0 0 0-.425-.425H24.7v-1.365zm-7.2 7.021h-6.469v-5.42a1.5 1.5 0 0 0 1.072-1.435v-.96a1.5 1.5 0 0 0-1.5-1.5 1.5 1.5 0 0 0-1.5 1.5v.96a1.5 1.5 0 0 0 1.072 1.435v5.42h-3.042a.425.425 0 0 0-.425.425.425.425 0 0 0 .425.425h17.141v3.017H.851v-3.017h8.495a.425.425 0 0 0 .425-.425.425.425 0 0 0-.425-.425H7.621a9.554 9.554 0 0 0-2.432-5.421v-1.766a9.07 9.07 0 0 0 4.5-6.216 19.956 19.956 0 0 0 .433-6.155q.677.118 1.359.2a25.575 25.575 0 0 0 3.018.178 25.952 25.952 0 0 0 4.419-.38 19.971 19.971 0 0 0 .433 6.157 9.071 9.071 0 0 0 4.5 6.216v1.766a9.554 9.554 0 0 0-2.434 5.42zm-6.9-6.209a.647.647 0 0 1-.647-.647v-.96a.647.647 0 0 1 .647-.647.647.647 0 0 1 .647.647v.96a.647.647 0 0 1-.641.646z" data-name="Path 3077"/>
        </g>
    </g>
</svg>
