<svg xmlns="http://www.w3.org/2000/svg" width="45" height="45" viewBox="0 0 45 45">
  <defs>
    <style>
      .cls-1 {
        fill: #003b71;
      }

      .cls-2 {
        fill: #f7f1f0;
      }

      .cls-2, .cls-3, .cls-4, .cls-5, .cls-6, .cls-7, .cls-8 {
        fill-rule: evenodd;
      }

      .cls-3 {
        fill: #fa2938;
      }

      .cls-4 {
        fill: #e31d2a;
      }

      .cls-5 {
        fill: #ede1db;
      }

      .cls-6 {
        fill: #7ca2b0;
      }

      .cls-7 {
        fill: #3c5858;
      }

      .cls-8 {
        fill: #668c97;
      }
    </style>
  </defs>
  <g id="Group_210" data-name="Group 210" transform="translate(-795 -641)">
    <circle id="Ellipse_666" data-name="Ellipse 666" class="cls-1" cx="22.5" cy="22.5" r="22.5" transform="translate(795 641)"/>
    <g id="Group_247" data-name="Group 247" transform="translate(802.5 1030.497)">
      <path id="Path_2358" data-name="Path 2358" class="cls-2" d="M8.489-236.956c-3.035,4.381-3.358,8.626-2.327,13.19l2.327.875,2.267-.875c1.408-4.107,3.093-8.009,1.742-13.19l-1.971-1.153Z" transform="translate(-5.149 -133.351)"/>
      <path id="Path_2359" data-name="Path 2359" class="cls-3" d="M11.793-71.242c.124.548.269,1.1.429,1.663.172.594.411.945.832.945h4.639c-.45,0-.706-.375-.888-1.011q-.233-.806-.419-1.6Z" transform="translate(-10.779 -285.875)"/>
      <path id="Path_2360" data-name="Path 2360" class="cls-4" d="M44.715-71.242q.186.792.419,1.6c.183.632.435,1,.881,1.011h1.771c-.45,0-.706-.375-.888-1.011q-.233-.806-.419-1.6Z" transform="translate(-40.871 -285.875)"/>
      <path id="Path_2361" data-name="Path 2361" class="cls-2" d="M145.007-347.963l2.226.939,2.649-.939c.029-.188.029-.413.06-.619.289-1.866,1.245-3.609.757-5.417a3.526,3.526,0,0,0-3.4-2.6,3.523,3.523,0,0,0-1.482.325C144.667-354.025,142.018-350.635,145.007-347.963Z" transform="translate(-131.287 -25.043)"/>
      <path id="Path_2362" data-name="Path 2362" class="cls-3" d="M128.134-270a2.608,2.608,0,0,0,.455,1.638h2.676a2.594,2.594,0,0,1-.457-1.638,9.419,9.419,0,0,1,.141-1.278h-2.675A9.453,9.453,0,0,0,128.134-270Z" transform="translate(-117.12 -103.034)"/>
      <path id="Path_2363" data-name="Path 2363" class="cls-2" d="M30.972-354c-.488,1.807.468,3.551.757,5.417.031.207.064.4.093.592l2.411,1.546,2.462-1.546c1.921-3.1,1.231-6.824-.837-8.286a3.524,3.524,0,0,0-1.482-.325A3.526,3.526,0,0,0,30.972-354Z" transform="translate(-28.185 -25.043)"/>
      <path id="Path_2364" data-name="Path 2364" class="cls-5" d="M64.73-356.143c-.521,2.014.5,3.96.808,6.04.035.232.069.452.1.66a10.225,10.225,0,0,1,.141,1.334c0,.038,0,.079,0,.119h1.762a9.741,9.741,0,0,0-.141-1.278c-.031-.2-.066-.411-.1-.634-.307-1.994-1.329-3.858-.808-5.788a3.8,3.8,0,0,1,.212-.587,3.524,3.524,0,0,0-1.483-.325q-.178,0-.351.017A3.709,3.709,0,0,0,64.73-356.143Z" transform="translate(-59.034 -25.043)"/>
      <path id="Path_2365" data-name="Path 2365" class="cls-5" d="M40-224.691c-2.585,4.3-2.8,8.509-1.782,13.009l.04.181h1.764c-.013-.06-.028-.121-.04-.181-1.018-4.5-.8-8.709,1.782-13.009Z" transform="translate(-34.413 -145.616)"/>
      <path id="Path_2366" data-name="Path 2366" class="cls-5" d="M177.8-354c.488,1.807-.468,3.551-.757,5.417-.031.207-.064.4-.093.592h1.877c.029-.188.062-.386.093-.592.289-1.866,1.245-3.609.757-5.417a3.526,3.526,0,0,0-3.4-2.6,3.521,3.521,0,0,0-.938.126A3.528,3.528,0,0,1,177.8-354Z" transform="translate(-160.265 -25.043)"/>
      <path id="Path_2367" data-name="Path 2367" class="cls-3" d="M154.92-253.687l1.48.42,2.528-.42a3.417,3.417,0,0,1-.3-2.727h-4.874C152.841-255.193,153.1-254.674,154.92-253.687Z" transform="translate(-140.07 -116.619)"/>
      <path id="Path_2368" data-name="Path 2368" class="cls-4" d="M192.7-256.414a3.416,3.416,0,0,0,.3,2.727h1.877a3.417,3.417,0,0,1-.3-2.727Z" transform="translate(-176.02 -116.619)"/>
      <path id="Path_2369" data-name="Path 2369" class="cls-3" d="M64.81-91.334q.186.792.419,1.6c.183.636.439,1.011.888,1.011h8.167a4.935,4.935,0,0,0,0-2.058c-.254-.457-1.585-.731-1.585-.731l-3.752-1.708L64.77-91.515C64.783-91.454,64.8-91.394,64.81-91.334Z" transform="translate(-59.203 -265.783)"/>
      <path id="Path_2370" data-name="Path 2370" class="cls-2" d="M60.521-365.165c-2.585,4.3-2.8,8.509-1.782,13.009h7.93c3.055-.415,2.919-8.271,2.919-9.633a7.874,7.874,0,0,0-1.566-3.375,9.345,9.345,0,0,1-.7-1.089,2.594,2.594,0,0,1-.457-1.638A9.416,9.416,0,0,1,67-369.169c.031-.2.066-.411.1-.634.307-1.994,1.329-3.858.808-5.788a3.776,3.776,0,0,0-.212-.587,3.769,3.769,0,0,0-3.427-2.2,3.768,3.768,0,0,0-3.426,2.2,3.768,3.768,0,0,0-.212.587c-.521,1.93.5,3.794.808,5.788.035.223.07.433.1.634a9.682,9.682,0,0,1,.141,1.278,2.6,2.6,0,0,1-.457,1.638Q60.846-365.709,60.521-365.165Z" transform="translate(-53.171 -5.142)"/>
      <path id="Path_2371" data-name="Path 2371" class="cls-5" d="M115.879-375.592c.521,1.93-.5,3.794-.81,5.788-.033.223-.067.433-.1.634h2.675c.031-.2.066-.411.1-.634.307-1.994,1.329-3.858.808-5.788a3.776,3.776,0,0,0-.212-.587,3.769,3.769,0,0,0-3.427-2.2,3.769,3.769,0,0,0-1.336.243,3.784,3.784,0,0,1,2.089,1.954A3.776,3.776,0,0,1,115.879-375.592Z" transform="translate(-103.815 -5.142)"/>
      <path id="Path_2372" data-name="Path 2372" class="cls-2" d="M171.944-224.691c-.306,1.826.311,2.878,1.566,3.375a4.715,4.715,0,0,0,3.528-1.6,18.234,18.234,0,0,0-1.086-1.774Z" transform="translate(-157.094 -145.616)"/>
      <path id="Path_2373" data-name="Path 2373" class="cls-5" d="M197.563-224.691c.411.594.771,1.8,1.087,2.385a8.546,8.546,0,0,1,1.876-.61,18.234,18.234,0,0,0-1.086-1.774Z" transform="translate(-180.582 -145.616)"/>
      <path id="Path_2374" data-name="Path 2374" class="cls-4" d="M66.143-256.414a2.762,2.762,0,0,1-.457,1.59q-.378.57-.706,1.137h1.764q.326-.543.7-1.089a2.6,2.6,0,0,0,.457-1.638Z" transform="translate(-59.395 -116.619)"/>
      <path id="Path_2375" data-name="Path 2375" class="cls-4" d="M126.543-71.941a8.653,8.653,0,0,0,.956,1.382h2.674a8.793,8.793,0,0,1-.956-1.382,8.739,8.739,0,0,1-.629-1.407h-2.674A8.589,8.589,0,0,0,126.543-71.941Z" transform="translate(-115.091 -283.95)"/>
      <path id="Path_2376" data-name="Path 2376" class="cls-3" d="M39.163-256.414a3.419,3.419,0,0,1-.3,2.727h4.654q.326-.543.7-1.089a2.607,2.607,0,0,0,.457-1.638Z" transform="translate(-35.526 -116.619)"/>
      <path id="Path_2377" data-name="Path 2377" class="cls-3" d="M94.007-271.277A9.682,9.682,0,0,1,94.148-270a2.6,2.6,0,0,1-.457,1.638h6.093A2.6,2.6,0,0,1,99.327-270a9.456,9.456,0,0,1,.141-1.278Z" transform="translate(-85.638 -103.034)"/>
      <path id="Path_2378" data-name="Path 2378" class="cls-4" d="M128.134-270a2.608,2.608,0,0,0,.455,1.638h2.676a2.594,2.594,0,0,1-.457-1.638,9.419,9.419,0,0,1,.141-1.278h-2.675A9.453,9.453,0,0,0,128.134-270Z" transform="translate(-117.12 -103.034)"/>
      <path id="Path_2379" data-name="Path 2379" class="cls-5" d="M122.327-236.274a16.838,16.838,0,0,1,1.567,3.375,8.618,8.618,0,0,0-2.919,9.633h2.674a8.618,8.618,0,0,1,2.919-9.633A16.859,16.859,0,0,0,125-236.274q-.326-.543-.7-1.089h-2.676Q122-236.818,122.327-236.274Z" transform="translate(-110.151 -134.033)"/>
      <path id="Path_2380" data-name="Path 2380" class="cls-6" d="M153.673-191.826a8.632,8.632,0,0,0,6.568,3.036h.013a8.593,8.593,0,0,0,4.184-1.095,8.61,8.61,0,0,0,3.323-11.716,8.618,8.618,0,0,0-9.226-4.247,8.6,8.6,0,0,0-2.5.925,8.573,8.573,0,0,0-1.033.676,8.619,8.619,0,0,0-2.919,9.633,8.739,8.739,0,0,0,.629,1.407A8.793,8.793,0,0,0,153.673-191.826Z" transform="translate(-138.591 -162.683)"/>
      <path id="Path_2381" data-name="Path 2381" class="cls-7" d="M211.2-167.559a1.076,1.076,0,0,0,.415-1.464,1.077,1.077,0,0,0-1.464-.415,1.075,1.075,0,0,0-.415,1.464A1.075,1.075,0,0,0,211.2-167.559Z" transform="translate(-191.582 -195.995)"/>
      <path id="Path_2382" data-name="Path 2382" class="cls-7" d="M190.6-118.207a1.077,1.077,0,0,0,1.464.415,1.075,1.075,0,0,0,.415-1.464,1.074,1.074,0,0,0-1.464-.415A1.076,1.076,0,0,0,190.6-118.207Z" transform="translate(-174.095 -241.483)"/>
      <path id="Path_2383" data-name="Path 2383" class="cls-7" d="M262.146-158.137a1.076,1.076,0,0,0,1.464.415,1.075,1.075,0,0,0,.415-1.464,1.075,1.075,0,0,0-1.464-.415A1.076,1.076,0,0,0,262.146-158.137Z" transform="translate(-239.488 -204.986)"/>
      <path id="Path_2384" data-name="Path 2384" class="cls-8" d="M225.848-205.961a8.588,8.588,0,0,1,5.051,4.052,8.61,8.61,0,0,1-3.323,11.718,8.569,8.569,0,0,1-4.184,1.093h-.013c-.092,0-.185,0-.276,0a8.69,8.69,0,0,0,2.473.364h.013a8.593,8.593,0,0,0,4.184-1.095,8.61,8.61,0,0,0,3.323-11.716A8.607,8.607,0,0,0,225.848-205.961Z" transform="translate(-203.925 -162.736)"/>
      <path id="Path_2385" data-name="Path 2385" d="M29.592-364.521a.483.483,0,0,0-.658-.187.484.484,0,0,0-.186.658,8.075,8.075,0,0,1,.723,6.179,8.071,8.071,0,0,1-3.86,4.88,8.074,8.074,0,0,1-3.95,1.03,8.139,8.139,0,0,1-7.114-4.166,8.179,8.179,0,0,1-.587-1.307c0-.01-.007-.02-.01-.03a8.07,8.07,0,0,1-.125-4.841,8.074,8.074,0,0,1,3.859-4.88,8.151,8.151,0,0,1,9.745,1.38.483.483,0,0,0,.684,0,.484.484,0,0,0,0-.684,9.118,9.118,0,0,0-7.914-2.58c-.283-.506-.6-1.013-.944-1.511v0l0,0c-.484-.7-.369-1.417-.179-2.609q.028-.175.057-.36a15.46,15.46,0,0,1,.408-1.727,7.232,7.232,0,0,0,.338-3.889,4.012,4.012,0,0,0-3.87-2.96,3.993,3.993,0,0,0-1.258.2A4.262,4.262,0,0,0,11.1-384a4.261,4.261,0,0,0-3.651,2.073,4,4,0,0,0-1.257-.2,4.013,4.013,0,0,0-3.871,2.96,7.233,7.233,0,0,0,.338,3.89,15.523,15.523,0,0,1,.407,1.728q.029.185.057.36l.04.254v0a2.974,2.974,0,0,1-.22,2.354l0,0,0,0a17.332,17.332,0,0,0-2,3.77.484.484,0,0,0,.284.622.481.481,0,0,0,.169.031.483.483,0,0,0,.453-.314A16.222,16.222,0,0,1,3.6-369.823h2.92a16.071,16.071,0,0,0-1.922,6.2A19.624,19.624,0,0,0,5-357.6H1.4a16.539,16.539,0,0,1-.169-6.713.483.483,0,0,0-.381-.568.484.484,0,0,0-.568.381,17.728,17.728,0,0,0,.25,7.462.436.436,0,0,0,.013.059q.183.808.428,1.66c.093.32.374,1.294,1.3,1.294H14.866a9.13,9.13,0,0,0,6.8,3.032,9.038,9.038,0,0,0,4.419-1.153,9.032,9.032,0,0,0,4.319-5.461A9.036,9.036,0,0,0,29.592-364.521Zm-10.379-4.33a9.041,9.041,0,0,0-2,.821q-.285.159-.555.335a16.993,16.993,0,0,0-.976-2.129H18.6C18.82-369.5,19.023-369.176,19.213-368.85Zm-10.22-4.171s0-.008,0-.012,0-.02,0-.031a7.417,7.417,0,0,0-.064-.763h4.342a7.462,7.462,0,0,0-.064.764c0,.01,0,.02,0,.03s0,.008,0,.012a3.379,3.379,0,0,0,.159,1.142H8.834A3.379,3.379,0,0,0,8.993-373.021Zm9.091,2.231H15.121q-.272-.437-.573-.875l0,0,0,0a1.988,1.988,0,0,1-.345-.878H18A4.046,4.046,0,0,0,18.084-370.79Zm-2.075-10.371a3.044,3.044,0,0,1,2.937,2.245,6.415,6.415,0,0,1-.337,3.38,16.21,16.21,0,0,0-.431,1.837c-.01.062-.019.123-.029.183H14.206c.032-.292.084-.613.142-.975q.029-.184.06-.379a16.458,16.458,0,0,1,.436-1.853,7.7,7.7,0,0,0,.361-4.135c-.016-.06-.034-.12-.053-.18A3.034,3.034,0,0,1,16.009-381.162Zm-4.91-1.871a3.29,3.29,0,0,1,3.173,2.426,6.876,6.876,0,0,1-.359,3.625,17.3,17.3,0,0,0-.46,1.963c-.012.077-.024.151-.036.225H8.782c-.012-.074-.024-.148-.035-.224a17.275,17.275,0,0,0-.46-1.963,6.883,6.883,0,0,1-.359-3.625A3.289,3.289,0,0,1,11.1-383.033Zm-7.845,4.116a3.044,3.044,0,0,1,2.937-2.245,3.033,3.033,0,0,1,.857.123c-.019.059-.037.119-.053.18a7.7,7.7,0,0,0,.361,4.135,16.453,16.453,0,0,1,.436,1.854q.03.194.06.379c.058.362.109.683.142.975H4.05c-.009-.06-.019-.121-.029-.183a16.208,16.208,0,0,0-.431-1.837A6.418,6.418,0,0,1,3.254-378.917Zm.862,8.126a4.058,4.058,0,0,0,.08-1.76H8a1.993,1.993,0,0,1-.346.878l0,0v0q-.3.436-.574.875Zm3.628.764a.52.52,0,0,0,.037-.062q.25-.413.528-.824H13.89q.293.434.553.867v0a16.38,16.38,0,0,1,1.4,2.946,9.03,9.03,0,0,0-2.952,4.528,9.037,9.037,0,0,0-.051,4.788H5.957C4.958-362.52,5.519-366.326,7.743-370.026ZM1.908-355.588q-.153-.533-.281-1.046h3.6q.151.611.334,1.247a3.761,3.761,0,0,0,.133.393H2.275C2.146-354.993,2.022-355.193,1.908-355.588Zm5.006.595c-.058,0-.234,0-.424-.661q-.17-.59-.312-1.161h6.98a9.241,9.241,0,0,0,.545,1.159c.128.229.265.449.409.662Z"/>
      <path id="Path_2386" data-name="Path 2386" d="M206.287-172.267a1.546,1.546,0,0,0,.741-.937,1.554,1.554,0,0,0-.139-1.186,1.564,1.564,0,0,0-2.121-.6h0a1.551,1.551,0,0,0-.74.936,1.546,1.546,0,0,0,.139,1.185,1.549,1.549,0,0,0,.936.741,1.572,1.572,0,0,0,.428.06A1.546,1.546,0,0,0,206.287-172.267Zm-1.277-1.074a.586.586,0,0,1-.053-.449.592.592,0,0,1,.282-.356.6.6,0,0,1,.806.228.59.59,0,0,1,.053.451.585.585,0,0,1-.281.355.586.586,0,0,1-.451.053A.588.588,0,0,1,205.01-173.341Z" transform="translate(-186.435 -190.864)"/>
      <path id="Path_2387" data-name="Path 2387" d="M186.822-125.379a1.548,1.548,0,0,0-1.186.139,1.546,1.546,0,0,0-.74.936,1.551,1.551,0,0,0,.139,1.186,1.562,1.562,0,0,0,1.365.8,1.556,1.556,0,0,0,.757-.2,1.553,1.553,0,0,0,.74-.936,1.546,1.546,0,0,0-.139-1.185A1.549,1.549,0,0,0,186.822-125.379Zm.145,1.662a.592.592,0,0,1-.281.356.6.6,0,0,1-.807-.228.591.591,0,0,1-.053-.452.586.586,0,0,1,.28-.355h0a.59.59,0,0,1,.288-.076.6.6,0,0,1,.163.023.588.588,0,0,1,.356.282A.587.587,0,0,1,186.967-123.718Z" transform="translate(-168.949 -236.336)"/>
      <path id="Path_2388" data-name="Path 2388" d="M258.365-165.309a1.547,1.547,0,0,0-1.186.139,1.545,1.545,0,0,0-.74.936,1.552,1.552,0,0,0,.138,1.185,1.557,1.557,0,0,0,1.364.8,1.559,1.559,0,0,0,.759-.2,1.553,1.553,0,0,0,.74-.936,1.546,1.546,0,0,0-.139-1.185A1.547,1.547,0,0,0,258.365-165.309Zm.145,1.662a.593.593,0,0,1-.281.356.594.594,0,0,1-.807-.228.593.593,0,0,1-.053-.452.586.586,0,0,1,.28-.355h0a.59.59,0,0,1,.288-.076.6.6,0,0,1,.162.023.587.587,0,0,1,.356.282A.587.587,0,0,1,258.51-163.648Z" transform="translate(-234.342 -199.839)"/>
    </g>
  </g>
</svg>
