<svg xmlns="http://www.w3.org/2000/svg" width="45" height="45" viewBox="0 0 45 45">
    <g id="Group_123" data-name="Group 123" transform="translate(-1648 -739)">
        <circle id="Ellipse_585" cx="22.5" cy="22.5" r="22.5" fill="#003b71" data-name="Ellipse 585" transform="translate(1648 739)"/>
        <g id="Group_312" data-name="Group 312" transform="translate(1653.8 1248.874)">
            <path id="Path_2955" fill="#aab1ba" d="M17.246-444.142l.366.366a1.2 1.2 0 0 0-.366.854 1.458 1.458 0 0 0 .305.854l-.061.061-8.175 7.627a1.514 1.514 0 0 1-2.44 0l-2.44-2.44a1.549 1.549 0 0 1 0-2.44l8.541-9.151zm6.1 11.591v1.22H12.365v-1.22a1.224 1.224 0 0 1 1.22-1.22h8.541a1.224 1.224 0 0 1 1.22 1.221zm-1.159-31.663l12.079 12.079a8.527 8.527 0 0 1-6.04 2.5 7.845 7.845 0 0 1-2.135-.305l-6.1-6.1a4.6 4.6 0 0 1-.305-2.135 8.527 8.527 0 0 1 2.501-6.038z" data-name="Path 2955" transform="translate(-3.565 -38.032)"/>
            <path id="Path_2956" fill="#ecf4f6" d="M192.58-474.186a1.543 1.543 0 0 1-.915-.366 1.207 1.207 0 0 1-.305-.854 1.2 1.2 0 0 1 .366-.854 1.2 1.2 0 0 1 .854-.366 1.192 1.192 0 0 1 .915.427 1.285 1.285 0 0 1 .3.793 1.224 1.224 0 0 1-1.215 1.22zm9.761-25.013a8.566 8.566 0 0 1 8.541 8.541 8.527 8.527 0 0 1-2.5 6.04L196.3-496.7a8.527 8.527 0 0 1 6.041-2.5z" data-name="Path 2956" transform="translate(-177.679 -5.547)"/>
            <path id="Path_2957" fill="#f27374" d="M138.033-336.75a1.1 1.1 0 0 0-.915-.427 1.024 1.024 0 0 0-.854.366l-.366-.366-4.271-4.271 7.016-7.565 6.1 6.1-6.589 6.162z" data-name="Path 2957" transform="translate(-122.217 -144.996)"/>
            <path id="Path_2958" fill="#51565f" d="M19.05-502.245l11.65 11.653a8.264 8.264 0 0 0 2.2-5.613 8.28 8.28 0 0 0-8.236-8.236 8.381 8.381 0 0 0-5.614 2.196zm-1.65 19.279a.463.463 0 0 1-.244-.122.3.3 0 0 1 0-.427l5.125-4.7a.268.268 0 0 1 .305-.061 6.65 6.65 0 0 0 2.013.305 8.381 8.381 0 0 0 5.613-2.2l-11.65-11.647a8.264 8.264 0 0 0-2.2 5.613 5.173 5.173 0 0 0 .244 1.952l4.515 4.515a.3.3 0 0 1 0 .427.3.3 0 0 1-.427 0l-4.576-4.576-.061-.061a4.344 4.344 0 0 1-.366-2.318 8.918 8.918 0 0 1 2.379-6.04l-1.1-1.1c-.061-.061-.061-.122-.061-.244s0-.183.061-.244a.3.3 0 0 1 .427 0l1.1 1.1a8.918 8.918 0 0 1 6.04-2.379 8.852 8.852 0 0 1 8.846 8.846 8.918 8.918 0 0 1-2.379 6.04l1.1 1.1c.061.061.061.122.061.244s0 .183-.061.244a.3.3 0 0 1-.427 0l-1.1-1.1a8.918 8.918 0 0 1-6.04 2.379 8.694 8.694 0 0 1-2.074-.244l-5 4.576c.122.122 0 .122-.063.122zm-2.5 1.1a.938.938 0 0 0-.915.915.938.938 0 0 0 .915.915.938.938 0 0 0 .915-.915.938.938 0 0 0-.915-.917zm4.881 12.812H8.8a.288.288 0 0 1-.3-.3v-1.22a1.51 1.51 0 0 1 1.525-1.525h2.44a.288.288 0 0 1 .305.3.288.288 0 0 1-.305.305H10.02a.938.938 0 0 0-.915.915v.915h10.372v-.915a.938.938 0 0 0-.915-.915H14.9a.288.288 0 0 1-.305-.305v-7.626a1.508 1.508 0 0 1-.549-.244l-8.053 7.5a1.9 1.9 0 0 1-1.4.671 2.109 2.109 0 0 1-1.464-.732l-2.44-2.44a1.841 1.841 0 0 1 0-2.867l7.074-7.563a.3.3 0 0 1 .427 0 .3.3 0 0 1 0 .427l-7.077 7.563a1.258 1.258 0 0 0 0 2.013l2.44 2.44a1.468 1.468 0 0 0 .976.549 1.353 1.353 0 0 0 .976-.549l8.053-7.5a1.73 1.73 0 0 1-.244-.793 1.5 1.5 0 0 1 .305-.915.367.367 0 0 1-.244-.061l-4.27-4.274a.3.3 0 0 1 0-.427l5.491-5.979a.3.3 0 0 1 .427 0 .3.3 0 0 1 0 .427l-5.308 5.735 4.087 4.088c.061.061.061.122.061.244a1.5 1.5 0 0 1 .915-.305 1.51 1.51 0 0 1 1.525 1.525 1.629 1.629 0 0 1-1.22 1.525v7.321h3.357a1.51 1.51 0 0 1 1.525 1.525v1.22c.122.122 0 .244-.183.244z" data-name="Path 2958"/>
        </g>
    </g>
</svg>
