<svg xmlns="http://www.w3.org/2000/svg" width="45" height="45" viewBox="0 0 45 45">
    <defs>
        <style>
            .cls-3{fill:#fff}.cls-4{fill:#f37c29}.cls-5{fill:#faaa29}.cls-6{fill:#fec122}.cls-7{fill:#ee3944}.cls-8{fill:#d82c35}.cls-11{fill:#dddad9}.cls-12{fill:#e5ae26}.cls-15{fill:#5bba4f}
        </style>
    </defs>
    <g id="Group_188" data-name="Group 188" transform="translate(-606 -739)">
        <circle id="Ellipse_619" cx="22.5" cy="22.5" r="22.5" fill="#003b71" data-name="Ellipse 619" transform="translate(606 739)"/>
        <g id="Group_245" data-name="Group 245" transform="translate(614.397 1255.042)">
            <path id="Path_2256" fill="#f58532" d="M23.211-480.075a.3.3 0 0 1-.294.294H.294a.3.3 0 0 1-.294-.294v-27.846a.3.3 0 0 1 .294-.294h22.623a.3.3 0 0 1 .294.294z" data-name="Path 2256"/>
            <path id="Path_2257" d="M36.093-380.628h3.5v3.831h-3.831v-3.5a.332.332 0 0 1 .331-.331z" class="cls-3" data-name="Path 2257" transform="translate(-33.722 -120.309)"/>
            <path id="Path_2258" d="M1.441-479.781H.294a.3.3 0 0 1-.294-.294v-27.846a.3.3 0 0 1 .294-.294h1.147a.3.3 0 0 0-.294.294v27.846a.3.3 0 0 0 .294.294z" class="cls-4" data-name="Path 2258"/>
            <path id="Path_2259" d="M133.123-478.848a.428.428 0 0 1-.428-.428v-3.575a.428.428 0 0 1 .428-.428.428.428 0 0 1 .428.428v3.575a.428.428 0 0 1-.428.428z" class="cls-5" data-name="Path 2259" transform="translate(-125.126 -23.514)"/>
            <path id="Path_2260" d="M228.209-479.363a1.492 1.492 0 0 1-1.408-1.561v-1.376a1.492 1.492 0 0 1 1.408-1.561 1.469 1.469 0 0 1 1.395 1.346.428.428 0 0 1-.372.477.427.427 0 0 1-.477-.372.619.619 0 0 0-.545-.6.652.652 0 0 0-.552.705v1.376a.652.652 0 0 0 .552.705.579.579 0 0 0 .512-.441v-.206h-.131a.428.428 0 0 1-.428-.428.428.428 0 0 1 .428-.428h.559a.428.428 0 0 1 .428.428v.694a.427.427 0 0 1-.014.107 1.442 1.442 0 0 1-1.355 1.135z" class="cls-5" data-name="Path 2260" transform="translate(-213.864 -22.966)"/>
            <path id="Path_2261" d="M163.4-479.363a.428.428 0 0 1-.428-.428v-2.509a.7.7 0 0 0-.695-.705.7.7 0 0 0-.695.705v2.509a.428.428 0 0 1-.428.428.428.428 0 0 1-.428-.428v-2.509a1.557 1.557 0 0 1 1.55-1.561 1.557 1.557 0 0 1 1.55 1.561v2.509a.428.428 0 0 1-.426.428z" class="cls-6" data-name="Path 2261" transform="translate(-151.555 -22.966)"/>
            <path id="Path_2262" d="M286.141-483a.7.7 0 0 0-.687.705v1.376a.7.7 0 0 0 .687.705.7.7 0 0 0 .687-.705v-1.381a.7.7 0 0 0-.687-.7zm0 3.642a1.553 1.553 0 0 1-1.543-1.561v-1.381a1.553 1.553 0 0 1 1.543-1.561 1.553 1.553 0 0 1 1.543 1.561v1.376a1.554 1.554 0 0 1-1.543 1.561z" class="cls-6" data-name="Path 2262" transform="translate(-268.364 -22.966)"/>
            <path id="Path_2263" d="M102.84-108.159h3.826v-3.831h-3.826z" class="cls-3" data-name="Path 2263" transform="translate(-96.974 -373.623)"/>
            <path id="Path_2264" d="M35.762-108.487v-3.5h3.826v3.831h-3.5a.332.332 0 0 1-.326-.331z" class="cls-7" data-name="Path 2264" transform="translate(-33.722 -373.626)"/>
            <path id="Path_2265" d="M39.434-109.049l1.135-1.136a.428.428 0 0 0 0-.605.428.428 0 0 0-.6 0l-1.134 1.135-1.135-1.134a.428.428 0 0 0-.605 0 .428.428 0 0 0 0 .605l1.135 1.136-1.135 1.136a.428.428 0 0 0 0 .605.426.426 0 0 0 .3.125.426.426 0 0 0 .3-.126l1.134-1.135 1.134 1.135a.426.426 0 0 0 .3.126.427.427 0 0 0 .3-.125.428.428 0 0 0 0-.605z" class="cls-8" data-name="Path 2265" transform="translate(-34.856 -374.637)"/>
            <path id="Path_2266" d="M169.91-108.159h3.826v-3.831h-3.826z" class="cls-3" data-name="Path 2266" transform="translate(-160.218 -373.623)"/>
            <path id="Path_2267" d="M236.99-108.159h3.826v-3.831h-3.826z" class="cls-3" data-name="Path 2267" transform="translate(-223.471 -373.623)"/>
            <path id="Path_2268" d="M35.762-175.319h3.826v-3.831h-3.826z" class="cls-3" data-name="Path 2268" transform="translate(-33.722 -310.294)"/>
            <path id="Path_2269" d="M102.84-175.319h3.826v-3.831h-3.826z" class="cls-3" data-name="Path 2269" transform="translate(-96.974 -310.294)"/>
            <path id="Path_2270" d="M169.91-175.319h3.826v-3.831h-3.826z" class="cls-3" data-name="Path 2270" transform="translate(-160.218 -310.294)"/>
            <path id="Path_2271" d="M236.99-175.319h3.826v-3.831h-3.826z" class="cls-3" data-name="Path 2271" transform="translate(-223.471 -310.294)"/>
            <path id="Path_2272" d="M304.06-175.319h3.826v-3.831h-3.826z" class="cls-3" data-name="Path 2272" transform="translate(-286.716 -310.294)"/>
            <path id="Path_2273" d="M35.762-242.479h3.826v-3.831h-3.826z" class="cls-3" data-name="Path 2273" transform="translate(-33.722 -246.965)"/>
            <path id="Path_2274" d="M102.84-242.479h3.826v-3.831h-3.826z" class="cls-3" data-name="Path 2274" transform="translate(-96.974 -246.965)"/>
            <path id="Path_2275" d="M169.91-242.479h3.826v-3.831h-3.826z" class="cls-3" data-name="Path 2275" transform="translate(-160.218 -246.965)"/>
            <path id="Path_2276" d="M236.99-242.479h3.826v-3.831h-3.826z" class="cls-3" data-name="Path 2276" transform="translate(-223.471 -246.965)"/>
            <path id="Path_2277" d="M304.06-242.479h3.826v-3.831h-3.826z" class="cls-3" data-name="Path 2277" transform="translate(-286.716 -246.965)"/>
            <path id="Path_2278" d="M35.762-309.639h3.826v-3.831h-3.826z" class="cls-3" data-name="Path 2278" transform="translate(-33.722 -183.636)"/>
            <path id="Path_2279" d="M102.84-309.639h3.826v-3.831h-3.826z" class="cls-3" data-name="Path 2279" transform="translate(-96.974 -183.636)"/>
            <path id="Path_2280" d="M169.91-309.639h3.826v-3.831h-3.826z" class="cls-3" data-name="Path 2280" transform="translate(-160.218 -183.636)"/>
            <path id="Path_2281" d="M236.99-309.639h3.826v-3.831h-3.826z" class="cls-3" data-name="Path 2281" transform="translate(-223.471 -183.636)"/>
            <path id="Path_2282" d="M304.06-309.639h3.826v-3.831h-3.826z" class="cls-3" data-name="Path 2282" transform="translate(-286.716 -183.636)"/>
            <path id="Path_2283" d="M102.84-376.8h3.826v-3.831h-3.826z" class="cls-3" data-name="Path 2283" transform="translate(-96.974 -120.307)"/>
            <path id="Path_2284" d="M169.91-376.8h3.826v-3.831h-3.826z" class="cls-7" data-name="Path 2284" transform="translate(-160.218 -120.307)"/>
            <path id="Path_2285" d="M172.932-378l1.135-1.136a.428.428 0 0 0 0-.605.428.428 0 0 0-.605 0l-1.134 1.135-1.134-1.135a.428.428 0 0 0-.605 0 .428.428 0 0 0 0 .605l1.134 1.136-1.135 1.136a.428.428 0 0 0 0 .605.426.426 0 0 0 .3.125.427.427 0 0 0 .3-.125l1.134-1.135 1.134 1.135a.427.427 0 0 0 .3.125.427.427 0 0 0 .3-.125.428.428 0 0 0 0-.605z" class="cls-8" data-name="Path 2285" transform="translate(-160.739 -121.024)"/>
            <path id="Path_2286" d="M236.99-376.8h3.826v-3.831h-3.826z" class="cls-3" data-name="Path 2286" transform="translate(-223.471 -120.307)"/>
            <path id="Path_2287" d="M307.562-380.628h-3.5v3.831h3.826v-3.5a.332.332 0 0 0-.326-.331z" class="cls-3" data-name="Path 2287" transform="translate(-286.721 -120.309)"/>
            <path id="Path_2288" d="M307.892-108.487v-3.5h-3.826v3.831h3.5a.332.332 0 0 0 .326-.331z" class="cls-3" data-name="Path 2288" transform="translate(-286.721 -373.626)"/>
            <path id="Path_2289" d="M47.393-368.973h-2.971v-2.975h2.971zm-6.8-2.975h2.971v2.975H40.6zm-3.826 0h2.971v2.975H36.77zm-3.826 0h2.971v2.975h-2.968zm-.856 2.975h-2.967v-2.975h2.971zm-2.971-18.3h2.971v2.975h-2.967zm3.826 0h2.971v2.975h-2.967zm6.8 2.975h-2.97v-2.975h2.971zm3.826 0H40.6v-2.975h2.971zm3.826 0h-2.97v-2.975h2.971zm-2.971 8.518h2.971v2.975h-2.97zm-3.826 0h2.971v2.975H40.6zm-3.826 0h2.971v2.975h-2.97zm-3.826 0h2.971v2.975h-2.97zm-3.826 0h2.971v2.975h-2.97zm2.971-4.687h-2.97v-2.975h2.971zm3.826 0h-2.97v-2.975h2.971zm3.826 0h-2.97v-2.975h2.971zm3.826 0H40.6v-2.975h2.971zm-2.971.856h2.971v2.975H40.6zm-3.826 0h2.971v2.975h-2.97zm-3.826 0h2.971v2.975h-2.97zm-3.826 0h2.971v2.975h-2.97zm18.275 2.975h-2.97v-2.975h2.971zm0-3.831h-2.97v-2.975h2.971zm.1-7.662H29.02a.76.76 0 0 0-.758.759v18.493a.76.76 0 0 0 .758.759h18.47a.76.76 0 0 0 .758-.759v-18.493a.76.76 0 0 0-.758-.758z" class="cls-6" data-name="Path 2289" transform="translate(-26.65 -113.237)"/>
            <path id="Path_2290" d="M259.579-261.72a.3.3 0 0 1 0 .416l-1.656 1.658a.384.384 0 0 1-.456.05l-1.444-.919a.226.226 0 0 1-.04-.366l2.009-2.012a.294.294 0 0 1 .415 0z" class="cls-7" data-name="Path 2290" transform="translate(-241.311 -231.247)"/>
            <path id="Path_2291" fill="#0081b7" d="M279.125-274.879a.3.3 0 0 1 0 .416l-.863.864a.294.294 0 0 1-.415 0l-1.968-1.97a.3.3 0 0 1 0-.416l.863-.864a.294.294 0 0 1 .415 0z" data-name="Path 2291" transform="translate(-260.061 -218.087)"/>
            <path id="Path_2292" fill="#005baa" d="M297.824-429.271a.3.3 0 0 1 0 .416l-8.442 8.453a.294.294 0 0 1-.415 0l-2.625-2.629a.3.3 0 0 1 0-.416l8.442-8.453a.294.294 0 0 1 .415 0z" data-name="Path 2292" transform="translate(-269.927 -71.882)"/>
            <path id="Path_2293" d="M406.9-430.252l1.646-1.648a.292.292 0 0 1 .208-.086.293.293 0 0 0-.208.086z" class="cls-11" data-name="Path 2293" transform="translate(-383.693 -71.882)"/>
            <path id="Path_2294" d="M378.643-399.984l1.612-1.614z" class="cls-4" data-name="Path 2294" transform="translate(-357.044 -100.535)"/>
            <path id="Path_2295" d="M286.461-290.082l-.121-.121a.3.3 0 0 1 0-.416l.5-.5-.5.5a.3.3 0 0 0 0 .416l.121.121z" class="cls-11" data-name="Path 2295" transform="translate(-269.926 -204.709)"/>
            <path id="Path_2296" d="M326.374-356.154l2.126-2.129z" class="cls-11" data-name="Path 2296" transform="translate(-307.757 -141.379)"/>
            <path id="Path_2297" d="M296.566-368.614l1.7-1.7zm3.826-3.831l.856-.857z" class="cls-12" data-name="Path 2297" transform="translate(-279.649 -127.217)"/>
            <path id="Path_2298" fill="#0076a7" d="M290.194-272.57l-.316-.317.316.317z" data-name="Path 2298" transform="translate(-273.342 -221.904)"/>
            <path id="Path_2299" fill="#0e5298" d="M286.779-422.593l-.316-.317-.121-.121a.3.3 0 0 1 0-.416l.5-.5 1.7-1.7 2.126-2.129.856-.857 1.612-1.614 1.646-1.648a.292.292 0 0 1 .208-.086.292.292 0 0 1 .208.086l.438.439-8.858 8.868" data-name="Path 2299" transform="translate(-269.927 -71.882)"/>
            <path id="Path_2300" d="M333.522-339.238a.3.3 0 0 1 0 .416l-2.861 2.865a.294.294 0 0 1-.415 0l-.477-.477a.3.3 0 0 1 0-.416l2.861-2.865a.294.294 0 0 1 .415 0z" class="cls-7" data-name="Path 2300" transform="translate(-310.876 -158.807)"/>
            <path id="Path_2301" d="M421.362-431.9a.294.294 0 0 0-.415 0l-.9.9 3.041 3.044.9-.9a.3.3 0 0 0 0-.416z" class="cls-7" data-name="Path 2301" transform="translate(-396.09 -71.881)"/>
            <path id="Path_2302" d="M120.981-228.49a.921.921 0 0 1 .921.921.921.921 0 0 1-.921.921.921.921 0 0 1-.921-.921.921.921 0 0 1 .921-.921z" class="cls-6" data-name="Path 2302" transform="translate(-113.211 -263.769)"/>
            <path id="Path_2303" d="M113.907-235.131a.494.494 0 0 0-.494.493.494.494 0 0 0 .493.493.494.494 0 0 0 .493-.493.494.494 0 0 0-.492-.493zm0 1.841a1.35 1.35 0 0 1-1.349-1.348 1.35 1.35 0 0 1 1.349-1.348 1.35 1.35 0 0 1 1.349 1.348 1.35 1.35 0 0 1-1.349 1.348z" class="cls-15" data-name="Path 2303" transform="translate(-106.137 -256.699)"/>
            <path id="Path_2304" d="M255.541-94.83a.921.921 0 0 1 .921.921.921.921 0 0 1-.921.921.921.921 0 0 1-.921-.921.921.921 0 0 1 .921-.921z" class="cls-6" data-name="Path 2304" transform="translate(-240.096 -389.804)"/>
            <path id="Path_2305" d="M248.471-101.467a.494.494 0 0 0-.494.493.494.494 0 0 0 .493.493.494.494 0 0 0 .493-.493.494.494 0 0 0-.492-.493zm0 1.841a1.35 1.35 0 0 1-1.349-1.348 1.35 1.35 0 0 1 1.349-1.348 1.35 1.35 0 0 1 1.349 1.348 1.35 1.35 0 0 1-1.349 1.348z" class="cls-15" data-name="Path 2305" transform="translate(-233.025 -382.739)"/>
            <path id="Path_2306" fill="#dfdfe1" d="M338.746-178.58a5.09 5.09 0 0 1 5.087 5.093 5.09 5.09 0 0 1-5.087 5.093 5.09 5.09 0 0 1-5.087-5.093 5.09 5.09 0 0 1 5.087-5.093z" data-name="Path 2306" transform="translate(-314.627 -310.832)"/>
            <path id="Path_2307" d="M351.491-36.14a5.121 5.121 0 0 1-1.189-1.187 5.116 5.116 0 0 0 1.189 1.187z" class="cls-4" data-name="Path 2307" transform="translate(-330.32 -444.027)"/>
            <path id="Path_2308" d="M338.881-153.991a5.1 5.1 0 0 1 1.412-2.087 5.1 5.1 0 0 0-1.412 2.087z" class="cls-11" data-name="Path 2308" transform="translate(-319.55 -332.05)"/>
            <path id="Path_2309" d="M334.107-101.512a5.081 5.081 0 0 1-.455-2.109 5.132 5.132 0 0 1 .073-.867 5.136 5.136 0 0 0-.073.867 5.082 5.082 0 0 0 .455 2.109z" class="cls-11" data-name="Path 2309" transform="translate(-314.62 -380.698)"/>
            <path id="Path_2310" d="M335.815-159.046a5.078 5.078 0 0 1-.495-.856 5.086 5.086 0 0 0 .495.856zm-.876-3.831a5.063 5.063 0 0 1 .225-.856 5.068 5.068 0 0 0-.226.856zm1.637-2.943a5.108 5.108 0 0 1 .811-.589 5.112 5.112 0 0 0-.812.589z" class="cls-12" data-name="Path 2310" transform="translate(-315.832 -322.308)"/>
            <path id="Path_2311" fill="#c7c8ca" d="M338.746-168.39a5.058 5.058 0 0 1-2.948-.942 5.115 5.115 0 0 1-1.189-1.187 5.084 5.084 0 0 1-.495-.856 5.081 5.081 0 0 1-.455-2.108 5.135 5.135 0 0 1 .073-.867 5.063 5.063 0 0 1 .225-.856 5.1 5.1 0 0 1 1.412-2.087 5.106 5.106 0 0 1 .811-.589 5.058 5.058 0 0 1 2.565-.694 5.134 5.134 0 0 1 .577.033 5.091 5.091 0 0 0-4.51 5.06 5.091 5.091 0 0 0 4.51 5.06 5.13 5.13 0 0 1-.576.033z" data-name="Path 2311" transform="translate(-314.627 -310.835)"/>
            <path id="Path_2312" d="M376.762-138.208a2.789 2.789 0 0 1 2.787 2.79 2.789 2.789 0 0 1-2.787 2.79 2.789 2.789 0 0 1-2.787-2.79 2.789 2.789 0 0 1 2.787-2.79z" class="cls-7" data-name="Path 2312" transform="translate(-352.642 -348.901)"/>
            <path id="Path_2313" d="M399.246-117.03h-.772a.212.212 0 0 1-.208-.215.212.212 0 0 1 .208-.215h.772a.212.212 0 0 1 .208.215.212.212 0 0 1-.208.215zm-.772-1.751h.772a.212.212 0 0 1 .208.215.212.212 0 0 1-.208.215h-.772a.212.212 0 0 1-.208-.215.212.212 0 0 1 .208-.215zm1.836.215a1.069 1.069 0 0 0-1.064-1.071h-.772a1.069 1.069 0 0 0-1.064 1.071 1.069 1.069 0 0 0 .228.66 1.069 1.069 0 0 0-.228.66 1.068 1.068 0 0 0 1.064 1.071h.772a1.069 1.069 0 0 0 1.064-1.071 1.069 1.069 0 0 0-.228-.66 1.069 1.069 0 0 0 .228-.66z" class="cls-3" data-name="Path 2313" transform="translate(-374.741 -366.412)"/>
            <path id="Path_2314" d="M333.955-116.23a2.262 2.262 0 0 0 .807-1.735 2.262 2.262 0 0 0-.807-1.735 5.089 5.089 0 0 0-.3 1.735 5.09 5.09 0 0 0 .3 1.735z" class="cls-7" data-name="Path 2314" transform="translate(-314.62 -366.354)"/>
            <path id="Path_2315" d="M492.533-117.965a2.262 2.262 0 0 0 .807 1.735 5.089 5.089 0 0 0 .3-1.735 5.088 5.088 0 0 0-.3-1.735 2.262 2.262 0 0 0-.807 1.735z" class="cls-7" data-name="Path 2315" transform="translate(-464.437 -366.353)"/>
            <path id="Path_2316" d="M69.981-482.032h-.902V-483h.9a.463.463 0 0 1 .435.486.463.463 0 0 1-.433.482zm0 1.813h-.9v-.973h.9a.463.463 0 0 1 .435.486.463.463 0 0 1-.435.488zm1.29-2.3a1.318 1.318 0 0 0-1.29-1.342h-1.33a.428.428 0 0 0-.428.428v3.642a.428.428 0 0 0 .428.428h1.33a1.318 1.318 0 0 0 1.29-1.342 1.365 1.365 0 0 0-.341-.907 1.365 1.365 0 0 0 .341-.906z" class="cls-6" data-name="Path 2316" transform="translate(-64.331 -22.966)"/>
        </g>
    </g>
</svg>
