<svg xmlns="http://www.w3.org/2000/svg" width="45" height="45" viewBox="0 0 45 45">
    <defs>
        <style>
            .cls-4{fill:#fff}.cls-5{fill:#fdd322}.cls-6{fill:#454348}.cls-7{fill:#f05561}.cls-8{fill:#faac4a}.cls-9{fill:#ffcc6c}.cls-10{fill:#6d6e70}
        </style>
    </defs>
    <g id="Group_186" data-name="Group 186" transform="translate(-890 -739)">
        <circle id="Ellipse_590" cx="22.5" cy="22.5" r="22.5" fill="#003b71" data-name="Ellipse 590" transform="translate(890 739)"/>
        <g id="Group_248" data-name="Group 248" transform="translate(894.5 1131.313)">
            <path id="Path_2389" fill="#ef4a56" d="M41.023-368.369a5.161 5.161 0 0 0-1.079-2.879 8.872 8.872 0 0 1-1.721-3.364 41.138 41.138 0 0 0-2.875-6.19 4.965 4.965 0 0 0-3.638-2.4 103.408 103.408 0 0 0-15.627 0 4.971 4.971 0 0 0-3.637 2.4 41.254 41.254 0 0 0-2.875 6.19 8.872 8.872 0 0 1-1.721 3.364 5.159 5.159 0 0 0-1.078 2.879c-.109 2.269.548 2.768 1.136 7.9a.8.8 0 0 0 .795.708h30.39a.8.8 0 0 0 .795-.708c.165-1.44.655-4.361.655-4.361a10.693 10.693 0 0 0 .48-3.539z" data-name="Path 2389" transform="translate(-6.281)"/>
            <path id="Path_2390" fill="#0087cc" d="M82.64-367.5a44.291 44.291 0 0 0-2.706-5.734 4.478 4.478 0 0 0-3.234-2.176 99.2 99.2 0 0 0-15.487 0 4.478 4.478 0 0 0-3.235 2.175 45.077 45.077 0 0 0-2.717 5.734 174.593 174.593 0 0 0 27.379.001z" data-name="Path 2390" transform="translate(-51.337 -7.23)"/>
            <path id="Path_2391" d="M373.073-224.823a5.031 5.031 0 0 0-.943.414 11.587 11.587 0 0 1-1.528.732c-.876.332-1.025.829-1.025.829l-.076.1a1.4 1.4 0 0 0 1.387 2.135 16.924 16.924 0 0 0 3.824-1.022 1.371 1.371 0 0 0 .832-.934c.01-.041.019-.081.026-.121a1.925 1.925 0 0 0-2.497-2.133z" class="cls-4" data-name="Path 2391" transform="translate(-343.065 -147.328)"/>
            <path id="Path_2392" d="M419.484-112.128h-1.9a.321.321 0 0 0-.227.547l1.9 1.9a.321.321 0 0 0 .547-.227v-1.9a.32.32 0 0 0-.32-.32z" class="cls-5" data-name="Path 2392" transform="translate(-387.653 -252.109)"/>
            <path id="Path_2393" d="M415.343-108.806a.8.8 0 0 1-.8.71H410.9v2.119a1.359 1.359 0 0 0 1.359 1.359h2.293a1.359 1.359 0 0 0 1.359-1.359v-6.632c-.155.918-.448 2.754-.568 3.803z" class="cls-6" data-name="Path 2393" transform="translate(-381.736 -251.662)"/>
            <path id="Path_2394" d="M449.722-291.741a1.094 1.094 0 0 0-1.079-.828h-.916a1.063 1.063 0 0 0-1.063 1.063v.653h-.486l.279.662h1.068a3.847 3.847 0 0 0 1.6-.349 1.062 1.062 0 0 0 .597-1.201z" class="cls-7" data-name="Path 2394" transform="translate(-414.514 -84.474)"/>
            <path id="Path_2395" d="M413.831-218.345a1.336 1.336 0 0 1 1.336 1.336 1.336 1.336 0 0 1-1.336 1.336 1.336 1.336 0 0 1-1.336-1.336 1.336 1.336 0 0 1 1.336-1.336z" class="cls-8" data-name="Path 2395" transform="translate(-383.221 -153.43)"/>
            <path id="Path_2396" d="M380.615-198.5a.981.981 0 0 1 .981.981.981.981 0 0 1-.981.981.981.981 0 0 1-.981-.981.981.981 0 0 1 .981-.981z" class="cls-9" data-name="Path 2396" transform="translate(-352.692 -171.866)"/>
            <path id="Path_2397" d="M154.367-184.662l-1.534 2.671h-12.46l-1.534-2.671z" class="cls-10" data-name="Path 2397" transform="translate(-128.986 -184.723)"/>
            <path id="Path_2398" d="M44.048-222.749c-.023-.035-.048-.069-.076-.1 0 0-.149-.5-1.025-.829a11.653 11.653 0 0 1-1.528-.732 5.061 5.061 0 0 0-.943-.414 1.926 1.926 0 0 0-2.5 2.137l.025.121a1.371 1.371 0 0 0 .832.934 16.92 16.92 0 0 0 3.825 1.022 1.4 1.4 0 0 0 1.39-2.139z" class="cls-4" data-name="Path 2398" transform="translate(-35.252 -147.323)"/>
            <path id="Path_2399" d="M45.654-112.128h-1.9a.32.32 0 0 0-.32.32v1.9a.321.321 0 0 0 .547.227l1.9-1.9a.321.321 0 0 0-.227-.547z" class="cls-5" data-name="Path 2399" transform="translate(-40.353 -252.109)"/>
            <path id="Path_2400" fill="#757779" d="M50.8-108.822c-1.975-3.418-4.247-3.311-4.247-3.311H29.779s-2.27-.107-4.247 3.311h-3.414l.042.44a.8.8 0 0 0 .8.728h30.412a.8.8 0 0 0 .8-.728l.042-.44z" data-name="Path 2400" transform="translate(-20.548 -252.104)"/>
            <path id="Path_2401" d="M16.341-108.081a.8.8 0 0 1-.8-.71c-.12-1.049-.414-2.886-.564-3.8v6.632a1.359 1.359 0 0 0 1.363 1.359h2.292a1.359 1.359 0 0 0 1.359-1.359v-2.118z" class="cls-6" data-name="Path 2401" transform="translate(-13.918 -251.676)"/>
            <path id="Path_2402" d="M3.083-290.854v-.653a1.062 1.062 0 0 0-1.061-1.063h-.917a1.094 1.094 0 0 0-1.079.828 1.062 1.062 0 0 0 .595 1.2 3.851 3.851 0 0 0 1.6.349h1.07l.279-.662h-.487z" class="cls-7" data-name="Path 2402" transform="translate(0 -84.474)"/>
            <path id="Path_2403" d="M47.658-218.345a1.336 1.336 0 0 1 1.336 1.336 1.336 1.336 0 0 1-1.336 1.336 1.336 1.336 0 0 1-1.336-1.336 1.336 1.336 0 0 1 1.336-1.336z" class="cls-8" data-name="Path 2403" transform="translate(-43.035 -153.43)"/>
            <path id="Path_2404" d="M90.187-198.5a.981.981 0 0 1 .981.981.981.981 0 0 1-.981.981.981.981 0 0 1-.981-.981.981.981 0 0 1 .981-.981z" class="cls-9" data-name="Path 2404" transform="translate(-82.875 -171.866)"/>
            <path id="Path_2405" d="M157.12-98.956h-14.2a.4.4 0 0 0-.4.4.4.4 0 0 0 .4.4h14.2a.4.4 0 0 0 .4-.4.4.4 0 0 0-.4-.4z" class="cls-10" data-name="Path 2405" transform="translate(-132.402 -264.346)"/>
            <path id="Path_2406" d="M157.12-76.35h-14.2a.4.4 0 0 0-.4.4.4.4 0 0 0 .4.4h14.2a.4.4 0 0 0 .4-.4.4.4 0 0 0-.4-.4z" class="cls-10" data-name="Path 2406" transform="translate(-132.402 -285.348)"/>
            <path id="Path_2407" fill="#009bdc" d="M81.136-353.118v.138a.973.973 0 0 1-1.02.974 1.017 1.017 0 0 1-.919-1.031v-1.975a.815.815 0 0 0-.853-.808h-.033a.817.817 0 0 0-.853.808v1.787a.973.973 0 0 1-1.031.963 1.007 1.007 0 0 1-.919-1.02v-1.554a.863.863 0 0 0-.864-.853h-.066a.813.813 0 0 0-.809.809v2.02a.983.983 0 0 1-1.031.974 1.008 1.008 0 0 1-.908-1.031v-2.709a.773.773 0 0 0-.82-.764h-.066a.815.815 0 0 0-.819.809v2.769a.976.976 0 0 1-.974.974.967.967 0 0 1-.963-.941v-2.321a1.018 1.018 0 0 0-.919-1.031.973.973 0 0 0-1.02.974l-.011 2.147a.973.973 0 0 1-1.02.974 1.009 1.009 0 0 1-.914-.99v-2.519a1.009 1.009 0 0 0-.916-1.022.975.975 0 0 0-1.023.972v2.639a.98.98 0 0 1-1.025.949 1.008 1.008 0 0 1-.908-1.031v-1.976a.825.825 0 0 0-.864-.808h-.022a.82.82 0 0 0-.864.808v1.787a.964.964 0 0 1-1.02.963.986.986 0 0 1-.9-.889c-.512 1.06-1.02 2.209-1.513 3.435a174.313 174.313 0 0 0 27.381 0q-.743-1.841-1.494-3.4z" data-name="Path 2407" transform="translate(-51.323 -25.018)"/>
        </g>
    </g>
</svg>
