<svg xmlns="http://www.w3.org/2000/svg" width="45" height="45" viewBox="0 0 45 45">
    <defs>
        <style>
            .cls-2{fill:#b4acb5}.cls-3{fill:#796d78}.cls-4{fill:#a69aa6}.cls-8{fill:#675d67}
        </style>
    </defs>
    <g id="Group_68" data-name="Group 68" transform="translate(-890 -837)">
        <circle id="Ellipse_591" cx="22.5" cy="22.5" r="22.5" fill="#003b71" data-name="Ellipse 591" transform="translate(890 837)"/>
        <g id="Group_323" data-name="Group 323" transform="translate(895.499 1113.605)">
            <path id="Path_3149" d="M135.458-133.119h-4.65l-.36-4.737h3.772s-1.297 3.175 1.238 4.737z" class="cls-2" data-name="Path 3149" transform="translate(-118.558 -117.104)"/>
            <path id="Path_3150" d="M6.672-212.075a1.04 1.04 0 0 0-.887 1.583l1.233 2.014 1.6-1.8.236-1.8z" class="cls-3" data-name="Path 3150" transform="translate(-5.118 -49.65)"/>
            <path id="Path_3151" d="M154.888-137.856h-1.367s-1.3 3.175 1.239 4.737h1.367c-2.535-1.562-1.239-4.737-1.239-4.737z" class="cls-4" data-name="Path 3151" transform="translate(-139.227 -117.104)"/>
            <path id="Path_3152" d="M127.122-144.536h-5.334a.513.513 0 0 1-.513-.513.513.513 0 0 1 .513-.513h5.334a1.662 1.662 0 0 0 1.66-1.66v-3.247a.513.513 0 0 1 .513-.513.512.512 0 0 1 .513.513v3.247a2.688 2.688 0 0 1-2.686 2.686z" class="cls-3" data-name="Path 3152" transform="translate(-110.222 -105.175)"/>
            <path id="Path_3153" fill="#b98080" d="M53.728-132.62h-3.184a.869.869 0 0 1-.85-1.053l2.38-11 4.963-.684-2.459 12.051a.869.869 0 0 1-.85.686z" data-name="Path 3153" transform="translate(-45.147 -110.287)"/>
            <path id="Path_3154" fill="#ae6b6b" d="M89.959-144.672L87.5-133.305a.87.87 0 0 1-.85.685h2.05a.869.869 0 0 0 .85-.685l2.459-11.367-1.058-.684z" data-name="Path 3154" transform="translate(-78.753 -110.287)"/>
            <path id="Path_3155" d="M49-223.459h-2.2l-11.526.684-14.412-.684 2.417-4.727a.683.683 0 0 1 .609-.372h25.8v4.416a.684.684 0 0 1-.688.683z" class="cls-2" data-name="Path 3155" transform="translate(-18.957 -34.668)"/>
            <path id="Path_3156" d="M346.628-214.119l-1.025.137h-1.03v-2.987h1.03l1.025.137a.342.342 0 0 1 .342.342v2.03a.342.342 0 0 1-.342.341z" class="cls-3" data-name="Path 3156" transform="translate(-313.166 -45.202)"/>
            <path id="Path_3157" d="M46.112-172.61H20.858l2.4 2.919a.684.684 0 0 0 .528.249h19.396a.684.684 0 0 0 .528-.249z" class="cls-3" data-name="Path 3157" transform="translate(-18.957 -85.517)"/>
            <path id="Path_3158" d="M314.17-261.079a.969.969 0 0 1 .969.969v1.995h-2.952l1.1-2.4a.969.969 0 0 1 .883-.564z" class="cls-3" data-name="Path 3158" transform="translate(-283.732 -5.112)"/>
            <path id="Path_3159" d="M315.257-228.559v4.416a.683.683 0 0 1-.684.684h2.051a.683.683 0 0 0 .684-.684v-4.416z" class="cls-4" data-name="Path 3159" transform="translate(-285.9 -34.668)"/>
            <path id="Path_3160" fill="#efecef" d="M169.122-226.009h9.273a.869.869 0 0 0 .869-.869v-1.681h-11.011v1.681a.869.869 0 0 0 .869.869z" data-name="Path 3160" transform="translate(-152.917 -34.668)"/>
            <path id="Path_3161" d="M357.579-216.969h-1.709a.342.342 0 0 1 .342.342v2.3a.342.342 0 0 1-.342.342h1.709a.342.342 0 0 0 .342-.342v-2.3a.342.342 0 0 0-.342-.342z" class="cls-8" data-name="Path 3161" transform="translate(-323.433 -45.202)"/>
            <path id="Path_3162" d="M253.71-172.61l-2.4 2.919a.683.683 0 0 1-.528.249h2.051a.684.684 0 0 0 .528-.249l2.4-2.919z" class="cls-8" data-name="Path 3162" transform="translate(-227.922 -85.517)"/>
            <path id="Path_3163" d="M12.87-258.64v-1.877a.513.513 0 0 0-.513-.513.513.513 0 0 0-.513.513v1.877h-1.566v-1.877a.512.512 0 0 0-.513-.513.513.513 0 0 0-.513.513v1.877H7.687v-1.877a.513.513 0 0 0-.513-.513.512.512 0 0 0-.513.513v1.877H2.74l2.035-3.981a.171.171 0 0 1 .152-.093h5.783a.513.513 0 0 0 .513-.513.513.513 0 0 0-.513-.513H4.928a1.191 1.191 0 0 0-1.065.652l-.435.851H1.555a1.534 1.534 0 0 0-1.354.794 1.534 1.534 0 0 0 .03 1.569l1.233 2.015a.509.509 0 0 0 .042.058l2.4 2.919a1.192 1.192 0 0 0 .924.436h1.46l-.527 2.438a.513.513 0 0 0 .393.61.517.517 0 0 0 .109.011.512.512 0 0 0 .5-.4l.574-2.655h5.281L10.3-243.7a.359.359 0 0 1-.349.281H5.4a.35.35 0 0 1-.277-.133.351.351 0 0 1-.071-.3l1.245-5.757a.512.512 0 0 0-.393-.61.512.512 0 0 0-.609.393l-1.245 5.757a1.376 1.376 0 0 0 .275 1.16 1.376 1.376 0 0 0 1.076.514h4.548a1.389 1.389 0 0 0 1.351-1.09l1.347-6.227H16.9a2.689 2.689 0 0 0 2.685-2.686v-2.051h1.2a.513.513 0 0 0 .513-.513.513.513 0 0 0-.513-.513H4.832a.171.171 0 0 1-.132-.062l-1.712-2.08h23.766l-1.712 2.08a.17.17 0 0 1-.132.062h-1.887a.513.513 0 0 0-.513.513.513.513 0 0 0 .513.513h1.887a1.193 1.193 0 0 0 .924-.436l2.248-2.732h2.643a1.2 1.2 0 0 0 1.187-1.056h2.235a.855.855 0 0 0 .855-.855v-2.3a.855.855 0 0 0-.855-.855h-2.226v-2.539a1.484 1.484 0 0 0-1.482-1.482 1.486 1.486 0 0 0-1.346.863l-.965 2.1H12.945a.513.513 0 0 0-.512.513.513.513 0 0 0 .512.513h1.879v1.168a1.383 1.383 0 0 0 1.382 1.382h9.273a1.383 1.383 0 0 0 1.382-1.382v-1.168H30.9v3.9a.171.171 0 0 1-.171.171zm.8 4.193h1.3a5.812 5.812 0 0 0-.156 1.266 3.906 3.906 0 0 0 .756 2.445h-2.701zm4.889 2.051a1.662 1.662 0 0 1-1.518 1.654 3.24 3.24 0 0 1-1.013-3.7h2.531zM1.1-260.943a.517.517 0 0 1 .46-.269H2.9l-1.041 2.037-.756-1.235a.517.517 0 0 1-.003-.533zm24.739-.6a.357.357 0 0 1-.356.356h-9.277a.357.357 0 0 1-.356-.356v-1.168h9.985zm3.421-2.194l.769-1.673a.457.457 0 0 1 .414-.266.457.457 0 0 1 .456.456v1.482zm4.72 4.043h-2.059v-1.961h2.055z" data-name="Path 3163"/>
        </g>
    </g>
</svg>
