<svg xmlns="http://www.w3.org/2000/svg" width="45" height="45" viewBox="0 0 45 45">
    <defs>
        <clipPath id="clip-path">
            <path id="Path_2144" fill="none" d="M0-328.574h31.426V-360H0z" clip-rule="evenodd" data-name="Path 2144" transform="translate(0 360)"/>
        </clipPath>
        <style>
            .cls-4{fill:#eddb99}
        </style>
    </defs>
    <g id="Group_191" data-name="Group 191" transform="translate(-132 -739)">
        <circle id="Ellipse_658" cx="22.5" cy="22.5" r="22.5" fill="#003b71" data-name="Ellipse 658" transform="translate(132 739)"/>
        <g id="Group_240" data-name="Group 240" transform="translate(138.837 1105.837)">
            <g id="Group_240-2" clip-path="url(#clip-path)" data-name="Group 240" transform="translate(0 -360)">
                <path id="Path_2128" d="M29.046-335.463v4.969a2.682 2.682 0 0 1-2.682 2.682H8.682A2.682 2.682 0 0 1 6-330.494v-.638a52.371 52.371 0 0 1 4.695-21.674l.543-1.194H23.9a2.619 2.619 0 0 1 2.527 1.93l.771 2.826a52.375 52.375 0 0 1 1.848 13.781z" class="cls-4" data-name="Path 2128" transform="translate(-5.476 354.524)"/>
                <path id="Path_2129" fill="#e78604" d="M158.63-349.244l-.771-2.826a2.619 2.619 0 0 0-2.1-1.895V-354h-4.714v4.19h2.4A52.372 52.372 0 0 0 150-331.132v.638a2.682 2.682 0 0 0 2.682 2.682h5.111a2.682 2.682 0 0 0 2.682-2.682v-4.969a52.374 52.374 0 0 0-1.845-13.781z" data-name="Path 2129" transform="translate(-136.906 354.524)"/>
                <path id="Path_2130" fill="#ece8bf" d="M32.142-349.286a1.571 1.571 0 0 0 1.571 1.571H19.571A1.571 1.571 0 0 1 18-349.286v-2.1A2.619 2.619 0 0 1 20.619-354h14.142a2.619 2.619 0 0 0-2.619 2.619z" data-name="Path 2130" transform="translate(-16.429 354.524)"/>
                <path id="Path_2131" fill="#edbe33" d="M180-318h3.143v1.571a1.571 1.571 0 0 1-1.571 1.571 1.571 1.571 0 0 1-1.572-1.571z" data-name="Path 2131" transform="translate(-164.287 321.666)"/>
                <path id="Path_2132" fill="#379dc2" d="M66-162a8.377 8.377 0 0 0 .569 3.036l1.8 4.624a5.238 5.238 0 0 0 4.88 3.34h10.643a5.238 5.238 0 0 0 4.881-3.339l1.8-4.624a8.377 8.377 0 0 0 .568-3.037z" data-name="Path 2132" transform="translate(-60.239 179.284)"/>
                <path id="Path_2133" fill="#8acce7" d="M91.141-200.334c0 .944-1.222 1.8-3.231 2.454a31.992 31.992 0 0 1-9.339 1.213 31.992 31.992 0 0 1-9.339-1.213c-2.008-.65-3.231-1.51-3.231-2.454C66-202.359 71.628-204 78.57-204s12.571 1.641 12.571 3.666z" data-name="Path 2133" transform="translate(-60.239 217.618)"/>
                <path id="Path_2134" d="M120.856-165.381a.8.8 0 0 1-.088.359 31.993 31.993 0 0 1-9.339 1.213 31.993 31.993 0 0 1-9.339-1.213.8.8 0 0 1-.088-.359c0-1.446 4.221-2.619 9.428-2.619s9.426 1.173 9.426 2.619z" class="cls-4" data-name="Path 2134" transform="translate(-93.096 184.761)"/>
                <path id="Path_2135" fill="#a6b1bc" d="M258.854-328.016l4.169-6.822a1.527 1.527 0 0 1 2.089-.513 1.527 1.527 0 0 1 .7.945 1.529 1.529 0 0 1-.18 1.16l-4.169 6.822a1.527 1.527 0 0 1-2.089.513 1.527 1.527 0 0 1-.7-.945 1.529 1.529 0 0 1 .18-1.16z" data-name="Path 2135" transform="translate(-236.053 337.702)"/>
                <path id="Path_2136" fill="#956241" d="M234-58.051l4.2-.382a1.435 1.435 0 0 1 1.1.37 1.434 1.434 0 0 1 .461 1.063 1.434 1.434 0 0 1-.467 1.059 1.435 1.435 0 0 1-1.1.37l-4.2-.382z" data-name="Path 2136" transform="translate(-213.573 84.763)"/>
                <path id="Path_2137" fill="#722f24" d="M33.143-78h15.189a3.136 3.136 0 0 1 3.143 3.143 3.136 3.136 0 0 1-3.143 3.143H33.143A3.136 3.136 0 0 1 30-74.857 3.136 3.136 0 0 1 33.143-78z" data-name="Path 2137" transform="translate(-27.381 102.617)"/>
                <path id="Path_2138" fill="#984e3c" d="M36.285-74.857a3.143 3.143 0 0 1-3.143 3.143A3.143 3.143 0 0 1 30-74.857 3.143 3.143 0 0 1 33.143-78a3.144 3.144 0 0 1 2.222.92 3.144 3.144 0 0 1 .92 2.223z" data-name="Path 2138" transform="translate(-27.381 102.617)"/>
                <path id="Path_2139" fill="#ac7d4d" d="M10.718-55.861l-3.154.287a1.435 1.435 0 0 1-1.1-.37A1.435 1.435 0 0 1 6-57a1.435 1.435 0 0 1 .467-1.059 1.435 1.435 0 0 1 1.1-.37l3.154.287A1.147 1.147 0 0 1 11.761-57a1.147 1.147 0 0 1-1.043 1.139z" data-name="Path 2139" transform="translate(-5.476 84.763)"/>
                <path id="Path_2140" d="M1.242-335.076a2.146 2.146 0 0 1-.194-.894v-.638A51.753 51.753 0 0 1 3.6-352.667h11.467c-.482 1.511-.9 3.056-1.241 4.6l1.023.227c.36-1.623.8-3.245 1.32-4.827h1.116a2.1 2.1 0 0 0 2.1-2.1v-1.571a.524.524 0 0 0-.153-.37.524.524 0 0 0-.37-.153h-2.625a2.1 2.1 0 0 1 2.1-2.1h.095a2.1 2.1 0 0 1 2.021 1.544l.771 2.826c.183.67.354 1.354.51 2.033l1.021-.235c-.159-.692-.335-1.39-.521-2.074l-.771-2.826A3.149 3.149 0 0 0 18.427-360H4.19a3.146 3.146 0 0 0-3.143 3.143v2.1a2.1 2.1 0 0 0 1.479 2A52.811 52.811 0 0 0 0-336.608v.638a3.18 3.18 0 0 0 .288 1.328zm17.09-20.734v1.048a1.047 1.047 0 0 1-1.048 1.048 1.047 1.047 0 0 1-1.048-1.048v-1.048zM2.1-354.762v-2.1a2.1 2.1 0 0 1 2.1-2.1H16a3.131 3.131 0 0 0-.8 2.1v2.1a2.081 2.081 0 0 0 .281 1.048H3.143a1.049 1.049 0 0 1-1.043-1.048z" data-name="Path 2140" transform="translate(0 360)"/>
                <path id="Path_2141" d="M81.07-208.337l-.239 1.02c3.181.744 4.309 1.732 4.309 2.352 0 .533-.757 1.152-2.156 1.7-.245-.779-1.228-1.423-2.935-1.918l-.292 1.006c1.455.422 2.161.931 2.234 1.254a31.6 31.6 0 0 1-8.9 1.1 31.6 31.6 0 0 1-8.9-1.1c.1-.494 1.6-1.334 4.779-1.773l-.143-1.038a15.374 15.374 0 0 0-3.922.987 2.8 2.8 0 0 0-1.707 1.482c-1.4-.547-2.156-1.166-2.156-1.7 0-.221.18-1.005 2.5-1.829a26.77 26.77 0 0 1 6.965-1.235l-.065-1.045a27.826 27.826 0 0 0-7.251 1.293c-2.638.939-3.192 2.05-3.192 2.816a8.86 8.86 0 0 0 .605 3.225l1.06 2.726.976-.38-1.06-2.725a7.884 7.884 0 0 1-.3-.944 10.21 10.21 0 0 0 2.777 1.193 33.663 33.663 0 0 0 9.035 1.095 33.663 33.663 0 0 0 9.035-1.095 10.21 10.21 0 0 0 2.777-1.193 7.882 7.882 0 0 1-.3.944l-1.8 4.624a4.711 4.711 0 0 1-.7 1.218l.821.65a5.753 5.753 0 0 0 .853-1.488l1.8-4.624a8.86 8.86 0 0 0 .605-3.225c.005-1.894-3.201-2.926-5.113-3.373z" data-name="Path 2141" transform="translate(-54.762 222.249)"/>
                <path id="Path_2142" d="M176.062-333.315a10.741 10.741 0 0 0-5.922 5.264l-1.507 3.013.937.469 1.507-3.014a9.688 9.688 0 0 1 4.953-4.6 2.1 2.1 0 0 0 .1.3 15.415 15.415 0 0 0-3.684 4.716l-1.542 3 .931.479 1.543-3a14.37 14.37 0 0 1 3.4-4.369 2.074 2.074 0 0 0 .182.123 2 2 0 0 0 .216.111l-.656 1.226q-.857 1.6-1.766 3.316l-1.188 2.241.926.49 1.188-2.242q.9-1.718 1.763-3.31l.777-1.452a9.557 9.557 0 0 1-1.157 5.159l-.736 1.349.92.5.736-1.348a10.609 10.609 0 0 0 1.251-6.152 2.031 2.031 0 0 0 .532-.579l4.169-6.822a2.051 2.051 0 0 0-.681-2.819 2.051 2.051 0 0 0-2.819.68l-4.169 6.822a2.078 2.078 0 0 0-.204.449zm1.1.1l4.169-6.822a1 1 0 0 1 .621-.453 1 1 0 0 1 .759.119 1 1 0 0 1 .452.621 1 1 0 0 1-.12.759l-4.169 6.822a1 1 0 0 1-.621.453 1 1 0 0 1-.759-.119 1 1 0 0 1-.452-.621 1 1 0 0 1 .118-.759z" data-name="Path 2142" transform="translate(-153.912 343.174)"/>
                <path id="Path_2143" d="M26.074-81.779a1.964 1.964 0 0 0-1.5-.505l-.494.045A3.668 3.668 0 0 0 20.951-84H5.761a3.669 3.669 0 0 0-3.132 1.761l-.493-.045a1.96 1.96 0 0 0-1.465.475A1.958 1.958 0 0 0 0-80.422a1.958 1.958 0 0 0 .543 1.442 1.958 1.958 0 0 0 1.416.6c.059 0 .118 0 .176-.008l.493-.045a3.69 3.69 0 0 0 3.132 1.761h15.191a3.638 3.638 0 0 0 2.592-1.074 3.69 3.69 0 0 0 .541-.686l.493.045c.059.005.119.008.178.008a1.959 1.959 0 0 0 1.825-1.251 1.958 1.958 0 0 0-.506-2.149zM2.041-79.426a.912.912 0 0 1-.681-.221.911.911 0 0 1-.312-.644.912.912 0 0 1 .25-.671.913.913 0 0 1 .657-.283h.085l3.154.287a.623.623 0 0 1 .567.621.623.623 0 0 1-.567.621zm1.816.887l1.432-.13a1.671 1.671 0 0 0 1.519-1.664A1.671 1.671 0 0 0 5.29-82l-1.435-.13.055-.058a2.619 2.619 0 0 1 2.363-.712 2.619 2.619 0 0 1 1.909 1.566 2.619 2.619 0 0 1-.242 2.457 2.619 2.619 0 0 1-2.178 1.164 2.633 2.633 0 0 1-1.905-.826zm18.945.058a2.6 2.6 0 0 1-1.852.767H8.324a3.658 3.658 0 0 0 1.1-2.619 3.658 3.658 0 0 0-1.1-2.619h12.627a2.619 2.619 0 0 1 2.42 1.617 2.619 2.619 0 0 1-.571 2.853zm1.953-.941h-.084l-.163-.015a3.691 3.691 0 0 0 0-1.786l.164-.015a.911.911 0 0 1 .681.221.912.912 0 0 1 .312.645.909.909 0 0 1-.251.671.91.91 0 0 1-.659.279z" data-name="Path 2143" transform="translate(0 108.093)"/>
            </g>
        </g>
    </g>
</svg>
