<svg xmlns="http://www.w3.org/2000/svg" width="45" height="45" viewBox="0 0 45 45">
    <defs>
        <style>
            .cls-1{fill:#003b71;stroke:#023c72}.cls-2{fill:#ffc269}.cls-10,.cls-2,.cls-3,.cls-4,.cls-5,.cls-6,.cls-7,.cls-8,.cls-9{fill-rule:evenodd}.cls-3{fill:#c7c4c8}.cls-4{fill:#9ed4fe}.cls-5{fill:#ff8086}.cls-6{fill:#ffdf7d}.cls-7{fill:#72befb}.cls-8{fill:#ece9ec}.cls-9{fill:#ffa85e}.cls-10{fill:#d9d8da}.cls-12{stroke:none}.cls-13{fill:none}
        </style>
    </defs>
    <g id="Group_74" data-name="Group 74" transform="translate(-606 -837)">
        <g id="Ellipse_620" class="cls-1" data-name="Ellipse 620" transform="translate(606 837)">
            <circle cx="22.5" cy="22.5" r="22.5" class="cls-12"/>
            <circle cx="22.5" cy="22.5" r="22" class="cls-13"/>
        </g>
        <g id="Group_320" data-name="Group 320" transform="translate(162.949 158.991)">
            <g id="Ellipse_620-2" class="cls-1" data-name="Ellipse 620" transform="translate(463.051 698.009)">
                <ellipse cx="2" cy="1.5" class="cls-12" rx="2" ry="1.5"/>
                <ellipse cx="2" cy="1.5" class="cls-13" rx="1.5" ry="1"/>
            </g>
            <g id="Group_320-2" data-name="Group 320" transform="translate(450 685.18)">
                <path id="Path_3078" d="M286.472-157.059h-6.053v1.868a.357.357 0 0 1-.356.356h-.863v10.435h6.985a.289.289 0 0 0 .292-.283z" class="cls-2" data-name="Path 3078" transform="translate(-255.855 175.126)"/>
                <path id="Path_3079" d="M259.04-173.9h-10.6v2.664h10.6a.263.263 0 0 0 .263-.264v-2.137a.264.264 0 0 0-.263-.263z" class="cls-3" data-name="Path 3079" transform="translate(-227.672 190.555)"/>
                <path id="Path_3080" d="M216.477-215.7h3.3v7.016h-3.3z" class="cls-4" data-name="Path 3080" transform="translate(-198.38 228.86)"/>
                <path id="Path_3081" d="M195.592-367.555H192.3a.3.3 0 0 0-.3.3v2.669h3.592a.326.326 0 0 0 .326-.324v-2.322a.326.326 0 0 0-.326-.323z" class="cls-5" data-name="Path 3081" transform="translate(-175.949 368.025)"/>
                <path id="Path_3082" d="M124.531-115.43h11.281v9.179h-11.281z" class="cls-6" data-name="Path 3082" transform="translate(-114.12 136.977)"/>
                <path id="Path_3083" d="M315.509-90.443a.3.3 0 0 0-.3-.3h-1.777a.3.3 0 0 0-.3.3v3.331a.3.3 0 0 0 .3.3h1.777a.3.3 0 0 0 .3-.3z" class="cls-4" data-name="Path 3083" transform="translate(-286.963 114.35)"/>
                <path id="Path_3084" d="M313.436-89.3h1.777a.3.3 0 0 1 .3.3v-1.436a.3.3 0 0 0-.3-.3h-1.777a.3.3 0 0 0-.3.3V-89a.3.3 0 0 1 .3-.3z" class="cls-7" data-name="Path 3084" transform="translate(-286.963 114.35)"/>
                <path id="Path_3085" d="M23.811-157.059h-6.053v12.376a.289.289 0 0 0 .292.283h6.985v-10.435h-.868a.357.357 0 0 1-.356-.356z" class="cls-2" data-name="Path 3085" transform="translate(-16.273 175.126)"/>
                <path id="Path_3086" d="M97.289-115.43h2.277v9.179h-2.277z" class="cls-8" data-name="Path 3086" transform="translate(-89.156 136.977)"/>
                <path id="Path_3087" d="M167.559-80.072a2.46 2.46 0 0 0-2.453-2.452 2.46 2.46 0 0 0-2.453 2.452v3.972h4.907v-3.977z" class="cls-4" data-name="Path 3087" transform="translate(-149.055 106.822)"/>
                <path id="Path_3088" d="M16.487-173.9h-10.6a.263.263 0 0 0-.262.264v2.137a.263.263 0 0 0 .262.264h10.6z" class="cls-3" data-name="Path 3088" transform="translate(-5.155 190.555)"/>
                <path id="Path_3089" d="M259.469-115.43h2.277v9.179h-2.277z" class="cls-8" data-name="Path 3089" transform="translate(-237.778 136.977)"/>
                <path id="Path_3090" d="M17.758-142.031h5.425v1.735h-5.425z" class="cls-9" data-name="Path 3090" transform="translate(-16.273 161.355)"/>
                <path id="Path_3091" d="M301.352-142.031h5.425v1.735h-5.425z" class="cls-9" data-name="Path 3091" transform="translate(-276.16 161.355)"/>
                <path id="Path_3092" d="M128.043-215.7h3.3v7.016h-3.3z" class="cls-4" data-name="Path 3092" transform="translate(-117.339 228.86)"/>
                <path id="Path_3093" d="M160.012-215.7h2.674v7.016h-2.674z" class="cls-4" data-name="Path 3093" transform="translate(-146.635 228.86)"/>
                <path id="Path_3094" d="M191.32-215.7h-2.674l-.306 3.185.306 3.831h2.674z" class="cls-4" data-name="Path 3094" transform="translate(-172.595 228.86)"/>
                <path id="Path_3095" d="M124.7-231.36h-12.772a.335.335 0 0 0-.334.336v1.495a.335.335 0 0 0 .334.336H124.7a.335.335 0 0 0 .334-.336v-1.495a.335.335 0 0 0-.334-.336z" class="cls-5" data-name="Path 3095" transform="translate(-102.265 243.216)"/>
                <path id="Path_3096" d="M133.39-295.317a5.347 5.347 0 0 0-5.347 5.347h3.135c1.422-1.107 1.922-3.39 2.212-5.347z" class="cls-2" data-name="Path 3096" transform="translate(-117.339 301.826)"/>
                <path id="Path_3097" d="M197.347-289.97a5.347 5.347 0 0 0-5.347-5.347c.15 1.055-.279 4.845 2.211 5.347z" class="cls-2" data-name="Path 3097" transform="translate(-175.949 301.826)"/>
                <path id="Path_3098" d="M169.97-289.97c0-2.952-.991-5.347-2.211-5.347s-2.211 2.395-2.211 5.347z" class="cls-6" data-name="Path 3098" transform="translate(-151.708 301.826)"/>
                <path id="Path_3099" d="M97.289-115.43h2.277v1.535h-2.277z" class="cls-10" data-name="Path 3099" transform="translate(-89.156 136.977)"/>
                <path id="Path_3100" d="M259.469-115.43h2.277v1.535h-2.277z" class="cls-10" data-name="Path 3100" transform="translate(-237.778 136.977)"/>
                <path id="Path_3101" d="M162.652-78.636a2.462 2.462 0 0 1 2.453-2.453 2.462 2.462 0 0 1 2.453 2.453v-1.436a2.46 2.46 0 0 0-2.453-2.452 2.46 2.46 0 0 0-2.453 2.452z" class="cls-7" data-name="Path 3101" transform="translate(-149.055 106.822)"/>
                <path id="Path_3102" d="M44.6-90.738h-1.774a.3.3 0 0 0-.3.3v3.331a.3.3 0 0 0 .3.3H44.6a.3.3 0 0 0 .3-.3v-3.331a.3.3 0 0 0-.3-.3z" class="cls-4" data-name="Path 3102" transform="translate(-38.975 114.35)"/>
                <path id="Path_3103" d="M42.531-89.007a.3.3 0 0 1 .3-.3H44.6a.3.3 0 0 1 .3.3v-1.436a.3.3 0 0 0-.3-.3h-1.774a.3.3 0 0 0-.3.3z" class="cls-7" data-name="Path 3103" transform="translate(-38.975 114.35)"/>
                <path id="Path_3104" d="M100.931-142.031H82.648v1.868a.357.357 0 0 0 .356.356h17.572a.357.357 0 0 0 .356-.356z" class="cls-5" data-name="Path 3104" transform="translate(-75.739 161.355)"/>
                <path id="Path_3105" fill="#f66672" fill-rule="evenodd" d="M82.648-140.919h18.283v-1.112H82.648z" data-name="Path 3105" transform="translate(-75.739 161.355)"/>
                <path id="Path_3106" d="M128.043-205.438h10.693v1.208h-10.693z" class="cls-7" data-name="Path 3106" transform="translate(-117.339 219.461)"/>
                <path id="Path_3107" d="M308.282-91.5h1.777a.766.766 0 0 0 .765-.765V-95.6a.766.766 0 0 0-.765-.765h-1.777a.767.767 0 0 0-.766.765v3.331a.766.766 0 0 0 .766.769zm.175-3.921h1.428v2.981h-1.428z" data-name="Path 3107" transform="translate(-281.808 119.504)"/>
                <path id="Path_3108" d="M31.368-356.99h-9.5v-1.7h.571a.806.806 0 0 0 .8-.806v-1.495a.806.806 0 0 0-.8-.807h-.59a5.826 5.826 0 0 0-5.327-5.328v-2.148h3.122a.8.8 0 0 0 .8-.794v-2.322a.8.8 0 0 0-.8-.794h-3.292a.772.772 0 0 0-.771.771v5.287a5.826 5.826 0 0 0-5.327 5.328h-.59a.806.806 0 0 0-.8.807v1.495a.806.806 0 0 0 .8.806h.571v1.7H6.664a.47.47 0 0 0-.47.47.47.47 0 0 0 .47.47h3.571v1.723H.94v-1.723h3.551a.47.47 0 0 0 .47-.47.47.47 0 0 0-.47-.47H.732a.734.734 0 0 0-.732.734v2.137a.734.734 0 0 0 .732.734h.282v10.65a.758.758 0 0 0 .762.753h28.549a.758.758 0 0 0 .762-.753v-10.65h.281a.735.735 0 0 0 .733-.734v-2.137a.735.735 0 0 0-.733-.734zm-14.847-15.25H19.5v2.029h-2.979zm4.406 13.553v4.36H19.2v-4.36zm-4.406 4.36v-4.36h1.734v4.36zm-2.674 0v-4.36h1.734v4.36zm7.058-7.468h-2.181a9.485 9.485 0 0 0-.969-4.1 4.887 4.887 0 0 1 3.145 4.101zm-4.854-4.405c.689 0 1.635 1.664 1.733 4.406h-3.466c.098-2.743 1.044-4.406 1.733-4.406zm-1.7.308a9.486 9.486 0 0 0-.969 4.1H11.2a4.888 4.888 0 0 1 3.147-4.1zM9.8-360.854h12.5v1.227H9.8zm1.375 6.527v-4.36h1.732v4.36zm13.547.94v1.283H17.23a.47.47 0 0 0-.47.47.47.47 0 0 0 .47.47h3.991v8.239h-2.247v-3.507a2.926 2.926 0 0 0-2.924-2.922 2.926 2.926 0 0 0-2.924 2.922v3.507h-2.245v-8.239h4.142a.47.47 0 0 0 .47-.47.47.47 0 0 0-.47-.47H7.379v-1.283zm-22.767 0h4.484v1.4a.827.827 0 0 0 .826.826h.4v8.239h-5.71zM8.6-342.923v-8.239h1.34v8.239zm5.464 0v-3.507a1.985 1.985 0 0 1 1.983-1.982 1.985 1.985 0 0 1 1.983 1.982v3.507zm8.094 0v-8.239H23.5v8.239zm7.986 0h-5.705v-8.239h.4a.827.827 0 0 0 .826-.826v-1.4h4.484zm1.014-11.4h-9.291v-1.723h9.294z" data-name="Path 3108" transform="translate(0 373.18)"/>
                <path id="Path_3109" d="M39.449-96.363h-1.778a.766.766 0 0 0-.765.765v3.331a.766.766 0 0 0 .765.765h1.777a.766.766 0 0 0 .766-.765V-95.6a.766.766 0 0 0-.765-.763zm-.175 3.921h-1.428v-2.981h1.428z" data-name="Path 3109" transform="translate(-33.821 119.504)"/>
            </g>
        </g>
    </g>
</svg>
