<svg xmlns="http://www.w3.org/2000/svg" width="45" height="45" viewBox="0 0 45 45">
    <defs>
        <style>
            .cls-3{fill:#b05020}
        </style>
    </defs>
    <g id="Group_172" data-name="Group 172" transform="translate(-227 -739)">
        <circle id="Ellipse_653" cx="22.5" cy="22.5" r="22.5" fill="#003b71" data-name="Ellipse 653" transform="translate(227 739)"/>
        <g id="Group_293" data-name="Group 293" transform="translate(235.494 1130.494)">
            <path id="Path_2703" fill="#c63" d="M5.625-376.562h28.163v-1.813H5.625z" data-name="Path 2703" transform="translate(-5.2 -5.2)"/>
            <path id="Path_2704" d="M355.875-376.562h1.7v-1.813h-1.7z" class="cls-3" data-name="Path 2704" transform="translate(-328.987 -5.2)"/>
            <path id="Path_2705" d="M76.5-354.375h1.813v23.516H76.5z" class="cls-3" data-name="Path 2705" transform="translate(-70.72 -27.387)"/>
            <path id="Path_2706" fill="#ec9a45" d="M32.2-44.452H7.212a1.587 1.587 0 0 1-1.587-1.587 1.587 1.587 0 0 1 1.587-1.587H32.2a1.587 1.587 0 0 1 1.587 1.587 1.587 1.587 0 0 1-1.587 1.587z" data-name="Path 2706" transform="translate(-5.2 -310.96)"/>
            <path id="Path_2707" fill="#d98b3b" d="M336.575-47.625h-1.7a1.587 1.587 0 0 1 1.587 1.587 1.587 1.587 0 0 1-1.587 1.587h1.7a1.587 1.587 0 0 0 1.587-1.587 1.587 1.587 0 0 0-1.587-1.587z" data-name="Path 2707" transform="translate(-309.574 -310.96)"/>
            <path id="Path_2708" d="M28.588-381.337a.425.425 0 0 0 .425-.425v-1.813a.425.425 0 0 0-.425-.425H25.4a.425.425 0 0 0-.425.425.425.425 0 0 0 .425.425h2.763v.963h-7.752v-.963h3.154a.425.425 0 0 0 .425-.425.425.425 0 0 0-.425-.425H.425a.425.425 0 0 0-.425.425v1.813a.425.425 0 0 0 .425.425h4.93v19.037a.425.425 0 0 0 .425.425.425.425 0 0 0 .42-.425v-19.041h.963v22.326H6.2v-1.466a.425.425 0 0 0-.425-.425.425.425 0 0 0-.425.425v1.466H2.012A2.014 2.014 0 0 0 0-357a2.014 2.014 0 0 0 2.012 2.012h19.73a.425.425 0 0 0 .425-.425.425.425 0 0 0-.425-.425H2.012A1.163 1.163 0 0 1 .85-357a1.163 1.163 0 0 1 1.162-1.162H27A1.163 1.163 0 0 1 28.163-357 1.163 1.163 0 0 1 27-355.837h-3.424a.425.425 0 0 0-.425.425.425.425 0 0 0 .425.425H27A2.014 2.014 0 0 0 29.013-357 2.014 2.014 0 0 0 27-359.01H8.018v-22.326h11.543v4.721c-1 .3-1.739 1.674-1.739 3.365 0 1.922.951 3.428 2.164 3.428s2.164-1.506 2.164-3.428c0-1.691-.736-3.06-1.739-3.365v-4.721zm-7.288 8.086c0 1.519-.692 2.578-1.314 2.578-.774 0-1.314-1.359-1.314-2.578 0-1.519.692-2.578 1.314-2.578.775 0 1.314 1.359 1.314 2.578zM.85-382.187v-.963h18.711v.963z" data-name="Path 2708"/>
        </g>
    </g>
</svg>
