<svg xmlns="http://www.w3.org/2000/svg" width="45" height="45" viewBox="0 0 45 45">
    <defs>
        <style>
            .cls-2{fill:#c78640}.cls-3{fill:#dfecff}.cls-4{fill:#ffc331}.cls-5{fill:#ffa100}
        </style>
    </defs>
    <g id="Group_195" data-name="Group 195" transform="translate(-1838 -739)">
        <circle id="Ellipse_595" cx="22.5" cy="22.5" r="22.5" fill="#003b71" data-name="Ellipse 595" transform="translate(1838 739)"/>
        <g id="Group_289" data-name="Group 289" transform="translate(1843.716 1048.43)">
            <path id="Path_2623" d="M222-138h11.941v11.941H222z" class="cls-2" data-name="Path 2623" transform="translate(-201.917 -147.345)"/>
            <path id="Path_2624" d="M246-114h7.6v7.6H246z" class="cls-3" data-name="Path 2624" transform="translate(-223.745 -169.173)"/>
            <path id="Path_2625" d="M222-294h11.941v11.941H222z" class="cls-2" data-name="Path 2625" transform="translate(-201.917 -5.457)"/>
            <path id="Path_2626" d="M246-270h7.6v7.6H246z" class="cls-3" data-name="Path 2626" transform="translate(-223.745 -27.286)"/>
            <path id="Path_2627" d="M264-228h4.342v3.8H264z" class="cls-4" data-name="Path 2627" transform="translate(-240.117 -65.486)"/>
            <path id="Path_2628" d="M264-249.829l2.171-2.171 2.171 2.171z" class="cls-5" data-name="Path 2628" transform="translate(-240.117 -43.658)"/>
            <path id="Path_2629" d="M6-294h17.369v26.054H6z" class="cls-2" data-name="Path 2629" transform="translate(-5.457 -5.457)"/>
            <path id="Path_2630" d="M36-264h11.941v20.626H36z" class="cls-3" data-name="Path 2630" transform="translate(-32.743 -32.743)"/>
            <path id="Path_2631" d="M60-162h7.6v7.056H60z" class="cls-4" data-name="Path 2631" transform="translate(-54.572 -125.516)"/>
            <path id="Path_2632" fill="#bdd0f1" d="M36-84h11.941v4.342H36z" data-name="Path 2632" transform="translate(-32.743 -196.459)"/>
            <path id="Path_2633" d="M84-183.829L85.628-186l1.628 2.171z" class="cls-5" data-name="Path 2633" transform="translate(-76.401 -103.687)"/>
            <path id="Path_2634" fill="#00b45b" d="M286-207.829l.181-.543A2.381 2.381 0 0 1 288.44-210h1.54v2.171z" data-name="Path 2634" transform="translate(-260.127 -81.858)"/>
            <path id="Path_2635" fill="#01c26a" d="M249.8-207.829a2.171 2.171 0 0 0-2.172-2.171H246v2.171z" data-name="Path 2635" transform="translate(-223.745 -81.858)"/>
            <path id="Path_2636" d="M276-73.658l.475-3.8a.615.615 0 0 1 .61-.539.615.615 0 0 1 .61.539l.475 3.8z" class="cls-4" data-name="Path 2636" transform="translate(-251.032 -201.917)"/>
            <path id="Path_2637" d="M.543-272.86h17.369a.543.543 0 0 0 .384-.159.543.543 0 0 0 .159-.384v-26.054a.543.543 0 0 0-.159-.384.543.543 0 0 0-.384-.159H.543a.543.543 0 0 0-.384.159.543.543 0 0 0-.159.384v26.057a.543.543 0 0 0 .159.384.543.543 0 0 0 .384.156zm3.257-7.057h10.855v3.257H3.8zm4.342-7.056h2.171V-281H8.142zM11.4-284.8h1.086v3.8H11.4zm1.086-1.086H11.4v-1.086h1.086zm-3.8-2.171l.543-.724.543.724zm-1.628 2.171H5.971v-1.086h1.085zM5.971-284.8h1.085v3.8H5.971zm8.685 3.8H13.57v-6.513a.543.543 0 0 0-.159-.384.543.543 0 0 0-.384-.159h-1.9l-1.465-1.954a.544.544 0 0 0-.434-.217.544.544 0 0 0-.434.217l-1.465 1.954h-1.9a.543.543 0 0 0-.384.159.543.543 0 0 0-.159.384V-281H3.8v-15.2h10.855zm-11.175 5.426h11.492l1.628 1.628H1.853zm12.26-.767v-20.177l1.628-1.628v23.433zm-.768-20.944H3.481l-1.628-1.628H16.6zm-12.26.768v20.177l-1.628 1.628v-23.433z" data-name="Path 2637"/>
            <path id="Path_2638" d="M228.484-300h-11.941a.543.543 0 0 0-.384.159.543.543 0 0 0-.159.384v11.941a.543.543 0 0 0 .159.384.543.543 0 0 0 .384.159h11.941a.543.543 0 0 0 .384-.159.543.543 0 0 0 .159-.384v-11.941a.543.543 0 0 0-.159-.384.543.543 0 0 0-.384-.159zm-2.714 7.6h-.543v-1.086a.541.541 0 0 0-.159-.384l-2.171-2.171a.542.542 0 0 0-.768 0l-2.171 2.171a.541.541 0 0 0-.159.384v1.086h-.543v-4.342h6.514zm-3.265 1.077a2.718 2.718 0 0 0-1.62-1.022v-.6h3.257v.612a2.919 2.919 0 0 0-1.637 1.009zm-.853-2.706l.861-.861.861.861zm-2.4 2.714h1.086a1.631 1.631 0 0 1 1.535 1.086h-2.621zm5.516 0h1v1.086H223.1a1.835 1.835 0 0 1 1.673-1.086zm1.316-6.513h-7.15l-1.086-1.086h9.321zm-7.917.768v7.15l-1.086 1.086v-9.321zm.768 7.917h7.15l1.086 1.086h-9.321zm7.917-.767v-7.15l1.086-1.086v9.321z" data-name="Path 2638" transform="translate(-196.459)"/>
            <path id="Path_2639" d="M228.484-144h-11.941a.543.543 0 0 0-.384.159.543.543 0 0 0-.159.384v11.941a.543.543 0 0 0 .159.384.543.543 0 0 0 .384.159h11.941a.543.543 0 0 0 .384-.159.543.543 0 0 0 .159-.384v-11.941a.543.543 0 0 0-.159-.384.543.543 0 0 0-.384-.159zm-2.4 2.171h-7.15l-1.086-1.086h9.321zm-3.646 4.406a.072.072 0 0 1 .143 0l.4 3.194h-.941zm1.636 3.194l-.339-2.714h.946v-1.086h-1.192a1.162 1.162 0 0 0-.437-.406v-1.222h-1.086v1.222a1.162 1.162 0 0 0-.437.406h-1.192v1.086h.946l-.339 2.714h-1.692v-6.514h6.514v6.514zm-5.907-6.832v7.15l-1.086 1.086v-9.321zm.768 7.917h7.15l1.086 1.086h-9.321zm7.917-.768v-7.15l1.086-1.086v9.321z" data-name="Path 2639" transform="translate(-196.459 -141.887)"/>
            <path id="Path_2640" d="M96-150h1.086v1.086H96z" data-name="Path 2640" transform="translate(-87.315 -136.43)"/>
            <path id="Path_2641" d="M96-132h1.086v1.086H96z" data-name="Path 2641" transform="translate(-87.315 -152.802)"/>
            <path id="Path_2642" d="M96-114h1.086v1.086H96z" data-name="Path 2642" transform="translate(-87.315 -169.173)"/>
        </g>
    </g>
</svg>
