<svg xmlns="http://www.w3.org/2000/svg" width="45" height="45" viewBox="0 0 45 45">
    <defs>
        <style>
            .cls-2{fill:#f4efec}.cls-4{fill:#526faa}.cls-6{fill:#33508b}.cls-7{fill:#6f8cc7}.cls-8{fill:#690489}.cls-11{fill:#8752a7}
        </style>
    </defs>
    <g id="Group_187" data-name="Group 187" transform="translate(-701 -739)">
        <circle id="Ellipse_602" cx="22.5" cy="22.5" r="22.5" fill="#003b71" data-name="Ellipse 602" transform="translate(701 739)"/>
        <g id="Group_246" data-name="Group 246" transform="translate(709 1125)">
            <path id="Path_2317" d="M3-375h29.322v29.322H3z" class="cls-2" data-name="Path 2317" transform="translate(-2.764 -2.763)"/>
            <path id="Path_2318" fill="#d5d0cf" d="M360-375h1.182v29.322H360z" data-name="Path 2318" transform="translate(-331.624 -2.763)"/>
            <path id="Path_2319" d="M323.527-54.473h4.057v4.057h-4.057z" class="cls-4" data-name="Path 2319" transform="translate(-298.026 -298.026)"/>
            <path id="Path_2320" fill="#fff" d="M3-375h1.182v29.322H3z" data-name="Path 2320" transform="translate(-2.764 -2.763)"/>
            <path id="Path_2321" d="M3-375h4.057v4.057H3z" class="cls-4" data-name="Path 2321" transform="translate(-2.764 -2.763)"/>
            <path id="Path_2322" d="M323.527-375h4.057v4.057h-4.057z" class="cls-4" data-name="Path 2322" transform="translate(-298.026 -2.763)"/>
            <path id="Path_2323" d="M3-54.473h4.057v4.057H3z" class="cls-4" data-name="Path 2323" transform="translate(-2.764 -298.026)"/>
            <path id="Path_2324" d="M360-54.473h1.182v4.057H360z" class="cls-6" data-name="Path 2324" transform="translate(-331.624 -298.026)"/>
            <path id="Path_2325" d="M360-375h1.182v4.057H360z" class="cls-6" data-name="Path 2325" transform="translate(-331.624 -2.763)"/>
            <path id="Path_2326" d="M3-54.473h1.182v4.057H3z" class="cls-7" data-name="Path 2326" transform="translate(-2.764 -298.026)"/>
            <path id="Path_2327" d="M3-375h1.182v4.057H3z" class="cls-7" data-name="Path 2327" transform="translate(-2.764 -2.763)"/>
            <path id="Path_2328" d="M320.764-348.2a.237.237 0 0 1-.236-.236v-29.322a.237.237 0 0 1 .236-.236.236.236 0 0 1 .236.236v29.322a.236.236 0 0 1-.236.236z" class="cls-8" data-name="Path 2328" transform="translate(-295.262)"/>
            <path id="Path_2329" d="M29.559-348.2H.236a.237.237 0 0 1-.236-.241v-29.322A.237.237 0 0 1 .236-378h29.323a.237.237 0 0 1 .236.236v29.322a.237.237 0 0 1-.236.242zm-29.086-.478h28.849v-28.849H.473z" class="cls-8" data-name="Path 2329"/>
            <path id="Path_2330" d="M51.705-348.2a.236.236 0 0 1-.236-.236v-29.322a.236.236 0 0 1 .236-.236.236.236 0 0 1 .236.236v29.322a.236.236 0 0 1-.236.236z" class="cls-8" data-name="Path 2330" transform="translate(-47.412)"/>
            <path id="Path_2331" d="M118.97-348.2a.237.237 0 0 1-.236-.236v-29.322a.237.237 0 0 1 .236-.236.236.236 0 0 1 .236.236v29.322a.236.236 0 0 1-.236.236z" class="cls-8" data-name="Path 2331" transform="translate(-109.375)"/>
            <path id="Path_2332" d="M186.236-348.2a.237.237 0 0 1-.236-.236v-29.322a.237.237 0 0 1 .236-.236.237.237 0 0 1 .236.236v29.322a.237.237 0 0 1-.236.236z" class="cls-8" data-name="Path 2332" transform="translate(-171.339)"/>
            <path id="Path_2333" d="M253.5-348.2a.236.236 0 0 1-.236-.236v-29.322a.236.236 0 0 1 .236-.242.237.237 0 0 1 .237.236v29.322a.237.237 0 0 1-.237.242z" class="cls-8" data-name="Path 2333" transform="translate(-233.302)"/>
            <path id="Path_2334" d="M29.559-57H.236A.236.236 0 0 1 0-57.237a.237.237 0 0 1 .236-.236h29.323a.237.237 0 0 1 .236.236.236.236 0 0 1-.236.237z" class="cls-8" data-name="Path 2334" transform="translate(0 -295.262)"/>
            <path id="Path_2335" d="M29.559-124.261H.236A.237.237 0 0 1 0-124.5a.236.236 0 0 1 .236-.236h29.323a.236.236 0 0 1 .236.236.237.237 0 0 1-.236.239z" class="cls-8" data-name="Path 2335" transform="translate(0 -233.303)"/>
            <path id="Path_2336" d="M29.559-191.527H.236a.237.237 0 0 1-.236-.237.237.237 0 0 1 .236-.236h29.323a.237.237 0 0 1 .236.236.237.237 0 0 1-.236.237z" class="cls-8" data-name="Path 2336" transform="translate(0 -171.339)"/>
            <path id="Path_2337" d="M29.559-258.793H.236A.237.237 0 0 1 0-259.03a.237.237 0 0 1 .236-.236h29.323a.237.237 0 0 1 .236.236.237.237 0 0 1-.236.237z" class="cls-8" data-name="Path 2337" transform="translate(0 -109.375)"/>
            <path id="Path_2338" d="M29.559-326.058H.236a.237.237 0 0 1-.236-.237.237.237 0 0 1 .236-.236h29.323a.237.237 0 0 1 .236.236.237.237 0 0 1-.236.237z" class="cls-8" data-name="Path 2338" transform="translate(0 -47.412)"/>
            <path id="Path_2339" fill="#fbc24b" d="M54.473-323.527h21.208v21.208H54.473z" data-name="Path 2339" transform="translate(-50.179 -50.179)"/>
            <path id="Path_2340" d="M72.913-304.85H51.705a.236.236 0 0 1-.236-.236v-21.208a.236.236 0 0 1 .236-.236h21.208a.236.236 0 0 1 .236.236v21.208a.236.236 0 0 1-.236.236zm-20.972-.473h20.736v-20.735H51.942z" class="cls-8" data-name="Path 2340" transform="translate(-47.412 -47.412)"/>
            <path id="Path_2341" d="M116.794-226.381h-4.672a.591.591 0 0 1-.591-.591v-4.671a.591.591 0 0 1 .591-.591h4.672a.591.591 0 0 1 .591.591v4.671a.591.591 0 0 1-.591.591z" class="cls-2" data-name="Path 2341" transform="translate(-102.74 -134.276)"/>
            <path id="Path_2342" fill="#ff4297" d="M135.043-210.146a1.186 1.186 0 0 1 .792 1.478 1.186 1.186 0 0 1-1.478.793 1.186 1.186 0 0 1-.793-1.478 1.186 1.186 0 0 1 1.479-.793z" data-name="Path 2342" transform="translate(-122.99 -154.576)"/>
            <path id="Path_2343" d="M114.03-228.908h-4.672a.828.828 0 0 1-.828-.828v-4.671a.828.828 0 0 1 .828-.828h4.672a.828.828 0 0 1 .828.828v4.671a.828.828 0 0 1-.828.828zm-4.672-5.853a.355.355 0 0 0-.355.355v4.671a.355.355 0 0 0 .355.355h4.672a.355.355 0 0 0 .355-.355v-4.671a.355.355 0 0 0-.355-.355z" class="cls-8" data-name="Path 2343" transform="translate(-99.976 -131.513)"/>
            <path id="Path_2344" d="M132.036-210.306a1.424 1.424 0 0 1-1.423-1.423 1.424 1.424 0 0 1 1.423-1.423 1.424 1.424 0 0 1 1.423 1.423 1.424 1.424 0 0 1-1.423 1.423zm0-2.373a.951.951 0 0 0-.95.95.951.951 0 0 0 .95.95.951.951 0 0 0 .95-.95.951.951 0 0 0-.95-.95z" class="cls-8" data-name="Path 2344" transform="translate(-120.318 -151.854)"/>
            <path id="Path_2345" d="M179.116-242.817l-4.336-1.738a.591.591 0 0 1-.329-.769l1.737-4.336a.591.591 0 0 1 .769-.329l4.336 1.738a.591.591 0 0 1 .329.769l-1.737 4.336a.591.591 0 0 1-.769.329z" class="cls-2" data-name="Path 2345" transform="translate(-160.661 -117.882)"/>
            <path id="Path_2346" d="M176.57-245.3a.822.822 0 0 1-.308-.06l-4.336-1.738a.82.82 0 0 1-.453-.442.822.822 0 0 1-.007-.633l1.737-4.337a.829.829 0 0 1 1.076-.46l4.337 1.737a.822.822 0 0 1 .453.443.821.821 0 0 1 .007.633l-1.737 4.336a.821.821 0 0 1-.443.453.826.826 0 0 1-.326.068zm-2.6-7.257a.355.355 0 0 0-.329.223L171.9-248a.352.352 0 0 0 0 .271.353.353 0 0 0 .194.19l4.336 1.737a.352.352 0 0 0 .272 0 .352.352 0 0 0 .19-.194l1.737-4.336a.352.352 0 0 0 0-.271.351.351 0 0 0-.194-.19l-4.336-1.737a.346.346 0 0 0-.127-.025z" class="cls-8" data-name="Path 2346" transform="translate(-157.895 -115.121)"/>
            <path id="Path_2347" d="M202.485-227a.5.5 0 0 1-.656.281.5.5 0 0 1-.281-.656.5.5 0 0 1 .656-.281.5.5 0 0 1 .281.656z" class="cls-8" data-name="Path 2347" transform="translate(-185.628 -138.457)"/>
            <path id="Path_2348" d="M219.244-220.287a.5.5 0 0 1-.656.281.505.505 0 0 1-.281-.656.505.505 0 0 1 .656-.281.5.5 0 0 1 .281.656z" class="cls-8" data-name="Path 2348" transform="translate(-201.066 -144.644)"/>
            <path id="Path_2349" d="M236-213.57a.5.5 0 0 1-.656.281.5.5 0 0 1-.281-.656.5.5 0 0 1 .656-.281.5.5 0 0 1 .281.656z" class="cls-8" data-name="Path 2349" transform="translate(-216.505 -150.831)"/>
            <path id="Path_2350" d="M194.012-205.853a.5.5 0 0 1-.656.281.5.5 0 0 1-.281-.656.5.5 0 0 1 .656-.281.505.505 0 0 1 .281.656z" class="cls-8" data-name="Path 2350" transform="translate(-177.822 -157.94)"/>
            <path id="Path_2351" d="M210.769-199.138a.505.505 0 0 1-.656.281.5.5 0 0 1-.281-.657.5.5 0 0 1 .656-.281.5.5 0 0 1 .281.657z" class="cls-8" data-name="Path 2351" transform="translate(-193.259 -164.125)"/>
            <path id="Path_2352" d="M227.529-192.422a.5.5 0 0 1-.656.281.5.5 0 0 1-.281-.656.5.5 0 0 1 .656-.281.5.5 0 0 1 .281.656z" class="cls-8" data-name="Path 2352" transform="translate(-208.698 -170.313)"/>
            <path id="Path_2353" d="M15.236-231.667A.237.237 0 0 1 15-231.9v-1.419a.237.237 0 0 1 .236-.236.237.237 0 0 1 .236.236v1.419a.237.237 0 0 1-.236.233z" class="cls-8" data-name="Path 2353" transform="translate(-13.818 -133.056)"/>
            <path id="Path_2354" d="M71.355-134.359l3.248 3.248-1.863 1.863-3.248-3.252z" class="cls-11" data-name="Path 2354" transform="translate(-64.014 -224.436)"/>
            <path id="Path_2355" d="M245.527-308.566l3.248 3.248-1.863 1.863-3.248-3.248z" class="cls-11" data-name="Path 2355" transform="translate(-224.458 -63.961)"/>
            <path id="Path_2356" d="M69.958-131.736a.236.236 0 0 1-.167-.069l-3.248-3.248a.236.236 0 0 1-.069-.167.237.237 0 0 1 .069-.167l1.864-1.863a.236.236 0 0 1 .334 0l3.247 3.25a.236.236 0 0 1 0 .334l-1.863 1.866a.236.236 0 0 1-.167.064zm-2.914-3.485l2.913 2.914 1.529-1.529-2.914-2.913z" class="cls-8" data-name="Path 2356" transform="translate(-61.233 -221.709)"/>
            <path id="Path_2357" d="M244.164-305.914a.234.234 0 0 1-.167-.069l-3.248-3.248a.236.236 0 0 1 0-.334l1.864-1.864a.243.243 0 0 1 .334 0l3.248 3.248a.236.236 0 0 1 .069.167.236.236 0 0 1-.069.167l-1.864 1.864a.235.235 0 0 1-.167.069zm-2.914-3.485l2.913 2.914 1.529-1.529-2.914-2.913z" class="cls-8" data-name="Path 2357" transform="translate(-221.709 -61.262)"/>
        </g>
    </g>
</svg>
