<svg xmlns="http://www.w3.org/2000/svg" width="45" height="45" viewBox="0 0 45 45">
    <defs>
        <style>
            .cls-5{fill:#464e53}.cls-7{fill:#99331f}.cls-9{fill:#fff6e6}
        </style>
    </defs>
    <g id="Group_160" data-name="Group 160" transform="translate(-985 -739)">
        <circle id="Ellipse_586" cx="22.5" cy="22.5" r="22.5" fill="#003b71" data-name="Ellipse 586" transform="translate(985 739)"/>
        <g id="Group_304" data-name="Group 304" transform="translate(992.44 1129.207)">
            <path id="Path_2870" fill="#fabe2b" d="M91.517-361.337a11.687 11.687 0 0 0-1.725-.076 15.964 15.964 0 0 0-10.752 5.345v12.241l.772.088c2.329.266 3.94 1.006 4.791 2.2a4.294 4.294 0 0 1 .591 3.316 2.676 2.676 0 0 0 2.032 3.266 13.45 13.45 0 0 0 2.531.241 13.3 13.3 0 0 0 1.761-.131 13.334 13.334 0 0 0 11.612-13.3 13.551 13.551 0 0 0-11.613-13.19z" data-name="Path 2870" transform="translate(-72.795 -20.789)"/>
            <path id="Path_2871" fill="#ff9000" d="M248.608-347.181A13.551 13.551 0 0 0 237-360.375v26.491a13.335 13.335 0 0 0 11.608-13.297z" data-name="Path 2871" transform="translate(-218.275 -21.751)"/>
            <path id="Path_2872" fill="#00c7c7" d="M245.182-284.821a2.673 2.673 0 0 1 0-3.772 2.67 2.67 0 0 1 3.772 0 2.669 2.669 0 0 1 0 3.771 2.672 2.672 0 0 1-3.772.001z" data-name="Path 2872" transform="translate(-225.096 -87.145)"/>
            <path id="Path_2873" d="M157.541-309.321a2.664 2.664 0 0 1 1.885-3.264 2.671 2.671 0 0 1 3.265 1.885 2.664 2.664 0 0 1-1.885 3.265 2.663 2.663 0 0 1-3.265-1.886z" class="cls-5" data-name="Path 2873" transform="translate(-145.011 -65.682)"/>
            <path id="Path_2874" fill="#ff425b" d="M95.786-243.806a2.669 2.669 0 0 1-1.885-3.265 2.663 2.663 0 0 1 3.264-1.885 2.663 2.663 0 0 1 1.886 3.265 2.665 2.665 0 0 1-3.265 1.885z" data-name="Path 2874" transform="translate(-86.399 -124.284)"/>
            <path id="Path_2875" d="M269.646-197.219a2.663 2.663 0 0 1-1.885-3.265 2.665 2.665 0 0 1 3.265-1.885 2.668 2.668 0 0 1 1.885 3.265 2.664 2.664 0 0 1-3.265 1.885z" class="cls-7" data-name="Path 2875" transform="translate(-246.525 -167.192)"/>
            <path id="Path_2876" fill="#b35324" d="M37.166-383.992c-2.2 0-2.666 8.275-2.666 15.167 0 .31 0 .594.006.889l1.882.889h2.037l1.4-.889c0-.295.006-.574.006-.889.001-6.892-.461-15.167-2.665-15.167z" data-name="Path 2876" transform="translate(-31.775)"/>
            <path id="Path_2877" d="M70.91-367.937c0-.295.006-.574.006-.889 0-6.892-.463-15.167-2.666-15.167v16.944h1.259z" class="cls-7" data-name="Path 2877" transform="translate(-62.859)"/>
            <path id="Path_2878" d="M39.9-180.746h-5.32c.032 3.93.257 6.512.27 6.749h4.78c.021-.434.239-2.649.27-6.749z" class="cls-9" data-name="Path 2878" transform="translate(-31.847 -187.191)"/>
            <path id="Path_2879" fill="#ffccb3" d="M70.91-180.746h-2.66V-174h2.39c.023-.431.241-2.646.27-6.746z" data-name="Path 2879" transform="translate(-62.859 -187.191)"/>
            <path id="Path_2880" d="M5.391-113.246a3.558 3.558 0 0 0-3.555 3.555v1.777A1.883 1.883 0 0 1 0-106.077v1.777h3.614a5.268 5.268 0 0 0 1.777-.327 5.4 5.4 0 0 0 3.555-5.064 3.558 3.558 0 0 0-3.555-3.555z" class="cls-5" data-name="Path 2880" transform="translate(0 -249.358)"/>
            <path id="Path_2881" fill="#32383f" d="M71.8-109.691a3.558 3.558 0 0 0-3.555-3.555v8.619a5.4 5.4 0 0 0 3.555-5.064z" data-name="Path 2881" transform="translate(-62.859 -249.358)"/>
            <path id="Path_2882" d="M208.578-133.08a2.666 2.666 0 0 1-2.666 2.666 2.666 2.666 0 0 1-2.666-2.666 2.666 2.666 0 0 1 2.666-2.666 2.666 2.666 0 0 1 2.666 2.666z" class="cls-9" data-name="Path 2882" transform="translate(-187.191 -228.636)"/>
            <path id="Path_2883" fill="#ffe6cc" d="M239.662-133.08a2.666 2.666 0 0 0-2.662-2.666v5.332a2.666 2.666 0 0 0 2.662-2.666z" data-name="Path 2883" transform="translate(-218.275 -228.636)"/>
        </g>
    </g>
</svg>
