<svg xmlns="http://www.w3.org/2000/svg" width="45" height="45" viewBox="0 0 45 45">
    <defs>
        <style>
            .cls-4{fill:#5b5d70}.cls-9{fill:#fff}.cls-10{fill:#e74b3c}.cls-11{fill:#ecf0f1}.cls-12{fill:#dfe2e2}.cls-13{fill:#d4d5d5}.cls-14{fill:#e67d21}.cls-15{fill:#77c6d8}.cls-16{fill:#83daff}
        </style>
    </defs>
    <g id="Group_177" data-name="Group 177" transform="translate(-37 -739)">
        <circle id="Ellipse_663" cx="22.5" cy="22.5" r="22.5" fill="#003b71" data-name="Ellipse 663" transform="translate(37 739)"/>
        <g id="Group_290" data-name="Group 290" transform="translate(43.612 1106.643)">
            <path id="Path_2643" fill="#464a58" d="M63.693-276.521l-.036 14.743c-.007 2.447-1.611 4.891-4.816 6.753-5.653 3.285-14.448 3.689-20.91 1.214a.591.591 0 0 1-.082-.039.268.268 0 0 1-.158-.223l.036-14.743a.269.269 0 0 0 .157.223.612.612 0 0 0 .082.039c6.461 2.475 15.257 2.071 20.91-1.214 3.206-1.862 4.81-4.306 4.817-6.753z" data-name="Path 2643" transform="translate(-34.379 -77.428)"/>
            <path id="Path_2644" fill="#525466" d="M155.085-269.768a23.946 23.946 0 0 1-11.913 2.8v14.743a23.926 23.926 0 0 0 11.878-2.8c3.206-1.863 4.809-4.306 4.816-6.753l.036-14.743c-.008 2.447-1.611 4.891-4.817 6.753z" data-name="Path 2644" transform="translate(-130.587 -77.428)"/>
            <path id="Path_2645" d="M264.926-269.768c-.425.247-.87.476-1.328.69v14.728c.446-.21.878-.434 1.292-.675 3.206-1.863 4.809-4.306 4.816-6.753l.036-14.743c-.007 2.447-1.611 4.891-4.816 6.753z" class="cls-4" data-name="Path 2645" transform="translate(-240.428 -77.428)"/>
            <path id="Path_2646" d="M61.209-339.029a.474.474 0 0 1 .067.047c4.294 3.735 3.625 8.83-2.031 12.118s-14.449 3.689-20.91 1.214a.612.612 0 0 1-.082-.039.236.236 0 0 1 0-.446l22.187-12.892a.854.854 0 0 1 .769-.002z" class="cls-4" data-name="Path 2646" transform="translate(-34.747 -20.332)"/>
            <path id="Path_2647" fill="#a77548" d="M30.956-277.658L30.951-276c-.005 2.71-1.79 5.409-5.343 7.474-6.919 4.021-18.033 4.158-25.282.407a.532.532 0 0 1-.326-.434l.005-1.657a.532.532 0 0 0 .325.432c7.25 3.752 18.363 3.615 25.283-.407 3.554-2.064 5.333-4.763 5.343-7.473z" data-name="Path 2647" transform="translate(0 -76.391)"/>
            <path id="Path_2648" fill="#bc864d" d="M26.263-361.245c6.537 4.212 6.34 10.648-.584 14.671S7.646-342.416.4-346.167c-.42-.241-.427-.6-.047-.819l24.538-14.26a1.517 1.517 0 0 1 1.372.001z" data-name="Path 2648" transform="translate(-.067)"/>
            <path id="Path_2649" fill="#9d6e45" d="M31.895-355.225a.919.919 0 0 1 .435.1c2.832 1.826 4.421 4.146 4.5 6.553 0-.03.005-.059.006-.088.058-2.519-1.55-4.963-4.5-6.868a.919.919 0 0 0-.435-.1.9.9 0 0 0-.43.1L7-341.317c.124.063.258.118.384.18l24.077-13.992a.9.9 0 0 1 .434-.096z" data-name="Path 2649" transform="translate(-6.388 -5.275)"/>
            <path id="Path_2650" fill="#2ecc70" d="M35.728-337.563c3.186-1.851 4.986-4.276 5.084-6.836-.077-2.407-1.667-4.728-4.5-6.553a.919.919 0 0 0-.435-.1.9.9 0 0 0-.43.1l-24.076 13.991a27.045 27.045 0 0 0 11.617 2.452 25.77 25.77 0 0 0 12.74-3.054z" data-name="Path 2650" transform="translate(-10.372 -9.451)"/>
            <path id="Path_2651" d="M184.836-281.076a.363.363 0 0 1 .331 0l2.367 1.375a.1.1 0 0 1 0 .192l-1.44.832a.363.363 0 0 1-.33 0l-2.367-1.375a.1.1 0 0 1 0-.191zm1.09 1.469v-.539H185v.539z" class="cls-9" data-name="Path 2651" transform="translate(-167.213 -73.237)"/>
            <path id="Path_2652" d="M202.336-270.08v.539h.928v-.539z" class="cls-4" data-name="Path 2652" transform="translate(-184.547 -83.303)"/>
            <path id="Path_2653" d="M211.171-296.287a.364.364 0 0 1 .331 0l2.367 1.375a.1.1 0 0 1 0 .192l-1.44.832a.364.364 0 0 1-.331 0l-2.367-1.375a.1.1 0 0 1 0-.192zm.279 1.441h.753v-.449c0-.112-.162-.206-.358-.206a.52.52 0 0 0-.253.061.182.182 0 0 0-.106.146v.035h-.038a.518.518 0 0 0-.251.061.181.181 0 0 0-.106.147c.009.11.164.205.359.205z" class="cls-9" data-name="Path 2653" transform="translate(-191.232 -59.363)"/>
            <path id="Path_2654" d="M161.179-264.283l-1.443.833a.364.364 0 0 1-.329 0l-2.368-1.377a.1.1 0 0 1 0-.193l1.443-.829a.362.362 0 0 1 .329 0l2.368 1.373a.1.1 0 0 1 0 .193z" class="cls-9" data-name="Path 2654" transform="translate(-143.172 -87.127)"/>
            <path id="Path_2655" d="M134.838-249.113l-1.443.833a.363.363 0 0 1-.329 0l-2.368-1.377a.1.1 0 0 1 0-.193l1.443-.833a.361.361 0 0 1 .329 0l2.368 1.377a.1.1 0 0 1 0 .193z" class="cls-9" data-name="Path 2655" transform="translate(-119.147 -100.959)"/>
            <path id="Path_2656" d="M226.483-286.886a.182.182 0 0 0-.106.146v.035h-.038a.518.518 0 0 0-.251.061.181.181 0 0 0-.106.147c0 .113.159.207.354.207h.753v-.449c0-.112-.162-.206-.358-.206a.52.52 0 0 0-.248.059z" class="cls-10" data-name="Path 2656" transform="translate(-206.121 -67.918)"/>
            <path id="Path_2657" d="M174.908-256.593a.183.183 0 0 0-.106.146v.035h-.038a.519.519 0 0 0-.251.061.182.182 0 0 0-.106.147c0 .113.159.207.354.207h.753v-.449c0-.112-.162-.206-.358-.206a.521.521 0 0 0-.248.059z" class="cls-10" data-name="Path 2657" transform="translate(-159.08 -95.549)"/>
            <path id="Path_2658" d="M150.762-239.787v.539h.928v-.539z" class="cls-4" data-name="Path 2658" transform="translate(-137.507 -110.933)"/>
            <path id="Path_2659" d="M178.531-206.473c.085.049.113.125.06.192l-.887 1.123a.4.4 0 0 1-.393.085l-.037-.01.4-.328c.085-.069.069-.163-.032-.222a.28.28 0 0 0-.037-.018l-2.693-.941a.464.464 0 0 0-.215-.03l.3-.38a.4.4 0 0 1 .391-.083l3.055.578a.342.342 0 0 1 .088.034z" class="cls-11" data-name="Path 2659" transform="translate(-159.343 -140.746)"/>
            <path id="Path_2660" d="M189.032-199.022a.147.147 0 0 0-.086.118v.028h-.031a.419.419 0 0 0-.2.049.147.147 0 0 0-.086.119c0 .092.128.168.287.168h.61v-.364c0-.091-.131-.166-.29-.167a.426.426 0 0 0-.204.049z" class="cls-10" data-name="Path 2660" transform="translate(-172.049 -148.069)"/>
            <path id="Path_2661" d="M170.382-200.678c.1.058.117.152.032.222l-.4.328-.831.678a.447.447 0 0 1-.4.046l.141-.061c.131-.056.157-.164.059-.24l-1.857-1.436-.029-.02a.464.464 0 0 0-.358-.026l.5-.41a.367.367 0 0 1 .2-.07.464.464 0 0 1 .215.03l2.693.941a.277.277 0 0 1 .035.018z" class="cls-12" data-name="Path 2661" transform="translate(-152.082 -145.7)"/>
            <path id="Path_2662" d="M177.5-190.092v.437h.753v-.437z" class="cls-4" data-name="Path 2662" transform="translate(-161.891 -156.26)"/>
            <path id="Path_2663" d="M147.867-196.4l.029.02 1.857 1.436c.1.076.071.184-.059.24l-.141.061-1.566.678a.47.47 0 0 1-.386-.016l-.029-.019-1.857-1.436c-.1-.077-.071-.184.058-.241l1.708-.739.027-.011a.464.464 0 0 1 .359.027z" class="cls-13" data-name="Path 2663" transform="translate(-132.853 -150.457)"/>
            <path id="Path_2664" d="M161.573-187.6a.152.152 0 0 1 .09.129v.391h-.684a.447.447 0 0 1-.22-.053.156.156 0 0 1-.092-.129c0-.072.074-.134.179-.162h-.37l.6-.34v.225a.361.361 0 0 1 .287-.108.45.45 0 0 1 .21.047z" class="cls-14" data-name="Path 2664" transform="translate(-146.368 -158.38)"/>
            <path id="Path_2665" d="M295.074-273.082c.089.042.123.116.075.187l-.8 1.188a.4.4 0 0 1-.385.115l-.038-.007.375-.358c.079-.076.056-.168-.049-.218a.283.283 0 0 0-.039-.015l-2.757-.729a.464.464 0 0 0-.217-.013l.27-.4a.4.4 0 0 1 .383-.114l3.091.338a.352.352 0 0 1 .091.026z" class="cls-11" data-name="Path 2665" transform="translate(-265.642 -80.224)"/>
            <path id="Path_2666" d="M306.027-266.505a.148.148 0 0 0-.077.125l.006.028h-.031a.416.416 0 0 0-.2.065.146.146 0 0 0-.077.126c.007.091.142.158.3.145l.608-.048-.026-.363c-.008-.091-.144-.156-.3-.144a.427.427 0 0 0-.203.066z" class="cls-10" data-name="Path 2666" transform="translate(-278.783 -86.502)"/>
            <path id="Path_2667" d="M287.4-266.815c.105.05.129.143.049.218l-.375.358-.776.741a.446.446 0 0 1-.395.077l.136-.072c.126-.066.144-.176.041-.244l-1.963-1.287-.03-.017a.464.464 0 0 0-.359 0l.469-.448a.369.369 0 0 1 .191-.086.463.463 0 0 1 .217.013l2.757.729a.286.286 0 0 1 .038.018z" class="cls-12" data-name="Path 2667" transform="translate(-258.791 -85.584)"/>
            <path id="Path_2668" d="M294.969-256.807l.03.436.751-.059-.031-.436z" class="cls-4" data-name="Path 2668" transform="translate(-269.042 -95.356)"/>
            <path id="Path_2669" d="M265.635-261.816l.031.017 1.963 1.287c.1.068.086.178-.041.244l-.136.072-1.508.8a.471.471 0 0 1-.386.014l-.03-.017-1.963-1.286c-.1-.069-.086-.178.039-.245l1.645-.869.026-.013a.466.466 0 0 1 .36-.004z" class="cls-13" data-name="Path 2669" transform="translate(-240.337 -90.808)"/>
            <path id="Path_2670" d="M279.528-252.951a.153.153 0 0 1 .1.122l.027.39-.682.051a.45.45 0 0 1-.224-.036.156.156 0 0 1-.1-.122c0-.072.063-.139.166-.175l-.368.027.567-.386.015.224a.361.361 0 0 1 .277-.131.448.448 0 0 1 .222.036z" class="cls-14" data-name="Path 2670" transform="translate(-253.97 -98.808)"/>
            <path id="Path_2671" d="M85.644-216.332v.861a.087.087 0 0 1-.045.061l-1.083.627a.234.234 0 0 1-.207 0l-1.76-1.017a.07.07 0 0 1-.041-.06v-.862a.07.07 0 0 0 .042.06l1.761 1.016a.238.238 0 0 0 .207 0l1.083-.631a.066.066 0 0 0 .043-.055z" class="cls-15" data-name="Path 2671" transform="translate(-75.256 -131.971)"/>
            <path id="Path_2672" d="M85.631-223.8a.063.063 0 0 1 0 .12l-1.083.629a.228.228 0 0 1-.207 0l-1.76-1.016a.063.063 0 0 1 0-.12l1.083-.629a.228.228 0 0 1 .207 0z" class="cls-16" data-name="Path 2672" transform="translate(-75.284 -124.568)"/>
            <path id="Path_2673" d="M87.234-222.787a.057.057 0 0 1 0 .107l-.965.561a.2.2 0 0 1-.184 0l-1.569-.906a.056.056 0 0 1 0-.106l.965-.561a.2.2 0 0 1 .184 0z" class="cls-11" data-name="Path 2673" transform="translate(-77.052 -125.592)"/>
            <path id="Path_2674" d="M262.41-318.255v.862a.086.086 0 0 1-.045.06l-1.083.627a.235.235 0 0 1-.207 0l-1.761-1.016a.07.07 0 0 1-.041-.06v-.861a.07.07 0 0 0 .041.06l1.761 1.016a.235.235 0 0 0 .207 0l1.083-.63a.066.066 0 0 0 .045-.058z" class="cls-15" data-name="Path 2674" transform="translate(-236.484 -39.008)"/>
            <path id="Path_2675" d="M262.4-325.718a.063.063 0 0 1 0 .12l-1.083.629a.229.229 0 0 1-.207 0l-1.76-1.016a.063.063 0 0 1 0-.12l1.083-.629a.228.228 0 0 1 .207 0z" class="cls-16" data-name="Path 2675" transform="translate(-236.512 -31.606)"/>
            <path id="Path_2676" d="M264-324.71a.057.057 0 0 1 0 .107l-.965.56a.2.2 0 0 1-.184 0l-1.569-.906a.057.057 0 0 1 0-.107l.965-.561a.2.2 0 0 1 .184 0z" class="cls-11" data-name="Path 2676" transform="translate(-238.281 -32.628)"/>
        </g>
    </g>
</svg>
