<svg xmlns="http://www.w3.org/2000/svg" width="45" height="45" viewBox="0 0 45 45">
    <g id="Group_129" data-name="Group 129" transform="translate(-1364 -739)">
        <circle id="Ellipse_589" cx="22.5" cy="22.5" r="22.5" fill="#003b71" data-name="Ellipse 589" transform="translate(1364 739)"/>
        <g id="Group_308" data-name="Group 308" transform="translate(1371.108 1256.424)">
            <path id="Path_2913" fill="#ef4653" d="M55.122-398.548a14.632 14.632 0 0 1-6.408 3.789 11.259 11.259 0 0 1-8.421-.785l-5.1 5.1a2.678 2.678 0 0 1-.418.341 2.65 2.65 0 0 1-1.463.438 2.653 2.653 0 0 1-1.882-.779 2.661 2.661 0 0 1 0-3.763l.9-.9 4.2-4.2a11.27 11.27 0 0 1-.771-8.468 14.62 14.62 0 0 1 3.776-6.36c3.666-3.666 8.651-5.009 12.759-3.848a9.614 9.614 0 0 1 4.221 2.455c4.304 4.304 3.685 11.906-1.393 16.98z" data-name="Path 2913" transform="translate(-28.546 -87.184)"/>
            <path id="Path_2914" fill="#ee3942" d="M63.967-406.359a14.6 14.6 0 0 1-4.7 5.911 11.558 11.558 0 0 1-6.755 2.32 9.764 9.764 0 0 1-1.292-.085l-2.729 5.086-.191.431a2.656 2.656 0 0 1-1.832 1.515 2.664 2.664 0 0 1-.6.069c-.359 0-.725 1-1.075.85a2.66 2.66 0 0 1-1.355-3.51l.593-1.339 4.2-4.2a11.27 11.27 0 0 1-.771-8.468 14.62 14.62 0 0 1 3.776-6.36c3.666-3.666 8.651-5.009 12.759-3.848a13.777 13.777 0 0 1-.028 11.628z" data-name="Path 2914" transform="translate(-40.235 -87.182)"/>
            <path id="Path_2915" fill="#ee9535" d="M48.715-250.771a11.259 11.259 0 0 1-8.421-.785l-5.1 5.1a2.651 2.651 0 0 1-1.881.779 2.653 2.653 0 0 1-1.882-.779 2.661 2.661 0 0 1 0-3.763l5.1-5.1a11.27 11.27 0 0 1-.771-8.468l12.949 12.95z" data-name="Path 2915" transform="translate(-28.547 -231.172)"/>
            <path id="Path_2916" fill="#00aed1" d="M21.449-494.844a14.6 14.6 0 0 1-4.7 5.91 11.558 11.558 0 0 1-6.754 2.32A9.715 9.715 0 0 1 8.7-486.7l-2.92 6.6a2.661 2.661 0 0 1-2.435 1.584 2.663 2.663 0 0 1-1.075-.228 2.661 2.661 0 0 1-1.356-3.51l2.921-6.6a11.263 11.263 0 0 1-3.77-7.621 14.288 14.288 0 0 1 .465-5.15 15.268 15.268 0 0 1 .765-2.143 14.9 14.9 0 0 1 3.134-4.573c3.4-3.364 8.148-4.641 12.2-2.845 5.571 2.464 7.724 9.781 4.82 16.342z" data-name="Path 2916"/>
            <path id="Path_2917" fill="#fdd57a" d="M17.65-278.455l-.063.127a11.558 11.558 0 0 1-6.755 2.32 9.776 9.776 0 0 1-1.292-.085L6.62-269.5a2.661 2.661 0 0 1-2.435 1.584 2.653 2.653 0 0 1-1.075-.228 2.66 2.66 0 0 1-1.355-3.51l2.921-6.6a11.265 11.265 0 0 1-3.77-7.621z" data-name="Path 2917" transform="translate(-.843 -210.606)"/>
            <path id="Path_2918" fill="#008faf" d="M15.216-454.544a4.2 4.2 0 0 1-4.2 4.2 4.2 4.2 0 0 1-3.339-1.652 15.265 15.265 0 0 1 .765-2.143 14.9 14.9 0 0 1 3.134-4.573 4.2 4.2 0 0 1 3.64 4.168z" data-name="Path 2918" transform="translate(-7.147 -49.632)"/>
            <path id="Path_2919" fill="#d5d4d3" d="M20.231-464.484a4.2 4.2 0 0 1 4.2 4.2 4.2 4.2 0 0 1-4.2 4.2 4.2 4.2 0 0 1-4.2-4.2 4.2 4.2 0 0 1 4.2-4.2z" data-name="Path 2919" transform="translate(-14.928 -44.254)"/>
            <path id="Path_2920" fill="#e8e6e6" d="M56.59-457.983a4.2 4.2 0 0 1-3.017 4.032 4.2 4.2 0 0 1-3.017-4.032 4.2 4.2 0 0 1 3.017-4.033 4.2 4.2 0 0 1 3.017 4.033z" data-name="Path 2920" transform="translate(-47.084 -46.552)"/>
        </g>
    </g>
</svg>
