<svg xmlns="http://www.w3.org/2000/svg" width="45" height="45" viewBox="0 0 45 45">
    <defs>
        <clipPath id="clip-path">
            <path id="Path_2586" fill="none" d="M0-329.43h30.57V-360H0z" clip-rule="evenodd" data-name="Path 2586" transform="translate(0 360)"/>
        </clipPath>
        <style>
            .cls-4{fill:#12244e}.cls-5{fill:#5d9445}.cls-8{fill:#5d4a24}.cls-9{fill:#f5cba1}.cls-13{fill:#d03729}.cls-14{fill:#a62d20}.cls-15{fill:#d06960}
        </style>
    </defs>
    <g id="Group_179" data-name="Group 179" transform="translate(-1554 -739)">
        <circle id="Ellipse_597" cx="22.5" cy="22.5" r="22.5" fill="#003b71" data-name="Ellipse 597" transform="translate(1554 739)"/>
        <g id="Group_285" data-name="Group 285" transform="translate(1560.715 1105.715)">
            <g id="Group_284" clip-path="url(#clip-path)" data-name="Group 284" transform="translate(0 -360)">
                <path id="Path_2552" d="M204-103.23v-6.239c.654.249 1.361.537 2.038.847v5.392z" class="cls-4" data-name="Path 2552" transform="translate(-186.677 130.744)"/>
                <path id="Path_2553" d="M10.586-99.5c-1.624.742-3.057 1.6-3.057 2.335L6-91.557h4.586z" class="cls-5" data-name="Path 2553" transform="translate(-5.49 121.617)"/>
                <path id="Path_2554" d="M92.662-103.924l-3.562-1.528-3.567 1.529L84-108v5.6h10.19v-5.6z" class="cls-5" data-name="Path 2554" transform="translate(-76.867 129.399)"/>
                <path id="Path_2555" fill="#4b7838" d="M94.19-108l-1.529 4.076-3.561-1.528-3.567 1.529L84-108v3.159l.917 2.446 4.178-1.791 4.178 1.791.917-2.446z" data-name="Path 2555" transform="translate(-76.867 129.399)"/>
                <path id="Path_2556" d="M85.529-114.9l3.567-1.529-2.548-2.548V-120s-1.145.358-2.548.894v.125z" class="cls-5" data-name="Path 2556" transform="translate(-76.867 140.38)"/>
                <path id="Path_2557" d="M147.567-114.9L144-116.433l2.548-2.548V-120s1.145.358 2.548.894v.125z" class="cls-5" data-name="Path 2557" transform="translate(-131.772 140.38)"/>
                <path id="Path_2558" d="M62.038-103.23v-6.239c-.654.249-1.361.537-2.038.847v5.392z" class="cls-4" data-name="Path 2558" transform="translate(-54.905 130.744)"/>
                <path id="Path_2559" d="M60-36h14.266v2.548H60z" class="cls-4" data-name="Path 2559" transform="translate(-54.905 63.513)"/>
                <path id="Path_2560" fill="#a6823d" d="M228-99.5c1.624.742 3.057 1.6 3.057 2.335l1.529 5.6H228z" data-name="Path 2560" transform="translate(-208.639 121.617)"/>
                <path id="Path_2561" d="M31.871-270l-4.595 1.081a17.757 17.757 0 0 1-8.134 0L14.548-270A2.548 2.548 0 0 0 12-267.452c0 1.407 2.722 1.954 4.128 1.954h13.648c1.407 0 4.643-.548 4.643-1.954A2.548 2.548 0 0 0 31.871-270z" class="cls-8" data-name="Path 2561" transform="translate(-10.981 277.643)"/>
                <path id="Path_2562" d="M66-276v5.638l2.5 2.234a6.505 6.505 0 0 0 1.182.764 6.5 6.5 0 0 0 5.875 0 6.5 6.5 0 0 0 1.183-.764l2.5-2.234V-276z" class="cls-9" data-name="Path 2562" transform="translate(-60.395 283.133)"/>
                <path id="Path_2563" fill="#d0ac89" d="M67.019-272.248l1.538.362a17.759 17.759 0 0 0 8.134 0l1.538-.362 1.019-.24v-2.105L78.663-276H66.579L66-274.613v2.125z" data-name="Path 2563" transform="translate(-60.395 283.133)"/>
                <path id="Path_2564" fill="#fbccbf" d="M115.285-184.956l-1.115-.557a4.075 4.075 0 0 0-3.646 0l-1.115.557a6.5 6.5 0 0 0 5.876 0z" data-name="Path 2564" transform="translate(-100.119 200.724)"/>
                <path id="Path_2565" d="M43.274-239.609A1.274 1.274 0 0 0 42-238.335a1.274 1.274 0 0 0 1.274 1.274h.764v-2.548z" class="cls-9" data-name="Path 2565" transform="translate(-38.433 249.832)"/>
                <path id="Path_2566" d="M224.038-238.335a1.274 1.274 0 0 0-1.274-1.274H222v2.548h.764a1.274 1.274 0 0 0 1.274-1.274z" class="cls-9" data-name="Path 2566" transform="translate(-203.148 249.832)"/>
                <path id="Path_2567" fill="#a59e97" d="M76.744-207.375a6.5 6.5 0 0 1-1.182.764 6.5 6.5 0 0 1-5.875 0 6.5 6.5 0 0 1-1.183-.764L66-209.609v3.368a2.038 2.038 0 0 0 1.072 1.795l3 1.618 1.582.852a2.037 2.037 0 0 0 1.933 0l4.586-2.469a2.039 2.039 0 0 0 1.071-1.795v-3.368z" data-name="Path 2567" transform="translate(-60.395 222.38)"/>
                <path id="Path_2568" d="M240-177.962a3.057 3.057 0 0 0 3.057 3.057 3.057 3.057 0 0 0 3.057-3.057c0-1.688-1.369-2.038-3.057-2.038s-3.057.35-3.057 2.038z" class="cls-13" data-name="Path 2568" transform="translate(-219.62 195.285)"/>
                <path id="Path_2569" d="M243.057-159.267a3.055 3.055 0 0 1-3.009-2.53 2.536 2.536 0 0 0-.048.492 3.057 3.057 0 0 0 3.057 3.057 3.057 3.057 0 0 0 3.057-3.057 2.533 2.533 0 0 0-.048-.492 3.055 3.055 0 0 1-3.009 2.53z" class="cls-14" data-name="Path 2569" transform="translate(-219.62 178.628)"/>
                <path id="Path_2570" d="M283.529-167.49c0 .281-.342.509-.764.509s-.764-.228-.764-.509.342-.51.764-.51.764.228.764.51z" class="cls-15" data-name="Path 2570" transform="translate(-258.053 184.304)"/>
                <path id="Path_2571" d="M282-93.962a3.057 3.057 0 0 0 3.057 3.057 3.057 3.057 0 0 0 3.057-3.057c0-1.688-1.369-2.038-3.057-2.038S282-95.65 282-93.962z" class="cls-13" data-name="Path 2571" transform="translate(-258.053 118.418)"/>
                <path id="Path_2572" d="M285.057-75.267a3.055 3.055 0 0 1-3.009-2.53 2.538 2.538 0 0 0-.048.497 3.057 3.057 0 0 0 3.057 3.057 3.057 3.057 0 0 0 3.057-3.057 2.533 2.533 0 0 0-.048-.492 3.055 3.055 0 0 1-3.009 2.525z" class="cls-14" data-name="Path 2572" transform="translate(-258.053 101.761)"/>
                <path id="Path_2573" d="M325.529-83.491c0 .281-.342.51-.764.51s-.764-.228-.764-.51.342-.51.764-.51.764.229.764.51z" class="cls-15" data-name="Path 2573" transform="translate(-296.487 107.437)"/>
                <path id="Path_2574" d="M204-87.962a3.057 3.057 0 0 0 3.057 3.057 3.057 3.057 0 0 0 3.057-3.057c0-1.688-1.369-2.038-3.057-2.038S204-89.65 204-87.962z" class="cls-13" data-name="Path 2574" transform="translate(-186.677 112.928)"/>
                <path id="Path_2575" d="M207.057-69.267a3.055 3.055 0 0 1-3.009-2.53 2.538 2.538 0 0 0-.048.497 3.057 3.057 0 0 0 3.057 3.057 3.057 3.057 0 0 0 3.057-3.057 2.533 2.533 0 0 0-.048-.492 3.055 3.055 0 0 1-3.009 2.525z" class="cls-14" data-name="Path 2575" transform="translate(-186.677 96.271)"/>
                <path id="Path_2576" d="M247.529-77.49c0 .281-.342.51-.764.51s-.764-.228-.764-.51.342-.51.764-.51.764.228.764.51z" class="cls-15" data-name="Path 2576" transform="translate(-225.11 101.947)"/>
                <path id="Path_2577" d="M204-36h12.738v2.548H204z" class="cls-8" data-name="Path 2577" transform="translate(-186.677 63.513)"/>
                <path id="Path_2578" fill="#806631" d="M57.285-348.493l-.71-1.711-1.075-2.582A1.529 1.529 0 0 0 54-354h-6.682a1.528 1.528 0 0 0-1.5 1.215l-1.784 4.272L42-346.867l.831.2 2.226.524 1.538.361a17.756 17.756 0 0 0 8.134 0l1.538-.361 1.725-.406 1.332-.314z" data-name="Path 2578" transform="translate(-38.433 354.51)"/>
                <path id="Path_2579" d="M87.982-353.006h6.689a1.529 1.529 0 0 1 1.5 1.214l1.072 2.583.71 1.71 1.307 1.043.417-.1 1.332-.313-2.038-1.626-.71-1.711-1.072-2.583A1.529 1.529 0 0 0 95.69-354H89a1.525 1.525 0 0 0-1.45 1.061 1.533 1.533 0 0 1 .432-.067z" class="cls-8" data-name="Path 2579" transform="translate(-80.116 354.51)"/>
                <path id="Path_2580" d="M117.513-128.91a2.037 2.037 0 0 1-1.933 0l-1.58-.852v1.955l2.548 2.548 2.548-2.548v-1.955z" class="cls-9" data-name="Path 2580" transform="translate(-104.319 149.313)"/>
                <path id="Path_2581" fill="#8b8680" d="M78.175-183.28l-4.586 2.469a2.037 2.037 0 0 1-1.933 0l-1.581-.852-3-1.618A2.038 2.038 0 0 1 66-185.074v1.285a2.038 2.038 0 0 0 1.072 1.795l3 1.618 1.582.852a2.037 2.037 0 0 0 1.933 0l4.586-2.469a2.039 2.039 0 0 0 1.071-1.795v-1.285a2.038 2.038 0 0 1-1.069 1.793z" data-name="Path 2581" transform="translate(-60.395 199.928)"/>
                <path id="Path_2582" d="M104.392-236.326a.893.893 0 0 1-.892-.892.893.893 0 0 1 .892-.892.893.893 0 0 1 .892.892.893.893 0 0 1-.892.892zm0-1.019a.127.127 0 0 0-.127.127c0 .14.255.14.255 0a.128.128 0 0 0-.128-.127z" data-name="Path 2582" transform="translate(-94.711 248.46)"/>
                <path id="Path_2583" d="M164.392-236.326a.893.893 0 0 1-.892-.892.893.893 0 0 1 .892-.892.893.893 0 0 1 .892.892.893.893 0 0 1-.892.892zm0-1.019a.127.127 0 0 0-.127.127c0 .14.255.14.255 0a.128.128 0 0 0-.128-.127z" data-name="Path 2583" transform="translate(-149.616 248.46)"/>
                <path id="Path_2584" d="M30.57-335.544c0-2.163-1.933-2.489-3.057-2.538v-1.538h-1.019v1.538c-.95.042-2.476.282-2.926 1.663a3.308 3.308 0 0 0-2.679-1.153v-1.538h-1.018v1.093a46.529 46.529 0 0 0-4.586-1.859v-.268l2.737-1.473a2.545 2.545 0 0 0 1.339-2.243v-2.858h.255a1.782 1.782 0 0 0 1.624-1.055c1.1-.019 2.707-.2 2.707-2.035a3.059 3.059 0 0 0-2.866-3.047l-1.809-1.445-1.716-4.132A2.049 2.049 0 0 0 15.573-360H8.885a2.048 2.048 0 0 0-1.985 1.57l-1.717 4.111-1.81 1.462a3.058 3.058 0 0 0-2.864 3.047c0 1.832 1.606 2.016 2.707 2.035a1.784 1.784 0 0 0 1.624 1.055h.255v2.858a2.545 2.545 0 0 0 1.34 2.243l2.736 1.473v.266c-2.033.695-7.081 2.564-7.616 4.173-.51 1.53-1.5 5.475-1.54 5.642a.507.507 0 0 0 .093.437.508.508 0 0 0 .4.2h29.553a.509.509 0 0 0 .51-.509v-2.548a.509.509 0 0 0-.51-.51h-.566a3.554 3.554 0 0 0 1.075-2.549zM24.513-333h-1.207a3.548 3.548 0 0 0 .484-1.011 3.578 3.578 0 0 0 .723 1.011zm-1.585-2.038A2.539 2.539 0 0 1 21.9-333h-3.04a2.54 2.54 0 0 1-1.028-2.038c0-.918.434-1.529 2.548-1.529s2.548.615 2.548 1.533zm-6.228-3.233l-1.19 3.175-2.385-1.022 2.015-2.015a.509.509 0 0 0 .149-.36v-.3c.362.129.852.308 1.411.522zm-6.51-1.329l.83.447a2.544 2.544 0 0 0 1.208.306 2.542 2.542 0 0 0 1.207-.306l.831-.448v.892l-2.038 2.038-2.038-2.029zm4.973-5.206l-.885-.442a4.607 4.607 0 0 0-4.1 0l-.887.443a5.9 5.9 0 0 1-.843-.574l-2.333-2.082v-3.777l1.93.454a18.369 18.369 0 0 0 8.368 0l1.93-.454v3.777l-2.316 2.067a5.909 5.909 0 0 1-.864.594zm-1.245.517a6.043 6.043 0 0 1-3.384 0l.1-.049a3.585 3.585 0 0 1 3.19 0zm5.7-3.453h-.255v-1.529h.255a.765.765 0 0 1 .764.764.765.765 0 0 1-.766.768zm3.312-2.071c0 .676-.252.959-1.559 1.01a1.782 1.782 0 0 0-1.753-1.486h-.255v-1.188l1.584-.373a2.04 2.04 0 0 1 1.981 2.04zm-4.709-4.37l-3.711.495a17.28 17.28 0 0 1-4.559 0l-3.718-.5.4-.957 3.184.424a18.3 18.3 0 0 0 2.414.16 18.3 18.3 0 0 0 2.414-.16l3.179-.424zm-10.36-3.9a.527.527 0 0 0 .029-.092 1.024 1.024 0 0 1 1-.81h6.689a1.023 1.023 0 0 1 1 .809.519.519 0 0 0 .028.091l.818 1.971-2.909.388a17.306 17.306 0 0 1-4.559 0l-2.912-.388zm-2.373 4.827l4.329.577a18.309 18.309 0 0 0 2.414.16 18.309 18.309 0 0 0 2.414-.16l4.312-.575.8.637-3.573.841a17.338 17.338 0 0 1-7.9 0l-3.584-.839zm-2.4 4.452c-1.307-.051-1.559-.334-1.559-1.01a2.04 2.04 0 0 1 1.983-2.037l1.584.373v1.188H4.84a1.782 1.782 0 0 0-1.753 1.49zm.989.3a.765.765 0 0 1 .764-.764h.255v1.529H4.84a.765.765 0 0 1-.764-.761zm2.038 4.642v-2.23l1.67 1.492a7.043 7.043 0 0 0 8.9-.014l1.654-1.476v2.23a1.526 1.526 0 0 1-.8 1.346l-4.586 2.47a1.525 1.525 0 0 1-1.45 0l-4.585-2.469a1.528 1.528 0 0 1-.804-1.348zm3.206 5.728l2.015 2.015-2.385 1.019-1.192-3.18c.467-.181.94-.358 1.412-.523v.306a.508.508 0 0 0 .149.364zM5.6-331.977h11.214v1.529H5.6zm0-1.023v-4.374c.326-.149.668-.3 1.019-.447V-333zm-3.084-2.387c.124-.371.925-.912 2.065-1.495v6.429H1.163c.308-1.199.98-3.797 1.358-4.93zM7.642-333v-2.686l.542 1.445a.508.508 0 0 0 .277.289.51.51 0 0 0 .4 0l3.366-1.443 3.366 1.443a.507.507 0 0 0 .2.041.5.5 0 0 0 .2-.041.51.51 0 0 0 .277-.289l1.37-3.654c.365.15.737.309 1.106.475a2.29 2.29 0 0 0-1.935 2.382 3.558 3.558 0 0 0 .643 2.038zm21.909 1.019v1.529H17.833v-1.529zm-5.1-3.567c0-.918.434-1.529 2.548-1.529s2.548.611 2.548 1.529A2.55 2.55 0 0 1 27-333a2.55 2.55 0 0 1-2.544-2.544z" data-name="Path 2584" transform="translate(0 360)"/>
                <path id="Path_2585" d="M237.057-204v1.538c-1.124.049-3.057.374-3.057 2.538a3.571 3.571 0 0 0 3.567 3.567 3.571 3.571 0 0 0 3.567-3.567c0-2.163-1.933-2.488-3.057-2.538V-204zm3.057 4.076a2.55 2.55 0 0 1-2.548 2.548 2.55 2.55 0 0 1-2.548-2.548c0-.918.434-1.529 2.548-1.529s2.548.612 2.548 1.529z" data-name="Path 2585" transform="translate(-214.129 217.247)"/>
            </g>
        </g>
    </g>
</svg>
