<svg xmlns="http://www.w3.org/2000/svg" width="45" height="45" viewBox="0 0 45 45">
    <defs>
        <style>
            .cls-2{fill:#ff6a46}.cls-4{fill:#fff}.cls-5{fill:#feef8f}
        </style>
    </defs>
    <g id="Group_182" data-name="Group 182" transform="translate(-1269 -739)">
        <circle id="Ellipse_593" cx="22.5" cy="22.5" r="22.5" fill="#003b71" data-name="Ellipse 593" transform="translate(1269 739)"/>
        <g id="Group_253" data-name="Group 253" transform="translate(1274.84 1256.877)">
            <path id="Path_2477" d="M35.685-461.85A14.084 14.084 0 0 1 21.6-447.765 14.084 14.084 0 0 1 7.516-461.85 14.084 14.084 0 0 1 21.6-475.934a14.084 14.084 0 0 1 14.085 14.084z" class="cls-2" data-name="Path 2477" transform="translate(-7.036 -33.761)"/>
            <path id="Path_2478" fill="#fd3400" d="M334.1-393.789v5.129a14.08 14.08 0 0 0 7.3-12.34 14.039 14.039 0 0 0-4.1-9.93v1.032h-.96v9.6h.96v5.23z" data-name="Path 2478" transform="translate(-312.751 -94.607)"/>
            <path id="Path_2479" d="M87.244-386.6a9.614 9.614 0 0 1-9.6-9.6 9.614 9.614 0 0 1 9.6-9.6 9.614 9.614 0 0 1 9.6 9.6 9.614 9.614 0 0 1-9.6 9.6z" class="cls-4" data-name="Path 2479" transform="translate(-72.679 -99.405)"/>
            <path id="Path_2480" d="M148.2-329.808a5.448 5.448 0 0 1-5.442-5.442 5.448 5.448 0 0 1 5.442-5.442 5.448 5.448 0 0 1 5.442 5.442 5.448 5.448 0 0 1-5.442 5.442z" class="cls-2" data-name="Path 2480" transform="translate(-133.635 -160.362)"/>
            <path id="Path_2481" d="M204.467-277.381a1.6 1.6 0 0 1-1.6-1.6 1.6 1.6 0 0 1 1.6-1.6 1.6 1.6 0 0 1 1.6 1.6 1.6 1.6 0 0 1-1.6 1.6z" class="cls-4" data-name="Path 2481" transform="translate(-189.903 -216.629)"/>
            <path id="Path_2482" d="M364.156-133.949l3.2-1.28v-7.106l-3.2 1.281z" class="cls-5" data-name="Path 2482" transform="translate(-340.885 -346.041)"/>
            <path id="Path_2483" d="M457.521-133.949l-3.2-1.28v-7.106l3.2 1.281z" class="cls-5" data-name="Path 2483" transform="translate(-425.287 -346.041)"/>
            <path id="Path_2484" fill="#a7e1f7" d="M416.807-408.1h-2.561v-22.471l1.28-1.28 1.281 1.28z" data-name="Path 2484" transform="translate(-387.774 -75.023)"/>
            <path id="Path_2485" d="M399.219-358.972h4.481v-5.762h-4.481z" class="cls-5" data-name="Path 2485" transform="translate(-373.707 -137.855)"/>
            <path id="Path_2486" fill="#74d1f5" d="M414.246-272.653h2.561v-1.921h-2.561z" data-name="Path 2486" transform="translate(-387.774 -222.253)"/>
            <path id="Path_2487" d="M291.214-439.109c-.214-.219-.439-.433-.669-.635l.633-.722c.249.218.492.449.724.686zm-1.386-1.215c-.246-.183-.5-.359-.76-.523l.513-.812c.28.176.557.367.822.565zm-1.559-.983a11.638 11.638 0 0 0-1.667-.717l.309-.909a12.592 12.592 0 0 1 1.805.776z" class="cls-4" data-name="Path 2487" transform="translate(-268.287 -64.652)"/>
            <path id="Path_2488" d="M63.945-153.551c-.256-.21-.507-.433-.746-.662l.665-.693c.221.212.453.418.69.612zm-1.439-1.38a12.746 12.746 0 0 1-1.206-1.589l.808-.519a11.8 11.8 0 0 0 1.115 1.469z" class="cls-4" data-name="Path 2488" transform="translate(-57.384 -332.277)"/>
            <path id="Path_2489" d="M81.883-91.345c.253.211.516.416.783.61l.564-.777c-.249-.181-.5-.372-.731-.57z" data-name="Path 2489" transform="translate(-76.65 -393.083)"/>
            <path id="Path_2490" d="M79.054-436.026l-.583-.763c-.262.2-.52.412-.768.629l.633.722c.231-.203.473-.401.718-.588z" data-name="Path 2490" transform="translate(-72.737 -70.405)"/>
            <path id="Path_2491" d="M.96-406.042a13.518 13.518 0 0 1 3.962-9.6l-.68-.677A14.472 14.472 0 0 0 0-406.042a14.465 14.465 0 0 0 1.208 5.818 14.512 14.512 0 0 0 3.285 4.7l.664-.693a13.489 13.489 0 0 1-4.197-9.825z" data-name="Path 2491" transform="translate(0 -89.569)"/>
            <path id="Path_2492" d="M87.376-410.327a10.01 10.01 0 0 0-7.168-3 10.1 10.1 0 0 0-10.083 10.083 10.1 10.1 0 0 0 10.083 10.083 10.094 10.094 0 0 0 10.083-10.083 10.1 10.1 0 0 0-2.244-6.335l-.746.6a9.137 9.137 0 0 1 2.03 5.731 9.133 9.133 0 0 1-9.123 9.123 9.133 9.133 0 0 1-9.123-9.123 9.133 9.133 0 0 1 9.123-9.123 9.057 9.057 0 0 1 6.485 2.712z" data-name="Path 2492" transform="translate(-65.644 -92.37)"/>
            <path id="Path_2493" d="M135.242-342.281a5.929 5.929 0 0 0 5.922 5.922 5.929 5.929 0 0 0 5.922-5.922 5.928 5.928 0 0 0-5.922-5.922 5.928 5.928 0 0 0-5.922 5.922zm10.884 0a4.967 4.967 0 0 1-4.962 4.962 4.967 4.967 0 0 1-4.962-4.962 4.967 4.967 0 0 1 4.962-4.962 4.967 4.967 0 0 1 4.962 4.962z" data-name="Path 2493" transform="translate(-126.599 -153.33)"/>
            <path id="Path_2494" d="M195.352-286.017a2.083 2.083 0 0 0 2.081 2.081 2.083 2.083 0 0 0 2.081-2.081 2.083 2.083 0 0 0-2.081-2.081 2.083 2.083 0 0 0-2.081 2.081zm3.2 0a1.121 1.121 0 0 1-1.12 1.12 1.122 1.122 0 0 1-1.12-1.12 1.122 1.122 0 0 1 1.12-1.12 1.122 1.122 0 0 1 1.121 1.12z" data-name="Path 2494" transform="translate(-182.868 -209.594)"/>
            <path id="Path_2495" d="M125.357-488.7v-4.412h-.96v9.507h-1.6v-12.74h1.6v2.273h.96v-2.273h.96v-6.722h-.96v-2.733l-1.28-1.281V-512h-.96v4.923l-1.28 1.281v1.159a14.669 14.669 0 0 0-4.3-3.674 14.568 14.568 0 0 0-7.133-1.863 14.5 14.5 0 0 0-8.021 2.406l.529.8a13.545 13.545 0 0 1 7.492-2.247 13.545 13.545 0 0 1 11.377 6.146h-.91v6.722h.96v7.645l-3.2 1.28v2.646a13.458 13.458 0 0 1-8.227 2.769 13.565 13.565 0 0 1-7.217-2.07l-.51.814a14.524 14.524 0 0 0 7.727 2.217 14.4 14.4 0 0 0 8.227-2.543v4.309l4.161-1.664v-1.7h1.6v1.7l4.161 1.664v-8.141zm-3.521-8.606v-.96h3.521v.96zm3.521-4.8v.96h-3.521v-.96zm0 1.921v.96h-3.521v-.96zM123.6-506.2l.8.8v2.33h-1.6v-2.33zm-1.76 24.6l-2.241.9v-6.072l2.241-.9zm5.762.9l-2.241-.9v-6.072l2.241.9z" data-name="Path 2495" transform="translate(-95.844)"/>
        </g>
    </g>
</svg>
