<svg xmlns="http://www.w3.org/2000/svg" width="45" height="45" viewBox="0 0 45 45">
    <defs>
        <style>
            .cls-3{fill:#e47d25}.cls-7{fill:#cb8152}
        </style>
    </defs>
    <g id="Group_1857" data-name="Group 1857" transform="translate(-1.999 .357)">
        <g id="Ellipse_475" fill="#003b71" stroke="#003b71" stroke-width="3px" data-name="Ellipse 475" transform="rotate(90 23.678 23.321)">
            <circle cx="22.5" cy="22.5" r="22.5" stroke="none"/>
            <circle cx="22.5" cy="22.5" r="21" fill="none"/>
        </g>
        <g id="Group_1857-2" data-name="Group 1857" transform="translate(8 5.643)">
            <path id="Path_769" fill="#f19c1f" d="M15.621-365.591a1.9 1.9 0 0 0 .759 1.395 1.677 1.677 0 0 1 .569 1.462l-.078.675-.006.006c-6.83 7.505-13.81 11.8-16.115 9.731-1.54-1.378-.63-5.279 2.014-10.1l.006.006a14.476 14.476 0 0 0 3.153 2.472 1.6 1.6 0 0 0 1.243.149 1.6 1.6 0 0 0 .972-.791 1.7 1.7 0 0 0-.625-2.282 11.3 11.3 0 0 1-2.974-2.506c.619-.954 1.289-1.931 2.014-2.913a16.776 16.776 0 0 0 2.193 2.387 16.368 16.368 0 0 0 1.384 1.111 1.6 1.6 0 0 0 1.222.268 1.6 1.6 0 0 0 1.043-.692 1.71 1.71 0 0 0-.413-2.333A13.207 13.207 0 0 1 8.663-371c.251-.312.513-.63.781-.943.346-.407.692-.809 1.043-1.2a13.609 13.609 0 0 0 2.333 2.746 12.391 12.391 0 0 0 1.25.988 1.6 1.6 0 0 0 1.231.252 1.6 1.6 0 0 0 1.034-.715 1.7 1.7 0 0 0-.452-2.321 10 10 0 0 1-3.063-3.443c.6-.62 1.205-1.205 1.808-1.769a10.323 10.323 0 0 0 1.741 2.037 9.785 9.785 0 0 0 1.473 1.094 1.6 1.6 0 0 0 1.239.177 1.6 1.6 0 0 0 .988-.768 1.706 1.706 0 0 0-.575-2.3 6.926 6.926 0 0 1-2.36-2.427c4.52-3.683 8.4-5.34 10.01-3.894 2 1.8-.128 7.84-4.838 14.614-3.817.313-6.685 1.663-6.685 3.281z" data-name="Path 769" transform="translate(0 384.005)"/>
            <path id="Path_770" d="M176.054-327.794a1.6 1.6 0 0 1-.988.768 1.6 1.6 0 0 1-1.239-.177 9.778 9.778 0 0 1-1.473-1.094 10.322 10.322 0 0 1-1.741-2.037c.848-.792 1.691-1.523 2.505-2.188a6.927 6.927 0 0 0 2.36 2.427 1.706 1.706 0 0 1 .576 2.301z" class="cls-3" data-name="Path 770" transform="translate(-155.987 336.934)"/>
            <path id="Path_771" d="M128.169-280.607a1.6 1.6 0 0 1-1.034.715 1.6 1.6 0 0 1-1.231-.252 12.369 12.369 0 0 1-1.25-.988 13.6 13.6 0 0 1-2.333-2.745c.77-.876 1.551-1.707 2.333-2.494a10 10 0 0 0 3.063 3.443 1.7 1.7 0 0 1 .452 2.321z" class="cls-3" data-name="Path 771" transform="translate(-111.834 294.742)"/>
            <path id="Path_772" d="M82.277-226.5a1.6 1.6 0 0 1-1.043.692 1.6 1.6 0 0 1-1.222-.268 16.366 16.366 0 0 1-1.384-1.111 16.773 16.773 0 0 1-2.193-2.388q.988-1.348 2.109-2.712a13.209 13.209 0 0 0 3.32 3.454 1.71 1.71 0 0 1 .413 2.333z" class="cls-3" data-name="Path 772" transform="translate(-69.882 245.296)"/>
            <path id="Path_773" d="M37.615-161.9a1.6 1.6 0 0 1-.972.791 1.6 1.6 0 0 1-1.243-.149 14.474 14.474 0 0 1-3.153-2.472l-.006-.006c.525-.948 1.116-1.942 1.775-2.952a11.3 11.3 0 0 0 2.974 2.506 1.7 1.7 0 0 1 .625 2.282z" class="cls-3" data-name="Path 773" transform="translate(-29.478 185.316)"/>
            <path id="Path_774" fill="#fff" d="M246.4-276.92a.558.558 0 0 1-.486-.286.558.558 0 0 1 .011-.564c.893-1.464 1.378-2.4 1.382-2.411a.558.558 0 0 1 .751-.243.558.558 0 0 1 .243.751c-.021.039-.5.981-1.425 2.484a.557.557 0 0 1-.476.269z" data-name="Path 774" transform="translate(-224.768 289.36)"/>
            <path id="Path_775" fill="#f9e9b0" d="M198.717-192.847a1.673 1.673 0 0 1-.409 1.311 1.675 1.675 0 0 1-1.254.563h-12.968a1.674 1.674 0 0 1-1.253-.563 1.675 1.675 0 0 1-.41-1.311l1.021-8.538.006-.006.078-.675a1.677 1.677 0 0 0-.569-1.462 1.9 1.9 0 0 1-.759-1.395c0-1.618 2.868-2.969 6.685-3.281.541-.045 1.1-.067 1.685-.067 4.62 0 8.37 1.5 8.37 3.348a1.9 1.9 0 0 1-.759 1.395 1.678 1.678 0 0 0-.569 1.462z" data-name="Path 775" transform="translate(-166.579 223.336)"/>
            <path id="Path_776" fill="#e3bf5c" d="M191.1-196.367h-12.964a2.231 2.231 0 0 1-1.67-.75 2.231 2.231 0 0 1-.547-1.748l1.021-8.538a.442.442 0 0 1 .013-.07l.07-.609a1.126 1.126 0 0 0-.383-.98 2.438 2.438 0 0 1-.948-1.814c0-1.942 2.893-3.485 7.2-3.837.553-.046 1.136-.069 1.73-.069 5.089 0 8.928 1.679 8.928 3.906a2.441 2.441 0 0 1-.948 1.815 1.122 1.122 0 0 0-.383.975l1.1 9.219a2.232 2.232 0 0 1-.546 1.748 2.232 2.232 0 0 1-1.673.752zM178.04-207.2l-1.013 8.472a1.115 1.115 0 0 0 .273.874 1.115 1.115 0 0 0 .835.376H191.1a1.117 1.117 0 0 0 .836-.376 1.115 1.115 0 0 0 .273-.874l-1.1-9.218a2.239 2.239 0 0 1 .755-1.947 1.435 1.435 0 0 0 .57-.976c0-1.317-3.341-2.79-7.812-2.79-.564 0-1.116.022-1.639.065-3.863.316-6.172 1.634-6.172 2.725a1.429 1.429 0 0 0 .569.975 2.245 2.245 0 0 1 .756 1.95l-.078.669a.388.388 0 0 1-.018.075z" data-name="Path 776" transform="translate(-160.629 229.289)"/>
            <path id="Path_777" d="M248.4-175.172a.558.558 0 0 1-.558.558.558.558 0 0 1-.558-.558.558.558 0 0 1 .558-.558.558.558 0 0 1 .558.558z" class="cls-7" data-name="Path 777" transform="translate(-226.082 193.586)"/>
            <path id="Path_778" d="M222.367-149.137a.558.558 0 0 1-.558.558.558.558 0 0 1-.558-.558.558.558 0 0 1 .558-.558.558.558 0 0 1 .558.558z" class="cls-7" data-name="Path 778" transform="translate(-202.282 169.783)"/>
            <path id="Path_779" d="M248.4-123.1a.558.558 0 0 1-.558.558.558.558 0 0 1-.558-.558.558.558 0 0 1 .558-.558.558.558 0 0 1 .558.558z" class="cls-7" data-name="Path 779" transform="translate(-226.082 145.98)"/>
            <path id="Path_780" d="M326.5-162.153a.558.558 0 0 1-.558.558.558.558 0 0 1-.558-.558.558.558 0 0 1 .558-.558.558.558 0 0 1 .558.558z" class="cls-7" data-name="Path 780" transform="translate(-297.488 181.683)"/>
            <path id="Path_781" d="M287.449-181.68a.558.558 0 0 1-.558.558.558.558 0 0 1-.558-.558.558.558 0 0 1 .558-.558.558.558 0 0 1 .558.558z" class="cls-7" data-name="Path 781" transform="translate(-261.785 199.536)"/>
            <path id="Path_782" d="M306.976-123.1a.558.558 0 0 1-.558.558.558.558 0 0 1-.558-.558.558.558 0 0 1 .558-.558.558.558 0 0 1 .558.558z" class="cls-7" data-name="Path 782" transform="translate(-279.637 145.98)"/>
            <path id="Path_783" d="M274.433-149.137a.558.558 0 0 1-.558.558.558.558 0 0 1-.558-.558.558.558 0 0 1 .558-.558.558.558 0 0 1 .558.558z" class="cls-7" data-name="Path 783" transform="translate(-249.884 169.783)"/>
        </g>
    </g>
</svg>
