<svg xmlns="http://www.w3.org/2000/svg" width="45" height="45" viewBox="0 0 45 45">
    <defs>
        <style>
            .cls-2{fill:#c13d3d}.cls-3{fill:#fff}.cls-5{fill:#3f4551}.cls-6{fill:#24242b}
        </style>
    </defs>
    <g id="Group_4923" data-name="Group 4923" transform="translate(-701 -53)">
        <circle id="Ellipse_471" cx="22.5" cy="22.5" r="22.5" fill="#003b71" data-name="Ellipse 471" transform="translate(701 53)"/>
        <g id="Group_2608" data-name="Group 2608" transform="translate(-3429 -3236)">
            <path id="Rectangle_4573" d="M0 0H10.076V22.415H0z" class="cls-2" data-name="Rectangle 4573" transform="translate(4156.905 3301.342)"/>
            <path id="Rectangle_4574" d="M0 0H10.076V1.599H0z" class="cls-3" data-name="Rectangle 4574" transform="translate(4156.905 3315.638)"/>
            <path id="Rectangle_4575" d="M0 0H10.076V1.6H0z" class="cls-3" data-name="Rectangle 4575" transform="translate(4156.905 3306.831)"/>
            <path id="Path_2507" d="M4148.442 3513.83v6.391h6.114v-9.3zm0 0" class="cls-2" data-name="Path 2507" transform="translate(-13.14 -196.465)"/>
            <path id="Path_2508" fill="#ea5e5e" d="M4232.288 3361.183l-6.728-2.359-6.728 2.359-2.55 5.037v15.609h18.556v-15.609zm0 0" data-name="Path 2508" transform="translate(-74.866 -58.072)"/>
            <path id="Path_2509" d="M4203.114 3346.563l-8.181-3.524-8.182 3.524-4.13 7.517 1.88 1.085 4.049-7.013 6.382-2.647 6.382 2.647 4.049 7.013 1.88-1.085zm0 0" class="cls-5" data-name="Path 2509" transform="translate(-44.239 -43.709)"/>
            <path id="Rectangle_4576" d="M0 0H11.197V9.455H0z" class="cls-2" data-name="Rectangle 4576" transform="translate(4145.096 3314.302)"/>
            <path id="Path_2510" d="M4138.516 3502.263l7.009-3.073v-1.963l-7.009 3.073zm0 0" class="cls-5" data-name="Path 2510" transform="translate(-4.109 -184)"/>
            <path id="Rectangle_4577" d="M0 0H1.78V2.182H0z" class="cls-5" data-name="Rectangle 4577" transform="translate(4137.571 3319.395)"/>
            <path id="Rectangle_4578" d="M0 0H5.232V5.233H0z" class="cls-2" data-name="Rectangle 4578" transform="translate(4148.078 3306.115)"/>
            <path id="Path_2511" d="M4393.171 3299.516a5.038 5.038 0 0 0-5.038 5.038v.9h10.076v-.9a5.038 5.038 0 0 0-5.038-5.038zm0 0" class="cls-5" data-name="Path 2511" transform="translate(-231.228 -4.109)"/>
            <path id="Path_2512" d="M4389.059 3295a5.451 5.451 0 0 0-5.445 5.445.407.407 0 1 0 .814 0 4.631 4.631 0 0 1 9.262 0v.49h-7.3a.407.407 0 1 0 0 .814h7.3v4.676h-3.868a.407.407 0 0 0 0 .814h3.868v.785h-2.7a.407.407 0 1 0 0 .814h2.7v6.394h-4.974a.407.407 0 0 0 0 .814h4.974v.785h-4.974a.407.407 0 0 0 0 .815h4.974v5.7h-4.974a.407.407 0 0 0 0 .814h5.38a.407.407 0 0 0 .407-.407v-23.312a5.45 5.45 0 0 0-5.445-5.445zm0 0" class="cls-6" data-name="Path 2512" transform="translate(-227.116)"/>
            <path id="Path_2513" d="M4163.209 3350.321a.406.406 0 0 0 .153-.549l-4.13-7.517a.4.4 0 0 0-.2-.178l-8.181-3.524a.407.407 0 0 0-.322 0l-8.182 3.524a.4.4 0 0 0-.2.178l-4.13 7.517a.406.406 0 0 0 .153.549l1.88 1.086a.408.408 0 0 0 .557-.149l.394-.682v1.982l-6.765 2.966a.406.406 0 0 0-.244.373v1.963a.407.407 0 0 0 .57.373l6.438-2.823v7.537h-5.3v-3.732a.407.407 0 0 0-.814 0v4.139a.407.407 0 0 0 .408.407h24.67a.407.407 0 0 0 .407-.407v-12.779l.394.682a.408.408 0 0 0 .556.149zm-28.395 6.916v-1.074l6.194-2.716v1.073zm10.688 5.711v-8.641h4.784v7.514a.408.408 0 0 0 .815 0v-7.514h4.784v8.641zm11.2 0v-4.117h2.864v4.117zm2.864-4.931h-2.866v-4.117a.407.407 0 0 0-.408-.407h-11.2a.407.407 0 0 0-.407.407v9.048h-2.865v-4.117h1.632a.407.407 0 1 0 0-.814h-1.632v-8.851l2.772-4.8 6.1-2.529 6.1 2.529 2.771 4.8zm-2.136-14.18a.408.408 0 0 0-.2-.173l-6.383-2.647a.409.409 0 0 0-.312 0l-6.382 2.647a.4.4 0 0 0-.2.173l-3.845 6.661-1.183-.683 3.871-7.045 7.892-3.4 7.892 3.4 3.871 7.045-1.183.683zm0 0" class="cls-6" data-name="Path 2513" transform="translate(0 -39.598)"/>
            <path id="Path_2514" d="M4171.289 3564.145a.407.407 0 0 0 .407-.407v-2.182a.407.407 0 0 0-.407-.407h-1.779a.407.407 0 0 0-.408.407v2.182a.407.407 0 0 0 .408.407zm-1.373-2.182h.965v1.368h-.965zm0 0" class="cls-6" data-name="Path 2514" transform="translate(-31.938 -242.16)"/>
            <path id="Path_2515" d="M4291.709 3414.09a.314.314 0 0 0-.014-.041.229.229 0 0 0-.02-.039.29.29 0 0 0-.017-.031.416.416 0 0 0-.113-.113.332.332 0 0 0-.032-.017.366.366 0 0 0-.039-.021.315.315 0 0 0-.042-.013c-.011 0-.022-.008-.034-.01a.387.387 0 0 0-.08-.008h-5.233a.386.386 0 0 0-.08.008c-.011 0-.023.007-.034.01a.293.293 0 0 0-.042.013.373.373 0 0 0-.039.021.277.277 0 0 0-.031.017.413.413 0 0 0-.114.113l-.016.031a.243.243 0 0 0-.02.039.278.278 0 0 0-.014.042c0 .012-.007.022-.01.035a.4.4 0 0 0-.008.08v5.232a.393.393 0 0 0 .008.079c0 .012.007.023.01.034a.258.258 0 0 0 .034.081c.006.01.01.021.017.031a.406.406 0 0 0 .113.113c.01.007.021.011.031.017l.039.02a.388.388 0 0 0 .042.013.3.3 0 0 0 .034.01.393.393 0 0 0 .081.008h5.232a.391.391 0 0 0 .08-.008.3.3 0 0 0 .034-.01.356.356 0 0 0 .042-.013l.039-.02c.01-.006.021-.01.031-.017a.4.4 0 0 0 .113-.113l.017-.031a.256.256 0 0 0 .02-.039.293.293 0 0 0 .013-.042c0-.011.008-.022.01-.034a.4.4 0 0 0 .008-.08v-5.237a.392.392 0 0 0-.008-.079.279.279 0 0 0-.009-.035zm-3.581 2.731l-1.633 1.633v-3.267zm.575.576l1.633 1.633h-3.266zm-1.633-2.785h3.266l-.96.96a.407.407 0 1 0 .576.576l.961-.961v3.267zm0 0" class="cls-6" data-name="Path 2515" transform="translate(-138.009 -108.09)"/>
            <path id="Path_2516" d="M4295.868 3554.832a.407.407 0 0 0-.407.407v.467a.407.407 0 1 0 .814 0v-.467a.407.407 0 0 0-.407-.407zm0 0" class="cls-6" data-name="Path 2516" transform="translate(-146.909 -236.414)"/>
            <path id="Path_2517" d="M4334.357 3554.832a.407.407 0 0 0-.407.407v.467a.407.407 0 1 0 .814 0v-.467a.407.407 0 0 0-.407-.407zm0 0" class="cls-6" data-name="Path 2517" transform="translate(-181.929 -236.414)"/>
        </g>
    </g>
</svg>
