<svg xmlns="http://www.w3.org/2000/svg" width="45" height="45" viewBox="0 0 45 45">
    <defs>
        <style>
            .cls-2{fill:#9d26b0}.cls-11{fill:#f5f5f5}
        </style>
    </defs>
    <g id="Group_3072" data-name="Group 3072" transform="translate(-2)">
        <g id="Ellipse_476" fill="#003b71" stroke="#003b71" stroke-width="3px" data-name="Ellipse 476" transform="rotate(90 23.5 23.5)">
            <circle cx="22.5" cy="22.5" r="22.5" stroke="none"/>
            <circle cx="22.5" cy="22.5" r="21" fill="none"/>
        </g>
        <g id="Group_1861" data-name="Group 1861" transform="translate(8 6)">
            <path id="Path_784" d="M38.505-70.4v1.107a1.111 1.111 0 0 1-1.105 1.109H7.505A1.111 1.111 0 0 1 6.4-69.291V-70.4z" class="cls-2" data-name="Path 784" transform="translate(-5.845 97.519)"/>
            <path id="Path_785" fill="#6a1b99" d="M346.709-70.4v1.107a1.11 1.11 0 0 1-1.107 1.107h1.661a1.111 1.111 0 0 0 1.107-1.107V-70.4z" data-name="Path 785" transform="translate(-315.709 97.519)"/>
            <path id="Path_786" fill="#663ab6" d="M49.092-44.8l-.852 2.563a1.113 1.113 0 0 1-1.052.759H21.1a1.113 1.113 0 0 1-1.052-.759L19.2-44.8z" data-name="Path 786" transform="translate(-17.538 74.136)"/>
            <path id="Path_787" fill="#4526a0" d="M325.49-44.8l-.853 2.563a1.113 1.113 0 0 1-1.051.759h1.661a1.113 1.113 0 0 0 1.052-.759l.852-2.563z" data-name="Path 787" transform="translate(-295.597 74.136)"/>
            <path id="Path_788" fill="#7e8e94" d="M142.688-289.968l-.338.437a3.322 3.322 0 0 1-2.209 1.259 3.323 3.323 0 0 1-2.452-.672l-.974-.758v-.747a.554.554 0 0 0-.554-.553h-1.118l-4.346-3.382a1.1 1.1 0 0 1-.421-.735 1.1 1.1 0 0 1 .227-.815l.675-.875 1.362-1.749 9.716 7.558.332.26a.549.549 0 0 1 .211.367.55.55 0 0 1-.111.405z" data-name="Path 788" transform="translate(-119.001 305.946)"/>
            <path id="Path_789" fill="#535c60" d="M159.978-290.743l-.332-.26-9.715-7.556-.626.8 8.681 6.759.332.26a.549.549 0 0 1 .211.367.551.551 0 0 1-.112.409l-.338.437a3.312 3.312 0 0 1-1.8 1.178 3.327 3.327 0 0 0 3.462-1.178l.338-.437a.55.55 0 0 0 .112-.409.549.549 0 0 0-.213-.37z" data-name="Path 789" transform="translate(-136.391 305.946)"/>
            <path id="Path_790" fill="#607d8b" d="M121.231-314.813l-1.362 1.749-1.982-1.544 1.362-1.744z" data-name="Path 790" transform="translate(-107.69 322.2)"/>
            <path id="Path_791" d="M44.272-372.251l-1.362 1.744-.338.437a.55.55 0 0 1-.367.212.55.55 0 0 1-.409-.112l-5.347-4.157a1.661 1.661 0 0 1-.288-2.331l.681-.875a.554.554 0 0 1 .775-.094z" class="cls-2" data-name="Path 791" transform="translate(-32.714 378.098)"/>
            <path id="Path_792" fill="#ffdb00" d="M59.678-210.092v11.071H32v-11.071a1.11 1.11 0 0 1 1.107-1.107h13.286a.554.554 0 0 1 .554.553v.747l.974.758a3.323 3.323 0 0 0 2.452.672 3.322 3.322 0 0 0 2.209-1.259l.338-.437a.55.55 0 0 0 .112-.409.549.549 0 0 0-.211-.367l-.332-.26h6.084a1.11 1.11 0 0 1 1.105 1.109z" data-name="Path 792" transform="translate(-29.232 226.142)"/>
            <path id="Path_793" fill="#fec108" d="M321.661-211.2H320a1.111 1.111 0 0 1 1.107 1.107v11.071h1.661v-11.071a1.11 1.11 0 0 0-1.107-1.107z" data-name="Path 793" transform="translate(-292.322 226.142)"/>
            <path id="Path_794" d="M52.86-190.893h-1.107a.554.554 0 0 1-.554-.554.554.554 0 0 1 .554-.553h1.107a.554.554 0 0 1 .554.553.554.554 0 0 1-.554.554z" class="cls-11" data-name="Path 794" transform="translate(-46.771 208.603)"/>
            <path id="Path_795" d="M96.8-190.893h-6.645a.554.554 0 0 1-.553-.554.553.553 0 0 1 .553-.553H96.8a.553.553 0 0 1 .553.553.554.554 0 0 1-.553.554z" class="cls-11" data-name="Path 795" transform="translate(-81.852 208.603)"/>
            <path id="Path_796" d="M32.661-357.391H31v-10.518a1.661 1.661 0 0 0-1.661-1.661h-5.9l-9.563-7.439-1.976-1.541-6.653-5.175a1.109 1.109 0 0 0-.817-.225 1.106 1.106 0 0 0-.737.419l-.68.874a2.213 2.213 0 0 0-.45 1.634 2.216 2.216 0 0 0 .837 1.474l5.343 4.155a1.1 1.1 0 0 0 .677.233 1.123 1.123 0 0 0 .14-.009 1.1 1.1 0 0 0 .736-.419l1.111.864-.338.435a1.646 1.646 0 0 0-.339 1.235 1.624 1.624 0 0 0 .629 1.093l3.074 2.392H3.875a1.661 1.661 0 0 0-1.661 1.661v10.518H.553a.554.554 0 0 0-.553.554v1.107a1.661 1.661 0 0 0 1.242 1.6l.751 2.247a1.66 1.66 0 0 0 1.573 1.135h26.083a1.66 1.66 0 0 0 1.573-1.135l.749-2.247a1.661 1.661 0 0 0 1.244-1.6v-1.107a.554.554 0 0 0-.554-.554zM9.422-376.267l-5.343-4.156a1.109 1.109 0 0 1-.419-.737 1.108 1.108 0 0 1 .225-.817l.679-.874 6.217 4.835zm2.233-1.068l1.107.862-.68.874-1.107-.862zm.377 4.5a.532.532 0 0 1-.206-.358.55.55 0 0 1 .115-.413l1.7-2.186 9.612 7.475-.337.436a2.773 2.773 0 0 1-3.884.49l-.761-.592v-.477a1.107 1.107 0 0 0-1.107-1.107h-.928zm-8.711 4.929a.554.554 0 0 1 .554-.554H17.16v3.875a.554.554 0 0 0 .554.553.553.553 0 0 0 .553-.553v-1.993l.081.063a3.882 3.882 0 0 0 5.439-.686l.332-.432a1.089 1.089 0 0 0 .227-.814v-.011h4.993a.554.554 0 0 1 .554.553v10.516H3.321zm26.853 15.675a.554.554 0 0 1-.525.378H3.566a.554.554 0 0 1-.525-.378l-.611-1.836h28.355zm1.933-3.5a.554.554 0 0 1-.553.554H1.661a.554.554 0 0 1-.553-.554v-.553h31z" data-name="Path 796" transform="translate(0 383.958)"/>
        </g>
    </g>
</svg>
