<svg xmlns="http://www.w3.org/2000/svg" width="45" height="45" viewBox="0 0 45 45">
    <defs>
        <clipPath id="clip-path">
            <path id="Path_1719" fill="none" d="M0-251.012h33.775V-277H0z" clip-rule="evenodd" data-name="Path 1719" transform="translate(0 277)"/>
        </clipPath>
    </defs>
    <g id="Group_3024" data-name="Group 3024" transform="translate(-132 -739)">
        <circle id="Ellipse_658" cx="22.5" cy="22.5" r="22.5" fill="#003b71" data-name="Ellipse 658" transform="translate(132 739)"/>
        <g id="Group_174" data-name="Group 174" transform="translate(138 1026)">
            <g id="Group_173" clip-path="url(#clip-path)" data-name="Group 173" transform="translate(0 -277)">
                <path id="Path_1707" fill="#b0ba73" d="M150-235.978l3.377-3.94 3.377 3.94v5.629H150z" data-name="Path 1707" transform="translate(-135.927 243.397)"/>
                <path id="Path_1708" fill="#fae7d8" d="M132.384-232.112c0 5.285-2.772 9.57-6.192 9.57s-6.192-4.285-6.192-9.57a10.991 10.991 0 0 1 2.815-7.888l3.377 7.888L129.57-240a10.991 10.991 0 0 1 2.814 7.888z" data-name="Path 1708" transform="translate(-108.742 243.471)"/>
                <path id="Path_1709" fill="#b07961" d="M18.384-257.621c0 5.281-1.763 7.261-3.5 8a5.637 5.637 0 0 1-1.763.416c-.358.03-.678.03-.933.03s-.575 0-.933-.03a5.637 5.637 0 0 1-1.763-.416c-1.733-.742-3.5-2.723-3.5-8a15.19 15.19 0 0 1 5.629-11.966c.349-.277.563-.413.563-.413s.214.136.563.413a15.19 15.19 0 0 1 5.637 11.966z" data-name="Path 1709" transform="translate(-5.437 270.657)"/>
                <path id="Path_1710" fill="#f5cbaa" d="M180.01-108.937a5.066 5.066 0 0 1-3.377 4.776 5.067 5.067 0 0 1-5.633-1.592 5.067 5.067 0 0 1-5.629 1.593 5.066 5.066 0 0 1-3.371-4.777 5.066 5.066 0 0 1 3.378-4.777 5.067 5.067 0 0 1 5.622 1.593 5.067 5.067 0 0 1 5.629-1.592 5.066 5.066 0 0 1 3.381 4.776z" data-name="Path 1710" transform="translate(-146.798 129.295)"/>
                <path id="Path_1711" d="M28.146-261.367a5.6 5.6 0 0 0-3.94 1.609 5.639 5.639 0 0 0-.67-.561 14.593 14.593 0 0 0 .67-4.417 11.619 11.619 0 0 0-2.982-8.289.563.563 0 0 0-.5-.151.563.563 0 0 0-.409.331l-.771 1.8-1.662-1.939a.563.563 0 0 0-.427-.2.563.563 0 0 0-.427.2l-1.662 1.938-.771-1.8a.562.562 0 0 0-.409-.331.562.562 0 0 0-.5.151 9.134 9.134 0 0 0-1.857 2.714 15.714 15.714 0 0 0-1.522-2.444 13.951 13.951 0 0 0-3.243-3.159.563.563 0 0 0-.6 0 13.94 13.94 0 0 0-3.243 3.159 15.872 15.872 0 0 0-3.21 9.7c0 9.011 5.084 9.011 6.755 9.011a5.721 5.721 0 0 0 5.852-3.6 7.5 7.5 0 0 0 2.034 2.144 5.628 5.628 0 0 0 3.549 5 5.629 5.629 0 0 0 6.014-1.213 5.629 5.629 0 0 0 5.08 1.492 5.63 5.63 0 0 0 4.072-3.384 5.629 5.629 0 0 0-.539-5.267 5.63 5.63 0 0 0-4.682-2.494zm-10.7-10.386l1.595 1.861-1.595 3.725-1.595-3.725zm-7.9 16.029a11.793 11.793 0 0 0 1.422-6.908 23 23 0 0 0-.863-5.094.563.563 0 0 0-.705-.37.563.563 0 0 0-.37.705c.026.084 2.56 8.44-1.338 12.186-.353.031-.674.031-.939.031s-.586 0-.939-.031c-3.9-3.745-1.365-12.1-1.338-12.186a.562.562 0 0 0-.039-.429.562.562 0 0 0-.331-.276.562.562 0 0 0-.429.039.561.561 0 0 0-.276.331 23.006 23.006 0 0 0-.863 5.094 11.8 11.8 0 0 0 1.422 6.908c-1.468-.785-2.836-2.694-2.836-7.337a14.577 14.577 0 0 1 2.953-8.977 14.453 14.453 0 0 1 2.115-2.262v7.3a.563.563 0 0 0 .563.563.563.563 0 0 0 .563-.563v-7.3a14.453 14.453 0 0 1 2.113 2.258 14.577 14.577 0 0 1 2.953 8.977c0 4.647-1.368 6.556-2.836 7.341zm3.534-3.361a16.43 16.43 0 0 0 .428-3.976 16.165 16.165 0 0 0-1.052-5.806 9.021 9.021 0 0 1 1.444-2.726l3.03 7.078a.563.563 0 0 0 .518.341.563.563 0 0 0 .518-.341L21-271.594a11.076 11.076 0 0 1 2.081 6.856 13.569 13.569 0 0 1-.545 3.847 5.632 5.632 0 0 0-4.86.155 5.63 5.63 0 0 0-2.927 3.883 7.493 7.493 0 0 1-1.667-2.232zm15.064 7.85a4.487 4.487 0 0 1-3.5-1.673.563.563 0 0 0-.438-.209.563.563 0 0 0-.438.209 4.5 4.5 0 0 1-5 1.416 4.5 4.5 0 0 1-3-4.246 4.5 4.5 0 0 1 3-4.246 4.5 4.5 0 0 1 5 1.416.563.563 0 0 0 .438.209.563.563 0 0 0 .438-.209 4.5 4.5 0 0 1 4.029-1.643 4.5 4.5 0 0 1 3.538 2.532 4.5 4.5 0 0 1-.254 4.343 4.5 4.5 0 0 1-3.811 2.101z" data-name="Path 1711" transform="translate(0 276.097)"/>
                <path id="Path_1712" d="M66.563-156a.563.563 0 0 0-.563.563v4.5a.563.563 0 0 0 .563.563.563.563 0 0 0 .563-.563v-4.5a.563.563 0 0 0-.563-.563z" data-name="Path 1712" transform="translate(-59.808 167.352)"/>
                <path id="Path_1713" d="M191.4-47.891a.563.563 0 0 0-.788.112 2.252 2.252 0 0 1-1.8.9 2.252 2.252 0 0 1-1.8-.9.563.563 0 0 0-.788-.112.563.563 0 0 0-.112.788 3.377 3.377 0 0 0 2.7 1.35 3.377 3.377 0 0 0 2.7-1.35.563.563 0 0 0-.112-.788z" data-name="Path 1713" transform="translate(-168.549 69.487)"/>
                <path id="Path_1714" d="M188.812-96a3.353 3.353 0 0 0-2.7 1.351.563.563 0 0 0 .112.788.562.562 0 0 0 .788-.112 2.252 2.252 0 0 1 1.8-.9 2.251 2.251 0 0 1 1.8.9.563.563 0 0 0 .371.219.563.563 0 0 0 .417-.107.562.562 0 0 0 .219-.371.563.563 0 0 0-.107-.417 3.353 3.353 0 0 0-2.7-1.351z" data-name="Path 1714" transform="translate(-168.547 112.981)"/>
                <path id="Path_1715" d="M275.427-47.889a.563.563 0 0 0-.788.112 2.252 2.252 0 0 1-1.8.9 2.252 2.252 0 0 1-1.8-.9.563.563 0 0 0-.786-.109.563.563 0 0 0-.114.785 3.378 3.378 0 0 0 2.7 1.35 3.377 3.377 0 0 0 2.7-1.35.563.563 0 0 0-.112-.788z" data-name="Path 1715" transform="translate(-244.692 69.486)"/>
                <path id="Path_1716" d="M272.834-96a3.353 3.353 0 0 0-2.7 1.351.563.563 0 0 0 .114.785.563.563 0 0 0 .786-.109 2.252 2.252 0 0 1 1.8-.9 2.251 2.251 0 0 1 1.8.9.564.564 0 0 0 .789.112.564.564 0 0 0 .112-.789 3.353 3.353 0 0 0-2.701-1.35z" data-name="Path 1716" transform="translate(-244.688 112.981)"/>
                <path id="Path_1717" d="M198.563-64.874h2.252a.563.563 0 0 0 .563-.563.563.563 0 0 0-.563-.563h-2.252a.563.563 0 0 0-.563.563.563.563 0 0 0 .563.563z" data-name="Path 1717" transform="translate(-179.424 85.796)"/>
                <path id="Path_1718" d="M282.563-64.874h2.252a.563.563 0 0 0 .563-.563.563.563 0 0 0-.563-.563h-2.252a.563.563 0 0 0-.563.563.563.563 0 0 0 .563.563z" data-name="Path 1718" transform="translate(-255.543 85.796)"/>
            </g>
        </g>
    </g>
</svg>
