<svg xmlns="http://www.w3.org/2000/svg" width="45" height="45" viewBox="0 0 45 45">
    <defs>
        <style>
            .cls-2{fill:#3e9c06}
        </style>
    </defs>
    <g id="Group_3059" data-name="Group 3059" transform="translate(-795 -739)">
        <circle id="Ellipse_678" cx="22.5" cy="22.5" r="22.5" fill="#003b71" data-name="Ellipse 678" transform="translate(795 739)"/>
        <g id="Group_3033" data-name="Group 3033" transform="translate(801 703.198)">
            <path id="Path_4279" d="M401.4 59.76a3.975 3.975 0 0 1 5.192-2.086V55.9a5.205 5.205 0 0 0-1.955-.365 4.814 4.814 0 0 0-4.42 2.906z" class="cls-2" data-name="Path 4279" transform="translate(-375.034 -9.792)"/>
            <path id="Path_4280" fill="#ef0000" d="M35.361 80.153a6.689 6.689 0 0 0-9.2 0c-4.013 3.457-7.619 17.21-15.712 21.863 5.576.592 15.465-1.295 24.911-12.664 2.297-2.763 2.54-6.659.001-9.199z" data-name="Path 4280" transform="translate(-9.792 -31.141)"/>
            <path id="Path_4281" d="M261.517 80.153a6.689 6.689 0 0 0-9.2 0 6.408 6.408 0 0 0-.519.505l-.01.064h5.2l-.684 4.129 4.391-1.226 1.386 4.563.307-.118a6.515 6.515 0 0 0-.871-7.917z" class="cls-2" data-name="Path 4281" transform="translate(-235.949 -31.141)"/>
            <path id="Path_4282" d="M158.207 336.925a.657.657 0 0 1-.522-1.055v-.006a.657.657 0 0 1 1.044.8v.005a.659.659 0 0 1-.522.256z" data-name="Path 4282" transform="translate(-147.639 -272.242)"/>
            <path id="Path_4283" d="M175.565 184.973a.658.658 0 0 1-.573-.978c.483-.863.966-1.847 1.479-2.889 1.048-2.132 2.235-4.548 3.357-5.633l.009-.009a.657.657 0 1 1 .932.927l-.027.026c-.957.926-2.14 3.333-3.091 5.267-.52 1.059-1.012 2.058-1.511 2.952a.657.657 0 0 1-.575.337z" data-name="Path 4283" transform="translate(-163.904 -121.992)"/>
            <path id="Path_4284" d="M31.809 45.505a5.811 5.811 0 0 0-2.211-.417 5.468 5.468 0 0 0-4.643 2.576 6.875 6.875 0 0 0-3.928-1.142 8.025 8.025 0 0 0-5.087 1.991c-1.639 1.412-3.142 4.3-4.882 7.648C8.423 61.229 5.143 67.537.33 70.3a.657.657 0 0 0 .258 1.223 18.161 18.161 0 0 0 1.911.1 24.473 24.473 0 0 0 9.416-1.991 37.509 37.509 0 0 0 14.159-11 7.572 7.572 0 0 0 1.035-8.695 3.317 3.317 0 0 1 4.191-1.449.657.657 0 0 0 .913-.605V46.11a.657.657 0 0 0-.404-.605zm-10.693 2.318a5.58 5.58 0 0 1 3.984 1.653 5.726 5.726 0 0 1 1.257 6.039l-.979-3.224a.657.657 0 0 0-.806-.442l-3.4.949.515-3.111a.657.657 0 0 0-.648-.765h-3.463a6.461 6.461 0 0 1 3.54-1.099zm-9.708 20.6a23.222 23.222 0 0 1-8.741 1.889c4.222-3.28 7.151-8.913 9.558-13.543a39.443 39.443 0 0 1 3.865-6.53h4.18l-.557 3.361a.657.657 0 0 0 .825.741l3.772-1.054 1.191 3.92c-.135.2-.28.392-.438.582a36.217 36.217 0 0 1-13.655 10.633zM30.9 47a4.638 4.638 0 0 0-4.619 1.8q-.118-.13-.243-.256l-.047-.046A4.154 4.154 0 0 1 29.6 46.4a4.869 4.869 0 0 1 1.3.174V47z" data-name="Path 4284"/>
        </g>
    </g>
</svg>
