<svg xmlns="http://www.w3.org/2000/svg" width="26" height="17" viewBox="0 0 26 17">
    <g id="undo" transform="translate(-11 20.215)">
        <path id="Path_2968" fill="#003b71" d="M.557 21.785a.554.554 0 0 0 .516-.344c.064-.155 1.673-3.833 7.685-4.562a40.408 40.408 0 0 1 4.574-.248v4.584a.572.572 0 0 0 .3.5.553.553 0 0 0 .573-.033l11.552-7.929a.573.573 0 0 0 .243-.467.579.579 0 0 0-.248-.474L14.2 4.882a.54.54 0 0 0-.573-.029.567.567 0 0 0-.3.5v4.266C10.815 9.953 0 11.934 0 21.22a.567.567 0 0 0 .447.559.676.676 0 0 0 .11.006z" data-name="Path 2968" transform="translate(11 -25)"/>
    </g>
</svg>
