<svg xmlns="http://www.w3.org/2000/svg" id="arome" width="36.792" height="35.969" viewBox="0 0 36.792 35.969">
    <path id="Path_2553" fill="none" d="M85.577 106.9H66.972c-1.243 4.3-5.945 20.42-6.683 22.065-.034.067-.034.134-.067.134a6.641 6.641 0 0 0 .873.907 28.271 28.271 0 0 1 4.836 5.877 1.056 1.056 0 0 1 .168.705c.168.235 1.612 1.746 10.143 1.578h.034c8.531.168 9.975-1.343 10.143-1.578a1.056 1.056 0 0 1 .168-.705 29.263 29.263 0 0 1 4.836-5.877 6.642 6.642 0 0 0 .873-.907c0-.034-.034-.067-.067-.168-.741-1.746-5.409-17.766-6.652-22.031zm-.672 27.875a4.181 4.181 0 0 0-.336.672c-.705.235-3.09.806-8.262.672h-.134c-5.306.1-7.489-.47-8.262-.772a2.543 2.543 0 0 0-.3-.6 30.611 30.611 0 0 0-5.071-6.18c1.243-3.661 4.3-14.072 5.911-19.714H70.6l.6 7.792.84-7.792h11.99c1.646 5.609 4.668 16.02 5.911 19.714a33.8 33.8 0 0 0-5.035 6.208z" data-name="Path 2553" transform="translate(-57.871 -104.549)"/>
    <path id="Path_2554" d="M89.764 123.342c-.571-1.343-4.4-14.274-6.818-22.6A1.159 1.159 0 0 0 81.8 99.9H61.452a1.189 1.189 0 0 0-1.142.84c-2.418 8.4-6.247 21.36-6.818 22.6-.772 1.713.269 2.687 1.343 3.694a26.568 26.568 0 0 1 4.3 5.138 2.463 2.463 0 0 0 .5 1.209c1.276 1.646 4.769 2.485 10.613 2.485H73c5.844 0 9.337-.806 10.613-2.485a2.184 2.184 0 0 0 .5-1.209 26.769 26.769 0 0 1 4.265-5.138c1.122-1.005 2.122-1.979 1.386-3.692zm-2.955 2.015a28.272 28.272 0 0 0-4.836 5.877 1.056 1.056 0 0 0-.168.705c-.168.235-1.612 1.746-10.143 1.578h-.034c-8.531.168-9.975-1.343-10.143-1.578a1.056 1.056 0 0 0-.168-.705 29.264 29.264 0 0 0-4.836-5.877 6.642 6.642 0 0 1-.873-.907c0-.034.034-.067.067-.134.739-1.646 5.441-17.766 6.683-22.065h18.607c1.243 4.265 5.911 20.285 6.683 22.065.034.067.034.134.067.168-.168.134-.571.537-.907.873z" data-name="Path 2554" transform="translate(-53.225 -99.9)"/>
    <path id="Path_2555" fill="#ffba00" d="M80.924 112.834h-4.2l-.84 7.758-.6-7.792h-2.152c-1.646 5.642-4.7 16.02-5.911 19.714a30.611 30.611 0 0 1 5.071 6.18 2.543 2.543 0 0 1 .3.6c.772.3 2.955.873 8.262.772h.134c5.172.1 7.557-.47 8.262-.672a2.517 2.517 0 0 1 .336-.672 30.611 30.611 0 0 1 5.071-6.18c-1.243-3.694-4.3-14.072-5.911-19.714z" data-name="Path 2555" transform="translate(-62.52 -108.468)"/>
</svg>
