<svg xmlns="http://www.w3.org/2000/svg" width="35.519" height="59.008" viewBox="0 0 35.519 59.008">
    <g id="boot">
        <g id="Group_2064" data-name="Group 2064">
            <path id="Path_2483" d="M98.082 80.408c-2.217 0-5.138-.168-6.314-.94a9.513 9.513 0 0 0-3.023-1.243c-1.008-.269-2.149-.1-2.385.772a.743.743 0 0 1-.5.537c-2.586.907-6.583.336-8.06-1.142-1.914-1.881-.739-5.642-.1-7.657l.034-.1c1.108-3.493.437-10.68-.672-16.221-.269-1.377-.638-2.922-1.008-4.534-1.847-8.094-4.1-18.136-2.418-27.808a.821.821 0 0 1 .764-.672h22.171a.764.764 0 0 1 .772.672c1.679 9.672-.6 19.714-2.418 27.808-.369 1.612-.705 3.157-1.008 4.534a64.674 64.674 0 0 0-1.175 9.169c-.134 2.552 1.377 4.1 2.855 5.273a21.462 21.462 0 0 0 6.18 2.519l.269.067c3.493.873 6.515 1.646 6.515 5.709.033 2.283-3.191 3.257-10.479 3.257zm-10.176-3.862a5.51 5.51 0 0 1 1.243.168 10.923 10.923 0 0 1 3.493 1.444c.638.4 2.788.672 5.441.672 8.665 0 8.934-1.444 8.934-1.612 0-2.72-1.545-3.224-5.306-4.164l-.3-.067c-1.31-.336-5.071-1.478-6.751-2.821-1.713-1.343-3.627-3.325-3.459-6.616a68.052 68.052 0 0 1 1.209-9.4c.3-1.411.638-2.955 1.008-4.568 1.746-7.758 3.929-17.363 2.519-26.532H75.11c-1.411 9.169.772 18.774 2.519 26.532.369 1.612.705 3.157 1.008 4.568 1.075 5.34 1.881 13 .638 17.027l-.034.1c-.47 1.444-1.511 4.836-.3 6.045.907.907 3.929 1.444 6.045.873a2.965 2.965 0 0 1 2.92-1.649z" data-name="Path 2483" transform="translate(-73.042 -21.4)"/>
        </g>
        <path id="Path_2484" fill="#ffba00" d="M85.163 70l-1.209-17.933H81.7c-.2 0-.5.269-.5.437l.1 2.989.134 1.276c0 .1.034.235.034.336v.067a112.353 112.353 0 0 0 2.552 14c.336 1.511.672 2.955.94 4.265 1.04 5.043 1.815 12.331.572 16.163l-.034.1c-.369 1.142-1.343 4.232-.4 5.138a5.959 5.959 0 0 0 3.493.873 7.256 7.256 0 0 0 1.545-.168 3.427 3.427 0 0 1 3.09-1.612 5.834 5.834 0 0 1 1.31.168 11.5 11.5 0 0 1 3.459 1.411c.437.269 2.116.537 4.9.537a42.965 42.965 0 0 0 5.239-.269 5.391 5.391 0 0 0 2.72-.806c-.034-2.082-1.142-2.485-4.668-3.358l-.269-.067c-1.276-.336-4.937-1.444-6.583-2.72-1.578-1.243-3.661-3.258-3.493-6.583a60.707 60.707 0 0 1 1.175-8.866c.269-1.31.6-2.754.94-4.265a94.342 94.342 0 0 0 2.788-17.363h-.034l.1-1.411a.337.337 0 0 0-.336-.336H86.338" data-name="Path 2484" transform="translate(-78.46 -41.723)"/>
    </g>
</svg>
