<svg xmlns="http://www.w3.org/2000/svg" width="22.69" height="65.973" viewBox="0 0 22.69 65.973">
    <g id="bottle">
        <path id="Path_2485" d="M98.844 38.592a7.7 7.7 0 0 1-1.24-2.429c-.405-2.428-.683-6.846-.953-11.137v-.06c-.2-3.2-.392-6.234-.635-8.448a2.75 2.75 0 0 0 .161-.273 3.942 3.942 0 0 0-.218-3.345c-.047-.115-.116-.286-.132-.331a2 2 0 0 0-.23-.6v-.054a2.285 2.285 0 0 0-.126-.788 3.363 3.363 0 0 0-.285-.578 1.193 1.193 0 0 0-1.014-.565h-8.411a2.62 2.62 0 0 0-1.631.572 1.114 1.114 0 0 0-.476.876l-.027.384a1.937 1.937 0 0 0-.32.73c-.02.065-.08.214-.137.355a3.938 3.938 0 0 0-.219 3.347 2.685 2.685 0 0 0 .16.272c-.243 2.219-.434 5.253-.635 8.463l-.005.077c-.268 4.267-.546 8.68-.95 11.106a7.722 7.722 0 0 1-1.24 2.43 16.075 16.075 0 0 0-1.326 2.329 12.05 12.05 0 0 0-.651 5.9v.055c.025.376.049.734.064 1.095.084 2.138.053 7.949.026 13.075v.144c-.021 3.942-.04 7.346-.006 8.829a5.24 5.24 0 0 0 3.5 4.907 15.952 15.952 0 0 0 5.9 1.011c.525.013 1.055.02 1.571.02h.4c.518 0 1.046-.007 1.572-.02a15.95 15.95 0 0 0 5.9-1.011 5.24 5.24 0 0 0 3.5-4.908c.034-1.507.015-4.974-.006-8.987v-.07c-.028-5.094-.058-10.869.026-12.991.015-.382.041-.759.068-1.161a12.025 12.025 0 0 0-.65-5.885 16.1 16.1 0 0 0-1.325-2.336zm-11 35.063c-4.843-.119-7.124-1.291-7.176-3.689-.033-1.464-.013-5.062.007-8.871.028-5.169.06-11.027-.028-13.219-.016-.406-.044-.808-.071-1.207a9.944 9.944 0 0 1 .469-4.844 14.216 14.216 0 0 1 1.149-2 9.249 9.249 0 0 0 1.573-3.29c.425-2.546.706-7.028.978-11.362.225-3.58.438-6.968.718-9.154l3.859-.32-4.332-.475-.01-.016c-.161-.317.105-.977.3-1.46l.043-.109a.517.517 0 0 0 .1.01c.357 0 .357-.28.713-.28s.356.28.713.28.356-.28.712-.28.356.28.713.28.355-.28.712-.28.356.28.712.28.356-.28.712-.28.357.28.713.28.356-.28.712-.28.356.28.712.28.355-.28.712-.28c.28 0 .342.171.527.245l.054.137c.194.482.46 1.142.3 1.458a.3.3 0 0 1-.071.093l-.147-1.061-.3 1.375a.312.312 0 0 0 .018.251c.29 2.177.508 5.642.738 9.3.273 4.335.554 8.818.979 11.364a9.224 9.224 0 0 0 1.573 3.29 14.157 14.157 0 0 1 1.15 2 9.932 9.932 0 0 1 .468 4.829c-.027.4-.054.81-.071 1.221-.087 2.188-.055 8.033-.027 13.191.02 3.821.04 7.431.007 8.9-.053 2.4-2.334 3.57-7.179 3.689-.474.012-.981.02-1.514.02h-.4c-.534.003-1.043-.005-1.518-.017z" data-name="Path 2485" transform="translate(-78.218 -9.981)"/>
        <path id="Path_2486" fill="#ffba00" d="M104.005 87.5c.067-2.883-.113-18.554.017-21.744.072-1.772.4-3.456-.36-5.159-.644-1.448-2.068-2.85-2.329-4.379-.665-3.878-.926-14.454-1.471-18.335H92.4c-.546 3.886-.805 14.457-1.47 18.335-.263 1.529-1.686 2.931-2.329 4.379-.758 1.7-.434 3.387-.361 5.159.131 3.191-.049 18.862.018 21.744.058 2.587 3.039 2.77 6.389 2.851.462.012.961.019 1.484.017s1.021-.005 1.483-.017c3.352-.077 6.333-.261 6.391-2.851zM93.817 46.455c-.036 1.278-.077 2.768-.134 4.364s-.11 3.3-.168 5l-.039 1.276-.019.634V57.995l-.008.079-.035.314-.079.352a2.4 2.4 0 0 1-.093.337l-.108.321c-.039.107-.1.213-.147.32l-.078.159c-.026.051-.051.091-.077.136l-.157.262c-.1.174-.208.347-.309.518-.211.34-.413.676-.621 1l-.286.451-.131.248-.065.122-.038.108a3.31 3.31 0 0 0-.146.44l-.061.232c-.02.077-.02.148-.032.222s-.025.14-.029.223l-.011.251-.021.49c-.027.638-.064 1.223-.1 1.742s-.068.971-.1 1.344c-.063.745-.115 1.171-.115 1.171h-.089s-.051-.426-.115-1.171c-.033-.373-.067-.825-.1-1.344s-.068-1.1-.095-1.742l-.021-.49c0-.083-.007-.167-.011-.251s.006-.19.01-.287.009-.2.026-.3.037-.189.055-.284a3.944 3.944 0 0 1 .165-.6l.05-.153.058-.126.117-.255.007-.016.027-.046.018-.031.035-.061.072-.122.145-.247c.193-.333.4-.666.607-1.008l.319-.512.163-.258c.026-.043.058-.088.079-.127l.061-.117c.039-.079.086-.15.121-.236l.1-.263a1.75 1.75 0 0 0 .088-.259l.078-.257.052-.31.021-.127.013-.158.048-.633.1-1.272.364-4.992c.112-1.592.231-3.079.331-4.352.2-2.548.341-4.247.341-4.247l.088.005s-.053 1.712-.121 4.267z" data-name="Path 2486" transform="translate(-84.787 -28.514)"/>
    </g>
</svg>
