<svg xmlns="http://www.w3.org/2000/svg" width="35.717" height="60.985" viewBox="0 0 35.717 60.985">
    <g id="can-glass">
        <g id="Group_2065" data-name="Group 2065">
            <path id="Path_2487" d="M95.6 83.272l-27.25-.078a1.143 1.143 0 0 1-.829-.352 1.977 1.977 0 0 1-.372-1.537c0-.07.005-.14.006-.206l-1.855-1.06a1.672 1.672 0 0 1-.346-.26 2.817 2.817 0 0 1-.832-1.992v-48.4a2.916 2.916 0 0 1 .466-1.584l2.839-4.4a2.427 2.427 0 0 1 2.047-1.116h25.079a2.328 2.328 0 0 1 1.958 1.062l2.789 4.285a3.344 3.344 0 0 1 .543 1.828V77.93a2.254 2.254 0 0 1-.743 1.67l-.107.084-2.235 1.526c0 .068.007.138.01.193a1.882 1.882 0 0 1-.338 1.514 1.127 1.127 0 0 1-.83.355zm-26.429-2.091l25.571.073a1.657 1.657 0 0 1 .436-1.394l.107-.084 2.493-1.7a.235.235 0 0 0 .049-.144v-48.47a1.334 1.334 0 0 0-.216-.729l-2.79-4.286a.319.319 0 0 0-.269-.146H69.478a.42.42 0 0 0-.354.193l-2.838 4.4a.9.9 0 0 0-.145.492v48.4a.792.792 0 0 0 .2.524l1.994 1.141a1.637 1.637 0 0 1 .83 1.311c.01.138.009.28.006.419zm-.816 0z" data-name="Path 2487" transform="translate(-64.126 -22.287)"/>
        </g>
        <g id="Group_2066" data-name="Group 2066" transform="translate(3.97 8.116)">
            <path id="Path_2488" fill="#ffba00" d="M103.03 46.453H79.518l-.983 35.6-.109-35.6h-1.855a.624.624 0 0 0-.624.624v46l1.178.674a3.674 3.674 0 0 1 1.427 1.469l22.381.064a3.206 3.206 0 0 1 .685-.871l.152-.137 1.832-1.251v-46a.573.573 0 0 0-.572-.572z" data-name="Path 2488" transform="translate(-75.947 -46.453)"/>
        </g>
    </g>
</svg>
