<svg xmlns="http://www.w3.org/2000/svg" width="30.461" height="53.198" viewBox="0 0 30.461 53.198">
    <g id="can">
        <path id="Path_2489" fill="#ffba00" d="M97.372 79.4H77.456l-.84 28.849-.1-28.849h-1.579a.524.524 0 0 0-.537.5v37.279l1.008.537a3.135 3.135 0 0 1 1.209 1.175l18.975.067a3.51 3.51 0 0 1 .571-.705l.134-.1 1.545-1.008V79.87a.441.441 0 0 0-.47-.47z" data-name="Path 2489" transform="translate(-70.941 -69.56)"/>
        <g id="Group_2067" data-name="Group 2067">
            <path id="Path_2490" fill="none" d="M93.65 59.734a.34.34 0 0 0-.235-.134h-21.36a.353.353 0 0 0-.3.168L69.334 63.5a.955.955 0 0 0-.134.4v41.041a.639.639 0 0 0 .168.437l1.713.974a1.4 1.4 0 0 1 .705 1.108v.369l21.8.067a1.362 1.362 0 0 1 .369-1.175l.1-.067 2.116-1.444c.034-.034.034-.067.034-.134V64a1.16 1.16 0 0 0-.168-.6z" data-name="Path 2490" transform="translate(-67.487 -56.409)"/>
            <path id="Path_2491" d="M94.058 56.112l-2.385-3.627a2.035 2.035 0 0 0-.673-.639h.134a.873.873 0 0 0 0-1.746H67.458a.873.873 0 0 0 0 1.746h.168a2.247 2.247 0 0 0-.705.672L64.5 56.246a2.422 2.422 0 0 0-.4 1.343V98.63a2.207 2.207 0 0 0 1.008 1.914l1.578.907v.168a1.823 1.823 0 0 0 .3 1.31.967.967 0 0 0 .705.3l23.209.071a.967.967 0 0 0 .705-.3 1.739 1.739 0 0 0 .3-1.276v-.168l1.914-1.276.1-.067a1.913 1.913 0 0 0 .638-1.411V57.69a3.247 3.247 0 0 0-.499-1.578zm-1.243 42.652a.2.2 0 0 1-.034.134l-2.116 1.444-.1.067a1.325 1.325 0 0 0-.369 1.175l-21.8-.067v-.369a1.4 1.4 0 0 0-.705-1.108l-1.713-.974a.707.707 0 0 1-.168-.437V57.623a.586.586 0 0 1 .134-.4l2.418-3.728a.353.353 0 0 1 .3-.168h21.36a.254.254 0 0 1 .235.134l2.385 3.627a.974.974 0 0 1 .168.6v41.076z" data-name="Path 2491" transform="translate(-64.1 -50.1)"/>
        </g>
    </g>
</svg>
