<svg xmlns="http://www.w3.org/2000/svg" width="26.506" height="60.083" viewBox="0 0 26.506 60.083">
    <g id="chalice">
        <path id="Path_2492" fill="none" d="M88.446 84.06a7.647 7.647 0 0 1-.672-6.348.88.88 0 0 1 .168-.3c2.418-3.157.84-7.657.84-7.725a1.134 1.134 0 0 1-.034-.672l.336-1.31a1.234 1.234 0 0 1 .3-.537C101.813 54.27 96.339 35.463 95 31.5H77.934a46.36 46.36 0 0 0-2.317 12.124c-.537 9.605 2.149 17.531 7.926 23.543a1.4 1.4 0 0 1 .3.537l.336 1.31a1.134 1.134 0 0 1-.034.672c0 .034-1.578 4.534.84 7.691a1.362 1.362 0 0 1 .168.3 7.792 7.792 0 0 1-.672 6.348 7.444 7.444 0 0 1-3.694 2.821c1.377.034 3.191.034 5.642-.067h.071c2.452.1 4.265.1 5.642.067a7.209 7.209 0 0 1-3.696-2.786zM86.6 66.529h-.2l-.739-.772c-5.172-5.374-7.59-12.527-7.12-21.226a45.763 45.763 0 0 1 1.578-9.605l1.545-.067 1.578.067.235 10.646 1.008-10.613h8.463a45.37 45.37 0 0 1 1.578 9.605c.437 8.732-1.948 15.852-7.12 21.226z" data-name="Path 2492" transform="translate(-73.195 -29.149)"/>
        <path id="Path_2493" d="M92.556 80.956a.948.948 0 0 0-.5-.134c-3.157-.235-5.306-1.142-6.314-2.687a5.238 5.238 0 0 1-.47-4.165c2.586-3.594 1.545-8.094 1.175-9.4l.168-.672c6.045-6.381 8.934-15.08 8.363-25.121a47.124 47.124 0 0 0-2.758-13.538 1.179 1.179 0 0 0-1.108-.739h-18.64a1.25 1.25 0 0 0-1.108.739 47.125 47.125 0 0 0-2.754 13.535c-.571 10.075 2.317 18.74 8.363 25.121l.168.672c-.369 1.31-1.444 5.777 1.175 9.4a5.391 5.391 0 0 1-.47 4.165c-1.008 1.545-3.157 2.452-6.314 2.687a1.408 1.408 0 0 0-.5.134 1.629 1.629 0 0 0-.873 1.847c.269.974 1.108 1.78 7.691 1.78 1.142 0 2.452-.034 3.963-.067 1.511.067 2.821.067 3.963.067 6.583 0 7.422-.806 7.691-1.78a1.648 1.648 0 0 0-.911-1.844zM81.842 82.2h-.067c-2.452.1-4.265.1-5.642.067A6.989 6.989 0 0 0 80.5 73.1a.88.88 0 0 0-.168-.3c-2.418-3.157-.84-7.657-.84-7.691a1.134 1.134 0 0 0 .034-.672l-.336-1.31a1.234 1.234 0 0 0-.3-.537c-5.777-6.012-8.463-13.9-7.926-23.543a46.36 46.36 0 0 1 2.317-12.124h16.991c1.343 3.963 6.818 22.77-5.609 35.667a1.4 1.4 0 0 0-.3.537l-.336 1.31a1.134 1.134 0 0 0 .034.672c0 .034 1.578 4.534-.84 7.724a1.362 1.362 0 0 0-.168.3 7.792 7.792 0 0 0 .672 6.348 7.444 7.444 0 0 0 3.692 2.819c-1.309-.034-3.157-.034-5.575-.1z" data-name="Path 2493" transform="translate(-68.539 -24.5)"/>
        <path id="Path_2494" fill="#ffba00" d="M100.236 51.006a45.762 45.762 0 0 0-1.578-9.606h-8.464l-1.007 10.614-.235-10.646-1.579-.068-1.545.067a45.37 45.37 0 0 0-1.578 9.605C83.813 59.7 86.2 66.824 91.37 72.2l.739.772h.2l.739-.772c5.24-5.342 7.625-12.462 7.188-21.194z" data-name="Path 2494" transform="translate(-78.94 -35.658)"/>
    </g>
</svg>
