<svg xmlns="http://www.w3.org/2000/svg" id="craftmaster" width="32.061" height="57.061" viewBox="0 0 32.061 57.061">
    <g id="Group_2068" data-name="Group 2068">
        <path id="Path_2498" d="M81.535 74.861a42.437 42.437 0 0 1-7.59-.638c-1.444-.269-5.239-1.008-5.239-3.963a19.256 19.256 0 0 1 1.612-6.112 21.729 21.729 0 0 0 1.075-3.325 5.666 5.666 0 0 0 0-1.075 2.905 2.905 0 0 0-.235-.571 13.729 13.729 0 0 0-1.378-1.747 18.189 18.189 0 0 1-1.746-2.317 23.646 23.646 0 0 1-2.25-5.911c-.6-2.989-.336-8.665-.034-11.52.4-3.8 2.653-13.132 3.594-16.96a3.844 3.844 0 0 1 3.727-2.922h17.061a3.593 3.593 0 0 1 3.493 2.754c.1.4.2.907.369 1.478v.034c1.075 4.4 3.056 12.561 3.291 16.188a55.706 55.706 0 0 1-.034 9.471 26.4 26.4 0 0 1-2.183 6.818 32.811 32.811 0 0 1-2.284 3.191c-.571.739-1.175 1.511-1.478 1.982a1.875 1.875 0 0 0-.168.269 1.583 1.583 0 0 0 .067.705c.168.873.705 2.72 1.108 4.064.067.235.235.638.4 1.041.705 1.78 1.411 3.627.772 5.206s-2.284 2.586-5.138 3.191a30.319 30.319 0 0 1-6.812.669zM73.071 18.64a3.019 3.019 0 0 0-2.955 2.317c-.94 3.829-3.191 13.1-3.594 16.826-.3 2.821-.571 8.4.034 11.284a25.068 25.068 0 0 0 2.149 5.676 19.3 19.3 0 0 0 1.679 2.217 15.851 15.851 0 0 1 1.444 1.881 3.937 3.937 0 0 1 .3.806v.034a8.5 8.5 0 0 1 0 1.31 26.448 26.448 0 0 1-1.108 3.459 18.7 18.7 0 0 0-1.545 5.844c0 2.284 3.358 2.922 4.6 3.191a41.084 41.084 0 0 0 7.456.6 34.858 34.858 0 0 0 6.65-.571c2.586-.537 4.03-1.411 4.568-2.72.537-1.276-.134-2.989-.772-4.6a9.416 9.416 0 0 1-.4-1.108c-.4-1.343-.974-3.258-1.142-4.131a9.489 9.489 0 0 1-.067-.974v-.067l.034-.067c.067-.134.168-.3.235-.437.336-.5.94-1.31 1.545-2.049a29.39 29.39 0 0 0 2.217-3.09 25.487 25.487 0 0 0 2.116-6.583 53.758 53.758 0 0 0 .034-9.3c-.235-3.56-2.217-11.688-3.291-16.054V22.3c-.134-.6-.269-1.108-.369-1.478a2.769 2.769 0 0 0-2.72-2.149H73.071z" data-name="Path 2498" transform="translate(-65.421 -17.8)"/>
    </g>
    <g id="Group_2070" data-name="Group 2070" transform="translate(2.426 10.881)">
        <g id="Group_2069" data-name="Group 2069">
            <path id="Path_2499" fill="#ffba00" d="M75.82 61.552c0-4.131.067-8.967.537-11.15a.135.135 0 0 0-.134-.168H74.88a.123.123 0 0 0-.134.134c-.806 3.493-1.545 7.154-1.78 9.169-.3 2.687-.537 8.161 0 10.781a21.947 21.947 0 0 0 1.982 5.172c.672 1.108 2.519 2.989 3.157 4.1a5.452 5.452 0 0 1 .5 1.411 8.492 8.492 0 0 1 0 1.847c-.4 2.385-2.519 6.818-2.519 9.169 0 2.485 18.606 3.157 20.016-.269.369-.94-.84-3.358-1.243-4.6-.336-1.075-.974-3.224-1.175-4.332a7.039 7.039 0 0 1-.067-1.679 4.471 4.471 0 0 1 .5-1.075c.84-1.31 2.922-3.694 3.694-5.071a24.871 24.871 0 0 0 1.914-6.045 52.9 52.9 0 0 0 0-8.934 77.816 77.816 0 0 0-1.78-9.672.144.144 0 0 0-.134-.134H77.9a.223.223 0 0 0-.168.134l-1.609 11.245a.153.153 0 0 1-.303-.033z" data-name="Path 2499" transform="translate(-72.645 -50.2)"/>
        </g>
    </g>
</svg>
