<svg xmlns="http://www.w3.org/2000/svg" width="35.637" height="67.707" viewBox="0 0 35.637 67.707">
    <g id="crowler">
        <path id="Path_2500" d="M93.53 15.517l-2.788-4.7c-.067-.1-.1-.168-.168-.269h.3a.867.867 0 0 0 .873-.873.889.889 0 0 0-.873-.873H61.557a.867.867 0 0 0-.873.873.889.889 0 0 0 .873.873h.336c-.067.1-.168.2-.235.3l-2.821 4.836a3.216 3.216 0 0 0-.437 1.679V70.5a3.185 3.185 0 0 0 .806 2.116 3.028 3.028 0 0 0 .336.3l1.847 1.175v.3a2.019 2.019 0 0 0 .4 1.646 1.2 1.2 0 0 0 .84.369l27.136.1a1.092 1.092 0 0 0 .84-.369 2.086 2.086 0 0 0 .369-1.612v-.269l2.25-1.679.1-.1a2.464 2.464 0 0 0 .705-1.746v-53.3a3.483 3.483 0 0 0-.499-1.914zM91.951 70.63a.485.485 0 0 1-.067.235l-2.484 1.88-.1.1a1.84 1.84 0 0 0-.4 1.511l-25.4-.066v-.5a1.752 1.752 0 0 0-.8-1.38l-1.981-1.243a1.06 1.06 0 0 1-.235-.638V17.364a1.257 1.257 0 0 1 .168-.6l2.821-4.836a.323.323 0 0 1 .3-.2h24.988c.067 0 .134.067.2.134l2.788 4.7a1.627 1.627 0 0 1 .235.873v53.2z" data-name="Path 2500" transform="translate(-58.4 -8.8)"/>
        <path id="Path_2501" fill="#ffba00" d="M97.764 42.6H76.471l-2.552 37.145-.1-37.145H72a.631.631 0 0 0-.6.638v47.993l1.142.705a3.606 3.606 0 0 1 1.377 1.545l21.8.067a3.338 3.338 0 0 1 .672-.907l.134-.134L98.3 91.2v-48a.569.569 0 0 0-.536-.6z" data-name="Path 2501" transform="translate(-67.034 -31.248)"/>
    </g>
</svg>
