<svg xmlns="http://www.w3.org/2000/svg" width="22.059" height="59.354" viewBox="0 0 22.059 59.354">
    <g id="flute">
        <path id="Path_2301" d="M88.359 73.419c-.948-1.581-2.894-1.658-4.46-1.721-.323-.013-.829-.033-1.12-.073-.894-1.2-.529-4.552-.307-6.582l.007-.066c.049-.452.1-.88.132-1.285a85.945 85.945 0 0 1 2.005-8.772c.139-.37.766-2.062 1.389-4.138 2.348-7.07 2.771-19.279 1.693-26.249-.01-.062-.02-.145-.033-.242l-.007-.05c-.2-1.488-.353-2.434-1.089-3.081-1.145-1.011-3.109-1.543-6.335-1.71v-.055l-4.678-.007v.062c-3.226.167-5.19.7-6.336 1.712-.735.647-.892 1.591-1.089 3.091l-.038.282c-1.078 6.969-.655 19.18 1.689 26.235.626 2.084 1.251 3.771 1.391 4.144.5 1.884 1.815 7.072 2.012 8.824l.078.687c.286 2.48.675 5.849-.3 7.227-.3.037-.784.054-1.1.065-1.555.056-3.49.126-4.435 1.7l-.076.138a3.137 3.137 0 0 0-.314 2.642 2.257 2.257 0 0 0 1.372 1.277 32.726 32.726 0 0 0 8.718 1.226h1.223c.368.029.774.044 1.207.044a24.849 24.849 0 0 0 7.894-1.3 2.246 2.246 0 0 0 1.309-1.3 3.157 3.157 0 0 0-.329-2.6zM75.75 64.137l-.078-.679c-.262-2.332-2.031-9-2.107-9.288l-.015-.047c-.007-.018-.7-1.823-1.382-4.109-2.241-6.722-2.637-18.4-1.6-25.1.013-.086.029-.208.048-.35a8.988 8.988 0 0 1 .292-1.555c.6-.5 2.244-1.083 6.687-1.116h.6c4.442.033 6.091.618 6.687 1.116a8.979 8.979 0 0 1 .292 1.555c.019.143.035.265.048.351 1.036 6.692.639 18.373-1.606 25.109-.681 2.27-1.371 4.077-1.377 4.1l-.015.044a90.661 90.661 0 0 0-2.109 9.3c-.036.406-.084.845-.135 1.305-.342 3.133-.767 7.033 1.272 8.883a4.272 4.272 0 0 0 2.548.544c.9.036 2.134.085 2.4.5a2.792 2.792 0 0 1 .2.473 22.856 22.856 0 0 1-6.841 1.071c-.4 0-.763-.014-1.083-.042h-1.301a31.89 31.89 0 0 1-7.782-1.035 2.919 2.919 0 0 1 .194-.465c.264-.4 1.481-.445 2.372-.477a4.051 4.051 0 0 0 2.594-.578c2.056-2.062 1.6-6.019 1.197-9.51z" data-name="Path 2301" transform="translate(-66.865 -19.388)"/>
        <path id="Path_2302" fill="#ffba00" d="M87.533 83.362c.708 0 .934-.819 1.062-1.145.284-.726.539-1.452.772-2.174l2.771-8.634a47.407 47.407 0 0 0 1.788-17.447.749.749 0 0 0 .015-.226l-.124-1.29a.9.9 0 0 0-.879-.8H84.86a50.193 50.193 0 0 0-1 15.825c-.21-.763-.406-1.6-.579-2.516a37.39 37.39 0 0 1-.081-13.307h-1.26a.9.9 0 0 0-.879.8l-.107 1.118a47.086 47.086 0 0 0 1.74 17.845l2.731 8.326a24.487 24.487 0 0 0 .984 2.482c.164.355.291 1.144 1.124 1.143z" data-name="Path 2302" transform="translate(-76.384 -41.553)"/>
    </g>
</svg>
