<svg xmlns="http://www.w3.org/2000/svg" width="26.166" height="45.086" viewBox="0 0 26.166 45.086">
    <g id="glencairn-whiskey">
        <path id="Path_2505" d="M94.658 88.448a6.054 6.054 0 0 0-.269-.705c-2.418-6.381-2.955-17.162-2.955-17.263a.915.915 0 0 0-.3-.705c-.3-.269-.772-.739-9-.571-8.228-.2-8.732.269-9 .571a.967.967 0 0 0-.3.705c0 .1-.537 10.881-2.955 17.263-.1.235-.168.47-.269.705A12.157 12.157 0 0 0 73 101.009c.907.84 2.922 2.922 2.183 4.2-.5.873-3.056 5.34-1.746 7.691a2.74 2.74 0 0 0 2.552 1.343h12.288a2.74 2.74 0 0 0 2.552-1.343c1.31-2.351-1.243-6.818-1.746-7.691-.739-1.276 1.276-3.358 2.183-4.232a12.132 12.132 0 0 0 3.392-12.529zM74.675 70.514zm15.281 29.151c-3.392 3.157-3.258 5.306-2.519 6.549 1.041 1.746 2.284 4.769 1.713 5.81-.067.1-.2.369-.907.369H75.985c-.739 0-.873-.269-.94-.369-.571-1.041.705-4.1 1.713-5.81.705-1.243.873-3.392-2.519-6.549a10.253 10.253 0 0 1-2.889-10.613c.067-.2.134-.4.235-.638 2.149-5.676 2.888-14.677 3.056-17.229 1.276-.134 4.6-.168 7.456-.134h.067a68.636 68.636 0 0 1 7.456.134c.168 2.519.907 11.553 3.056 17.229.067.2.168.437.235.638a10.457 10.457 0 0 1-2.955 10.613z" data-name="Path 2505" transform="translate(-69.046 -69.155)"/>
        <path id="Path_2506" fill="#ffba00" d="M97.9 95.856c-1.948-5.138-2.754-12.628-3.056-16.289-1.545-.067-3.9-.067-5.911-.034H88.8c-1.209-.034-2.552-.034-3.761-.034-.134 0-.235 8.027-.369 8.027-.168 0-.336-8.027-.5-8.027-.47 0-.907.034-1.276.034-.3 3.661-1.108 11.15-3.056 16.289-.067.2-.134.369-.2.537a8.693 8.693 0 0 0 2.452 8.934c2.317 2.149 4.668 5.374 2.821 8.531a15.106 15.106 0 0 0-1.578 3.761h11.009a14.608 14.608 0 0 0-1.578-3.761c-1.847-3.191.5-6.415 2.821-8.564a8.675 8.675 0 0 0 2.452-8.934 2.1 2.1 0 0 0-.137-.47z" data-name="Path 2506" transform="translate(-75.816 -76.026)"/>
    </g>
</svg>
