<svg xmlns="http://www.w3.org/2000/svg" width="27.706" height="48.822" viewBox="0 0 27.706 48.822">
    <g id="goblet">
        <path id="Path_2303" d="M80.294 26.922l-1.108-.337c-.143-.043-3.592-1.061-11.348-1.061-8.094 0-11.057.983-11.368 1.1l-1.027.368-.317 1.045a35.249 35.249 0 0 0 .234 18.393 21.882 21.882 0 0 0 5.309 9.707 11.17 11.17 0 0 0 2.776 2.041c.673 1.228 1.9 4.187-.273 6.574a5.436 5.436 0 0 1-3.779 2.08 5.927 5.927 0 0 0-2.844 1.025 2.956 2.956 0 0 0-1.041 2.691c0 .116.009.226.009.335 0 2.076 2.236 2.551 2.972 2.707a28.779 28.779 0 0 0 3.147.429c2.171.2 4.62.3 5.763.319l2.769.012v-.084c1.349-.062 2.68-.149 3.771-.245a31.151 31.151 0 0 0 3.256-.427 7.105 7.105 0 0 0 1.376-.4 2.478 2.478 0 0 0 1.67-2.312c0-.11 0-.22.008-.336a2.955 2.955 0 0 0-1.041-2.691 5.927 5.927 0 0 0-2.847-1.025 5.436 5.436 0 0 1-3.777-2.08c-2.168-2.386-.945-5.346-.273-6.574a11.186 11.186 0 0 0 2.775-2.041 21.887 21.887 0 0 0 5.314-9.711 35.25 35.25 0 0 0 .234-18.393zm-9.621 29.332l-.046.066a10.641 10.641 0 0 0-1.435 3.327 7.109 7.109 0 0 0 1.615 6.715 7.7 7.7 0 0 0 5.176 2.838 3.852 3.852 0 0 1 1.786.578c.1.075.09.352.077.672 0 .125-.01.262-.01.407-.411.565-6.083 1.012-9.841 1.072h-.584c-3.564-.057-9.169-.516-9.491-1.051 0-.154-.006-.3-.01-.428-.013-.321-.023-.6.077-.673a3.857 3.857 0 0 1 1.786-.578 7.7 7.7 0 0 0 5.176-2.837 7.11 7.11 0 0 0 1.615-6.715 10.64 10.64 0 0 0-1.435-3.327l-.047-.066-.078-.023a7.528 7.528 0 0 1-2.682-1.844c-1.377-1.359-3.3-3.959-4.655-8.632a33.378 33.378 0 0 1-.276-16.91c.586-.172 3.526-.919 10.445-.919a44.672 44.672 0 0 1 10.528.925 33.346 33.346 0 0 1-.278 16.9c-1.353 4.673-3.278 7.274-4.655 8.632a7.526 7.526 0 0 1-2.681 1.844z" data-name="Path 2303" transform="translate(-54.025 -25.523)"/>
        <path id="Path_2304" fill="#ffba00" d="M85.815 50.988c-.078-.818-.157-1.558-.157-1.558a.467.467 0 0 0-.5-.431H69.3a32.636 32.636 0 0 0-.518 12.731 20.916 20.916 0 0 1-.7-2.081A23.984 23.984 0 0 1 67.544 49h-1.852a.467.467 0 0 0-.5.431s-.079.74-.157 1.558c-.464 4.875.91 19.945 10.049 20.736a2.23 2.23 0 0 0 .683 0c9.139-.792 10.513-15.863 10.048-20.737z" data-name="Path 2304" transform="translate(-61.535 -41.653)"/>
    </g>
</svg>
