<svg xmlns="http://www.w3.org/2000/svg" width="20.115" height="29.42" viewBox="0 0 20.115 29.42">
    <g id="Group_3105" data-name="Group 3105" transform="translate(-12.458)">
        <path id="Path_2535" d="M94.579 107.371a3.011 3.011 0 0 0-2.049-.537h-.2l-2.99-.034H78.828c-.6 0-1.209 0-1.847.034s-1.948.067-2.082 1.578a26.2 26.2 0 0 0 .034 3.627v.067c0 .2.034.437.034.638q.1 1.662.2 3.224c.067 1.041.168 2.116.2 3.191.1 2.317.336 4.6.537 6.885.134 1.578.3 3.258.4 4.87v.034c.1 1.646.235 3.526 2.116 4.6a6.112 6.112 0 0 0 3.157.672c.4 0 .806 0 1.209-.034.369 0 .705-.034 1.008-.034h1.616c1.444.034 2.922.034 4.366-.067a3.86 3.86 0 0 0 3.761-3.526c.336-4.165.705-8.9.873-13.635.034-1.377.134-2.821.235-4.2v-.034c.067-.907.134-1.814.168-2.72.034-.5.034-1.008.067-1.545 0-.336.034-.638.034-.974v-.2a2.3 2.3 0 0 0-.335-1.88zM79.2 134.239c-1.209-.705-1.276-1.914-1.377-3.426v-.034c-.1-1.646-.269-3.291-.4-4.9-.2-2.217-.4-4.534-.537-6.784q-.1-1.662-.2-3.224c-.067-1.041-.168-2.116-.2-3.157 0-.2-.034-.4-.034-.6v-.1a23.414 23.414 0 0 1-.034-3.426v-.134c.034-.034.134-.067.638-.067.571-.034 1.209-.034 1.78-.034h7.523c.974 0 2.015-.034 2.922 0l2.989.034h.23a3 3 0 0 1 .94.1c0 .1 0 .269-.034.705a.5.5 0 0 1-.034.235c0 .3-.034.638-.034.974v.067c-.034.47-.034.974-.067 1.444-.034.907-.1 1.814-.168 2.72-.1 1.411-.2 2.855-.235 4.3-.134 4.7-.5 9.4-.84 13.568a2.444 2.444 0 0 1-2.418 2.149 35.026 35.026 0 0 1-4.2.067h-.034c-.537 0-1.075 0-1.612-.034a8.181 8.181 0 0 0-.907.034h-.167a7.379 7.379 0 0 1-3.49-.477z" data-name="Path 2535" transform="translate(-62.389 -106.8)"/>
        <g id="Group_2074" data-name="Group 2074" transform="translate(15.9 3.729)">
            <g id="Group_2073" data-name="Group 2073">
                <path id="Path_2536" fill="#ffba00" d="M97.688 118l-1.612-.034c-.5 0-.974 0-1.478-.034-.94-.034-1.914-.034-2.855-.034h-.067c-1.142 0-2.284.034-3.426.034a5.944 5.944 0 0 0-.772.034l-.235 10.714-.705-10.68h-.907a.547.547 0 0 0-.537.6.252.252 0 0 0 .034.168c.034.4.1.84.1 1.276.067.94.1 1.914.134 2.855.034.907.1 1.847.134 2.754.1 1.914.3 3.9.5 5.844.134 1.411.3 2.855.4 4.3v.034c.1 1.343.2 1.578.5 1.713a3.277 3.277 0 0 0 1.478.2c.336 0 .705 0 1.075-.034.369 0 .772-.034 1.142-.034h3.325c.94 0 1.713-.034 2.385-.067.235 0 .739-.1.772-.437.369-4 .705-7.926.84-11.788.067-1.914.168-3.9.269-6.079 0 0 .034-.4.034-.772a.51.51 0 0 0-.528-.533z" data-name="Path 2536" transform="translate(-85.09 -117.9)"/>
            </g>
        </g>
    </g>
</svg>
