<svg xmlns="http://www.w3.org/2000/svg" width="54.001" height="53.861" viewBox="0 0 54.001 53.861">
    <g id="Group_3109" fill="#ffba00" data-name="Group 3109" transform="translate(.499 .499)">
        <path id="Path_2529" stroke="#000" d="M85.149 51.908V28.473a3.852 3.852 0 0 0-3.849-3.849H39.179a3.853 3.853 0 0 0-3.848 3.849V51.88a1.941 1.941 0 0 0-1.67 1.92v21.745a1.941 1.941 0 0 0 1.939 1.94h49.122a1.942 1.942 0 0 0 1.94-1.941V53.8a1.942 1.942 0 0 0-1.513-1.892zm-.427 24.144H35.6a.507.507 0 0 1-.506-.508v-7.052h17.682a1.821 1.821 0 0 0 .113 1.035c.282.388 1.089.33 1.428.669s.281 1.146.669 1.428 1.136-.022 1.565.2.619 1 1.077 1.152 1.07-.374 1.548-.3.894.762 1.381.762.914-.689 1.381-.762 1.1.446 1.548.3.653-.936 1.076-1.152 1.179.085 1.566-.2.33-1.089.668-1.428 1.147-.28 1.429-.669a1.815 1.815 0 0 0 .113-1.035h16.89v7.052a.507.507 0 0 1-.506.509zm-45.543-50H81.3a2.419 2.419 0 0 1 2.415 2.416V51.86h-.306a5.688 5.688 0 0 0-.236-.668 11.49 11.49 0 0 0-.934-1.637 5.633 5.633 0 0 1-.923-1.828c-.293-1.755-.494-4.935-.685-8.01-.148-2.345-.288-4.578-.468-6.177a1.508 1.508 0 0 0 .148-.239 2.641 2.641 0 0 0-.163-2.208l-.031-.076c-.005-.242-.014-.485-.019-.72a1.638 1.638 0 0 0-.09-.564 2.458 2.458 0 0 0-.2-.414.858.858 0 0 0-.727-.406H73.05a1.872 1.872 0 0 0-1.168.411.8.8 0 0 0-.342.627l-.069.972-.067.167a2.647 2.647 0 0 0-.165 2.211 1.682 1.682 0 0 0 .148.238c-.179 1.6-.319 3.836-.466 6.183-.193 3.072-.393 6.249-.685 8a5.666 5.666 0 0 1-.923 1.829 11.381 11.381 0 0 0-.934 1.638 5.668 5.668 0 0 0-.236.667h-.489a5.76 5.76 0 0 0-.237-.668 11.328 11.328 0 0 0-.934-1.637 5.639 5.639 0 0 1-.923-1.828c-.292-1.755-.493-4.935-.686-8.01-.083-1.328-.165-2.615-.252-3.775h.856a16.176 16.176 0 0 0 2.8-.256c1.268-.237 1.861-.54 2.043-1.048a9.4 9.4 0 0 0 .343-2.6c0-.028-.078-2.9-1.038-3.437-.823-.457-4.015-.463-4.149-.463H55a16.222 16.222 0 0 0-2.8.256c-1.269.237-1.86.54-2.043 1.048a9.335 9.335 0 0 0-.343 2.6c0 .028.077 2.9 1.038 3.437.821.457 4.014.462 4.149.462h.414c-.087 1.163-.169 2.452-.252 3.781-.192 3.072-.392 6.249-.685 8a5.647 5.647 0 0 1-.922 1.829 11.282 11.282 0 0 0-.933 1.638 5.669 5.669 0 0 0-.237.667H51.9a5.7 5.7 0 0 0-.237-.668 11.144 11.144 0 0 0-.934-1.637 5.634 5.634 0 0 1-.922-1.828c-.293-1.755-.493-4.935-.687-8.01-.147-2.345-.287-4.578-.466-6.177a1.536 1.536 0 0 0 .146-.232 2.637 2.637 0 0 0-.164-2.208l-.03-.076c-.005-.242-.013-.485-.017-.719a1.624 1.624 0 0 0-.092-.564 2.338 2.338 0 0 0-.2-.414.855.855 0 0 0-.727-.406h-6.034a1.867 1.867 0 0 0-1.169.411.8.8 0 0 0-.343.627l-.068.974-.065.165a2.644 2.644 0 0 0-.166 2.211 1.818 1.818 0 0 0 .148.238c-.179 1.6-.319 3.836-.467 6.183-.192 3.072-.393 6.249-.685 8a5.627 5.627 0 0 1-.922 1.829 11.445 11.445 0 0 0-.934 1.638c-.039.091-.068.182-.1.273V28.473a2.418 2.418 0 0 1 2.414-2.416zm10.455 25.8c-.474-1.016-1.457-2-1.641-3.078-.477-2.78-.665-10.363-1.055-13.147h-5.351C41.2 38.421 41.008 46 40.533 48.782c-.185 1.074-1.167 2.062-1.64 3.078h-.974c.023-.061.046-.121.072-.182.536-1.24 1.721-2.441 1.94-3.75.548-3.289.764-11.14 1.21-14.665l2.951-.245-3.3-.362v.023a2.172 2.172 0 0 1 .271-1.215.347.347 0 0 0 .234.084c.256 0 .256-.2.511-.2s.256.2.511.2.256-.2.511-.2.256.2.511.2.255-.2.511-.2.256.2.511.2.254-.2.511-.2.255.2.511.2.254-.2.51-.2.255.2.511.2.254-.2.511-.2.255.2.511.2a.368.368 0 0 0 .068-.007c.228.565.524 1.287-.133 1.453 0 0 0 .011-.009.023.468 3.39.681 11.544 1.243 14.911.219 1.309 1.405 2.51 1.941 3.75.026.061.049.121.072.182h-.974zm-8.735 0l.087-.144.23-.368.117-.185c.017-.03.041-.063.056-.091l.043-.084c.028-.057.062-.107.087-.17l.075-.189a1.181 1.181 0 0 0 .064-.185l.056-.184.037-.222.014-.091.01-.113c.01-.151.023-.3.035-.454.022-.3.047-.608.069-.913l.261-3.578c.083-1.141.166-2.208.238-3.121l.244-3.045h.063l-.081 3.053c-.026.916-.054 1.985-.1 3.129s-.08 2.365-.121 3.586c-.008.306-.019.611-.028.916 0 .151-.009.3-.014.454v.192l-.006.056-.025.226-.056.251a1.762 1.762 0 0 1-.068.242l-.077.23c-.029.076-.072.153-.106.229l-.055.113c-.019.038-.038.065-.056.1l-.112.188-.1.17h-.78zm24.492 0c-.474-1.016-1.457-2-1.64-3.078-.478-2.774-.664-10.355-1.051-13.139h-5.357c-.391 2.786-.576 10.365-1.053 13.147-.185 1.074-1.167 2.062-1.64 3.078h-.974c.023-.061.046-.121.072-.182.537-1.24 1.721-2.441 1.941-3.75.547-3.289.764-11.14 1.21-14.665l2.951-.245-3.3-.362v.023a2.175 2.175 0 0 1 .271-1.216.347.347 0 0 0 .234.084c.256 0 .256-.2.512-.2s.255.2.51.2.256-.2.511-.2.255.2.511.2.254-.2.511-.2.254.2.51.2.255-.2.511-.2.255.2.511.2.254-.2.51-.2.255.2.51.2.255-.2.511-.2.256.2.511.2a.377.377 0 0 0 .069-.007c.227.564.524 1.287-.133 1.453a.181.181 0 0 0-.009.023c.468 3.39.682 11.544 1.243 14.911.218 1.309 1.4 2.51 1.94 3.75.026.061.049.121.072.182h-.974zm-8.734 0l.087-.144.229-.368.117-.185c.019-.03.041-.063.057-.091l.043-.084c.028-.057.062-.107.087-.17l.075-.189a1.329 1.329 0 0 0 .063-.185l.056-.184.037-.222.015-.091.009-.113.035-.454.069-.913.26-3.578c.083-1.141.167-2.208.238-3.121l.245-3.045h.063l-.081 3.053c-.026.916-.054 1.985-.1 3.129s-.079 2.365-.12 3.586l-.029.916c0 .151-.009.3-.014.454v.192l-.006.056-.025.226-.056.251a1.811 1.811 0 0 1-.068.242l-.078.23c-.028.076-.071.153-.105.229l-.06.121c-.019.038-.038.065-.057.1l-.112.188-.1.17h-.774zm7.752-18.312a1.585 1.585 0 0 0 .148-.239 2.641 2.641 0 0 0-.164-2.208l-.03-.075c-.005-.242-.013-.486-.018-.72a1.639 1.639 0 0 0-.091-.564c-.026-.063-.047-.114-.068-.159h1.293a17.255 17.255 0 0 1 3.37.259 7.506 7.506 0 0 1 .385 2.208 9.136 9.136 0 0 1-.214 1.966 11.31 11.31 0 0 1-3.541.5H64.5c-.026-.34-.058-.668-.091-.968zm-8.626-3.588l-.069.972-.066.167a2.641 2.641 0 0 0-.165 2.211 1.682 1.682 0 0 0 .148.238c-.034.3-.065.629-.1.97H55a17.29 17.29 0 0 1-3.37-.259 7.519 7.519 0 0 1-.385-2.209 9.087 9.087 0 0 1 .214-1.967 11.35 11.35 0 0 1 3.54-.5h.9a.7.7 0 0 0-.116.377zM81.148 51.86c-.474-1.016-1.457-2-1.642-3.078-.476-2.78-.664-10.363-1.053-13.147H73.1c-.392 2.787-.577 10.367-1.054 13.147-.184 1.074-1.166 2.062-1.64 3.078h-.974c.023-.061.046-.121.072-.182.536-1.24 1.721-2.441 1.94-3.75.548-3.289.764-11.14 1.21-14.665l2.951-.245-3.3-.362v.022a2.177 2.177 0 0 1 .271-1.214.348.348 0 0 0 .234.084c.256 0 .256-.2.511-.2s.257.2.513.2.255-.2.51-.2.256.2.511.2.255-.2.511-.2.256.2.511.2.255-.2.51-.2.257.2.511.2.255-.2.51-.2.255.2.51.2.255-.2.511-.2.256.2.511.2a.377.377 0 0 0 .069-.007c.228.565.524 1.287-.133 1.453a.107.107 0 0 0-.01.023c.469 3.39.683 11.544 1.243 14.911.218 1.309 1.405 2.51 1.941 3.75.026.061.049.121.072.182h-.974zm-8.735 0l.087-.144.229-.368.116-.185c.019-.03.042-.063.057-.091l.044-.084c.028-.057.061-.107.087-.17l.074-.189a1.18 1.18 0 0 0 .064-.185l.055-.184.037-.222.015-.091.009-.113.034-.454.071-.913.26-3.578c.083-1.141.166-2.208.237-3.121l.244-3.045h.064l-.081 3.053c-.025.916-.054 1.985-.1 3.129s-.079 2.365-.121 3.586q-.016.459-.029.916c0 .151-.009.3-.013.454v.192l-.005.056-.025.226-.057.251a1.673 1.673 0 0 1-.068.242l-.078.23c-.028.076-.07.153-.105.229l-.056.113c-.018.038-.036.065-.055.1l-.112.188-.1.17h-.773zM35.6 53.292h49.123a.508.508 0 0 1 .507.508v8.007H69.446a1.258 1.258 0 0 0 .13-.78c-.149-.459-.937-.653-1.153-1.077s.085-1.179-.2-1.565-1.09-.329-1.429-.669-.28-1.146-.668-1.428-1.136.022-1.566-.2-.618-1-1.076-1.152-1.07.374-1.548.3-.894-.761-1.381-.761-.915.688-1.381.761-1.1-.446-1.548-.3-.653.935-1.077 1.152-1.178-.085-1.565.2-.33 1.089-.669 1.428-1.146.28-1.428.669.021 1.136-.2 1.565-1 .618-1.152 1.077a1.255 1.255 0 0 0 .13.78H35.094V53.8a.508.508 0 0 1 .506-.508zM60.743 62.7a3.436 3.436 0 0 1 0 6.872h-.655a3.445 3.445 0 0 1-3.6-3.272v-5.072a3.253 3.253 0 0 1 3.273-3.11h3.764V60.9h-1.473l-.163-.982h-2.128a1.334 1.334 0 0 0-1.309 1.309V62.7h2.291z" data-name="Path 2529" transform="translate(-33.66 -24.623)"/>
        <path id="Path_2530" d="M107.477 145.077a1.573 1.573 0 0 0 1.636 1.555h.655a1.419 1.419 0 0 0 1.473-1.473v-.328a1.418 1.418 0 0 0-1.473-1.473h-2.291z" data-name="Path 2530" transform="translate(-82.686 -103.482)"/>
    </g>
</svg>
