<svg xmlns="http://www.w3.org/2000/svg" width="25.368" height="58.623" viewBox="0 0 25.368 58.623">
    <g id="Group_3108" data-name="Group 3108" transform="translate(-5.815)">
        <path id="Path_2307" d="M71.95 69.206c.635.031 1.659.056 2.282.056h.192c.632 0 1.656-.025 2.283-.057.021 0 2.155-.105 4.359-.308 1.294-.119 2.333-.248 3.09-.381.907-.16 2.8-.493 2.8-2.223 0-.091 0-.191.007-.3a2.754 2.754 0 0 0-.841-2.516 4.568 4.568 0 0 0-2.449-.78 3.825 3.825 0 0 1-2.961-1.473c-2.295-2.523-1.686-4.63-1.663-4.706a14.878 14.878 0 0 0 .6-2.451l5.6-39.571a3.107 3.107 0 0 0-2.13-3.342c-.286-.087-2.012-.52-7.918-.52a56.956 56.956 0 0 0-9.55.59A2.946 2.946 0 0 0 63.31 14.5l5.605 39.571a14.831 14.831 0 0 0 .6 2.438c.027.089.636 2.2-1.659 4.719a3.825 3.825 0 0 1-2.962 1.472 4.563 4.563 0 0 0-2.446.779A2.757 2.757 0 0 0 61.606 66c0 .1.007.2.007.293 0 1.732 1.9 2.064 2.812 2.223.765.134 1.815.262 3.121.381 2.029.184 4.017.289 4.404.309zm-2.557-6.582c3.2-3.523 2.134-6.652 2.087-6.783a12.876 12.876 0 0 1-.509-2.06l-5.6-39.571a.859.859 0 0 1 .674-.942 56.351 56.351 0 0 1 9.165-.554c5.777 0 7.3.427 7.315.431a1.016 1.016 0 0 1 .678 1.065l-5.6 39.571a12.842 12.842 0 0 1-.509 2.061c-.047.131-1.116 3.26 2.087 6.783a5.859 5.859 0 0 0 4.293 2.143 2.8 2.8 0 0 1 1.387.36 3.406 3.406 0 0 1 .033.812c0 .088-.005.174-.007.256-.616.361-4.623.756-8.273.937-.6.03-1.573.054-2.18.054h-.192c-.6 0-1.578-.024-2.181-.054-3.69-.181-7.742-.577-8.364-.939 0-.082 0-.168-.007-.255a3.408 3.408 0 0 1 .033-.812 2.8 2.8 0 0 1 1.387-.36 5.855 5.855 0 0 0 4.282-2.143z" data-name="Path 2307" transform="translate(-55.783 -10.638)"/>
        <path id="Path_2308" fill="#ffba00" d="M86.746 74.217c1.38 0 2.181-.246 2.263-.879C90.4 62.595 93.668 37.1 93.668 37.1a.762.762 0 0 0-.744-.9H83.54l.833 16.8h-.558l-2.109-16.806h-.94a.757.757 0 0 0-.739.9s3.658 27.194 4.843 36.24c.07.543.772.883 1.876.883z" data-name="Path 2308" transform="translate(-68.441 -28.197)"/>
    </g>
</svg>
