<svg xmlns="http://www.w3.org/2000/svg" width="32.394" height="54.131" viewBox="0 0 32.394 54.131">
    <g id="Group_3104" data-name="Group 3104" transform="translate(-15.782 -.001)">
        <path id="Path_2537" d="M60.028 46.068l4.6 45.7a3.642 3.642 0 0 0 3.591 3.248H84.2a3.642 3.642 0 0 0 3.591-3.248l4.6-45.694a3.549 3.549 0 0 0-.314-1.847v-.1c.1-2.2-9.474-3.5-17.363-3.2-9.068.336-13.1 1.008-14.542 3.2-.086.13.007.311.019.465a3.6 3.6 0 0 0-.163 1.476zm3.378-1.4a58.109 58.109 0 0 1 12.532-1.071 92.367 92.367 0 0 1 13.057 1.139 1.009 1.009 0 0 1 .824 1.078L85.222 91.5a1.052 1.052 0 0 1-1.022.925H68.215a1.052 1.052 0 0 1-1.023-.925L62.6 45.81a1.106 1.106 0 0 1 .806-1.147z" data-name="Path 2537" transform="translate(-44.229 -40.879)"/>
        <path id="Path_2538" fill="#ffba00" d="M78.538 109.821H92.69a.9.9 0 0 0 .877-.795l3.483-35.1a.711.711 0 0 0-.72-.795H79.842l.373 23.133H79.14l-1.912-23.131H74.9a.711.711 0 0 0-.72.795l3.483 35.1a.9.9 0 0 0 .875.793z" data-name="Path 2538" transform="translate(-54.238 -62.301)"/>
    </g>
</svg>
