<svg xmlns="http://www.w3.org/2000/svg" width="29.426" height="59.921" viewBox="0 0 29.426 59.921">
    <g id="Group_3106" data-name="Group 3106" transform="translate(-17.443 -.001)">
        <path id="Path_2533" d="M88.519 61.486a87.089 87.089 0 0 1 3.963-12.9c2.183-5.206.705-11.452-.2-15.147a18.341 18.341 0 0 1-.437-2.116 12.669 12.669 0 0 1 .168-3.258 3.722 3.722 0 0 0-.739-2.888 3.825 3.825 0 0 0-2.62-1.444c-3.56-.336-9.034-.4-9.3-.437h-1.045c-.235 0-5.642.067-9.169.4a3.825 3.825 0 0 0-2.62 1.444 3.65 3.65 0 0 0-.705 2.922 10.877 10.877 0 0 1 .134 3.224c-.067.4-.235 1.075-.4 1.881-.84 3.526-2.452 10.075-.235 15.415a88.35 88.35 0 0 1 3.963 12.9l.034.2a29.269 29.269 0 0 1-1.011 9.241c0 .034-.034.067-.034.134l-.067.47v.134a12.991 12.991 0 0 0 .47 3.191 1.816 1.816 0 0 1-.269 1.679 3.711 3.711 0 0 0 .168 4.836 4.253 4.253 0 0 0 .84.705c2.082 1.31 7.792 1.175 9 1.108h.974c.3 0 .94.034 1.713.034 2.217 0 5.709-.168 7.254-1.142a3.468 3.468 0 0 0 .84-.705 3.711 3.711 0 0 0 .168-4.836 1.833 1.833 0 0 1-.269-1.679 10.292 10.292 0 0 0 .47-3.191v-.134l-.067-.5a.123.123 0 0 0-.034-.1 29.269 29.269 0 0 1-1.008-9.236zm-2.284-.47v.067l-.034.269v.067a30.715 30.715 0 0 0 1.041 10.008l.067.369a9.242 9.242 0 0 1-.4 2.452 4.2 4.2 0 0 0 .672 3.728 1.464 1.464 0 0 1 .034 1.814 1.948 1.948 0 0 1-.4.336c-1.108.705-5.138.84-7.657.739H78.41c-2.519.1-6.549-.067-7.657-.739a1.344 1.344 0 0 1-.4-.336 1.38 1.38 0 0 1 .034-1.814 4.393 4.393 0 0 0 .672-3.728 9.242 9.242 0 0 1-.4-2.452l.067-.369a30.765 30.765 0 0 0 1.034-10.008v-.067l-.034-.3v-.067a86.592 86.592 0 0 0-4.1-13.333c-1.914-4.635-.47-10.714.336-13.971.2-.873.369-1.578.47-2.082a12.335 12.335 0 0 0-.168-3.929 1.042 1.042 0 0 1 .168-1.075 1.363 1.363 0 0 1 .974-.537c3.459-.336 8.934-.4 8.967-.4h1.008c.067 0 5.609.067 9.068.4a1.363 1.363 0 0 1 .974.537 1.38 1.38 0 0 1 .269 1.075 13.59 13.59 0 0 0-.2 3.929c.067.571.269 1.377.5 2.385.806 3.426 2.183 9.2.3 13.7a88.767 88.767 0 0 0-4.057 13.332z" data-name="Path 2533" transform="translate(-46.748 -23.299)"/>
        <path id="Path_2534" fill="#ffba00" d="M97.354 44.48l.134-.034-.134.034a18.5 18.5 0 0 1-.537-2.653 15.845 15.845 0 0 1 .034-3.325c-3.224-.235-7.355-.3-7.557-.3h-2.888c-.168.873-.739 9.068-1.108 14.542h-.235c-.369-5.474-1.008-13.736-1.377-14.408-1.041.034-1.982.1-2.821.168a12.846 12.846 0 0 1-.034 3.426c-.1.638-.269 1.377-.5 2.317-.739 2.989-2.049 8.5-.47 12.326a87.215 87.215 0 0 1 4.232 13.8c0 .067.034.134.034.2l.034.3c0 .067.034.134.034.2a33.694 33.694 0 0 1-1.08 10.787 7.186 7.186 0 0 0 .3 1.612 7.093 7.093 0 0 1-.235 4.5 33.61 33.61 0 0 0 4.971.168H89.5a33.78 33.78 0 0 0 4.971-.168 6.87 6.87 0 0 1-.235-4.5 7.185 7.185 0 0 0 .3-1.612 33.694 33.694 0 0 1-1.075-10.781c0-.067.034-.168.034-.235l.034-.269c0-.067.034-.168.034-.235a86.158 86.158 0 0 1 4.232-13.8c1.541-3.697.298-8.94-.441-12.06z" data-name="Path 2534" transform="translate(-56.656 -33.195)"/>
    </g>
</svg>
