<svg xmlns="http://www.w3.org/2000/svg" width="32.525" height="64.671" viewBox="0 0 32.525 64.671">
    <g id="Group_2099" data-name="Group 2099">
        <g id="Group_2076" data-name="Group 2076">
            <g id="Group_2075" data-name="Group 2075">
                <path id="Path_2541" d="M82.6 83.048a28.415 28.415 0 0 1-7.052-.831 8.344 8.344 0 0 1-4.579-2.487 4.242 4.242 0 0 1-.624-1.015 7.571 7.571 0 0 1 .142-5.177 9.237 9.237 0 0 1 .449-.941 4.451 4.451 0 0 1 .351-1.248 4.659 4.659 0 0 1-.037-.58v-.378a4.683 4.683 0 0 1 .358-1.786 4.8 4.8 0 0 1-.119-1.061v-.034a4.784 4.784 0 0 1 .434-1.985 4.6 4.6 0 0 1-.1-.973V64.4a4.626 4.626 0 0 1 .579-2.237 4.837 4.837 0 0 1-.039-.612V61.3a4.839 4.839 0 0 1 .069-.814l-.006-.019a7.9 7.9 0 0 0-.46-1.3 17.444 17.444 0 0 1-4.575-6.691 21.6 21.6 0 0 1-1.239-7.784c0-.442.011-.889.032-1.327s.052-.873.094-1.3.093-.858.154-1.281c.057-.392.123-.787.2-1.174l2.419-17.214a3.6 3.6 0 0 1 3.549-3.088h18.445a3.561 3.561 0 0 1 3.542 3.046l2.439 16.1c.11.461.208.931.292 1.4.094.518.173 1.048.236 1.576s.112 1.075.144 1.614.049 1.1.049 1.647a22.378 22.378 0 0 1-1.366 8.1 14.879 14.879 0 0 1-4.738 6.464 8.179 8.179 0 0 0-.275 1 4.787 4.787 0 0 1 .114 1.042v.252a4.839 4.839 0 0 1-.039.612 4.626 4.626 0 0 1 .579 2.237v.156a4.621 4.621 0 0 1-.1.974 4.784 4.784 0 0 1 .434 1.985v.033a4.792 4.792 0 0 1-.119 1.061 4.683 4.683 0 0 1 .358 1.786v.378a4.594 4.594 0 0 1-.037.58 4.436 4.436 0 0 1 .373 1.456c.063.122.113.226.149.3a10.953 10.953 0 0 1 .678 1.823 5.692 5.692 0 0 1 .139 1.776 4.738 4.738 0 0 1-.515 2.215A5.4 5.4 0 0 1 91.619 81a12.14 12.14 0 0 1-6.519 1.959c-.835.059-1.675.089-2.5.089zm-10-62.933a2.787 2.787 0 0 0-2.75 2.385l-2.424 17.247c-.072.378-.137.764-.192 1.148-.059.411-.109.829-.149 1.243s-.071.845-.091 1.266-.031.858-.031 1.288a20.828 20.828 0 0 0 1.188 7.5 16.68 16.68 0 0 0 4.417 6.429l.046.043.031.055a7.741 7.741 0 0 1 .558 1.513l.061.207-.019.1a4.007 4.007 0 0 0-.072.76v.252a4.017 4.017 0 0 0 .05.628l.023.144-.075.126a3.82 3.82 0 0 0-.538 1.951v.156a3.807 3.807 0 0 0 .114.922l.036.144-.066.133a3.972 3.972 0 0 0-.417 1.755v.033a3.974 3.974 0 0 0 .126 1l.036.138-.059.13a3.87 3.87 0 0 0-.343 1.583v.378a3.822 3.822 0 0 0 .044.58l.019.124-.054.113a3.65 3.65 0 0 0-.339 1.182l-.009.082-.04.072a8.533 8.533 0 0 0-.444.919 6.8 6.8 0 0 0-.149 4.556 3.449 3.449 0 0 0 .509.825 7.65 7.65 0 0 0 4.153 2.215 27.6 27.6 0 0 0 6.851.806c.8 0 1.622-.029 2.441-.087a11.424 11.424 0 0 0 6.092-1.806 4.6 4.6 0 0 0 1.512-1.778l.018-.036a3.925 3.925 0 0 0 .418-1.858 4.923 4.923 0 0 0-.111-1.536 10.08 10.08 0 0 0-.624-1.68c-.042-.087-.1-.211-.177-.355l-.04-.077-.005-.087a3.634 3.634 0 0 0-.354-1.356l-.054-.113.019-.124a3.82 3.82 0 0 0 .044-.58v-.383a3.863 3.863 0 0 0-.343-1.583l-.059-.13.036-.138a3.961 3.961 0 0 0 .126-1v-.029a3.973 3.973 0 0 0-.413-1.759l-.066-.133.036-.144a3.8 3.8 0 0 0 .114-.922V64.4a3.818 3.818 0 0 0-.538-1.951l-.075-.126.023-.144a4.012 4.012 0 0 0 .05-.628V61.3a3.97 3.97 0 0 0-.113-.945l-.023-.092.02-.092a8.272 8.272 0 0 1 .379-1.326l.042-.1.084-.064a14.071 14.071 0 0 0 4.568-6.181 21.578 21.578 0 0 0 1.311-7.8c0-.533-.016-1.071-.047-1.6s-.078-1.05-.14-1.566-.138-1.034-.229-1.534c-.083-.456-.179-.917-.287-1.369l-.006-.031-2.441-16.126a2.758 2.758 0 0 0-2.743-2.359H72.6z" data-name="Path 2541" transform="translate(-65.689 -18.842)"/>
                <path id="Path_2542" d="M81.684 82.591a28.869 28.869 0 0 1-7.169-.846 8.741 8.741 0 0 1-4.823-2.645A4.7 4.7 0 0 1 69 77.975a8.084 8.084 0 0 1 .138-5.534 9.517 9.517 0 0 1 .432-.915 4.914 4.914 0 0 1 .324-1.171 5.087 5.087 0 0 1-.026-.509v-.378a5.164 5.164 0 0 1 .339-1.827 5.256 5.256 0 0 1-.1-1.02 5.319 5.319 0 0 1 .414-2.071 5.09 5.09 0 0 1-.085-.921v-.156A5.1 5.1 0 0 1 71 61.145c-.017-.173-.026-.347-.026-.52v-.252a5.3 5.3 0 0 1 .058-.782 8.026 8.026 0 0 0-.368-1.063 17.869 17.869 0 0 1-4.631-6.809 22.044 22.044 0 0 1-1.269-7.948c0-.449.011-.9.032-1.349s.053-.887.1-1.327.094-.873.157-1.3c.057-.4.125-.8.2-1.195l2.415-17.2a4.065 4.065 0 0 1 4.008-3.484h18.449a4.025 4.025 0 0 1 4 3.442l2.436 16.086c.11.463.208.934.293 1.4.1.526.176 1.066.24 1.6s.114 1.092.146 1.641.05 1.116.05 1.675a22.842 22.842 0 0 1-1.4 8.264 15.352 15.352 0 0 1-4.777 6.577c-.072.217-.138.486-.193.723a5.266 5.266 0 0 1 .1 1.038v.252c0 .173-.009.347-.026.52a5.1 5.1 0 0 1 .566 2.329v.156a5.086 5.086 0 0 1-.085.921 5.271 5.271 0 0 1 .414 2.038 5.412 5.412 0 0 1-.1 1.053 5.163 5.163 0 0 1 .339 1.827v.378c0 .169-.009.34-.026.509a4.892 4.892 0 0 1 .352 1.4l.113.231a11.417 11.417 0 0 1 .707 1.9 6.119 6.119 0 0 1 .154 1.914 5.185 5.185 0 0 1-.566 2.411 5.876 5.876 0 0 1-1.9 2.239 12.555 12.555 0 0 1-6.76 2.052c-.833.069-1.685.099-2.518.099zM71.677 19.659a2.32 2.32 0 0 0-2.287 1.988L66.966 38.89c-.075.394-.138.773-.193 1.15-.058.406-.108.817-.147 1.22s-.07.83-.09 1.244-.03.844-.03 1.266a20.386 20.386 0 0 0 1.158 7.336 16.225 16.225 0 0 0 4.3 6.252l.1.092.067.119a8.054 8.054 0 0 1 .6 1.606l.095.318-.041.21a3.533 3.533 0 0 0-.064.671v.252a3.529 3.529 0 0 0 .044.555l.049.311-.161.27a3.356 3.356 0 0 0-.473 1.713v.156a3.338 3.338 0 0 0 .1.809l.078.311-.143.287a3.5 3.5 0 0 0-.364 1.552 3.573 3.573 0 0 0 .112.912l.077.3-.127.279a3.4 3.4 0 0 0-.3 1.391v.378a3.368 3.368 0 0 0 .039.51l.041.266-.117.243a3.182 3.182 0 0 0-.3 1.031l-.019.176-.086.154a8.082 8.082 0 0 0-.418.865 6.359 6.359 0 0 0-.153 4.2 3 3 0 0 0 .44.705 7.256 7.256 0 0 0 3.907 2.058 27.157 27.157 0 0 0 6.736.791c.793 0 1.6-.029 2.409-.086a11.012 11.012 0 0 0 5.848-1.713 4.146 4.146 0 0 0 1.36-1.594l.028-.056a3.541 3.541 0 0 0 .368-1.663 5.077 5.077 0 0 0-.1-1.4 9.614 9.614 0 0 0-.594-1.6l-.17-.34-.087-.165-.011-.186a3.174 3.174 0 0 0-.309-1.184l-.117-.242.041-.266a3.359 3.359 0 0 0 .039-.509v-.378a3.4 3.4 0 0 0-.3-1.391l-.127-.28.077-.3a3.5 3.5 0 0 0 .112-.879 3.544 3.544 0 0 0-.364-1.585l-.143-.287.078-.311a3.326 3.326 0 0 0 .1-.808v-.156a3.357 3.357 0 0 0-.473-1.713l-.161-.27.05-.311a3.571 3.571 0 0 0 .044-.555v-.252a3.506 3.506 0 0 0-.1-.834l-.048-.2.044-.2a8.639 8.639 0 0 1 .4-1.407l.09-.21.181-.138a13.619 13.619 0 0 0 4.414-5.982 21.128 21.128 0 0 0 1.28-7.636c0-.523-.015-1.052-.046-1.572s-.077-1.032-.137-1.539-.136-1.007-.225-1.5c-.081-.447-.175-.9-.281-1.343l-.011-.054-2.445-16.14a2.3 2.3 0 0 0-2.283-1.964H71.677z" data-name="Path 2542" transform="translate(-64.768 -17.92)"/>
            </g>
        </g>
        <g id="Group_2077" data-name="Group 2077" transform="translate(4.153 8.803)">
            <path id="Path_2543" fill="#ffba00" d="M80.436 54.386a.557.557 0 0 1-1.114 0c-.078-3.5.084-7.022.3-9.914a.314.314 0 0 0-.315-.337h-1.324a.571.571 0 0 0-.565.491l-.437 3.107-.623 4.433-.622 4.434q-.106.548-.188 1.11t-.136 1.135q-.055.574-.083 1.158t-.029 1.175a18.8 18.8 0 0 0 1.043 6.7 14.527 14.527 0 0 0 3.98 5.7 1.051 1.051 0 0 1 .164.186 10.479 10.479 0 0 1 1.121 2.84 1.086 1.086 0 0 1-.017.657 1.731 1.731 0 0 0-.08.52v.252a1.729 1.729 0 0 0 .115.621 1.082 1.082 0 0 1-.211 1.14 1.555 1.555 0 0 0-.444 1.088v.156a1.546 1.546 0 0 0 .162.691 1.11 1.11 0 0 1-.112 1.2A1.688 1.688 0 0 0 80.64 84v.033a1.68 1.68 0 0 0 .2.794 1.019 1.019 0 0 1-.11 1.091 1.575 1.575 0 0 0-.328.963v.378a1.57 1.57 0 0 0 .1.548 1 1 0 0 1-.141.976 1.375 1.375 0 0 0-.309.868v.035a1.1 1.1 0 0 1-.173.59 6.194 6.194 0 0 0-.462.9 4.675 4.675 0 0 0-.17 2.818 1.216 1.216 0 0 0 .185.29 5.627 5.627 0 0 0 2.961 1.451 27.285 27.285 0 0 0 8.569.653 9.424 9.424 0 0 0 4.906-1.368 2.309 2.309 0 0 0 .829-.97.82.82 0 0 1 .084-.149 4.578 4.578 0 0 0 .086-1.676 7.755 7.755 0 0 0-.48-1.291 6.1 6.1 0 0 0-.286-.541 1.073 1.073 0 0 1-.153-.562v-.176a1.375 1.375 0 0 0-.309-.869 1 1 0 0 1-.139-.986 1.57 1.57 0 0 0 .1-.548v-.378a1.576 1.576 0 0 0-.328-.963 1.019 1.019 0 0 1-.11-1.09 1.681 1.681 0 0 0 .2-.794v-.033a1.687 1.687 0 0 0-.38-1.067 1.111 1.111 0 0 1-.112-1.2 1.546 1.546 0 0 0 .162-.691v-.156a1.556 1.556 0 0 0-.444-1.088 1.082 1.082 0 0 1-.211-1.14 1.722 1.722 0 0 0 .115-.621v-.251a1.719 1.719 0 0 0-.1-.585 1.117 1.117 0 0 1-.049-.623 8.736 8.736 0 0 1 .9-2.716 1.463 1.463 0 0 1 .321-.332 11.783 11.783 0 0 0 4.04-5.362 19.375 19.375 0 0 0 1.158-6.985q0-.74-.043-1.465t-.128-1.432q-.085-.707-.209-1.394-.12-.665-.276-1.309l-.017-.085-.625-4.125-.643-4.167-.388-2.559a.6.6 0 0 0-.591-.508H81.07a.312.312 0 0 0-.312.3z" data-name="Path 2543" transform="translate(-75.3 -44.131)"/>
        </g>
    </g>
</svg>
