<svg xmlns="http://www.w3.org/2000/svg" width="50.243" height="64.455" viewBox="0 0 50.243 64.455">
    <g id="Group_3107" data-name="Group 3107" transform="translate(-.001 .001)">
        <path id="Path_2531" d="M89.147 22.34a1.192 1.192 0 0 0-1.142-.907l-3.291-.033c-4.332-.47-12.057-1.343-15.18-2.116-1.108-.269-2.586-.739-4.164-1.276-4-1.276-8.934-2.888-11.99-2.452a12.919 12.919 0 0 0-3.526 1.108c-1.78.806-2.653 1.78-2.653 2.855 0 1.276 1.914 2.418 3.627 3.157l4.6 43.694c-.437 2.452-1.209 8.161.269 9.706 2.317 2.418 7.086 3.862 12.8 3.862h.067c5.642 0 10.714-1.411 13.635-3.728.806-.638 1.075-1.981.94-4.366-.067-.907-.168-1.948-.336-3.09 7.96-.067 14.542-5.877 14.542-13.837 0 0 .1-5.407.1-6.986 0-1.377-.235-5.508-.235-5.508a14.378 14.378 0 0 0-9-13.266l1.008-6.348M80.65 67.276l.067.3c.94 5.172.537 6.986.3 7.187-2.552 2.049-7.321 3.325-12.46 3.325h-.067c-5.138 0-9.538-1.276-11.486-3.291-.537-.571-.437-4.4.235-8.228l.034-.134L52.574 21.8a.821.821 0 0 0-.739-.705 8.95 8.95 0 0 1-2.788-1.646c.168-.571 2.653-1.78 4.568-2.049 2.653-.367 7.385 1.145 11.185 2.387 1.612.5 3.123 1.008 4.3 1.31 3.258.806 11.083 1.713 15.516 2.183l2.653.034-1.142 7.12m4.9 31.167c-1.175 1.276-5.138 2.317-7.456 1.478l-.2-.1L87.7 35.337a.612.612 0 0 1 .772-.5 6.436 6.436 0 0 1 2.586 1.545c1.814 2.149 2.317 6.549 2.519 12.359.205 5.874-.803 10.945-2.549 12.859z" data-name="Path 2531" transform="translate(-47.199 -15.483)"/>
        <path id="Path_2532" fill="#ffba00" d="M75.936 106.151c3.627 3.761 15.348 3.8 19.983.034 1.209-.974-.134-7.187-.134-7.187l4.6-29.487a1.151 1.151 0 0 0-1.108-1.31H79.194l-.907 12.964L77.179 68.3l-2.855-.067a1.428 1.428 0 0 0-1.444 1.578L75.936 99s-1.036 6.043 0 7.151z" data-name="Path 2532" transform="translate(-64.248 -50.496)"/>
    </g>
</svg>
