<svg xmlns="http://www.w3.org/2000/svg" width="26.935" height="64.751" viewBox="0 0 26.935 64.751">
    <g id="highball">
        <path id="Path_2507" d="M94.835 63.328V13.354a2.766 2.766 0 0 0-2.754-2.754H70.755A2.766 2.766 0 0 0 68 13.354l-.1 58a2.741 2.741 0 0 0 2.015 2.653A42.819 42.819 0 0 0 81 75.351a51.349 51.349 0 0 0 11.687-1.377 2.765 2.765 0 0 0 2.113-2.686v-7.96zm-24.08-50.377h21.326a.388.388 0 0 1 .4.4v49.2a30.372 30.372 0 0 1-22.233.034l.1-49.235a.433.433 0 0 1 .407-.399zm21.393 58.773a44.648 44.648 0 0 1-21.629.034.4.4 0 0 1-.3-.4v-6.25a32.285 32.285 0 0 0 11.15 1.982 31.446 31.446 0 0 0 11.049-1.982v6.213c.066.168-.068.336-.27.403z" data-name="Path 2507" transform="translate(-67.9 -10.6)"/>
        <path id="Path_2508" fill="#ffba00" d="M99.5 70.242V24.6H86.2l-.705 22.972-.17-22.972h-3.258L82 70.242a27.594 27.594 0 0 0 17.5 0z" data-name="Path 2508" transform="translate(-77.265 -19.898)"/>
        <path id="Path_2509" d="M81.9 182.4v1.545a42.891 42.891 0 0 0 17.531-.1V182.4a34.249 34.249 0 0 1-8.665 1.108A35.749 35.749 0 0 1 81.9 182.4z" data-name="Path 2509" transform="translate(-77.198 -124.701)"/>
    </g>
</svg>
