<svg xmlns="http://www.w3.org/2000/svg" width="31.57" height="67.817" viewBox="0 0 31.57 67.817">
    <g id="large-growler">
        <path id="Path_2510" d="M88.99 28.966l-.814-.99a12.138 12.138 0 0 0 .728-5.192l-.485-3.969a5 5 0 0 0-4.609-4.289l-1.516-.076c-.154-.8-.3-1.549-.441-2.229a2.01 2.01 0 0 0 .207-.359 2.627 2.627 0 0 0-.46-2.533l-.015-.029-.015-.023c-.006-.171-.012-.34-.015-.505a1.948 1.948 0 0 0-.112-.687 2.765 2.765 0 0 0-.254-.5 1.068 1.068 0 0 0-.9-.495h-7.5a2.367 2.367 0 0 0-1.454.5.967.967 0 0 0-.425.764L70.833 9.4a2.565 2.565 0 0 0-.413 2.462 1.959 1.959 0 0 0 .208.36c-.2.972-.415 2.092-.647 3.3-.475 2.469-1.012 5.265-1.475 7.022-.421.853-3.643 4.762-5.027 6.44-1.236 1.5-1.893 2.3-2.159 2.686-1.034 1.492-.933 4.14-.74 6.726l.03.417.544 23.519a38.923 38.923 0 0 0 .5 6.484 6.935 6.935 0 0 0 4.586 4.754c2.169.829 5.224 1.239 9.893 1.33h.203c4.681-.092 7.736-.5 9.9-1.331a6.93 6.93 0 0 0 4.584-4.758 38.669 38.669 0 0 0 .5-6.482l.544-23.507.031-.434c.193-2.585.294-5.234-.74-6.726-.255-.38-.916-1.181-2.165-2.696zM72.559 11.158l-.056-.011c-.225-.035-.274-.094-.274-.094-.037-.108.217-.5.313-.651.03-.046.053-.087.08-.13a.807.807 0 0 0 .243-.144h.527a.546.546 0 0 0 .369.16.53.53 0 0 0 .361-.154h.552a.522.522 0 0 0 .357.151.514.514 0 0 0 .353-.147h.566a.494.494 0 0 0 .7 0h.565a.515.515 0 0 0 .354.148.524.524 0 0 0 .358-.151h.55a.534.534 0 0 0 .363.155.549.549 0 0 0 .369-.161h.524c.021.014.042.03.062.046.043.074.09.148.142.23.1.148.35.542.313.649 0 0-.049.06-.263.094l-.373.1.07.312c.254 1.142.553 2.7.87 4.344.489 2.54 1.042 5.42 1.526 7.229.209.781 2.566 3.685 5.394 7.116.979 1.188 1.824 2.214 2.057 2.55.722 1.042.5 4.02.394 5.45-.013.18-.026.342-.035.493L89.345 62.3a43.657 43.657 0 0 1-.423 5.963c-.971 3.326-4.169 4.5-12.671 4.665h-.023c-8.5-.162-11.7-1.339-12.671-4.665a43.706 43.706 0 0 1-.423-5.966l-.544-23.575-.034-.478c-.107-1.431-.329-4.41.393-5.452.233-.337 1.078-1.363 2.057-2.551 2.827-3.431 5.185-6.334 5.394-7.116.483-1.81 1.037-4.69 1.526-7.231.316-1.645.616-3.2.869-4.341l.069-.309zm13.1 7.994l.485 3.969a7.828 7.828 0 0 1-.121 2.2 27.042 27.042 0 0 1-2.048-2.778c-.355-1.346-.756-3.315-1.139-5.28l.834.042a2.247 2.247 0 0 1 1.989 1.847z" data-name="Path 2510" transform="translate(-60.456 -7.086)"/>
        <path id="Path_2511" fill="#ffba00" d="M76.559 51.6c-.276 1.052-6.024 7.811-6.7 8.808-.8 1.17-.456 4.439-.379 5.658l.494 21.7a40.778 40.778 0 0 0 .395 5.575c.911 3.173 3.843 4.366 11.758 4.52h.033C90.072 97.7 93 96.51 93.915 93.337a40.761 40.761 0 0 0 .394-5.575l.494-21.7c.078-1.219.419-4.487-.378-5.658-.677-1-6.425-7.756-6.7-8.808-.17-.652-1-2.907-1.187-3.78h-6.5c-.039.908-.088 1.819-.14 2.734-.167 2.913-3.237 5.573-4.858 7.713-.9 1.191-2.576 2.768-2.67 4.428-.238 4.2.02 8.326-.483 12.525a72.288 72.288 0 0 1-.468-12.579c.109-1.933 1.8-3.553 2.865-4.965 1.462-1.931 4.375-4.416 4.648-7.005.1-.954.176-1.9.244-2.85h-1.43c-.182.874-1.016 3.129-1.187 3.783z" data-name="Path 2511" transform="translate(-66.356 -34.138)"/>
    </g>
</svg>
