<svg xmlns="http://www.w3.org/2000/svg" width="28.548" height="34.962" viewBox="0 0 28.548 34.962">
    <g id="lowball">
        <path id="Path_2512" d="M90.923 99.5H68.656a3.179 3.179 0 0 0-2.25.94 3.146 3.146 0 0 0-.907 2.25l.47 27.741a3.135 3.135 0 0 0 2.687 3.056 87.65 87.65 0 0 0 12.628.974 52.579 52.579 0 0 0 10.243-.907 3.132 3.132 0 0 0 2.519-3.09v-27.807a3.1 3.1 0 0 0-3.123-3.157zm-22.569 2.821a.526.526 0 0 1 .336-.134h22.266a.445.445 0 0 1 .437.437v21.8c-9.236 2.653-19.613.739-22.8.034l-.369-21.83a.426.426 0 0 1 .13-.307zM91.023 130.9c-8.3 1.646-18.1.47-21.964-.1a.437.437 0 0 1-.369-.437l-.067-3.123a59 59 0 0 0 11.99 1.276 43.235 43.235 0 0 0 10.747-1.276v3.224a.4.4 0 0 1-.337.436z" data-name="Path 2512" transform="translate(-65.499 -99.5)"/>
        <path id="Path_2513" fill="#ffba00" d="M98.055 133.011V113.7H81.263l-.84 8.06-.269-8.06H77.2l.336 19.311c3.592.706 12.425 1.982 20.519 0z" data-name="Path 2513" transform="translate(-73.27 -108.931)"/>
        <path id="Path_2514" d="M78.4 185.3l.034 1.411c4 .571 12.964 1.545 20.688.1v-1.478a45.069 45.069 0 0 1-9.74 1.008A61.316 61.316 0 0 1 78.4 185.3z" data-name="Path 2514" transform="translate(-74.067 -156.484)"/>
    </g>
</svg>
