<svg xmlns="http://www.w3.org/2000/svg" width="40.346" height="53.467" viewBox="0 0 40.346 53.467">
    <g id="margarita">
        <path id="Path_2515" fill="none" d="M56.2 52.3c.134 1.612.705 4.433 2.989 5.978a4.048 4.048 0 0 0 3.023.739 2.844 2.844 0 0 1 2.351.537c.84.772 1.008 2.049 1.008 4.03 0 4.7 1.276 6.18 4.03 9.337.47.537 1.008 1.175 1.578 1.847.034.034.034.067.067.1a7.334 7.334 0 0 1 1.21 3.732l.3 17.061a1.338 1.338 0 0 1-.739 1.209 2.368 2.368 0 0 0-.3.235 1.3 1.3 0 0 1-.907 1.377l-4.836 1.646c1.679.134 4.131.235 7.624.269 3.493-.034 5.944-.134 7.624-.269l-4.836-1.646a1.3 1.3 0 0 1-.907-1.377.926.926 0 0 0-.3-.235 1.4 1.4 0 0 1-.739-1.209l.3-17.027a7.73 7.73 0 0 1 1.209-3.761c.034-.034.034-.067.067-.1.571-.672 1.108-1.276 1.578-1.847 2.754-3.191 4.03-4.635 4.03-9.337 0-2.082.168-3.426 1.041-4.165a2.7 2.7 0 0 1 2.351-.47 3.7 3.7 0 0 0 2.989-.638c2.284-1.578 2.855-4.366 2.989-6.012H56.2zm33.148 1.511a5.664 5.664 0 0 1-2.115 3.289 2.292 2.292 0 0 1-2.015.4 4.111 4.111 0 0 0-3.493.806c-1.411 1.243-1.511 3.191-1.511 5.239 0 4.165-.94 5.239-3.661 8.4-.437.5-1.008 1.175-1.578 1.847a.7.7 0 0 0-.134.2 8.182 8.182 0 0 0-1.141 2.489l-.168.571v-.6A8.278 8.278 0 0 0 72.389 74c-.034-.067-.1-.134-.134-.2-.571-.705-1.142-1.343-1.578-1.847-2.754-3.157-3.661-4.232-3.661-8.4 0-1.914-.1-3.862-1.478-5.071a4.191 4.191 0 0 0-3.426-.907 2.627 2.627 0 0 1-2.082-.47 5.664 5.664 0 0 1-2.116-3.291l-.034-.1h31.5z" data-name="Path 2515" transform="translate(-53.424 -49.613)"/>
        <path id="Path_2516" d="M88.258 45.543a1.352 1.352 0 0 0-1.344-1.243H49.3a1.352 1.352 0 0 0-1.343 1.243c-.034.269-.437 6.482 4.165 9.639a6.5 6.5 0 0 0 4.8 1.175c.1 0 .2-.034.269-.034a8.755 8.755 0 0 1 .134 1.914c0 5.709 1.746 7.758 4.668 11.117.47.537.974 1.108 1.478 1.746a4.743 4.743 0 0 1 .705 2.217l.3 16.322a2.79 2.79 0 0 0-.873 1.243l-8.191 2.788a1.006 1.006 0 0 0-.269.134 1.6 1.6 0 0 0-.743 1.746c.336 1.276 1.478 2.116 13.6 2.217 12.124-.1 13.266-.94 13.6-2.217a1.6 1.6 0 0 0-.739-1.746 2 2 0 0 0-.269-.134l-8.195-2.788a3.76 3.76 0 0 0-.873-1.243l.3-16.322a4.769 4.769 0 0 1 .705-2.25c.537-.638 1.008-1.209 1.478-1.746 2.922-3.358 4.668-5.374 4.668-11.117a10.035 10.035 0 0 1 .134-2.015c.067 0 .168.034.235.034a6.4 6.4 0 0 0 4.87-1.108c4.78-3.091 4.377-9.304 4.344-9.572zm-5.676 7.422a3.573 3.573 0 0 1-2.989.638 2.685 2.685 0 0 0-2.351.47c-.873.739-1.041 2.116-1.041 4.165 0 4.7-1.276 6.18-4.03 9.337-.47.537-1.008 1.175-1.578 1.847-.034.034-.034.067-.067.1a7.368 7.368 0 0 0-1.209 3.761l-.3 17.027a1.338 1.338 0 0 0 .739 1.209.926.926 0 0 1 .3.235 1.3 1.3 0 0 0 .907 1.377l4.837 1.647c-1.679.134-4.131.235-7.624.269-3.493-.034-5.944-.134-7.624-.269l4.836-1.646a1.3 1.3 0 0 0 .907-1.377 1.046 1.046 0 0 1 .3-.235 1.4 1.4 0 0 0 .739-1.209l-.3-17.061a7.7 7.7 0 0 0-1.209-3.728c-.034-.034-.034-.067-.067-.1-.571-.672-1.108-1.276-1.578-1.847-2.754-3.191-4.03-4.635-4.03-9.337 0-1.982-.168-3.258-1.008-4.03a2.844 2.844 0 0 0-2.351-.537 3.876 3.876 0 0 1-3.023-.739c-2.284-1.578-2.855-4.366-2.989-5.978h34.859c-.201 1.646-.772 4.466-3.056 6.011z" data-name="Path 2516" transform="translate(-47.933 -44.3)"/>
        <path id="Path_2517" fill="#ffba00" d="M63.816 60.09a2.248 2.248 0 0 0 1.982.437 6.479 6.479 0 0 1 .84-.034 3.943 3.943 0 0 1 2.72.974c1.411 1.276 1.511 3.258 1.511 5.206 0 4.131.907 5.172 3.627 8.3.437.5 1.008 1.175 1.578 1.847.067.067.1.134.168.2a8.03 8.03 0 0 1 1.075 2.25 8.03 8.03 0 0 1 1.075-2.25.89.89 0 0 1 .168-.2c.571-.705 1.142-1.343 1.578-1.847 2.72-3.123 3.627-4.165 3.627-8.3 0-2.116.134-4.1 1.578-5.374a4.326 4.326 0 0 1 3.627-.84 2.191 2.191 0 0 0 1.881-.369A5.34 5.34 0 0 0 92.867 57H61.8a5.34 5.34 0 0 0 2.016 3.09z" data-name="Path 2517" transform="translate(-57.144 -52.735)"/>
        <path id="Path_2518" fill="#fff" d="M61.235 56.6a5.664 5.664 0 0 0 2.116 3.291 2.524 2.524 0 0 0 2.082.47 4.191 4.191 0 0 1 3.426.907c1.343 1.243 1.478 3.191 1.478 5.071 0 4.165.94 5.239 3.661 8.4.437.5 1.008 1.175 1.578 1.847a.7.7 0 0 1 .134.2 8.278 8.278 0 0 1 1.142 2.452v.6l.168-.571a9.176 9.176 0 0 1 1.142-2.485c.034-.067.1-.134.134-.2.571-.705 1.142-1.343 1.578-1.847 2.754-3.157 3.661-4.232 3.661-8.4 0-2.049.1-4.03 1.511-5.239a4.111 4.111 0 0 1 3.493-.806 2.309 2.309 0 0 0 2.015-.4 5.664 5.664 0 0 0 2.116-3.29l.034-.1H61.2zm31.267.067a5.139 5.139 0 0 1-2.015 3.09 2.086 2.086 0 0 1-1.881.369 4.326 4.326 0 0 0-3.627.84c-1.444 1.277-1.579 3.259-1.579 5.374 0 4.131-.907 5.172-3.627 8.3-.437.5-1.008 1.175-1.578 1.847-.067.067-.1.134-.168.2a8.03 8.03 0 0 0-1.075 2.25 9.162 9.162 0 0 0-1.075-2.25.89.89 0 0 0-.168-.2c-.571-.705-1.142-1.343-1.578-1.847-2.72-3.123-3.627-4.165-3.627-8.3 0-1.948-.1-3.929-1.511-5.206a3.943 3.943 0 0 0-2.72-.974c-.336 0-.6.034-.84.034a2.479 2.479 0 0 1-1.981-.437 5.34 5.34 0 0 1-2.015-3.09z" data-name="Path 2518" transform="translate(-56.745 -52.403)"/>
    </g>
</svg>
