<svg xmlns="http://www.w3.org/2000/svg" width="33.743" height="50.511" viewBox="0 0 33.743 50.511">
    <g id="martini">
        <path id="Path_2519" d="M82.747 66.9l8.531-11.855a1.135 1.135 0 0 0 .1-1.209 1.153 1.153 0 0 0-1.041-.638h-31.4a1.153 1.153 0 0 0-1.041.638 1.123 1.123 0 0 0 .1 1.209L66.525 66.9a31.425 31.425 0 0 1 5.945 18.071v.3c.034 7.221-1.075 10.411-1.545 11.452-5.441.806-8.06 2.149-7.825 4 .1.739.369 2.72 10.982 2.989h1.108c10.579-.235 10.848-2.217 10.949-2.989.235-1.847-2.385-3.191-7.825-4-.47-1.041-1.578-4.265-1.545-11.452v-.3A31.706 31.706 0 0 1 82.747 66.9zm-5.34 32.04a25.627 25.627 0 0 1 5.877 1.444 35.05 35.05 0 0 1-8.128.94h-1.041a35.139 35.139 0 0 1-8.161-.94 25.627 25.627 0 0 1 5.877-1.444 1.058 1.058 0 0 0 .772-.47c.168-.235 1.511-2.25 2.015-8.161.5 5.911 1.814 7.926 2.015 8.161a1.123 1.123 0 0 0 .774.472zm-2.788-17.159a33.6 33.6 0 0 0-6.213-16.221l-7.154-10.009h26.8l-7.187 9.975a33.762 33.762 0 0 0-6.246 16.255z" data-name="Path 2519" transform="translate(-57.764 -53.2)"/>
        <path id="Path_2520" fill="#ffba00" d="M84.191 67.7l-.134 2.888-.6-2.888h-4.7l5.071 6.616a32.488 32.488 0 0 1 4.7 8.4 32.488 32.488 0 0 1 4.7-8.4L98.3 67.7z" data-name="Path 2520" transform="translate(-71.702 -62.83)"/>
    </g>
</svg>
