<svg xmlns="http://www.w3.org/2000/svg" width="42.854" height="50.273" viewBox="0 0 42.854 50.273">
    <g id="mug">
        <path id="Path_2305" d="M85.707 47.782c-.5-1.127-1.77-1.609-4.241-1.609-.508 0-1.039.023-1.566.065l.129-4.622a2.507 2.507 0 0 0-1.829-2.669c-.721-.194-2.942-.516-2.942-.516a92.125 92.125 0 0 0-11.858-.739c-8.678 0-13.54.8-14.226 1.064-.66.256-2.1.388-2.431 1.448a4.968 4.968 0 0 0-.073 1.641c.007.278.63 27.885-1.845 36.423a5.5 5.5 0 0 0 .8 5.079c3.219 4.283 13 4.616 15.92 4.616h.519c.413-.011.965-.017 1.555-.017.612 0 1.182.006 1.607.019h.505c2.827 0 12.294-.327 15.468-4.553a5.57 5.57 0 0 0 .8-5.143c-.1-.364-.229-.737-.361-1.133a15.653 15.653 0 0 1-.844-3.4c-.075-.757-.144-1.661-.207-2.67l.873-.5c3.313-1.882 4.79-2.772 5.049-4.169 1.417-7.646 1.134-14.259-.802-18.615zm-6.3 34.286c-2.031 2.7-8.639 3.662-13.681 3.662h-.448c-.444-.012-1.035-.018-1.665-.018-.608 0-1.18.006-1.61.016-.008 0-.173.005-.463.005-5.228 0-12.067-.976-14.133-3.726a3.332 3.332 0 0 1-.437-3.112c2.57-8.867 1.961-35.951 1.933-37.1a.933.933 0 0 1 .655-.833A73.6 73.6 0 0 1 63.4 39.927 82.217 82.217 0 0 1 77.28 41a.719.719 0 0 1 .53.35 9.322 9.322 0 0 0-.023 1.639c-.075.918-.129 2.34-.122 3.227.007.834.183 20.488.9 27.74a17.666 17.666 0 0 0 .947 3.881c.124.375.241.728.335 1.051a3.4 3.4 0 0 1-.437 3.18zm3.85-16.563a15.851 15.851 0 0 1-2.093 1.367c-.454-5.777-.63-12.257-.691-17.314.337-.021.672-.031.99-.031a8.049 8.049 0 0 1 1.374.093c1.438 3.669 1.593 9.4.424 15.885z" data-name="Path 2305" transform="translate(-44.544 -37.692)"/>
        <path id="Path_2306" fill="#ffba00" d="M86.607 69.291a1.006 1.006 0 0 0-1-1.007h-19.62l-.35 22.747c-.244 0-.943.005-1.188 0L63.6 68.284h-1.464a1.006 1.006 0 0 0-1 1.007s.057 20.953-1.31 28.366a2.867 2.867 0 0 0 .44 2.617c2.323 2.783 9.6 2.775 13.606 2.762 4.009.013 11.284.02 13.607-2.762a2.866 2.866 0 0 0 .44-2.617c-1.369-7.413-1.312-28.366-1.312-28.366z" data-name="Path 2306" transform="translate(-54.963 -58.711)"/>
    </g>
</svg>
