<svg xmlns="http://www.w3.org/2000/svg" id="none" width="40.502" height="50" viewBox="0 0 40.502 70">
    <g id="Group_2071" data-name="Group 2071">
        <path id="Path_2521" d="M96.033 20.332c-.6-2.015-3.258-2.821-7.019-3.392a88.072 88.072 0 0 0-12.863-.84h-.1a88.231 88.231 0 0 0-12.9.84C59.694 17.477 56 18.283 56 21.171a1.669 1.669 0 0 0 .067.537l5.844 51.519a6.787 6.787 0 0 0 6.717 6.045H82.9a6.748 6.748 0 0 0 6.683-5.978L96.1 21.776a4.134 4.134 0 0 0 .067-.672 7.489 7.489 0 0 0-.134-.772zm-2.25.974l-.034.067-6.515 51.653a4.451 4.451 0 0 1-4.366 3.929H68.594a4.4 4.4 0 0 1-4.366-3.963l-5.877-51.586-.034-.168v-.067c0-.4.672-1.209 5.172-1.914a83.667 83.667 0 0 1 12.527-.806h.1a87.888 87.888 0 0 1 12.494.806c4.366.672 5.038 1.444 5.138 1.746 0 .034.034.1.034.134l.001.169z" data-name="Path 2521" transform="translate(-55.743 -15.932)"/>
        <path id="Path_2522" d="M68.2 79.142a6.942 6.942 0 0 1-6.885-6.213L55.467 21.41a4.287 4.287 0 0 1-.067-.571c0-3.023 3.761-3.862 7.288-4.4a89.059 89.059 0 0 1 12.93-.84h.067a89.059 89.059 0 0 1 12.93.84c3.829.6 6.515 1.411 7.154 3.526a3.652 3.652 0 0 1 .134.873 5.012 5.012 0 0 1-.067.705L89.321 73.03a6.95 6.95 0 0 1-6.851 6.112zm7.422-63.207a88.072 88.072 0 0 0-12.863.84c-3.392.537-7.019 1.31-7.019 4.064a2.715 2.715 0 0 0 .034.5L61.647 72.9a6.613 6.613 0 0 0 6.553 5.907h14.269A6.622 6.622 0 0 0 88.985 73L95.5 21.477a4.115 4.115 0 0 0 .067-.638 2.863 2.863 0 0 0-.1-.772c-.6-1.914-3.191-2.72-6.885-3.291a87.581 87.581 0 0 0-12.829-.84zM68.2 76.791a4.607 4.607 0 0 1-4.534-4.131l-5.881-51.586-.034-.134v-.1c0-.84 1.78-1.545 5.306-2.082a84.147 84.147 0 0 1 12.561-.806h.067a88.555 88.555 0 0 1 12.561.806c4.064.638 5.1 1.377 5.273 1.881a.621.621 0 0 1 0 .4l-.034.067-6.515 51.655a4.625 4.625 0 0 1-4.534 4.064zm7.422-58.5a88.4 88.4 0 0 0-12.527.806c-4.769.739-5 1.578-5 1.746v.067l.034.134L64 72.627a4.251 4.251 0 0 0 4.2 3.829h14.269a4.269 4.269 0 0 0 4.2-3.761l6.515-51.653.034-.1v-.2c-.034-.134-.5-.94-5-1.646a87.381 87.381 0 0 0-12.46-.806h-.134z" data-name="Path 2522" transform="translate(-55.4 -15.6)"/>
    </g>
    <g id="Group_2072" data-name="Group 2072" transform="translate(13.701 20.621)">
        <path id="Path_2523" d="M100.261 91.811a5.6 5.6 0 0 1 .571-2.855 8.687 8.687 0 0 1 2.25-2.183 6.964 6.964 0 0 0 1.578-1.746 3.771 3.771 0 0 0 .6-2.082 2.977 2.977 0 0 0-.672-2.015 2.5 2.5 0 0 0-1.914-.739 2.631 2.631 0 0 0-1.746.6 2.365 2.365 0 0 0-.739 1.78h-3.958l-.034-.067a4.848 4.848 0 0 1 1.746-4.1 7.4 7.4 0 0 1 4.7-1.411 7.076 7.076 0 0 1 4.87 1.578 5.88 5.88 0 0 1 .739 7.557 9.236 9.236 0 0 1-2.586 2.519 3.207 3.207 0 0 0-1.108 1.31 5.163 5.163 0 0 0-.269 1.814h-4.03zm4.064 5.743h-4.1v-3.459h4.1z" data-name="Path 2523" transform="translate(-96.196 -77)"/>
    </g>
</svg>
