<svg xmlns="http://www.w3.org/2000/svg" id="nonic-pint" width="33.645" height="54.732" viewBox="0 0 33.645 54.732">
    <path id="Path_2524" d="M87.87 46.543l.6-6a3.009 3.009 0 0 0-1.23-2.947 12.651 12.651 0 0 0-2.527-.864 70.709 70.709 0 0 0-12.934-1.082 61.993 61.993 0 0 0-13.555 1.217 1.8 1.8 0 0 0-.718.269 4.286 4.286 0 0 0-1.778 2.192 3.136 3.136 0 0 0-.1 1.213l.6 6a1.386 1.386 0 0 1-.029.2 13.956 13.956 0 0 0-.974 4.494 14.054 14.054 0 0 0 2.05 6.305 1.489 1.489 0 0 1 .086.253l2.97 29.525a3.429 3.429 0 0 0 3.381 3.058h16.676a3.429 3.429 0 0 0 3.381-3.06L86.738 57.8a1.518 1.518 0 0 1 .086-.254 14.056 14.056 0 0 0 2.05-6.305 13.961 13.961 0 0 0-.974-4.495 1.3 1.3 0 0 1-.03-.203zM84.578 56.2a3.664 3.664 0 0 0-.441 1.305l-2.972 29.558a.8.8 0 0 1-.777.7H63.715a.8.8 0 0 1-.777-.7l-2.973-29.554a3.671 3.671 0 0 0-.441-1.305 11.789 11.789 0 0 1-1.679-4.962 11.665 11.665 0 0 1 .8-3.559 3.419 3.419 0 0 0 .193-1.358l-.608-6.046a.837.837 0 0 1 .615-.871 59.772 59.772 0 0 1 12.931-1.142 96.025 96.025 0 0 1 13.467 1.194.767.767 0 0 1 .626.82l-.608 6.045a3.421 3.421 0 0 0 .193 1.359 11.661 11.661 0 0 1 .8 3.559 11.8 11.8 0 0 1-1.676 4.957z" data-name="Path 2524" transform="translate(-55.229 -35.65)"/>
    <path id="Path_2525" fill="#ffba00" d="M92.117 63.088l.273-2.721a.628.628 0 0 0-.636-.7H72.488l.346 3.8a8.27 8.27 0 0 0-.856 3.739 7.7 7.7 0 0 0 1.647 4.94l-.149 8.133c-.491.022-.092.057-.581.112l-.751-8.245A7.694 7.694 0 0 1 70.5 67.2a8.265 8.265 0 0 1 .856-3.739l-.346-3.8h-2a.628.628 0 0 0-.636.7l.273 2.721a3.413 3.413 0 0 1-.193 1.358 9.987 9.987 0 0 0-.681 3.085 10.2 10.2 0 0 0 1.449 4.336 3.689 3.689 0 0 1 .44 1.306l2.538 25.27a.8.8 0 0 0 .777.7h14.8a.8.8 0 0 0 .777-.7L91.1 73.174a3.679 3.679 0 0 1 .441-1.306 10.2 10.2 0 0 0 1.448-4.336 9.991 9.991 0 0 0-.681-3.085 3.423 3.423 0 0 1-.191-1.359z" data-name="Path 2525" transform="translate(-63.559 -51.599)"/>
</svg>
