<svg xmlns="http://www.w3.org/2000/svg" id="Pint" width="33.098" height="54.822" viewBox="0 0 33.098 54.822">
    <path id="Path_2298" fill="none" d="M62.3 35.4a2.376 2.376 0 0 0 .125.344c.782 1.439 2.1 6.665 1.377 9.231-.814 2.754-2.847 12.673 4.475 25.064a1.055 1.055 0 0 1 .156.532c0 .313.125 7.948-1.439 13.455.219.313 1.658 1.752 9.638 1.784 7.948-.031 9.419-1.471 9.638-1.784-1.57-5.507-1.44-13.111-1.44-13.455a1.055 1.055 0 0 1 .156-.532c7.322-12.391 5.288-22.311 4.475-25.064-.751-2.566.563-7.791 1.377-9.231a.928.928 0 0 0 .125-.344H62.3zm24.626 10.076c2.941 10.17-3 21.028-4.224 23.093a3.45 3.45 0 0 0-.5 1.752 62.626 62.626 0 0 0 1.033 12.172 28.4 28.4 0 0 1-6.728.595 28.183 28.183 0 0 1-6.728-.595 62.627 62.627 0 0 0 1.033-12.172 3.45 3.45 0 0 0-.5-1.752c-1.22-2.065-7.2-12.923-4.224-23.093.657-2.253.188-5.476-.407-7.792h2.689l1.658 17.46 1.252-17.46H87.3c-.562 2.316-1.031 5.539-.374 7.792z" data-name="Path 2298" transform="translate(-60.051 -33.21)"/>
    <path id="Path_2299" d="M87.652 28.775a1.071 1.071 0 0 0-.845-.375h-30.29a1.118 1.118 0 0 0-.845.375A2.831 2.831 0 0 0 55.547 32c.595 1.1 1.721 5.726 1.189 7.572-.845 2.941-3.035 13.518 4.537 26.535 0 1.439-.031 8.1-1.408 12.735 0 .031 0 .031-.031.063a2.018 2.018 0 0 0 .5 1.752c1.346 1.69 5.132 2.566 11.327 2.566 6.164-.031 9.982-.876 11.327-2.566a2.242 2.242 0 0 0 .5-1.752c0-.031 0-.031-.031-.063-1.377-4.631-1.408-11.3-1.408-12.735 7.572-13.017 5.413-23.594 4.537-26.535-.532-1.815.563-6.477 1.189-7.572a2.831 2.831 0 0 0-.123-3.225zm-1.784 2.159c-.782 1.439-2.128 6.665-1.377 9.231.814 2.754 2.847 12.673-4.475 25.064a1.055 1.055 0 0 0-.156.532c0 .313-.125 7.948 1.439 13.455-.219.313-1.69 1.752-9.638 1.784-7.948-.031-9.419-1.471-9.638-1.784 1.565-5.507 1.439-13.111 1.439-13.455a1.055 1.055 0 0 0-.156-.532c-7.291-12.36-5.257-22.311-4.443-25.064.751-2.566-.563-7.792-1.377-9.231a.928.928 0 0 1-.125-.344h28.664a3.045 3.045 0 0 1-.157.345z" data-name="Path 2299" transform="translate(-55.113 -28.4)"/>
    <path id="Path_2300" fill="#ffba00" d="M77.92 42.7l-1.251 17.46L75.01 42.7h-2.691c.595 2.316 1.064 5.539.407 7.791-2.941 10.17 3 21.028 4.224 23.093a3.45 3.45 0 0 1 .5 1.752 62.627 62.627 0 0 1-1.033 12.172 28.183 28.183 0 0 0 6.728.595 28.4 28.4 0 0 0 6.728-.595 62.626 62.626 0 0 1-1.033-12.172 3.45 3.45 0 0 1 .5-1.752c1.22-2.065 7.2-12.923 4.224-23.093-.657-2.253-.188-5.476.407-7.791z" data-name="Path 2300" transform="translate(-66.66 -38.225)"/>
</svg>
