<svg xmlns="http://www.w3.org/2000/svg" id="small-growler" width="29.45" height="68.556" viewBox="0 0 29.45 68.556">
    <path id="Path_2539" d="M85.433 18.524c-.185-.175-.344-.325-.458-.439a6.687 6.687 0 0 1-.6-3.183A3.585 3.585 0 0 0 85 13.85a5.563 5.563 0 0 0-.193-3.97 2.075 2.075 0 0 0 .278-1.038 3.693 3.693 0 0 0-.391-1.685c0-.1-.007-.206-.008-.306a2.623 2.623 0 0 0-.146-.91 3.714 3.714 0 0 0-.33-.668 1.377 1.377 0 0 0-1.173-.655h-9.73a3.031 3.031 0 0 0-1.887.662 1.289 1.289 0 0 0-.551 1.013l-.059.831a3.57 3.57 0 0 0-.362 1.854 2.09 2.09 0 0 0 .273.9 5.563 5.563 0 0 0-.193 3.97 3.585 3.585 0 0 0 .626 1.051 6.682 6.682 0 0 1-.6 3.183c-.107.107-.255.248-.427.411l-.029.028c-2 1.89-7.306 6.911-7.047 14.508.241 7.054.009 30.026 0 31a13.036 13.036 0 0 0 .389 3.376c.872 3.389 2.856 4.584 4.369 4.99.054.014.108.027.161.036a57.433 57.433 0 0 0 9.489.745 62.491 62.491 0 0 0 10.094-.743c.058-.01.117-.023.174-.038 1.512-.406 3.5-1.6 4.368-4.99a13.029 13.029 0 0 0 .39-3.372c0-.232-.247-23.824 0-31 .253-7.596-5.053-12.618-7.052-14.509zm4.717 45.561c0 .052.161 5.2-3.011 6.053a61.269 61.269 0 0 1-9.685.707 56.009 56.009 0 0 1-9.046-.7c-3.192-.855-3.034-6.006-3.032-6.065 0-.238.248-23.869 0-31.126-.224-6.547 4.362-10.884 6.32-12.736.2-.188.369-.349.5-.483 1.142-1.142 1.285-3.815 1.283-5.115l4.133-.644-4.433-.376a1.15 1.15 0 0 1-.476-.585 3.775 3.775 0 0 1 .364-2.7c.334-.746.4-1.229.214-1.519-.006-.01-.015-.017-.022-.027a.725.725 0 0 1 .488-.218c.413 0 .413.323.825.323s.413-.323.825-.323.412.323.825.323.412-.323.825-.323.411.323.824.323.412-.323.824-.323.412.323.825.323.412-.323.824-.323.412.323.825.323.41-.323.823-.323a.556.556 0 0 1 .367.128.523.523 0 0 0-.107.117c-.188.291-.12.773.214 1.519a3.772 3.772 0 0 1 .364 2.7 1.132 1.132 0 0 1-.612.661l-.141.062-.009.154c-.01.177-.24 4.341 1.265 5.845.134.134.3.3.5.484 1.958 1.852 6.542 6.189 6.318 12.735-.251 7.252-.003 30.884-.001 31.129z" data-name="Path 2539" transform="translate(-63.039 -4.619)"/>
    <path id="Path_2540" fill="#ffba00" d="M89.371 45.074a6.619 6.619 0 0 1-1.245-3.282H82.8c-.04.264-.082.528-.134.8a9.756 9.756 0 0 1-.594 2.038 8.082 8.082 0 0 1-1.217 1.807c-.458.545-.941 1.06-1.416 1.576s-.945 1.028-1.4 1.545a12.938 12.938 0 0 0-1.217 1.595 4.972 4.972 0 0 0-.435.829l-.022.052v.008l-.01.031-.04.121c-.025.08-.057.165-.078.24-.038.152-.083.292-.118.452-.149.632-.25 1.28-.337 1.921-.172 1.284-.264 2.544-.348 3.739s-.131 2.329-.176 3.378c-.08 2.1-.13 3.845-.161 5.071s-.042 1.925-.042 1.925h-.092l-.041-.5c-.027-.325-.06-.809-.1-1.422-.074-1.225-.165-2.978-.189-5.085-.016-1.053-.012-2.194.021-3.4s.1-2.486.235-3.811a18.425 18.425 0 0 1 .315-2.023c.034-.171.088-.355.133-.533.023-.089.051-.164.077-.246l.04-.122.01-.03.016-.047.028-.066a5.892 5.892 0 0 1 .513-.994 21.589 21.589 0 0 1 2.809-3.21c.494-.5.982-.991 1.438-1.5a7.243 7.243 0 0 0 1.155-1.6 9.119 9.119 0 0 0 .6-1.873c.048-.212.089-.424.129-.637l.264-.026h-2.24a6.606 6.606 0 0 1-1.245 3.282c-1.311 1.277-6.5 5.375-6.269 11.868s0 30.289 0 30.289-.19 4.774 2.925 5.587a51.692 51.692 0 0 0 8.283.63 56.738 56.738 0 0 0 8.845-.63c3.115-.821 2.925-5.59 2.925-5.59s-.228-23.8 0-30.289-4.958-10.592-6.269-11.868z" data-name="Path 2540" transform="translate(-69.426 -29.308)"/>
</svg>
