<svg xmlns="http://www.w3.org/2000/svg" width="29.244" height="39.914" viewBox="0 0 29.244 39.914">
    <g id="snifter">
        <path id="Path_2309" d="M89.319 53.13l-.505-.256c-.281-.143-2.953-1.393-9.945-1.393-6.571 0-9.227 1.251-9.508 1.394l-.5.256-.282.49c-.275.479-6.705 11.811-2.918 19.9 1.678 3.585 5 5.918 9.882 6.942a2.54 2.54 0 0 1-.662 2.133 5.665 5.665 0 0 1-3.991 2.111 5.759 5.759 0 0 0-2.779.967 2.662 2.662 0 0 0-.93 2.448c0 .117.008.227.008.339a2.212 2.212 0 0 0 1.46 2.039 5.905 5.905 0 0 0 1.248.353 26.122 26.122 0 0 0 2.943.331c2.125.145 4.458.181 5.58.2H79.199l1.905.008v-.042c1.192-.028 2.7-.077 4.093-.169a27.969 27.969 0 0 0 3.029-.329 6.2 6.2 0 0 0 1.266-.344 2.209 2.209 0 0 0 1.5-2.046c0-.111 0-.222.009-.339a2.664 2.664 0 0 0-.93-2.447 5.762 5.762 0 0 0-2.779-.967A5.665 5.665 0 0 1 83.3 82.6a2.54 2.54 0 0 1-.662-2.133c4.881-1.024 8.2-3.357 9.881-6.942 3.787-8.091-2.642-19.424-2.917-19.9zM81.5 78.751c-.942.686-1.306 3.248.4 5.124 3.163 3.48 5.522 2.189 7.039 3.322.255.191.158.632.158 1.265 0 .9-8.024.995-9.886 1.024h-.58c-1.861-.03-9.542-.121-9.542-1.024 0-.633-.1-1.075.158-1.265 1.517-1.132 3.875.158 7.039-3.322 1.705-1.876 1.341-4.438.4-5.124-18.527-3.231-6.46-24.183-6.46-24.183s2.342-1.188 8.649-1.188c6.741 0 9.089 1.188 9.089 1.188S100.023 75.52 81.5 78.751z" data-name="Path 2309" transform="translate(-64.466 -51.481)"/>
        <path id="Path_2310" fill="#ffba00" d="M95.6 78.875a.945.945 0 0 0-.792-.487H78.98a28.362 28.362 0 0 0-2.133 8.674 17.315 17.315 0 0 1-.22-1.95 19.381 19.381 0 0 1 .793-6.724h-1.8a.945.945 0 0 0-.792.487S69.074 91.251 80.293 95.6a14.756 14.756 0 0 0 4.095 1.082 14.19 14.19 0 0 0 1.5.021 14.4 14.4 0 0 0 4.246-1.1c11.214-4.352 5.466-16.728 5.466-16.728z" data-name="Path 2310" transform="translate(-70.571 -69.968)"/>
    </g>
</svg>
