<svg xmlns="http://www.w3.org/2000/svg" width="30.586" height="61.801" viewBox="0 0 30.586 61.801">
    <g id="spiegelau-stout">
        <g id="Group_1827" data-name="Group 1827">
            <path id="Path_2311" d="M81.72 77.654a27.105 27.105 0 0 1-6.733-.795 8.24 8.24 0 0 1-4.547-2.495 4.421 4.421 0 0 1-.654-1.066c-.517-1.2-.508-2.881.024-5.128.6-2.525 1.359-10.042 1.691-13.811-.058-.194-.093-.3-.113-.346a20.6 20.6 0 0 1-4.4-6.408 20.722 20.722 0 0 1-1.188-7.469c0-.423.01-.849.03-1.267s.05-.838.09-1.247.089-.82.147-1.224c.053-.367.115-.741.186-1.111l2.123-15.1a5.054 5.054 0 0 1 4.982-4.331h15.237a5 5 0 0 1 4.974 4.278L95.7 34.2c.1.433.2.876.274 1.315.089.5.166 1 .226 1.506s.107 1.028.138 1.542.047 1.049.047 1.573a21.462 21.462 0 0 1-1.314 7.764 18.166 18.166 0 0 1-4.707 6.3l-.032.032a.877.877 0 0 0-.165.189l2.533 15.26a6.992 6.992 0 0 1 .089 1.531 4.8 4.8 0 0 1-.538 2.313 5.56 5.56 0 0 1-1.791 2.111 11.812 11.812 0 0 1-6.36 1.934c-.8.056-1.6.084-2.38.084zM73.356 17.57a3.328 3.328 0 0 0-3.281 2.853L67.942 35.59c-.067.351-.126.706-.177 1.055-.054.376-.1.761-.137 1.142s-.065.774-.084 1.165-.028.789-.028 1.185A19.078 19.078 0 0 0 68.6 47a19.54 19.54 0 0 0 4.133 5.938l.026.03a2.91 2.91 0 0 1 .441 1.072l.043.152-.014.157c-.039.443-.958 10.9-1.745 14.218-.546 2.3-.365 3.476-.117 4.054a2.768 2.768 0 0 0 .408.66 6.769 6.769 0 0 0 3.639 1.919 25.385 25.385 0 0 0 6.305.741c.739 0 1.5-.027 2.256-.08a10.287 10.287 0 0 0 5.461-1.6 3.855 3.855 0 0 0 1.264-1.483l.04-.077a3.172 3.172 0 0 0 .329-1.545 5.169 5.169 0 0 0-.06-1.151L91 69.976l-2.6-15.719.07-.205a2.173 2.173 0 0 1 .656-1.04l.032-.032a16.835 16.835 0 0 0 4.312-5.7 19.768 19.768 0 0 0 1.2-7.144c0-.491-.015-.986-.043-1.471s-.072-.964-.129-1.44-.127-.942-.21-1.4c-.076-.42-.165-.843-.263-1.257l-.014-.071-2.136-14.1a3.294 3.294 0 0 0-3.276-2.817H73.356z" data-name="Path 2311" transform="translate(-65.799 -15.853)"/>
        </g>
        <g id="Group_1828" data-name="Group 1828" transform="translate(3.36 6.798)">
            <path id="Path_2312" fill="#ffba00" d="M95.348 66.769c1.671-1.652 3.184-3.139 3.967-5.157a18.169 18.169 0 0 0 1.086-6.55q0-.694-.041-1.374t-.12-1.343q-.079-.663-.2-1.307-.108-.6-.248-1.183-.02-.084-.033-.17l-.579-3.822-.592-3.908L98 38.047l-.011-.072a.467.467 0 0 0-.462-.4h-15.38a.467.467 0 0 0-.464.409c-1.562 12.453-.886 17.405-.717 18.348a.449.449 0 0 1-.117.4c-1.025.994-1.319-10.688.239-18.6a.466.466 0 0 0-.458-.556H79.2a.467.467 0 0 0-.463.4l-.037.324-.584 4.157-.584 4.157-.584 4.157q-.1.514-.176 1.04t-.128 1.065q-.052.538-.078 1.086t-.026 1.106a17.622 17.622 0 0 0 .978 6.286 18 18 0 0 0 3.819 5.421 5.659 5.659 0 0 1 .976 2.293h-.038s-.953 11.182-1.814 14.812a7.107 7.107 0 0 0-.206 3.027 1.147 1.147 0 0 0 .173.272 5.277 5.277 0 0 0 2.772 1.353 25.587 25.587 0 0 0 8.035.612 8.837 8.837 0 0 0 4.6-1.283 2.165 2.165 0 0 0 .777-.909.775.775 0 0 1 .079-.14 4.3 4.3 0 0 0 .081-1.571l-2.6-15.663a2.144 2.144 0 0 1 .084-1.037 3.834 3.834 0 0 1 1.092-1.772z" data-name="Path 2312" transform="translate(-76.536 -37.577)"/>
        </g>
    </g>
</svg>
