<svg xmlns="http://www.w3.org/2000/svg" width="21.778" height="56.471" viewBox="0 0 21.778 56.471">
    <g id="stange">
        <path id="Path_2313" d="M84.814 12.429c-7.714 0-9.537.757-9.963 1.083a4.2 4.2 0 0 0-1.509 3.128l.939 49.34a2.6 2.6 0 0 0 2.389 2.52c.216.016 5.325.4 7.57.4s7.335-.38 7.551-.4a2.6 2.6 0 0 0 2.388-2.525l.94-49.34a5.282 5.282 0 0 0-1.173-3.2c-.266-.299-.888-1.006-9.132-1.006zm6.828 54.08c-.052 0-5.237.391-7.4.391s-7.369-.386-7.421-.391a.618.618 0 0 1-.539-.569l-.941-49.34a2.291 2.291 0 0 1 .672-1.458c.272-.114 2.03-.714 8.8-.714 5.609 0 7.322.357 7.746.48a3.44 3.44 0 0 1 .56 1.693l-.939 49.34a.617.617 0 0 1-.538.568z" data-name="Path 2313" transform="translate(-73.341 -12.429)"/>
        <path id="Path_2314" fill="#ffba00" d="M98.374 43.1H87.242l-.213 20.93h-.583L85.5 43.1h-.839a.716.716 0 0 0-.715.72l.285 39.524a.729.729 0 0 0 .725.72h12.93a.732.732 0 0 0 .728-.72l.466-39.524a.711.711 0 0 0-.706-.72z" data-name="Path 2314" transform="translate(-80.629 -33.499)"/>
    </g>
</svg>
