<svg xmlns="http://www.w3.org/2000/svg" id="stemless-wine" width="33.041" height="42.619" viewBox="0 0 33.041 42.619">
    <path id="Path_2546" d="M91.534 92.956a74.65 74.65 0 0 0-3.392-15.583 1.161 1.161 0 0 0-1.108-.772H63.625a1.161 1.161 0 0 0-1.108.772 75.3 75.3 0 0 0-3.392 15.583c-1.175 11.083.94 19.546 6.112 24.517 0 .034 0 .034.034.067.3.739.705 1.679 10.042 1.679 9.37 0 9.74-.94 10.042-1.679 0-.034 0-.034.034-.067 5.205-4.937 7.32-13.401 6.145-24.517zm-8.027 23.106a1.844 1.844 0 0 0-.235.3c-.6.168-2.485.5-7.926.5-5.407 0-7.288-.336-7.926-.5a1.845 1.845 0 0 0-.235-.3c-10.68-9.672-4.131-32.577-2.687-37.111h21.7c1.44 4.534 7.989 27.439-2.691 37.111z" data-name="Path 2546" transform="translate(-58.808 -76.6)"/>
    <path id="Path_2547" fill="#ffba00" d="M83.031 88.9h-5l-1.008 7.422-.91-7.422h-2.72a73.073 73.073 0 0 0-2.586 12.863c-.705 6.952-.4 16.289 5.172 21.326l.034.034a46.94 46.94 0 0 0 6.986.336 46.94 46.94 0 0 0 6.986-.336l.034-.034c3.09-2.788 6.482-8.766 5.172-21.427A72.223 72.223 0 0 0 92.6 88.9z" data-name="Path 2547" transform="translate(-66.594 -84.769)"/>
</svg>
