<svg xmlns="http://www.w3.org/2000/svg" id="teku" width="30.449" height="61.085" viewBox="0 0 30.449 61.085">
    <path id="Path_2548" fill="none" d="M94.981 50.115l-3.728-13.9a6.193 6.193 0 0 1 0-2.485 1.54 1.54 0 0 0-.269-1.142 1.564 1.564 0 0 0-1.108-.571c-4.03-.2-10.747-.034-14.374.067a1.352 1.352 0 0 0-1.075.537 1.293 1.293 0 0 0-.269 1.142 7.136 7.136 0 0 1 .067 2.385c0 .067-.034.1-.034.2l-3.726 13.868c-.134.336-1.209 3.325.034 5.407.739 1.276 3.963 3.325 8.564 5.474a1.5 1.5 0 0 1 .739.772c.571 1.478 2.452 7.154 1.545 17.834a.981.981 0 0 1-.067.3 10.433 10.433 0 0 1-1.713 3.526l-.2.2-.267.071c-.638.168-2.687.537-6.146 1.142-.2.034-.336.067-.4.067a1.7 1.7 0 0 0-.672 1.108 1.4 1.4 0 0 0 .705 1.108c1.008.772 3.392 1.108 5.273 1.108h.067c1.343.034 2.418.034 3.224.034.94 0 1.377-.034 1.578-.034h.134c.638.034 2.855 0 4.769 0h.067c1.942.067 4.361-.233 5.301-1.107a1.557 1.557 0 0 0 .638-1.209 1.426 1.426 0 0 0-.6-1.008 1.7 1.7 0 0 1-.3-.067c-3.325-.537-5.474-.94-6.18-1.142l-.336-.1-.235-.269a12.72 12.72 0 0 1-1.687-3.425c-.034-.134-.067-.235-.1-.369-.873-10.68.974-16.322 1.545-17.8a1.383 1.383 0 0 1 .705-.739c4.6-2.149 7.825-4.2 8.564-5.474 1.243-2.082.134-5.071.034-5.407zm-3.224 3.493c-.84 1.411-5.071 3.459-6.348 4.064-.134.067-.269-.168-.369-.034H80.3c-.1-.134-.235.1-.369.034-1.276-.6-5.508-2.653-6.348-4.064-.974-1.646 0-4.03 0-4.064l2.754-10.21c0-.034.034-.1.034-.134a6.179 6.179 0 0 0-.034-1.78c-.134-.638.705-1.209 1.343-1.243.168 0 .537 7.288.739 7.288.437 0 .437-7.321 1.008-7.321.806-.034 1.713-.034 2.653-.034 2.082-.034 4.3-.034 5.911.034A1.082 1.082 0 0 1 89 37.42a4.411 4.411 0 0 0 0 1.88l2.788 10.311c-.031-.033.943 2.351-.031 3.997z" data-name="Path 2548" transform="translate(-67.475 -29.567)"/>
    <path id="Path_2549" d="M92.425 44.794l-3.694-13.736a3.812 3.812 0 0 1 0-1.511 3.7 3.7 0 0 0-.705-3.056 3.87 3.87 0 0 0-2.855-1.478c-4.131-.2-10.881-.034-14.542.067a3.8 3.8 0 0 0-2.855 1.411A3.741 3.741 0 0 0 67 29.547a4.86 4.86 0 0 1 .067 1.545l-3.692 13.669c-.336.84-1.511 4.467.2 7.389 1.008 1.713 4.131 3.829 9.269 6.247.638 1.78 2.049 6.918 1.276 16.322a10.985 10.985 0 0 1-.907 2.217c-.638.134-2.116.4-5.575 1.008q-.554.1-.6.1a2.213 2.213 0 0 0-.806.369 3.964 3.964 0 0 0-1.648 2.987 3.7 3.7 0 0 0 1.646 3.023c1.948 1.444 5.676 1.545 6.717 1.545C74.29 86 75.364 86 76.2 86c.772 0 1.343 0 1.713-.034.94.034 3.829 0 4.769 0 1.175.034 5 .034 6.952-1.679a3.6 3.6 0 0 0-.1-5.844 1.953 1.953 0 0 0-.84-.4s-.2-.034-.5-.1c-3.392-.537-4.87-.84-5.541-.974a17.2 17.2 0 0 1-1.041-2.317c-.772-9.37.638-14.509 1.276-16.289 5.138-2.418 8.228-4.534 9.269-6.247 1.78-2.821.604-6.482.268-7.322zm-2.217 6.18c-.739 1.276-3.963 3.325-8.564 5.474a1.37 1.37 0 0 0-.705.739c-.6 1.478-2.452 7.154-1.545 17.8a.677.677 0 0 0 .1.369 13.827 13.827 0 0 0 1.679 3.426l.235.269.336.1c.739.2 2.855.6 6.18 1.142a2.143 2.143 0 0 1 .3.067 1.514 1.514 0 0 1 .6 1.008 1.557 1.557 0 0 1-.638 1.209c-.974.873-3.358 1.175-5.306 1.108h-.06c-1.881.034-4.131.034-4.769 0h-.134a14.79 14.79 0 0 1-1.578.034c-.806 0-1.881 0-3.224-.034h-.067c-1.914 0-4.265-.336-5.273-1.108a1.5 1.5 0 0 1-.705-1.108 1.576 1.576 0 0 1 .672-1.108c.067 0 .2-.034.4-.067 3.459-.6 5.541-.974 6.146-1.142l.269-.067.2-.2a9.318 9.318 0 0 0 1.713-3.526c.034-.1.034-.168.067-.3.91-10.685-.971-16.359-1.537-17.838a1.385 1.385 0 0 0-.739-.772c-4.6-2.149-7.825-4.2-8.564-5.474-1.243-2.116-.134-5.071-.034-5.407L69.386 31.7a.591.591 0 0 0 .034-.2 7.159 7.159 0 0 0-.067-2.385 1.54 1.54 0 0 1 .269-1.142 1.4 1.4 0 0 1 1.075-.537c3.627-.1 10.311-.269 14.374-.067a1.564 1.564 0 0 1 1.108.571 1.293 1.293 0 0 1 .269 1.142 6.193 6.193 0 0 0 0 2.485l3.728 13.9.034.1c.133.333 1.208 3.325-.001 5.407z" data-name="Path 2549" transform="translate(-62.669 -24.918)"/>
    <path id="Path_2550" fill="#ffba00" d="M91.837 65.785c1.276-.6 5.508-2.653 6.348-4.064.974-1.646 0-4.03 0-4.064l-2.755-10.31a4.419 4.419 0 0 1 0-1.881 1.082 1.082 0 0 0-1.008-1.276c-1.612-.067-3.829-.067-5.911-.034-.94 0-1.814.034-2.653.034-.537 0-.571 7.321-1.008 7.321-.2 0-.571-7.288-.739-7.288-.638.034-1.478.6-1.343 1.243a5.177 5.177 0 0 1 .034 1.78c0 .034-.034.1-.034.134l-2.753 10.244s-.974 2.385 0 4.064c.84 1.411 5.071 3.459 6.348 4.064" data-name="Path 2550" transform="translate(-73.902 -37.681)"/>
</svg>
