<svg xmlns="http://www.w3.org/2000/svg" width="28.532" height="60.477" viewBox="0 0 28.532 60.477">
    <g id="thistle">
        <path id="Path_2315" d="M86.59 33.28c-.387-5.445 2.3-17.241 2.91-19.374a4.133 4.133 0 0 0-.275-3.481 2.81 2.81 0 0 0-1.888-1.256A81.993 81.993 0 0 0 75.8 8.352c-7.473 0-10.772.7-11.351.841a2.812 2.812 0 0 0-1.749 1.232 4.131 4.131 0 0 0-.274 3.481c.609 2.134 3.295 13.935 2.909 19.374a16.169 16.169 0 0 0-1.68 2.139 10.424 10.424 0 0 0-1.894 6.961c.407 3.276 2.678 6.034 6.752 8.2 2.587 1.372 3.716 3.459 3.69 4.886l-.066.463-.006.039a10.08 10.08 0 0 1-.671 3.061 6.447 6.447 0 0 1-4.021 2.44 6.543 6.543 0 0 0-2.745 1.107 3.5 3.5 0 0 0-1.448 2.948 2.489 2.489 0 0 0 1.629 2.314 6.326 6.326 0 0 0 1.361.4 27.321 27.321 0 0 0 3.149.367c2.385.17 5.122.213 6.152.229h.855c1.048-.016 3.831-.06 6.246-.229a28.508 28.508 0 0 0 3.211-.366 6.506 6.506 0 0 0 1.375-.391 2.488 2.488 0 0 0 1.656-2.321 3.5 3.5 0 0 0-1.448-2.948 6.617 6.617 0 0 0-2.832-1.117 6.52 6.52 0 0 1-4.14-2.434 10.1 10.1 0 0 1-.671-3.066l-.012-.082c-.022-.155-.041-.295-.057-.386-.028-1.458 1.1-3.544 3.687-4.916 4.073-2.162 6.345-4.919 6.752-8.2a10.42 10.42 0 0 0-1.889-6.958 16.087 16.087 0 0 0-1.68-2.14zm-9.275 22.44c.024.151.052.346.083.572.18 1.3.482 3.486 1.246 4.327a8.86 8.86 0 0 0 5.466 3.21 4.474 4.474 0 0 1 1.872.683 1.08 1.08 0 0 1 .481.986c-.1.179-1.139.774-10.11.914h-.782c-8.8-.137-9.815-.733-9.911-.89a1.085 1.085 0 0 1 .476-1.01 4.389 4.389 0 0 1 1.814-.683 8.784 8.784 0 0 0 5.326-3.21c.764-.84 1.065-3.019 1.245-4.321.032-.227.059-.424.086-.6.137-2.735-1.812-5.584-4.966-7.257-3.335-1.77-5.181-3.908-5.485-6.355-.5-4.032 3.384-7.6 3.423-7.638l.063-.057.012-.084c.805-5.769-2.441-19.431-2.908-21.065-.247-.865-.153-1.286-.03-1.487a.4.4 0 0 1 .26-.2c.03-.008 3.049-.784 10.824-.784a80.552 80.552 0 0 1 11.164.788.4.4 0 0 1 .239.2c.123.2.217.623-.03 1.487-.467 1.633-3.713 15.294-2.908 21.065l.012.084.063.057c.039.036 3.925 3.606 3.423 7.638-.305 2.447-2.151 4.585-5.485 6.355-3.151 1.667-5.1 4.514-4.963 7.275z" data-name="Path 2315" transform="translate(-61.695 -8.352)"/>
        <path id="Path_2316" fill="#ffba00" d="M92.514 52.167c-.16-.153-.613-.658-.618-.887-.175-7.183 2.11-17.423 2.11-17.423a.343.343 0 0 0-.334-.412h-13.36A79.6 79.6 0 0 1 81 41.461c.057 1.67.049 3.188 0 4.583-.551-4.495-1.305-8.728-2.169-12.6h-1.999a.343.343 0 0 0-.333.412S78.783 44.1 78.608 51.28c-.006.229-.458.734-.618.887 0 0-7.441 7.144 2.056 12.5a13.1 13.1 0 0 1 3.738 3.9h2.935a13.1 13.1 0 0 1 3.738-3.9c9.498-5.356 2.057-12.5 2.057-12.5z" data-name="Path 2316" transform="translate(-70.986 -25.592)"/>
    </g>
</svg>
