<svg xmlns="http://www.w3.org/2000/svg" id="tulip" width="27.194" height="44.524" viewBox="0 0 27.194 44.524">
    <path id="Path_2317" d="M89.344 77.4a6.366 6.366 0 0 0-3.04-1.088 6.24 6.24 0 0 1-4.337-2.387 2.852 2.852 0 0 1-.735-2.471c4.508-1.259 7.437-3.3 8.938-6.239 2.48-4.844.187-10.58-1.654-15.188-.213-.534-.415-1.038-.6-1.53a6.815 6.815 0 0 1-.078-4.5 2.411 2.411 0 0 0 .5-2.57 2.672 2.672 0 0 0-2.223-1.553 53.176 53.176 0 0 0-8.755-.554 48.7 48.7 0 0 0-8.148.554 2.672 2.672 0 0 0-2.223 1.553 2.409 2.409 0 0 0 .5 2.57 6.816 6.816 0 0 1-.078 4.5c-.19.492-.392 1-.605 1.53-1.842 4.609-4.134 10.345-1.654 15.188 1.5 2.934 4.43 4.98 8.939 6.239a2.853 2.853 0 0 1-.736 2.471 6.24 6.24 0 0 1-4.336 2.387 6.357 6.357 0 0 0-3.04 1.088 3.007 3.007 0 0 0-1.049 2.764c0 .132.01.256.01.382a2.492 2.492 0 0 0 1.613 2.284 6.394 6.394 0 0 0 1.374.4 27.835 27.835 0 0 0 3.213.375c1.4.1 2.936.157 4.181.191v.044l2.144.006H80v-.05c1.246-.033 2.777-.091 4.181-.191a27.835 27.835 0 0 0 3.213-.375 6.422 6.422 0 0 0 1.374-.4 2.492 2.492 0 0 0 1.613-2.284c0-.126.005-.25.009-.382a3.006 3.006 0 0 0-1.046-2.764zm-11.485 4.3h-.4v-.006c-2.619-.042-10.381-.186-10.381-1.151 0-.715-.11-1.214.178-1.429 1.712-1.278 4.108.179 7.68-3.751 1.925-2.119 1.514-5.012.45-5.786-13.814-3.446-8.663-13.368-5.981-20.311 1.058-2.739.433-5.941-.311-6.686-.447-.447.274-.581.4-.581a44.585 44.585 0 0 1 7.859-.536 48.4 48.4 0 0 1 8.469.537c.127 0 .847.134.4.581-.745.745-1.37 3.946-.311 6.686 2.681 6.943 7.833 16.865-5.981 20.311-1.063.774-1.476 3.667.45 5.786 3.572 3.93 5.967 2.472 7.68 3.751.289.215.178.714.178 1.429 0 .965-7.762 1.109-10.381 1.151v.005z" data-name="Path 2317" transform="translate(-64.062 -39.319)"/>
    <path id="Path_2318" fill="#ffba00" d="M93.969 85.02a.829.829 0 0 0-.689-.4H79.528a22.368 22.368 0 0 0-1.854 7.146 13.6 13.6 0 0 1-.191-1.606 15.183 15.183 0 0 1 .689-5.54h-1.566a.829.829 0 0 0-.688.4s-5 10.2 4.752 13.777a13.4 13.4 0 0 0 3.558.892c.324.024.974.036 1.3.017a13.078 13.078 0 0 0 3.69-.909c9.751-3.579 4.751-13.777 4.751-13.777z" data-name="Path 2318" transform="translate(-71.328 -70.444)"/>
</svg>
