<svg xmlns="http://www.w3.org/2000/svg" width="30.182" height="50.435" viewBox="0 0 30.182 50.435">
    <g id="tumbler">
        <path id="Path_2319" d="M60.027 45.714l4.283 42.575a3.394 3.394 0 0 0 3.346 3.026h14.892a3.394 3.394 0 0 0 3.345-3.026l4.282-42.573a3.306 3.306 0 0 0-.293-1.721v-.09c.094-2.046-8.827-3.257-16.177-2.985-8.449.313-12.2.939-13.549 2.985-.08.121.007.289.018.433a3.357 3.357 0 0 0-.147 1.376zm3.147-1.314a54.141 54.141 0 0 1 11.676-1 86.058 86.058 0 0 1 12.165 1.061.94.94 0 0 1 .767 1L83.5 88.047a.98.98 0 0 1-.952.861H67.655a.981.981 0 0 1-.953-.861L62.42 45.474a1.03 1.03 0 0 1 .754-1.074z" data-name="Path 2319" transform="translate(-60.01 -40.88)"/>
        <path id="Path_2320" fill="#ffba00" d="M78.24 107.315h13.186a.841.841 0 0 0 .817-.74l3.245-32.7a.662.662 0 0 0-.671-.74H79.455l.345 21.551h-1l-1.78-21.553h-2.172a.662.662 0 0 0-.671.74l3.245 32.7a.842.842 0 0 0 .818.742z" data-name="Path 2320" transform="translate(-69.742 -63.041)"/>
    </g>
</svg>
