<svg xmlns="http://www.w3.org/2000/svg" width="23.281" height="57.829" viewBox="0 0 23.281 57.829">
    <g id="weizen">
        <path id="Path_2321" d="M98.933 24.874a47.939 47.939 0 0 0-1.062-10.347c-.534-1.628-2.369-1.923-4.364-2.1-1.5-.134-3.3-.162-4.544-.162-.771 0-1.4.011-1.7.017-.324-.007-.952-.017-1.723-.017-1.247 0-3.047.028-4.544.162-1.995.178-3.83.473-4.364 2.1-.488 1.484-2.795 16.17 2.093 29.916a28.165 28.165 0 0 1 1.64 14.117 15.263 15.263 0 0 1-1.483 4.645 3.64 3.64 0 0 0-1.015 3.736c.772 2.124 3.588 3.1 9.148 3.15h.49c5.541-.054 8.356-1.026 9.129-3.15a3.562 3.562 0 0 0-1-3.721 15.466 15.466 0 0 1-1.4-4.636 28.991 28.991 0 0 1 1.734-14.142 57.5 57.5 0 0 0 2.965-19.568zm-5.3 39.841l.038.061.054.046c.008.007.787.706.581 1.274-.159.438-1.143 1.464-6.821 1.52h-.465c-5.678-.056-6.665-1.08-6.826-1.519-.209-.571.574-1.27.58-1.276l.051-.044.037-.056c.2-.311 4.933-7.779.192-21.11-4.577-12.871-2.51-26.826-2.087-28.272.286-.231 1.959-.6 6.57-.6.767 0 1.385.011 1.724.018.318-.007.936-.018 1.7-.018 4.611 0 6.285.371 6.57.6.494 1.636 2.647 15.5-1.9 28.272-4.731 13.328-.194 20.789.001 21.104z" data-name="Path 2321" transform="translate(-75.658 -12.263)"/>
        <path id="Path_2322" fill="#ffba00" d="M102.112 40.378h-9.69a71.447 71.447 0 0 0-.467 18.5c-.248-.93-.483-1.945-.695-3.069a52.048 52.048 0 0 1-.568-15.434h-1.4a1.17 1.17 0 0 0-1.132 1.008s-1.3 11.261 2.521 21.861a31.622 31.622 0 0 1 1.3 13.606.85.85 0 0 0 .865 1h5.77a.863.863 0 0 0 .878-1.005 32.474 32.474 0 0 1 1.387-13.605c3.823-10.6 2.378-21.863 2.378-21.863a1.188 1.188 0 0 0-1.147-.999z" data-name="Path 2322" transform="translate(-84.102 -31.58)"/>
    </g>
</svg>
