<svg xmlns="http://www.w3.org/2000/svg" width="27.32" height="54.516" viewBox="0 0 27.32 54.516">
    <g id="willi">
        <path id="Path_2323" d="M91.739 19.3c-.613-.051-6.371-.52-10.564-.52-4.259 0-9.472.465-10.08.521a2.714 2.714 0 0 0-2.524 2.442v.062l-.778 13.172a10.84 10.84 0 0 0 .024 1.425l3.158 33.57v.03a3.1 3.1 0 0 0 2.367 2.757 55.454 55.454 0 0 0 8.179.538 60.384 60.384 0 0 0 7.981-.537 3.094 3.094 0 0 0 2.371-2.764c.131-1.234 3.223-30.319 3.223-34.34 0-4.17-.788-13.507-.821-13.9a2.709 2.709 0 0 0-2.536-2.456zm-2.525 51.41a58.377 58.377 0 0 1-7.7.517 53.312 53.312 0 0 1-7.888-.517c-.3-.043-.571-.631-.6-.936l-3.158-33.568a8.848 8.848 0 0 1-.018-1.112l.778-13.172a.635.635 0 0 1 .607-.564s5.552-.517 9.941-.517c4.3 0 10.436.517 10.436.517a.631.631 0 0 1 .6.564s.814 9.6.814 13.728c0 3.958-3.212 34.123-3.212 34.123-.029.306-.295.895-.6.937z" data-name="Path 2323" transform="translate(-67.775 -18.776)"/>
        <path id="Path_2324" fill="#ffba00" d="M81.883 49.669l-.64 6.487a7.174 7.174 0 0 0 .015.91l.883 13.534h-.488l-1.56-13.7a7.072 7.072 0 0 1-.015-.9l.63-6.328h-2.15l-.457 7.67a7.684 7.684 0 0 0 .017.99l2.841 29.889c.03.272.27.8.543.833a48.405 48.405 0 0 0 7.1.46 53.109 53.109 0 0 0 6.924-.46c.273-.038.513-.562.542-.834 0 0 2.889-26.859 2.889-30.383 0-2-.217-5.442-.414-8.165z" data-name="Path 2324" transform="translate(-74.864 -40.002)"/>
    </g>
</svg>
