<svg xmlns="http://www.w3.org/2000/svg" width="38.778" height="56.944" viewBox="0 0 38.778 56.944">
    <g id="wine">
        <path id="Path_2325" d="M87.17 19.795l-.961-.159a98.208 98.208 0 0 0-14.37-1.12 108.531 108.531 0 0 0-14.127 1.114l-.983.148-.536.838c-.23.36-5.6 8.9-2.865 17.006 1.555 4.606 5.33 8.037 11.219 10.2a6.182 6.182 0 0 1 3.293 2.331c.217 1.7.5 5.277.624 9.234.167 5.443-.1 7.274-.2 7.741-1.116.948-3.383 1.225-5.048 1.428a7.486 7.486 0 0 0-3.635.992 2.782 2.782 0 0 0-1.006 2.487v.234a2.412 2.412 0 0 0 1.993 2.331 10.148 10.148 0 0 0 1.343.256c.841.113 2.006.216 3.463.305 1.242.075 2.671.141 4.251.194v.1l2.315-.036 2.323.043v-.105c1.58-.053 3.008-.118 4.251-.194 1.456-.089 2.621-.192 3.462-.305a10.116 10.116 0 0 0 1.344-.258 2.411 2.411 0 0 0 1.98-2.334c0-.082 0-.158.006-.232a2.79 2.79 0 0 0-1.006-2.49 7.477 7.477 0 0 0-3.635-.993c-1.665-.2-3.932-.48-5.047-1.428-.1-.467-.364-2.3-.2-7.741.122-3.966.407-7.544.624-9.234a6.18 6.18 0 0 1 3.294-2.33c5.89-2.16 9.665-5.591 11.219-10.2 2.731-8.095-2.635-16.646-2.865-17.006zM73.622 49.429c-.489 3.356-1.39 17.715-.065 19.173 1.637 1.8 4.625 2.165 6.806 2.432a7.486 7.486 0 0 1 2.433.5 1.45 1.45 0 0 1 .013.4c0 .065-.005.133-.007.2-.786.36-5.981.672-10.734.77h-.25c-4.753-.1-9.949-.411-10.734-.77 0-.072 0-.14-.007-.2a2.06 2.06 0 0 1 0-.392 7.281 7.281 0 0 1 2.444-.515c2.182-.266 5.169-.631 6.806-2.432 1.323-1.456.425-15.816-.064-19.173l-.026-.088c-.544-1.157-1.824-2.768-4.831-3.87-5.14-1.879-8.406-4.788-9.706-8.639-1.227-3.632-.459-7.471.4-10.052a24.676 24.676 0 0 1 2.128-4.692 108.625 108.625 0 0 1 13.612-1.066 97.357 97.357 0 0 1 13.821 1.064 24.676 24.676 0 0 1 2.129 4.694c.86 2.581 1.627 6.42.4 10.052-1.3 3.851-4.568 6.76-9.71 8.646-3.009 1.1-4.288 2.714-4.831 3.871z" data-name="Path 2325" transform="translate(-52.555 -18.516)"/>
        <path id="Path_2326" fill="#ffba00" d="M95.177 52.474l-.083-.8a.891.891 0 0 0-.865-.78H68.491a28.843 28.843 0 0 0 .118 10.217 18.242 18.242 0 0 1-.763-1.9 20.151 20.151 0 0 1-1-8.315h-2.383a.891.891 0 0 0-.865.78l-.039.384h-.008c-.885 5.068.245 11.452 9.59 14.879a28.1 28.1 0 0 0 4.882 1.593h2.614a33.772 33.772 0 0 0 4.882-1.593c9.091-3.339 10.407-9.468 9.658-14.465z" data-name="Path 2326" transform="translate(-59.941 -40.761)"/>
    </g>
</svg>
