<svg xmlns="http://www.w3.org/2000/svg" width="39.649" height="66.357" viewBox="0 0 39.649 66.357">
    <path id="yardtube" fill="#ffba00" stroke="#000" stroke-width="0.8px" d="M99.124 47.677V46.8H80.552a85.71 85.71 0 0 1 4.332-14.5c.5-1.343.94-2.485 1.243-3.493a29.718 29.718 0 0 0 1.377-12.7 1.192 1.192 0 0 0-1.176-1.007H63.39a1.219 1.219 0 0 0-1.175 1.008 29.717 29.717 0 0 0 1.377 12.7c.336 1.008.772 2.149 1.243 3.493A85.711 85.711 0 0 1 69.166 46.8a3.2 3.2 0 0 0-1.478.47l-.3.269a3.425 3.425 0 0 0-.94 2.586H69.7v.134a44.916 44.916 0 0 1 .235 8.195c-.134 2.284-1.243 4.1-2.418 6.012a17.094 17.094 0 0 0-2.754 6.583 7.989 7.989 0 0 0 1.78 6.28h-3.355a2.686 2.686 0 0 0-2.317 1.243.185.185 0 0 0-.1.168 3.758 3.758 0 0 0-.47 1.914H99.09V77.3h-2.955V50.062h2.989v-2.284c.034 0 .034-.067 0-.101zM67.051 31.489c-.5-1.31-.907-2.418-1.209-3.392a28.244 28.244 0 0 1-1.377-10.579h20.822A28.18 28.18 0 0 1 83.91 28.1c-.3.974-.739 2.082-1.243 3.392A85.6 85.6 0 0 0 78.2 46.6v.2h-.974a86.084 86.084 0 0 1 4.635-15.919c.47-1.31.907-2.418 1.209-3.392.168-.537.336-1.075.47-1.646a.833.833 0 0 0-.806-1.041H72.122l-.336 9.135-.672-8.833-.134-.3h-3.8a.833.833 0 0 0-.806 1.041c.134.571.3 1.108.47 1.646.3.94.739 2.082 1.209 3.358a83.558 83.558 0 0 1 4.64 15.921h-1.176v-.2a83.22 83.22 0 0 0-4.466-15.081zm.067 39.932a15.611 15.611 0 0 1 2.418-5.709c1.243-2.082 2.552-4.232 2.754-7.086a48.269 48.269 0 0 0-.235-8.5H73.2a46.619 46.619 0 0 1 .2 8.43c-.2 3.123-1.578 5.407-2.888 7.59a14.464 14.464 0 0 0-2.317 5.34 4.682 4.682 0 0 0 1.108 3.8 6.915 6.915 0 0 0 3.8 2.082H69.8a.335.335 0 0 0-.134-.168l-.5-.5a.59.59 0 0 0-.166-.14c-.034-.034-.067-.067-.067-.1a5.779 5.779 0 0 1-1.815-5.038zm13.635 5.1a2.353 2.353 0 0 0-.269.336l-.1.1-.437.437H76.79a6.714 6.714 0 0 0 3.8-2.082 4.6 4.6 0 0 0 1.108-3.8 13.931 13.931 0 0 0-2.317-5.34c-1.343-2.183-2.687-4.467-2.888-7.59a53.462 53.462 0 0 1 .2-8.43h.94a48.269 48.269 0 0 0-.235 8.5c.168 2.855 1.478 5 2.754 7.086a14.143 14.143 0 0 1 2.418 5.709 5.609 5.609 0 0 1-1.817 5.08zm7.422.84h-5.037a8.043 8.043 0 0 0 1.78-6.28 17.033 17.033 0 0 0-2.754-6.616 13.249 13.249 0 0 1-2.418-6.012 44.917 44.917 0 0 1 .235-8.195v-.134h8.161v27.242z" transform="translate(-59.9 -14.7)"/>
</svg>
